<svg width="24" height="24" viewBox="0 0 24 24" fill="none" xmlns="http://www.w3.org/2000/svg">
<path d="M21.0001 12.5499C21.0001 11.8699 20.94 11.2192 20.8284 10.5935H12.1924V14.1782L17.166 14.1793C16.9643 15.372 16.3151 16.3888 15.3204 17.0666V19.3923H18.2809C20.0097 17.7727 21.0001 15.3785 21.0001 12.5499Z" fill="#4285F4"/>
<path d="M15.3213 17.0669C14.4972 17.6296 13.4359 17.9587 12.1944 17.9587C9.79608 17.9587 7.76155 16.3228 7.03294 14.1177H3.979V16.5162C5.49202 19.5555 8.60176 21.6412 12.1944 21.6412C14.6774 21.6412 16.7635 20.8145 18.2819 19.3915L15.3213 17.0669Z" fill="#34A853"/>
<path d="M6.74392 12.3373C6.74392 11.7182 6.84586 11.1196 7.0315 10.5569V8.15845H3.97756C3.35196 9.41526 3 10.8339 3 12.3373C3 13.8407 3.35304 15.2594 3.97756 16.5162L7.0315 14.1177C6.84586 13.555 6.74392 12.9565 6.74392 12.3373Z" fill="#FABB05"/>
<path d="M12.1944 6.71615C13.5497 6.71615 14.7633 7.18868 15.7215 8.11201L18.3452 5.45825C16.7517 3.95594 14.6742 3.03369 12.1944 3.03369C8.60283 3.03369 5.49202 5.11933 3.979 8.15872L7.03294 10.5572C7.76155 8.35207 9.79608 6.71615 12.1944 6.71615Z" fill="#E94235"/>
</svg>
