<svg width="24" height="24" viewBox="0 0 24 24" fill="none" xmlns="http://www.w3.org/2000/svg">
<path d="M11.8736 2.12527L10.4065 8.98461H8.6318L10.0991 2.12527H11.8736ZM19.3394 6.55443L20.2734 3.97861L20.8109 6.55443H19.3394ZM21.32 8.98461H22.9609L21.5274 2.12527H20.0138C19.6727 2.12527 19.3851 2.32306 19.2578 2.62806L16.5951 8.98461H18.4588L18.8288 7.9602H21.1051L21.32 8.98461ZM16.6875 6.74527C16.6953 4.93498 14.185 4.83469 14.2018 4.02582C14.2072 3.78005 14.4417 3.51825 14.9542 3.45129C15.2083 3.41858 15.9095 3.39205 16.7044 3.7583L17.0152 2.30316C16.5883 2.14872 16.039 2 15.3554 2C13.6011 2 12.367 2.93184 12.3571 4.26726C12.3459 5.25479 13.2387 5.80541 13.9099 6.13433C14.602 6.4705 14.8339 6.68602 14.8305 6.9864C14.8257 7.44661 14.2787 7.65041 13.7692 7.65813C12.8766 7.67201 12.3591 7.41684 11.9468 7.22461L11.6246 8.72835C12.0399 8.91842 12.8052 9.08381 13.5975 9.09229C15.4626 9.09229 16.682 8.17141 16.6875 6.74527ZM9.33793 2.12527L6.46266 8.98461H4.58711L3.17207 3.51038C3.08629 3.17374 3.01147 3.05001 2.75059 2.90777C2.32386 2.67604 1.61942 2.45928 1 2.32445L1.04196 2.12527H4.06148C4.4461 2.12527 4.79214 2.38122 4.88023 2.8243L5.62771 6.79386L7.47364 2.12527H9.33793Z" fill="#1434CB"/>
<path d="M14.1711 12.7458H9.79004V20.6187H14.1711V12.7458Z" fill="#FF5F00"/>
<path d="M10.0681 16.6829C10.0674 15.9247 10.2392 15.1763 10.5705 14.4943C10.9019 13.8123 11.384 13.2146 11.9804 12.7465C11.2418 12.1659 10.3548 11.8049 9.42063 11.7046C8.48652 11.6044 7.54304 11.7689 6.69803 12.1795C5.85303 12.5901 5.14059 13.2302 4.64215 14.0266C4.14372 14.8229 3.87939 15.7435 3.87939 16.6829C3.87939 17.6224 4.14372 18.543 4.64215 19.3393C5.14059 20.1357 5.85303 20.7757 6.69803 21.1863C7.54304 21.5969 8.48652 21.7615 9.42063 21.6613C10.3548 21.561 11.2418 21.2 11.9804 20.6194C11.384 20.1513 10.9019 19.5536 10.5705 18.8716C10.2392 18.1896 10.0674 17.4412 10.0681 16.6829Z" fill="#EB001B"/>
<path d="M20.0815 16.6829C20.0815 17.6224 19.8172 18.5429 19.3188 19.3393C18.8204 20.1357 18.108 20.7757 17.263 21.1863C16.418 21.5969 15.4746 21.7615 14.5405 21.6613C13.6064 21.561 12.7193 21.1999 11.9807 20.6194C12.5766 20.1508 13.0584 19.553 13.3897 18.8711C13.7209 18.1892 13.893 17.441 13.893 16.6829C13.893 15.9248 13.7209 15.1766 13.3897 14.4948C13.0584 13.8129 12.5766 13.2151 11.9807 12.7465C12.7193 12.1659 13.6064 11.8049 14.5405 11.7046C15.4746 11.6044 16.418 11.7689 17.263 12.1795C18.108 12.5902 18.8204 13.2302 19.3188 14.0266C19.8172 14.8229 20.0815 15.7435 20.0815 16.6829Z" fill="#F79E1B"/>
</svg>
