<svg width="24" height="24" viewBox="0 0 24 24" fill="none" xmlns="http://www.w3.org/2000/svg">
<path d="M10.7332 19.79C10.8782 19.9213 11.0688 19.9907 11.2643 19.9834C11.4598 19.9761 11.6447 19.8927 11.7795 19.7511C11.9144 19.6094 11.9886 19.4206 11.9863 19.225C11.984 19.0294 11.9054 18.8425 11.7672 18.704L5.51615 12.75H20.2502C20.4491 12.75 20.6398 12.671 20.7805 12.5303C20.9211 12.3897 21.0002 12.1989 21.0002 12C21.0002 11.8011 20.9211 11.6103 20.7805 11.4697C20.6398 11.329 20.4491 11.25 20.2502 11.25H5.51615L11.7672 5.29502C11.9054 5.15658 11.984 4.96962 11.9863 4.77402C11.9886 4.57841 11.9144 4.38964 11.7795 4.24797C11.6447 4.1063 11.4598 4.02293 11.2643 4.01566C11.0688 4.00838 10.8782 4.07777 10.7332 4.20902L3.31315 11.276C3.15107 11.4303 3.04543 11.6346 3.01315 11.856C2.99594 11.9516 2.99628 12.0495 3.01415 12.145C3.04665 12.3661 3.15226 12.57 3.31415 12.724L10.7332 19.79Z" fill="black"/>
</svg>
