<svg width="24" height="24" viewBox="0 0 24 24" fill="none" xmlns="http://www.w3.org/2000/svg">
<path d="M17.7549 14C18.3513 14.0005 18.9231 14.2378 19.3446 14.6597C19.7661 15.0816 20.0029 15.6536 20.0029 16.25V16.825C20.0029 17.719 19.6829 18.584 19.1029 19.263C17.5329 21.096 15.1459 22.001 11.9999 22.001C8.85391 22.001 6.46791 21.096 4.90191 19.261C4.32251 18.5824 4.00411 17.7193 4.00391 16.827V16.249C4.00417 15.6526 4.2412 15.0807 4.66292 14.659C5.08463 14.2373 5.65652 14.0003 6.25291 14H17.7549ZM17.7549 15.5H6.25191C6.05299 15.5 5.86223 15.579 5.72158 15.7197C5.58092 15.8603 5.50191 16.0511 5.50191 16.25V16.827C5.50191 17.362 5.69391 17.88 6.04191 18.287C7.29491 19.756 9.26191 20.501 11.9989 20.501C14.7379 20.501 16.7049 19.756 17.9619 18.288C18.3106 17.8803 18.5021 17.3615 18.5019 16.825V16.249C18.5016 16.0506 18.4228 15.8604 18.2826 15.72C18.1424 15.5796 17.9533 15.5005 17.7549 15.5ZM11.9999 2.005C12.6565 2.005 13.3067 2.13433 13.9133 2.38561C14.52 2.63688 15.0711 3.00518 15.5354 3.46947C15.9997 3.93376 16.368 4.48496 16.6193 5.09159C16.8706 5.69822 16.9999 6.3484 16.9999 7.005C16.9999 7.66161 16.8706 8.31179 16.6193 8.91842C16.368 9.52505 15.9997 10.0762 15.5354 10.5405C15.0711 11.0048 14.52 11.3731 13.9133 11.6244C13.3067 11.8757 12.6565 12.005 11.9999 12.005C10.6738 12.005 9.40205 11.4782 8.46437 10.5405C7.52669 9.60286 6.99991 8.33109 6.99991 7.005C6.99991 5.67892 7.52669 4.40715 8.46437 3.46947C9.40205 2.53179 10.6738 2.005 11.9999 2.005ZM11.9999 3.505C11.5403 3.505 11.0852 3.59554 10.6605 3.77143C10.2359 3.94732 9.85004 4.20513 9.52503 4.53013C9.20003 4.85514 8.94222 5.24097 8.76633 5.66561C8.59044 6.09025 8.49991 6.54538 8.49991 7.005C8.49991 7.46463 8.59044 7.91976 8.76633 8.3444C8.94222 8.76904 9.20003 9.15487 9.52503 9.47988C9.85004 9.80488 10.2359 10.0627 10.6605 10.2386C11.0852 10.4145 11.5403 10.505 11.9999 10.505C12.9282 10.505 13.8184 10.1363 14.4748 9.47988C15.1312 8.8235 15.4999 7.93326 15.4999 7.005C15.4999 6.07675 15.1312 5.18651 14.4748 4.53013C13.8184 3.87375 12.9282 3.505 11.9999 3.505Z" fill="black"/>
</svg>
