<svg width="24" height="24" viewBox="0 0 24 24" fill="none" xmlns="http://www.w3.org/2000/svg">
<path d="M8.09427 3.10879C6.92154 2.8111 5.69242 2.93739 4.72943 3.4764C3.74839 4.02443 3.06054 4.99644 3.02671 6.29659C2.97484 8.32858 3.44506 11.0552 5.31241 14.2554C7.15608 17.4161 9.19145 19.3105 10.8806 20.4359C11.9474 21.1474 13.1257 21.1666 14.1327 20.7032C15.125 20.2465 15.9301 19.3342 16.3485 18.2032C16.4525 17.9219 16.4942 17.6214 16.4708 17.3223C16.4475 17.0233 16.3596 16.7329 16.2132 16.4712L15.3066 14.853C15.1237 14.5264 14.8775 14.2394 14.5825 14.0089C14.2875 13.7784 13.9495 13.609 13.5883 13.5105C13.2271 13.4121 12.8499 13.3865 12.4787 13.4354C12.1075 13.4843 11.7498 13.6067 11.4264 13.7953L10.9336 14.0829C10.5401 14.3118 10.1398 14.2565 9.92102 14.0276C9.18581 13.2597 8.51713 12.1354 8.21492 11.1228C8.13035 10.8398 8.26567 10.4823 8.6344 10.2489L9.52522 9.68286C10.1379 9.29394 10.5769 8.68375 10.7511 7.97929C10.9252 7.27482 10.8209 6.53035 10.46 5.9008L9.44742 4.13493C9.30216 3.88193 9.10752 3.66071 8.87506 3.48443C8.64261 3.30815 8.37708 3.18041 8.09427 3.10879ZM20.8579 3.14262C20.9636 3.24835 21.0229 3.39174 21.0229 3.54124C21.0229 3.69074 20.9636 3.83412 20.8579 3.93985L15.054 9.74262H19.3311C19.4806 9.74262 19.624 9.80202 19.7297 9.90776C19.8355 10.0135 19.8949 10.1569 19.8949 10.3064C19.8949 10.456 19.8355 10.5994 19.7297 10.7051C19.624 10.8108 19.4806 10.8702 19.3311 10.8702H13.6929C13.5434 10.8702 13.4 10.8108 13.2943 10.7051C13.1885 10.5994 13.1291 10.456 13.1291 10.3064V4.6683C13.1291 4.51877 13.1885 4.37536 13.2943 4.26962C13.4 4.16389 13.5434 4.10449 13.6929 4.10449C13.8425 4.10449 13.9859 4.16389 14.0916 4.26962C14.1973 4.37536 14.2567 4.51877 14.2567 4.6683V8.94539L20.0595 3.14262C20.1652 3.03692 20.3086 2.97755 20.4581 2.97755C20.6076 2.97755 20.7521 3.03692 20.8579 3.14262Z" fill="black"/>
</svg>
