<svg width="24" height="24" viewBox="0 0 24 24" fill="none" xmlns="http://www.w3.org/2000/svg">
<path d="M8.38443 2.47925C8.90952 2.32093 9.47301 2.34723 9.98108 2.55377C10.4891 2.76032 10.9111 3.13465 11.1768 3.61445L11.2656 3.79325L12.06 5.55845C12.3006 6.09432 12.3787 6.68905 12.2844 7.26886C12.1901 7.84866 11.9276 8.38803 11.5296 8.82005L11.37 8.97845L10.1184 10.146C9.89283 10.3596 10.062 11.1864 10.878 12.6C11.6124 13.872 12.21 14.466 12.504 14.4984H12.5556L12.6192 14.4864L15.0792 13.734C15.4098 13.6327 15.7627 13.6286 16.0955 13.7225C16.4283 13.8163 16.7271 14.0041 16.956 14.2632L17.0652 14.4012L18.6936 16.6572C19.0128 17.0994 19.1718 17.6371 19.1445 18.1818C19.1173 18.7264 18.9053 19.2455 18.5436 19.6536L18.3972 19.8048L17.7468 20.4216C17.1628 20.9748 16.4322 21.3485 15.6419 21.4985C14.8516 21.6485 14.0349 21.5683 13.2888 21.2676C10.9668 20.3316 8.85723 18.1932 6.94083 14.874C5.02083 11.5464 4.22283 8.64605 4.57923 6.16205C4.68707 5.41117 4.99627 4.70351 5.47399 4.11424C5.9517 3.52497 6.58009 3.07608 7.29243 2.81525L7.52403 2.73845L8.38443 2.47925Z" fill="black"/>
</svg>
