<svg width="24" height="24" viewBox="0 0 24 24" fill="none" xmlns="http://www.w3.org/2000/svg">
<path d="M8.09415 3.10855C6.92139 2.81085 5.69224 2.93715 4.72923 3.47617C3.74817 4.02421 3.0603 4.99625 3.02647 6.29643C2.9746 8.32846 3.44483 11.0551 5.31222 14.2554C7.15594 17.4162 9.19135 19.3107 10.8806 20.4361C11.9473 21.1476 13.1257 21.1668 14.1327 20.7033C15.1251 20.2466 15.9302 19.3344 16.3486 18.2033C16.4526 17.922 16.4943 17.6215 16.4709 17.3225C16.4476 17.0234 16.3597 16.733 16.2133 16.4713L15.3066 14.8531C15.1237 14.5264 14.8775 14.2394 14.5825 14.0089C14.2875 13.7784 13.9495 13.609 13.5883 13.5105C13.2271 13.4121 12.8499 13.3865 12.4787 13.4354C12.1075 13.4843 11.7498 13.6067 11.4264 13.7953L10.9336 14.0829C10.54 14.3118 10.1397 14.2565 9.92095 14.0276C9.18572 13.2597 8.51702 12.1354 8.21481 11.1228C8.13023 10.8398 8.26555 10.4823 8.63429 10.2489L9.52514 9.68278C10.1378 9.29385 10.5769 8.68365 10.751 7.97917C10.9251 7.27468 10.8209 6.53019 10.46 5.90063L9.44733 4.13472C9.30207 3.88171 9.10743 3.66048 8.87496 3.4842C8.6425 3.30792 8.37697 3.18017 8.09415 3.10855ZM13.2938 10.7056C13.1881 10.5998 13.1287 10.4564 13.1287 10.3069C13.1287 10.1574 13.1881 10.014 13.2938 9.90831L19.0978 4.10427H14.8206C14.6711 4.10427 14.5277 4.04487 14.4219 3.93913C14.3162 3.83339 14.2568 3.68998 14.2568 3.54044C14.2568 3.39091 14.3162 3.2475 14.4219 3.14176C14.5277 3.03602 14.6711 2.97662 14.8206 2.97662H20.4589C20.6084 2.97662 20.7518 3.03602 20.8576 3.14176C20.9633 3.2475 21.0227 3.39091 21.0227 3.54044V9.17872C21.0227 9.32825 20.9633 9.47166 20.8576 9.5774C20.7518 9.68314 20.6084 9.74254 20.4589 9.74254C20.3093 9.74254 20.1659 9.68314 20.0602 9.5774C19.9545 9.47166 19.8951 9.32825 19.8951 9.17872V4.90152L14.0921 10.7056C14.0398 10.7581 13.9775 10.7997 13.909 10.8282C13.8405 10.8566 13.7671 10.8712 13.693 10.8712C13.6188 10.8712 13.5454 10.8566 13.4769 10.8282C13.4084 10.7997 13.3461 10.7581 13.2938 10.7056Z" fill="black"/>
</svg>
