<svg width="24" height="24" viewBox="0 0 24 24" fill="none" xmlns="http://www.w3.org/2000/svg">
<path d="M16.3477 3.39318C16.406 3.22151 16.3898 3.03521 16.3027 2.87462C16.2156 2.71402 16.0646 2.59206 15.8823 2.53512C15.7 2.47818 15.5012 2.49085 15.3288 2.57039C15.1564 2.64993 15.0243 2.78994 14.9612 2.9601L14.2304 5.01495C14.1721 5.18663 14.1883 5.37292 14.2754 5.53351C14.3625 5.69411 14.5135 5.81607 14.6958 5.87301C14.8781 5.92995 15.077 5.91728 15.2493 5.83774C15.4217 5.7582 15.5538 5.6182 15.6169 5.44803L16.3477 3.39318ZM20.7985 3.37765C20.9353 3.50613 21.0122 3.6803 21.0122 3.8619C21.0122 4.04349 20.9353 4.21766 20.7985 4.34614L18.3626 6.63032C18.2957 6.69765 18.215 6.75165 18.1254 6.7891C18.0358 6.82656 17.939 6.8467 17.8409 6.84832C17.7428 6.84994 17.6453 6.83302 17.5543 6.79855C17.4633 6.76409 17.3807 6.71279 17.3113 6.64772C17.2419 6.58265 17.1872 6.50514 17.1504 6.41981C17.1137 6.33449 17.0956 6.24309 17.0973 6.15108C17.0991 6.05907 17.1206 5.96833 17.1605 5.88428C17.2004 5.80022 17.258 5.72457 17.3298 5.66183L19.7657 3.37765C19.9027 3.24932 20.0884 3.17724 20.2821 3.17724C20.4757 3.17724 20.6615 3.24932 20.7985 3.37765ZM8.42044 5.29453C8.58031 4.98324 8.81874 4.71321 9.11506 4.50785C9.41138 4.3025 9.75665 4.16803 10.1209 4.11609C10.4852 4.06416 10.8575 4.09633 11.2055 4.20981C11.5535 4.3233 11.8668 4.51467 12.1181 4.76735L18.9443 11.6254C19.1908 11.873 19.3705 12.1724 19.4685 12.4985C19.5665 12.8245 19.5799 13.1678 19.5077 13.4997C19.4354 13.8317 19.2795 14.1425 19.053 14.4065C18.8265 14.6704 18.536 14.8797 18.2058 15.0169L14.8735 16.4021C15.2787 17.2861 15.2958 18.2844 14.921 19.1802C14.5462 20.076 13.8097 20.7971 12.8714 21.1868C11.9332 21.5766 10.8689 21.6036 9.9095 21.262C8.95013 20.9204 8.17314 20.2378 7.74717 19.3624L6.36653 19.9361C6.05076 20.0673 5.70072 20.1082 5.36029 20.0536C5.01987 19.999 4.70421 19.8513 4.45292 19.6291L3.05084 18.3893C2.77976 18.1497 2.59709 17.8353 2.52929 17.4918C2.46149 17.1483 2.5121 16.7935 2.67377 16.4788L8.42044 5.29453ZM9.08494 18.8068C9.35999 19.3404 9.84543 19.7529 10.4387 19.9571C11.032 20.1612 11.6867 20.1412 12.2646 19.9012C12.8424 19.6611 13.2982 19.2199 13.5355 18.6706C13.7729 18.1214 13.7733 17.5071 13.5367 16.9576L9.08494 18.8068ZM11.0492 5.70295C10.9601 5.61338 10.849 5.54554 10.7256 5.5053C10.6022 5.46505 10.4702 5.45361 10.3411 5.47197C10.2119 5.49033 10.0895 5.53793 9.98435 5.61065C9.87922 5.68337 9.79458 5.77903 9.73775 5.88934L3.99108 17.0736C3.96396 17.1261 3.95539 17.1853 3.9666 17.2426C3.97781 17.3 4.00823 17.3525 4.05344 17.3925L5.45552 18.6314C5.49737 18.6684 5.54992 18.693 5.60659 18.7021C5.66326 18.7112 5.72154 18.7044 5.77413 18.6826L17.6133 13.7643C17.7306 13.7157 17.8338 13.6415 17.9142 13.5479C17.9946 13.4543 18.0501 13.344 18.0758 13.2262C18.1015 13.1085 18.0969 12.9867 18.0622 12.8709C18.0275 12.7552 17.9638 12.6489 17.8764 12.561L11.0492 5.70295ZM18.0898 8.88618C18.0898 8.70444 18.1668 8.53014 18.3038 8.40163C18.4409 8.27312 18.6268 8.20093 18.8206 8.20093H20.7692C20.9631 8.20093 21.1489 8.27312 21.286 8.40163C21.423 8.53014 21.5 8.70444 21.5 8.88618C21.5 9.06792 21.423 9.24222 21.286 9.37073C21.1489 9.49924 20.9631 9.57144 20.7692 9.57144H18.8206C18.6268 9.57144 18.4409 9.49924 18.3038 9.37073C18.1668 9.24222 18.0898 9.06792 18.0898 8.88618Z" fill="black"/>
</svg>
