<svg width="76" height="44" viewBox="0 0 76 44" fill="none" xmlns="http://www.w3.org/2000/svg">
<path d="M48.5617 15C49.2586 15 49.7418 15.695 49.4991 16.3482C49.3536 16.7401 48.9797 17 48.5617 17H47.7038C47.4812 17 47.2854 17.1471 47.2235 17.361L44.063 28.2781C43.9392 28.7057 43.5476 29 43.1024 29H31.2799C30.8771 29 30.5136 28.7583 30.3578 28.3869L26.5819 19.3869C26.3054 18.7279 26.7894 18 27.504 18H41.491C42.1539 18 42.6334 18.6334 42.4535 19.2714C42.3319 19.7024 41.9388 20 41.491 20H29.76C29.4027 20 29.1607 20.364 29.299 20.6934L31.8164 26.6934C31.8943 26.8792 32.076 27 32.2774 27H41.996C42.2191 27 42.4153 26.8521 42.4767 26.6375L45.5976 15.725C45.7204 15.2958 46.1127 15 46.5591 15H48.5617ZM34.5 30C33.672 30 33 30.672 33 31.5C33 32.329 33.672 33 34.5 33C35.328 33 36 32.329 36 31.5C36 30.672 35.328 30 34.5 30ZM39.5 30C38.672 30 38 30.671 38 31.5C38 32.329 38.672 33 39.5 33C40.328 33 41 32.329 41 31.5C41 30.672 40.328 30 39.5 30Z" fill="black"/>
</svg>
