<svg width="24" height="24" viewBox="0 0 24 24" fill="none" xmlns="http://www.w3.org/2000/svg">
<path d="M8.47015 4.22001C8.3297 4.36064 8.25081 4.55126 8.25081 4.75001C8.25081 4.94876 8.3297 5.13939 8.47015 5.28001L15.1902 12L8.47015 18.72C8.39647 18.7887 8.33736 18.8715 8.29637 18.9635C8.25538 19.0555 8.23334 19.1548 8.23156 19.2555C8.22979 19.3562 8.24831 19.4562 8.28603 19.5496C8.32375 19.643 8.3799 19.7278 8.45112 19.799C8.52233 19.8703 8.60717 19.9264 8.70056 19.9641C8.79394 20.0019 8.89397 20.0204 8.99468 20.0186C9.09538 20.0168 9.19469 19.9948 9.28669 19.9538C9.37869 19.9128 9.46149 19.8537 9.53015 19.78L16.7802 12.53C16.9206 12.3894 16.9995 12.1988 16.9995 12C16.9995 11.8013 16.9206 11.6106 16.7802 11.47L9.53015 4.22001C9.38953 4.07956 9.1989 4.00067 9.00015 4.00067C8.8014 4.00067 8.61078 4.07956 8.47015 4.22001Z" fill="black"/>
</svg>
