<svg width="24" height="24" viewBox="0 0 24 24" fill="none" xmlns="http://www.w3.org/2000/svg">
<path d="M15.5301 4.22001C15.6705 4.36064 15.7494 4.55126 15.7494 4.75001C15.7494 4.94876 15.6705 5.13939 15.5301 5.28001L8.81007 12L15.5301 18.72C15.6038 18.7887 15.6629 18.8715 15.7039 18.9635C15.7448 19.0555 15.7669 19.1548 15.7687 19.2555C15.7704 19.3562 15.7519 19.4562 15.7142 19.5496C15.6765 19.643 15.6203 19.7278 15.5491 19.799C15.4779 19.8703 15.3931 19.9264 15.2997 19.9641C15.2063 20.0019 15.1063 20.0204 15.0056 20.0186C14.9048 20.0168 14.8055 19.9948 14.7135 19.9538C14.6215 19.9128 14.5387 19.8537 14.4701 19.78L7.22007 12.53C7.07962 12.3894 7.00073 12.1988 7.00073 12C7.00073 11.8013 7.07962 11.6106 7.22007 11.47L14.4701 4.22001C14.6107 4.07956 14.8013 4.00067 15.0001 4.00067C15.1988 4.00067 15.3894 4.07956 15.5301 4.22001Z" fill="black"/>
</svg>
