<svg width="24" height="24" viewBox="0 0 24 24" fill="none" xmlns="http://www.w3.org/2000/svg">
<path d="M15.8586 4.43208C15.8003 3.91003 15.5515 3.42781 15.16 3.0776C14.7685 2.72739 14.2616 2.53377 13.7363 2.53375H10.4142C9.88891 2.53377 9.38204 2.72739 8.99051 3.0776C8.59898 3.42781 8.35025 3.91003 8.29188 4.43208H6.61756C6.05115 4.43208 5.50795 4.65709 5.10744 5.05759C4.70694 5.4581 4.48193 6.0013 4.48193 6.56771V19.3814C4.48193 19.9478 4.70694 20.491 5.10744 20.8916C5.50795 21.2921 6.05115 21.5171 6.61756 21.5171H11.127C11.1201 21.3276 11.1402 21.138 11.1868 20.9542L11.4023 20.0933H6.61756C6.42876 20.0933 6.24769 20.0183 6.11418 19.8848C5.98068 19.7513 5.90568 19.5702 5.90568 19.3814V6.56771C5.90568 6.3789 5.98068 6.19784 6.11418 6.06433C6.24769 5.93083 6.42876 5.85583 6.61756 5.85583H8.63833C9.02179 6.42818 9.67387 6.805 10.4142 6.805H13.7363C14.4766 6.805 15.1287 6.42818 15.5122 5.85583H17.533C17.7218 5.85583 17.9028 5.93083 18.0363 6.06433C18.1698 6.19784 18.2448 6.3789 18.2448 6.56771V11.8925C18.6596 11.5129 19.1522 11.2661 19.6686 11.1512V6.56771C19.6686 6.28725 19.6133 6.00954 19.506 5.75044C19.3987 5.49133 19.2414 5.2559 19.0431 5.05759C18.8448 4.85928 18.6093 4.70197 18.3502 4.59465C18.0911 4.48732 17.8134 4.43208 17.533 4.43208H15.8586ZM15.8672 4.5232L15.8719 4.66937C15.8719 4.62002 15.8703 4.57129 15.8672 4.5232ZM10.4142 3.9575H13.7363C13.9251 3.9575 14.1062 4.0325 14.2397 4.166C14.3732 4.29951 14.4482 4.48057 14.4482 4.66937C14.4482 4.85818 14.3732 5.03924 14.2397 5.17275C14.1062 5.30625 13.9251 5.38125 13.7363 5.38125H10.4142C10.2254 5.38125 10.0443 5.30625 9.91085 5.17275C9.77734 5.03924 9.70234 4.85818 9.70234 4.66937C9.70234 4.48057 9.77734 4.29951 9.91085 4.166C10.0443 4.0325 10.2254 3.9575 10.4142 3.9575ZM13.3623 16.7712H8.2786C8.08979 16.7712 7.90873 16.8462 7.77522 16.9797C7.64172 17.1132 7.56672 17.2943 7.56672 17.4831C7.56672 17.6719 7.64172 17.853 7.77522 17.9865C7.90873 18.12 8.08979 18.195 8.2786 18.195H12.0591C12.1971 17.9773 12.3578 17.7764 12.5413 17.5923L13.3623 16.7712ZM12.0753 14.3983H8.2786C8.08979 14.3983 7.90873 14.3233 7.77522 14.1898C7.64172 14.0563 7.56672 13.8752 7.56672 13.6864C7.56672 13.4976 7.64172 13.3166 7.77522 13.1831C7.90873 13.0496 8.08979 12.9746 8.2786 12.9746H12.0753C12.2641 12.9746 12.4451 13.0496 12.5786 13.1831C12.7121 13.3166 12.7871 13.4976 12.7871 13.6864C12.7871 13.8752 12.7121 14.0563 12.5786 14.1898C12.4451 14.3233 12.2641 14.3983 12.0753 14.3983ZM15.8719 10.6017H8.2786C8.08979 10.6017 7.90873 10.5267 7.77522 10.3932C7.64172 10.2597 7.56672 10.0786 7.56672 9.88978C7.56672 9.70098 7.64172 9.51992 7.77522 9.38641C7.90873 9.25291 8.08979 9.17791 8.2786 9.17791H15.8719C16.0607 9.17791 16.2418 9.25291 16.3753 9.38641C16.5088 9.51992 16.5838 9.70098 16.5838 9.88978C16.5838 10.0786 16.5088 10.2597 16.3753 10.3932C16.2418 10.5267 16.0607 10.6017 15.8719 10.6017ZM18.8143 12.6613L13.2114 18.2633C12.8855 18.5903 12.654 18.9992 12.5413 19.4469L12.1066 21.1849C12.0633 21.3578 12.0656 21.5389 12.1133 21.7107C12.1609 21.8825 12.2522 22.039 12.3782 22.1649C12.5043 22.2909 12.6609 22.3821 12.8327 22.4296C13.0045 22.4771 13.1856 22.4792 13.3585 22.4359L15.0955 22.0021C15.5436 21.8893 15.9529 21.6574 16.2801 21.331L21.882 15.7291C22.2732 15.3191 22.4884 14.7724 22.4818 14.2058C22.4751 13.6392 22.2471 13.0976 21.8464 12.697C21.4457 12.2963 20.9042 12.0683 20.3376 12.0616C19.771 12.0549 19.2243 12.2702 18.8143 12.6613Z" fill="black"/>
</svg>
