<svg width="24" height="24" viewBox="0 0 24 24" fill="none" xmlns="http://www.w3.org/2000/svg">
<path d="M14.6473 6.58862C14.6473 6.10527 14.4547 5.64105 14.1129 5.29927C13.7711 4.95765 13.3076 4.76578 12.8244 4.76577H6.57979C6.0966 4.76588 5.63299 4.95762 5.29131 5.29927C4.94952 5.64105 4.75781 6.10527 4.75781 6.58862V19.2334H14.6473V6.58862ZM15.9973 19.2343H20.325C20.6978 19.2343 21 19.5365 21 19.9093C20.9999 20.282 20.6977 20.5843 20.325 20.5843H3.675C3.30226 20.5843 3.00008 20.282 3 19.9093C3 19.6314 3.16786 19.3923 3.40781 19.2888V6.58862C3.40781 5.74722 3.74186 4.93973 4.33682 4.34478C4.93167 3.74995 5.73856 3.41588 6.57979 3.41577H12.8244C13.6657 3.41578 14.4725 3.74998 15.0674 4.34478C15.6623 4.93973 15.9973 5.74722 15.9973 6.58862V19.2343Z" fill="black"/>
<path d="M10.5438 13.4071C11.0533 13.4075 11.5419 13.6096 11.9025 13.9696C12.2633 14.3298 12.4665 14.8186 12.4677 15.3283V19.9092C12.4677 20.282 12.1655 20.5842 11.7927 20.5842H7.6293C7.25664 20.584 6.9543 20.2819 6.9543 19.9092V15.3301C6.9543 14.8202 7.15719 14.3311 7.51768 13.9704C7.87836 13.6097 8.36813 13.4071 8.87822 13.4071H10.5438ZM18.8099 19.9092V11.9999C18.8099 11.7605 18.7627 11.5233 18.671 11.3021C18.5793 11.081 18.4456 10.8797 18.2764 10.7106C18.107 10.5413 17.9053 10.4075 17.684 10.3159C17.5181 10.2474 17.3434 10.2033 17.1654 10.1859L16.9861 10.1771H15.3206C14.948 10.1769 14.6456 9.87474 14.6456 9.50207C14.6458 9.12961 14.9481 8.82728 15.3206 8.82708H16.9861C17.4027 8.82686 17.815 8.9096 18.1999 9.06877C18.585 9.22806 18.9352 9.46148 19.23 9.75608C19.5248 10.0506 19.7586 10.4003 19.9182 10.7853C20.0777 11.1703 20.1599 11.5831 20.1599 11.9999V19.9092C20.1599 20.282 19.8577 20.5842 19.4849 20.5842C19.1123 20.584 18.8099 20.2819 18.8099 19.9092ZM12.1996 10.0769C12.5724 10.0769 12.8746 10.3791 12.8746 10.7519C12.8745 11.1246 12.5723 11.4269 12.1996 11.4269H7.20479C6.83205 11.4269 6.52988 11.1246 6.52979 10.7519C6.52979 10.3791 6.83199 10.0769 7.20479 10.0769H12.1996ZM12.1996 6.7467C12.5724 6.7467 12.8746 7.04891 12.8746 7.4217C12.8746 7.7945 12.5724 8.0967 12.1996 8.0967H7.20479C6.83199 8.0967 6.52979 7.7945 6.52979 7.4217C6.52979 7.04891 6.83199 6.7467 7.20479 6.7467H12.1996ZM8.3043 19.2342H11.1177V15.3319L11.1063 15.2185C11.0839 15.1081 11.0298 15.0056 10.9489 14.9249C10.8681 14.8442 10.7657 14.7897 10.6554 14.7676L10.542 14.7571H8.87822C8.72617 14.7571 8.57968 14.8174 8.47217 14.9249C8.36485 15.0324 8.3043 15.1782 8.3043 15.3301V19.2342Z" fill="black"/>
</svg>
