<svg width="24" height="24" viewBox="0 0 24 24" fill="none" xmlns="http://www.w3.org/2000/svg">
<path d="M5.18959 5.34289L5.26216 5.2607C5.41272 5.11016 5.61303 5.01972 5.82551 5.00636C6.038 4.993 6.24806 5.05763 6.41629 5.18813L6.49847 5.2607L12.0007 10.762L17.5029 5.2607C17.5835 5.17719 17.68 5.11058 17.7867 5.06476C17.8933 5.01894 18.0081 4.99482 18.1242 4.99381C18.2403 4.9928 18.3554 5.01492 18.4628 5.05888C18.5703 5.10285 18.6679 5.16777 18.75 5.24986C18.8321 5.33196 18.897 5.42958 18.941 5.53703C18.985 5.64448 19.0071 5.75961 19.0061 5.87571C19.0051 5.9918 18.9809 6.10653 18.9351 6.2132C18.8893 6.31988 18.8227 6.41636 18.7392 6.49701L13.2379 11.9992L18.7392 17.5014C18.8897 17.652 18.9802 17.8523 18.9935 18.0648C19.0069 18.2772 18.9422 18.4873 18.8117 18.6555L18.7392 18.7377C18.5886 18.8883 18.3883 18.9787 18.1758 18.9921C17.9633 19.0054 17.7533 18.9408 17.5851 18.8103L17.5029 18.7377L12.0007 13.2364L6.49847 18.7377C6.33357 18.897 6.11271 18.9851 5.88346 18.9831C5.65422 18.9811 5.43492 18.8892 5.27281 18.7271C5.1107 18.565 5.01875 18.3457 5.01676 18.1164C5.01477 17.8872 5.1029 17.6663 5.26216 17.5014L10.7635 11.9992L5.26216 6.49701C5.11162 6.34646 5.02119 6.14615 5.00783 5.93366C4.99447 5.72117 5.0591 5.51111 5.18959 5.34289Z" fill="black"/>
</svg>
