<svg width="24" height="24" viewBox="0 0 24 24" fill="none" xmlns="http://www.w3.org/2000/svg">
<path d="M11.9999 17.75C12.1641 17.75 12.3266 17.7823 12.4783 17.8451C12.6299 17.908 12.7677 18 12.8838 18.1161C12.9999 18.2322 13.0919 18.37 13.1548 18.5216C13.2176 18.6733 13.2499 18.8358 13.2499 19C13.2499 19.1642 13.2176 19.3267 13.1548 19.4784C13.0919 19.63 12.9999 19.7678 12.8838 19.8839C12.7677 20 12.6299 20.092 12.4783 20.1549C12.3266 20.2177 12.1641 20.25 11.9999 20.25C11.6684 20.25 11.3504 20.1183 11.116 19.8839C10.8816 19.6495 10.7499 19.3315 10.7499 19C10.7499 18.6685 10.8816 18.3505 11.116 18.1161C11.3504 17.8817 11.6684 17.75 11.9999 17.75ZM11.9999 12.75C12.3314 12.75 12.6494 12.8817 12.8838 13.1161C13.1182 13.3505 13.2499 13.6685 13.2499 14C13.2499 14.3315 13.1182 14.6495 12.8838 14.8839C12.6494 15.1183 12.3314 15.25 11.9999 15.25C11.6684 15.25 11.3504 15.1183 11.116 14.8839C10.8816 14.6495 10.7499 14.3315 10.7499 14C10.7499 13.6685 10.8816 13.3505 11.116 13.1161C11.3504 12.8817 11.6684 12.75 11.9999 12.75ZM16.9959 12.75C17.3274 12.75 17.6454 12.8817 17.8798 13.1161C18.1142 13.3505 18.2459 13.6685 18.2459 14C18.2459 14.3315 18.1142 14.6495 17.8798 14.8839C17.6454 15.1183 17.3274 15.25 16.9959 15.25C16.6644 15.25 16.3464 15.1183 16.112 14.8839C15.8776 14.6495 15.7459 14.3315 15.7459 14C15.7459 13.6685 15.8776 13.3505 16.112 13.1161C16.3464 12.8817 16.6644 12.75 16.9959 12.75ZM7.00391 12.75C7.33543 12.75 7.65337 12.8817 7.88779 13.1161C8.12221 13.3505 8.25391 13.6685 8.25391 14C8.25391 14.3315 8.12221 14.6495 7.88779 14.8839C7.65337 15.1183 7.33543 15.25 7.00391 15.25C6.67239 15.25 6.35444 15.1183 6.12002 14.8839C5.8856 14.6495 5.75391 14.3315 5.75391 14C5.75391 13.6685 5.8856 13.3505 6.12002 13.1161C6.35444 12.8817 6.67239 12.75 7.00391 12.75ZM11.9999 7.75C12.3314 7.75 12.6494 7.8817 12.8838 8.11612C13.1182 8.35054 13.2499 8.66848 13.2499 9C13.2499 9.33152 13.1182 9.64946 12.8838 9.88388C12.6494 10.1183 12.3314 10.25 11.9999 10.25C11.6684 10.25 11.3504 10.1183 11.116 9.88388C10.8816 9.64946 10.7499 9.33152 10.7499 9C10.7499 8.66848 10.8816 8.35054 11.116 8.11612C11.3504 7.8817 11.6684 7.75 11.9999 7.75ZM16.9959 7.75C17.3274 7.75 17.6454 7.8817 17.8798 8.11612C18.1142 8.35054 18.2459 8.66848 18.2459 9C18.2459 9.33152 18.1142 9.64946 17.8798 9.88388C17.6454 10.1183 17.3274 10.25 16.9959 10.25C16.6644 10.25 16.3464 10.1183 16.112 9.88388C15.8776 9.64946 15.7459 9.33152 15.7459 9C15.7459 8.66848 15.8776 8.35054 16.112 8.11612C16.3464 7.8817 16.6644 7.75 16.9959 7.75ZM7.00391 7.75C7.33543 7.75 7.65337 7.8817 7.88779 8.11612C8.12221 8.35054 8.25391 8.66848 8.25391 9C8.25391 9.33152 8.12221 9.64946 7.88779 9.88388C7.65337 10.1183 7.33543 10.25 7.00391 10.25C6.67239 10.25 6.35444 10.1183 6.12002 9.88388C5.8856 9.64946 5.75391 9.33152 5.75391 9C5.75391 8.66848 5.8856 8.35054 6.12002 8.11612C6.35444 7.8817 6.67239 7.75 7.00391 7.75ZM11.9999 2.75C12.3314 2.75 12.6494 2.8817 12.8838 3.11612C13.1182 3.35054 13.2499 3.66848 13.2499 4C13.2499 4.33152 13.1182 4.64946 12.8838 4.88388C12.6494 5.1183 12.3314 5.25 11.9999 5.25C11.6684 5.25 11.3504 5.1183 11.116 4.88388C10.8816 4.64946 10.7499 4.33152 10.7499 4C10.7499 3.66848 10.8816 3.35054 11.116 3.11612C11.3504 2.8817 11.6684 2.75 11.9999 2.75ZM16.9959 2.75C17.3274 2.75 17.6454 2.8817 17.8798 3.11612C18.1142 3.35054 18.2459 3.66848 18.2459 4C18.2459 4.33152 18.1142 4.64946 17.8798 4.88388C17.6454 5.1183 17.3274 5.25 16.9959 5.25C16.6644 5.25 16.3464 5.1183 16.112 4.88388C15.8776 4.64946 15.7459 4.33152 15.7459 4C15.7459 3.66848 15.8776 3.35054 16.112 3.11612C16.3464 2.8817 16.6644 2.75 16.9959 2.75ZM7.00391 2.75C7.33543 2.75 7.65337 2.8817 7.88779 3.11612C8.12221 3.35054 8.25391 3.66848 8.25391 4C8.25391 4.33152 8.12221 4.64946 7.88779 4.88388C7.65337 5.1183 7.33543 5.25 7.00391 5.25C6.67239 5.25 6.35444 5.1183 6.12002 4.88388C5.8856 4.64946 5.75391 4.33152 5.75391 4C5.75391 3.66848 5.8856 3.35054 6.12002 3.11612C6.35444 2.8817 6.67239 2.75 7.00391 2.75Z" fill="black"/>
</svg>
