<svg width="24" height="24" viewBox="0 0 24 24" fill="none" xmlns="http://www.w3.org/2000/svg">
<path d="M11.9999 17.75C12.3977 17.75 12.7793 17.908 13.0606 18.1893C13.3419 18.4706 13.4999 18.8522 13.4999 19.25C13.4999 19.6478 13.3419 20.0294 13.0606 20.3107C12.7793 20.592 12.3977 20.75 11.9999 20.75C11.6021 20.75 11.2206 20.592 10.9392 20.3107C10.6579 20.0294 10.4999 19.6478 10.4999 19.25C10.4999 18.8522 10.6579 18.4706 10.9392 18.1893C11.2206 17.908 11.6021 17.75 11.9999 17.75ZM11.9999 12.75C12.3977 12.75 12.7793 12.908 13.0606 13.1893C13.3419 13.4706 13.4999 13.8522 13.4999 14.25C13.4999 14.6478 13.3419 15.0294 13.0606 15.3107C12.7793 15.592 12.3977 15.75 11.9999 15.75C11.6021 15.75 11.2206 15.592 10.9392 15.3107C10.6579 15.0294 10.4999 14.6478 10.4999 14.25C10.4999 13.8522 10.6579 13.4706 10.9392 13.1893C11.2206 12.908 11.6021 12.75 11.9999 12.75ZM16.9959 12.75C17.3937 12.75 17.7753 12.908 18.0566 13.1893C18.3379 13.4706 18.4959 13.8522 18.4959 14.25C18.4959 14.6478 18.3379 15.0294 18.0566 15.3107C17.7753 15.592 17.3937 15.75 16.9959 15.75C16.5981 15.75 16.2165 15.592 15.9352 15.3107C15.6539 15.0294 15.4959 14.6478 15.4959 14.25C15.4959 13.8522 15.6539 13.4706 15.9352 13.1893C16.2165 12.908 16.5981 12.75 16.9959 12.75ZM7.00391 12.75C7.40173 12.75 7.78326 12.908 8.06457 13.1893C8.34587 13.4706 8.50391 13.8522 8.50391 14.25C8.50391 14.6478 8.34587 15.0294 8.06457 15.3107C7.78326 15.592 7.40173 15.75 7.00391 15.75C6.60608 15.75 6.22455 15.592 5.94325 15.3107C5.66194 15.0294 5.50391 14.6478 5.50391 14.25C5.50391 13.8522 5.66194 13.4706 5.94325 13.1893C6.22455 12.908 6.60608 12.75 7.00391 12.75ZM11.9999 7.75C12.3977 7.75 12.7793 7.90804 13.0606 8.18934C13.3419 8.47064 13.4999 8.85218 13.4999 9.25C13.4999 9.64782 13.3419 10.0294 13.0606 10.3107C12.7793 10.592 12.3977 10.75 11.9999 10.75C11.6021 10.75 11.2206 10.592 10.9392 10.3107C10.6579 10.0294 10.4999 9.64782 10.4999 9.25C10.4999 8.85218 10.6579 8.47064 10.9392 8.18934C11.2206 7.90804 11.6021 7.75 11.9999 7.75ZM16.9959 7.75C17.3937 7.75 17.7753 7.90804 18.0566 8.18934C18.3379 8.47064 18.4959 8.85218 18.4959 9.25C18.4959 9.64782 18.3379 10.0294 18.0566 10.3107C17.7753 10.592 17.3937 10.75 16.9959 10.75C16.5981 10.75 16.2165 10.592 15.9352 10.3107C15.6539 10.0294 15.4959 9.64782 15.4959 9.25C15.4959 8.85218 15.6539 8.47064 15.9352 8.18934C16.2165 7.90804 16.5981 7.75 16.9959 7.75ZM7.00391 7.75C7.40173 7.75 7.78326 7.90804 8.06457 8.18934C8.34587 8.47064 8.50391 8.85218 8.50391 9.25C8.50391 9.64782 8.34587 10.0294 8.06457 10.3107C7.78326 10.592 7.40173 10.75 7.00391 10.75C6.60608 10.75 6.22455 10.592 5.94325 10.3107C5.66194 10.0294 5.50391 9.64782 5.50391 9.25C5.50391 8.85218 5.66194 8.47064 5.94325 8.18934C6.22455 7.90804 6.60608 7.75 7.00391 7.75ZM11.9999 2.75C12.1969 2.75 12.3919 2.7888 12.5739 2.86418C12.7559 2.93956 12.9213 3.05005 13.0606 3.18934C13.1999 3.32863 13.3103 3.49399 13.3857 3.67597C13.4611 3.85796 13.4999 4.05302 13.4999 4.25C13.4999 4.44698 13.4611 4.64204 13.3857 4.82403C13.3103 5.00601 13.1999 5.17137 13.0606 5.31066C12.9213 5.44995 12.7559 5.56044 12.5739 5.63582C12.3919 5.7112 12.1969 5.75 11.9999 5.75C11.6021 5.75 11.2206 5.59196 10.9392 5.31066C10.6579 5.02936 10.4999 4.64782 10.4999 4.25C10.4999 3.85218 10.6579 3.47064 10.9392 3.18934C11.2206 2.90804 11.6021 2.75 11.9999 2.75ZM16.9959 2.75C17.1929 2.75 17.3879 2.7888 17.5699 2.86418C17.7519 2.93956 17.9173 3.05005 18.0566 3.18934C18.1959 3.32863 18.3063 3.49399 18.3817 3.67597C18.4571 3.85796 18.4959 4.05302 18.4959 4.25C18.4959 4.44698 18.4571 4.64204 18.3817 4.82403C18.3063 5.00601 18.1959 5.17137 18.0566 5.31066C17.9173 5.44995 17.7519 5.56044 17.5699 5.63582C17.3879 5.7112 17.1929 5.75 16.9959 5.75C16.5981 5.75 16.2165 5.59196 15.9352 5.31066C15.6539 5.02936 15.4959 4.64782 15.4959 4.25C15.4959 3.85218 15.6539 3.47064 15.9352 3.18934C16.2165 2.90804 16.5981 2.75 16.9959 2.75ZM7.00391 2.75C7.20089 2.75 7.39594 2.7888 7.57793 2.86418C7.75992 2.93956 7.92528 3.05005 8.06457 3.18934C8.20385 3.32863 8.31434 3.49399 8.38973 3.67597C8.46511 3.85796 8.50391 4.05302 8.50391 4.25C8.50391 4.44698 8.46511 4.64204 8.38973 4.82403C8.31434 5.00601 8.20385 5.17137 8.06457 5.31066C7.92528 5.44995 7.75992 5.56044 7.57793 5.63582C7.39594 5.7112 7.20089 5.75 7.00391 5.75C6.60608 5.75 6.22455 5.59196 5.94325 5.31066C5.66194 5.02936 5.50391 4.64782 5.50391 4.25C5.50391 3.85218 5.66194 3.47064 5.94325 3.18934C6.22455 2.90804 6.60608 2.75 7.00391 2.75Z" fill="black"/>
</svg>
