<svg width="24" height="24" viewBox="0 0 24 24" fill="none" xmlns="http://www.w3.org/2000/svg">
<path d="M21 9.032V16.1562C21 16.8826 20.7142 17.5815 20.2011 18.1095C19.688 18.6374 18.9865 18.9545 18.2406 18.9956L18.075 19H5.925C5.17788 19 4.45905 18.7221 3.91599 18.2233C3.37293 17.7244 3.0468 17.0425 3.0045 16.3173L3 16.1562V9.032L11.6868 13.456C11.7834 13.5052 11.8909 13.5309 12 13.5309C12.1091 13.5309 12.2166 13.5052 12.3132 13.456L21 9.032ZM5.925 5H18.075C18.8 4.99992 19.4992 5.26162 20.037 5.73436C20.5748 6.2071 20.9129 6.85717 20.9856 7.5585L12 12.1348L3.0144 7.5585C3.08417 6.88502 3.39874 6.25783 3.90157 5.78966C4.4044 5.32148 5.06251 5.04304 5.7576 5.00438L5.925 5Z" fill="black"/>
</svg>
