<svg width="24" height="24" viewBox="0 0 24 24" fill="none" xmlns="http://www.w3.org/2000/svg">
<path d="M12 2.99988C16.9706 2.99988 21 7.02927 21 11.9999C21 16.9696 16.9706 20.9981 12 20.9981C7.02939 20.9981 3 16.9696 3 11.9999C3 7.02927 7.02939 2.99988 12 2.99988ZM12 4.34961C10.9884 4.33864 9.98473 4.5284 9.04699 4.90792C8.10925 5.28744 7.25609 5.84917 6.53689 6.56062C5.81769 7.27206 5.24673 8.11907 4.85707 9.05264C4.4674 9.98621 4.26676 10.9878 4.26676 11.9994C4.26676 13.0111 4.4674 14.0126 4.85707 14.9462C5.24673 15.8798 5.81769 16.7268 6.53689 17.4382C7.25609 18.1497 8.10925 18.7114 9.04699 19.0909C9.98473 19.4705 10.9884 19.6602 12 19.6492C14.0145 19.6274 15.939 18.8118 17.3558 17.3796C18.7726 15.9473 19.5673 14.014 19.5673 11.9994C19.5673 9.98482 18.7726 8.05153 17.3558 6.61928C15.939 5.18704 14.0145 4.37146 12 4.34961ZM8.81644 14.5041C9.19553 14.9858 9.67904 15.3751 10.2305 15.6427C10.782 15.9104 11.387 16.0493 12 16.0491C12.6124 16.0499 13.217 15.9115 13.7681 15.6443C14.3191 15.3771 14.8022 14.9881 15.1809 14.5068C15.2358 14.4372 15.3039 14.3792 15.3813 14.336C15.4587 14.2928 15.5438 14.2652 15.6318 14.2549C15.7199 14.2446 15.8091 14.2517 15.8943 14.2758C15.9796 14.3 16.0593 14.3407 16.1288 14.3956C16.1984 14.4506 16.2564 14.5187 16.2996 14.5961C16.3428 14.6735 16.3704 14.7586 16.3807 14.8466C16.391 14.9346 16.3839 15.0238 16.3598 15.1091C16.3356 15.1944 16.2949 15.2741 16.24 15.3436C15.735 15.9849 15.0909 16.503 14.3564 16.8591C13.622 17.2151 12.8162 17.3996 12 17.3988C11.1826 17.3997 10.3757 17.2146 9.64032 16.8576C8.90498 16.5006 8.26047 15.981 7.75555 15.3382C7.70072 15.2685 7.66015 15.1888 7.63615 15.1034C7.61215 15.0181 7.6052 14.9289 7.61568 14.8408C7.62617 14.7528 7.65389 14.6677 7.69727 14.5904C7.74064 14.5131 7.79882 14.4451 7.86848 14.3902C7.93813 14.3354 8.01791 14.2948 8.10325 14.2708C8.18859 14.2469 8.27782 14.2399 8.36584 14.2504C8.45387 14.2609 8.53897 14.2886 8.61628 14.332C8.69359 14.3753 8.76161 14.4335 8.81644 14.5032M9.30054 9.07546C9.45086 9.07121 9.60052 9.09714 9.74064 9.15173C9.88077 9.20632 10.0085 9.28846 10.1164 9.39328C10.2242 9.49811 10.3099 9.62349 10.3684 9.76202C10.427 9.90054 10.4571 10.0494 10.4571 10.1998C10.4571 10.3502 10.427 10.499 10.3684 10.6376C10.3099 10.7761 10.2242 10.9015 10.1164 11.0063C10.0085 11.1111 9.88077 11.1933 9.74064 11.2478C9.60052 11.3024 9.45086 11.3284 9.30054 11.3241C9.00786 11.3158 8.72994 11.1937 8.52585 10.9838C8.32175 10.7738 8.20757 10.4926 8.20757 10.1998C8.20757 9.90699 8.32175 9.62573 8.52585 9.41578C8.72994 9.20583 9.00786 9.08374 9.30054 9.07546ZM14.6995 9.07546C14.8498 9.07121 14.9994 9.09714 15.1396 9.15173C15.2797 9.20632 15.4074 9.28846 15.5153 9.39328C15.6231 9.49811 15.7088 9.62349 15.7674 9.76202C15.8259 9.90054 15.856 10.0494 15.856 10.1998C15.856 10.3502 15.8259 10.499 15.7674 10.6376C15.7088 10.7761 15.6231 10.9015 15.5153 11.0063C15.4074 11.1111 15.2797 11.1933 15.1396 11.2478C14.9994 11.3024 14.8498 11.3284 14.6995 11.3241C14.4068 11.3158 14.1289 11.1937 13.9248 10.9838C13.7207 10.7738 13.6065 10.4926 13.6065 10.1998C13.6065 9.90699 13.7207 9.62573 13.9248 9.41578C14.1289 9.20583 14.4068 9.08374 14.6995 9.07546Z" fill="black"/>
</svg>
