<svg width="24" height="24" viewBox="0 0 24 24" fill="none" xmlns="http://www.w3.org/2000/svg">
<path d="M12 3C16.9707 3 21 7.0302 21 12C21 16.9698 16.9707 21 12 21C7.0293 21 3 16.9698 3 12C3 7.0302 7.0293 3 12 3ZM12 4.5003C7.8645 4.5003 4.5003 7.8645 4.5003 12C4.5003 16.1355 7.8645 19.4997 12 19.4997C16.1355 19.4997 19.4997 16.1355 19.4997 12C19.4997 7.8645 16.1355 4.5003 12 4.5003ZM11.9991 14.2518C12.2376 14.2518 12.4662 14.3465 12.6349 14.5151C12.8035 14.6838 12.8982 14.9124 12.8982 15.1509C12.8982 15.3894 12.8035 15.618 12.6349 15.7867C12.4662 15.9553 12.2376 16.05 11.9991 16.05C11.7606 16.05 11.532 15.9553 11.3633 15.7867C11.1947 15.618 11.1 15.3894 11.1 15.1509C11.1 14.9124 11.1947 14.6838 11.3633 14.5151C11.532 14.3465 11.7606 14.2518 11.9991 14.2518ZM11.9946 7.5C12.1579 7.49979 12.3157 7.55876 12.4388 7.66599C12.5619 7.77323 12.642 7.92145 12.6642 8.0832L12.6705 8.1741L12.6741 12.2259C12.6743 12.397 12.6095 12.5618 12.4928 12.6869C12.3761 12.8121 12.2163 12.8882 12.0456 12.9C11.8749 12.9118 11.7061 12.8583 11.5733 12.7504C11.4405 12.6424 11.3537 12.4881 11.3304 12.3186L11.3241 12.2268L11.3205 8.1759C11.3204 8.08718 11.3378 7.99931 11.3716 7.91731C11.4055 7.83531 11.4552 7.7608 11.5179 7.69802C11.5806 7.63525 11.655 7.58544 11.737 7.55147C11.8189 7.51749 11.9059 7.5 11.9946 7.5Z" fill="black"/>
</svg>
