<svg width="24" height="24" viewBox="0 0 24 24" fill="none" xmlns="http://www.w3.org/2000/svg">
<path d="M13.5425 7.16452V3.92816C13.5425 3.55534 13.8447 3.25311 14.2175 3.25311C14.5903 3.25311 14.8926 3.55534 14.8926 3.92816V7.16452C14.8926 7.42301 14.9952 7.67242 15.1791 7.85627C15.3648 8.0411 15.6168 8.14467 15.8788 8.14457H19.5915C19.9642 8.14457 20.2664 8.44697 20.2666 8.81961C20.2666 9.19243 19.9644 9.49466 19.5915 9.49466H15.8788C15.2598 9.49476 14.6659 9.25017 14.2272 8.81346V8.81258C13.7888 8.37547 13.5425 7.78229 13.5425 7.16452Z" fill="black"/>
<path d="M8.81497 3.25298L13.9587 3.2521V3.25298C14.8515 3.25048 15.715 3.55959 16.4013 4.12492L16.5367 4.24094L16.5402 4.24446L19.2044 6.69502C19.5528 6.99915 19.8352 7.37167 20.0324 7.79021C20.2326 8.21539 20.3409 8.67834 20.3505 9.14822V16.8972C20.3295 17.4905 20.191 18.0742 19.9436 18.6138C19.6961 19.1534 19.344 19.6391 18.9082 20.0421C18.4725 20.4464 17.9615 20.7609 17.4042 20.9677C16.8547 21.1716 16.2707 21.2658 15.685 21.2472V21.2481H8.85277V21.2472C8.26576 21.27 7.67982 21.1803 7.12736 20.98C6.63545 20.8016 6.17841 20.5396 5.77638 20.2065L5.60674 20.0588C5.16668 19.6548 4.81081 19.167 4.56077 18.6244C4.31077 18.0819 4.17074 17.495 4.14941 16.8981V7.60299C4.17043 7.00971 4.30897 6.42601 4.55638 5.88637C4.80384 5.34675 5.15597 4.86112 5.5918 4.45805C6.0275 4.05379 6.5385 3.73931 7.09571 3.53249C7.64526 3.32856 8.22926 3.23434 8.81497 3.25298ZM8.79036 4.6022C8.37338 4.58656 7.95718 4.65307 7.56596 4.79821C7.1747 4.9434 6.81533 5.16387 6.50944 5.44776L6.50856 5.44864C6.20337 5.73084 5.95668 6.07108 5.78341 6.44891C5.61023 6.82666 5.51422 7.23516 5.49951 7.65046V16.8497L5.5083 17.0062C5.53942 17.3703 5.63369 17.7266 5.78693 18.0592C5.96204 18.4392 6.21096 18.7808 6.51911 19.0638L6.63777 19.1667C6.92037 19.4009 7.24127 19.5854 7.58706 19.7108C7.98224 19.8541 8.40208 19.918 8.82201 19.8989L8.85277 19.898H15.7096C16.1266 19.9136 16.5428 19.8471 16.934 19.702C17.3253 19.5568 17.6846 19.3363 17.9905 19.0524L17.9914 19.0515C18.2966 18.7693 18.5433 18.4291 18.7165 18.0513C18.8897 17.6735 18.9857 17.265 19.0005 16.8497V9.17547C18.9946 8.89528 18.93 8.61948 18.8106 8.36594C18.6911 8.1122 18.5194 7.88624 18.3069 7.70319C18.3014 7.69843 18.2956 7.69319 18.2902 7.68825L15.6261 5.23857V5.23769C15.1693 4.82639 14.5752 4.60003 13.9605 4.6022H8.79036Z" fill="black"/>
<path d="M11.575 16.9974V10.9C11.575 10.5272 11.8772 10.225 12.25 10.225C12.6228 10.225 12.925 10.5272 12.925 10.9V16.9974C12.9248 17.3701 12.6227 17.6725 12.25 17.6725C11.8773 17.6725 11.5752 17.3701 11.575 16.9974Z" fill="black"/>
<path d="M8.97697 13.9519C9.24061 13.6884 9.66795 13.6884 9.93153 13.9519L12.2494 16.2707L14.5681 13.9528C14.8317 13.6892 15.259 13.6893 15.5226 13.9528C15.7863 14.2164 15.7863 14.6438 15.5226 14.9074L13.1239 17.3061C13.0098 17.4208 12.8742 17.5118 12.7249 17.5742C12.5745 17.637 12.4132 17.6699 12.2502 17.67C12.0871 17.67 11.9253 17.637 11.7747 17.5742C11.6243 17.5113 11.4877 17.4194 11.373 17.3034V17.3026L8.97697 14.9065C8.71343 14.6429 8.71339 14.2155 8.97697 13.9519Z" fill="black"/>
</svg>
