<svg width="76" height="44" viewBox="0 0 76 44" fill="none" xmlns="http://www.w3.org/2000/svg">
<path d="M38.0001 12.25C38.5063 12.25 38.9167 12.6604 38.9167 13.1667V14.7512C42.5342 15.2023 45.3334 18.2881 45.3334 22.0278V25.9018C45.3334 26.0115 45.3922 26.1127 45.4874 26.1671L46.4707 26.729C47.0642 27.0682 47.4598 27.6705 47.5353 28.3499L47.6214 29.1249C47.7622 30.3919 46.7704 31.5 45.4956 31.5H40.7501C40.7501 33.0188 39.5188 34.25 38.0001 34.25C36.4813 34.25 35.2501 33.0188 35.2501 31.5H30.5045C29.2297 31.5 28.2379 30.3919 28.3787 29.1249L28.4648 28.3499C28.5403 27.6705 28.9359 27.0682 29.5294 26.729L30.5128 26.1671C30.608 26.1127 30.6667 26.0115 30.6667 25.9018V22.0278C30.6667 18.2881 33.4659 15.2023 37.0834 14.7512V13.1667C37.0834 12.6604 37.4938 12.25 38.0001 12.25ZM37.0834 31.5C37.0834 32.0063 37.4938 32.4167 38.0001 32.4167C38.5063 32.4167 38.9167 32.0063 38.9167 31.5H37.0834ZM38.0001 16.5278C34.9625 16.5278 32.5001 18.9902 32.5001 22.0278V25.9018C32.5001 26.6694 32.0888 27.3781 31.4224 27.7589L30.439 28.3208C30.3542 28.3693 30.2977 28.4553 30.2869 28.5524L30.2008 29.3274C30.1807 29.5084 30.3224 29.6667 30.5045 29.6667H45.4956C45.6777 29.6667 45.8194 29.5084 45.7993 29.3274L45.7132 28.5524C45.7024 28.4553 45.6459 28.3693 45.5611 28.3208L44.5778 27.7589C43.9113 27.3781 43.5001 26.6694 43.5001 25.9018V22.0278C43.5001 18.9902 41.0376 16.5278 38.0001 16.5278Z" fill="black"/>
</svg>
