<svg width="24" height="24" viewBox="0 0 24 24" fill="none" xmlns="http://www.w3.org/2000/svg">
<path d="M12 3C16.9707 3 21 7.0302 21 12C21 16.9698 16.9707 21 12 21C7.0293 21 3 16.9698 3 12C3 7.0302 7.0293 3 12 3ZM12 4.5003C7.8645 4.5003 4.5003 7.8645 4.5003 12C4.5003 16.1355 7.8645 19.4997 12 19.4997C16.1355 19.4997 19.4997 16.1355 19.4997 12C19.4997 7.8645 16.1355 4.5003 12 4.5003ZM12 15.15C12.2387 15.15 12.4676 15.2448 12.6364 15.4136C12.8052 15.5824 12.9 15.8113 12.9 16.05C12.9 16.2887 12.8052 16.5176 12.6364 16.6864C12.4676 16.8552 12.2387 16.95 12 16.95C11.7613 16.95 11.5324 16.8552 11.3636 16.6864C11.1948 16.5176 11.1 16.2887 11.1 16.05C11.1 15.8113 11.1948 15.5824 11.3636 15.4136C11.5324 15.2448 11.7613 15.15 12 15.15ZM12 7.275C12.6564 7.275 13.2859 7.53576 13.7501 7.99991C14.2142 8.46406 14.475 9.09359 14.475 9.75C14.475 10.659 14.2077 11.1666 13.5291 11.8731L13.377 12.027C12.8172 12.5868 12.675 12.8244 12.675 13.35C12.675 13.529 12.6039 13.7007 12.4773 13.8273C12.3507 13.9539 12.179 14.025 12 14.025C11.821 14.025 11.6493 13.9539 11.5227 13.8273C11.3961 13.7007 11.325 13.529 11.325 13.35C11.325 12.441 11.5923 11.9334 12.2709 11.2269L12.423 11.073C12.9828 10.5132 13.125 10.2756 13.125 9.75C13.1241 9.46225 13.0129 9.18579 12.8144 8.97749C12.6159 8.76918 12.3451 8.64487 12.0577 8.63012C11.7703 8.61536 11.4882 8.71129 11.2694 8.89816C11.0506 9.08504 10.9117 9.34866 10.8813 9.6348L10.875 9.75C10.875 9.92902 10.8039 10.1007 10.6773 10.2273C10.5507 10.3539 10.379 10.425 10.2 10.425C10.021 10.425 9.84929 10.3539 9.7227 10.2273C9.59612 10.1007 9.525 9.92902 9.525 9.75C9.525 9.09359 9.78576 8.46406 10.2499 7.99991C10.7141 7.53576 11.3436 7.275 12 7.275Z" fill="black"/>
</svg>
