<svg width="24" height="24" viewBox="0 0 24 24" fill="none" xmlns="http://www.w3.org/2000/svg">
<path d="M12.2271 3.19772C12.1005 3.07131 11.9289 3.00031 11.7501 3.00031C11.5712 3.00031 11.3996 3.07131 11.2731 3.19772L6.7729 7.69787C6.65367 7.82583 6.58876 7.99508 6.59184 8.16995C6.59493 8.34483 6.66577 8.51168 6.78945 8.63536C6.91312 8.75903 7.07997 8.82988 7.25485 8.83296C7.42973 8.83605 7.59897 8.77113 7.72694 8.6519L11.075 5.30379V17.6252C11.075 17.8042 11.1462 17.9759 11.2728 18.1025C11.3993 18.2291 11.571 18.3002 11.7501 18.3002C11.9291 18.3002 12.1008 18.2291 12.2274 18.1025C12.354 17.9759 12.4251 17.8042 12.4251 17.6252V5.30379L15.7732 8.6519C15.835 8.71822 15.9095 8.77141 15.9923 8.80831C16.0751 8.8452 16.1645 8.86504 16.2551 8.86664C16.3458 8.86824 16.4358 8.85156 16.5199 8.81761C16.6039 8.78366 16.6803 8.73313 16.7444 8.66903C16.8085 8.60493 16.859 8.52858 16.8929 8.44453C16.9269 8.36048 16.9436 8.27045 16.942 8.17981C16.9404 8.08918 16.9205 7.99979 16.8836 7.91699C16.8467 7.83419 16.7936 7.75966 16.7272 7.69787L12.2271 3.19772ZM5.89988 19.6503C5.72085 19.6503 5.54915 19.7214 5.42256 19.848C5.29597 19.9746 5.22485 20.1463 5.22485 20.3253C5.22485 20.5043 5.29597 20.676 5.42256 20.8026C5.54915 20.9292 5.72085 21.0003 5.89988 21.0003H17.6003C17.7793 21.0003 17.951 20.9292 18.0776 20.8026C18.2042 20.676 18.2753 20.5043 18.2753 20.3253C18.2753 20.1463 18.2042 19.9746 18.0776 19.848C17.951 19.7214 17.7793 19.6503 17.6003 19.6503H5.89988Z" fill="black"/>
</svg>
