<svg width="24" height="24" viewBox="0 0 24 24" fill="none" xmlns="http://www.w3.org/2000/svg">
<path d="M12 2C12.5745 2 13.1434 2.11085 13.6742 2.32623C14.205 2.54161 14.6873 2.85729 15.0936 3.25526C15.4998 3.65322 15.8221 4.12568 16.042 4.64564C16.2618 5.16561 16.375 5.72291 16.375 6.28571V9.00857C17.0892 9.06255 17.7562 9.37854 18.2429 9.8934C18.7295 10.4083 18.9999 11.084 19 11.7857V18.2143C19 18.5801 18.9264 18.9424 18.7835 19.2803C18.6406 19.6183 18.4312 19.9254 18.1671 20.1841C17.903 20.4428 17.5895 20.648 17.2445 20.788C16.8995 20.9279 16.5297 21 16.1562 21H7.84375C7.4703 21 7.10051 20.9279 6.75549 20.788C6.41047 20.648 6.09698 20.4428 5.83292 20.1841C5.56885 19.9254 5.35938 19.6183 5.21647 19.2803C5.07356 18.9424 5 18.5801 5 18.2143V11.7857C5.00008 11.084 5.27047 10.4083 5.75712 9.8934C6.24377 9.37854 6.91084 9.06255 7.625 9.00857V6.28571C7.625 5.14907 8.08594 4.05898 8.90641 3.25526C9.72688 2.45153 10.8397 2 12 2ZM12 13.9286C11.7099 13.9286 11.4317 14.0415 11.2266 14.2424C11.0215 14.4433 10.9062 14.7158 10.9062 15C10.9062 15.2842 11.0215 15.5567 11.2266 15.7576C11.4317 15.9585 11.7099 16.0714 12 16.0714C12.2901 16.0714 12.5683 15.9585 12.7734 15.7576C12.9785 15.5567 13.0938 15.2842 13.0938 15C13.0938 14.7158 12.9785 14.4433 12.7734 14.2424C12.5683 14.0415 12.2901 13.9286 12 13.9286ZM12 3.28571C11.1878 3.28571 10.4088 3.60178 9.83449 4.16439C9.26016 4.727 8.9375 5.49006 8.9375 6.28571V9H15.0625V6.28571C15.0625 5.49006 14.7398 4.727 14.1655 4.16439C13.5912 3.60178 12.8122 3.28571 12 3.28571Z" fill="black"/>
</svg>
