<svg width="24" height="24" viewBox="0 0 24 24" fill="none" xmlns="http://www.w3.org/2000/svg">
<path d="M12 3.00012C16.9707 3.00012 21 7.02942 21 12.0001C21 16.9708 16.9707 21.0001 12 21.0001C10.5636 21.0021 9.14774 20.6589 7.87171 19.9993L4.42831 20.9596C4.23619 21.0132 4.03328 21.0148 3.84036 20.9642C3.64744 20.9136 3.47144 20.8126 3.33041 20.6715C3.18937 20.5305 3.08837 20.3545 3.03774 20.1616C2.98712 19.9686 2.98869 19.7657 3.04231 19.5736L4.00351 16.1329C3.34232 14.8558 2.99814 13.4383 3.00001 12.0001C3.00001 7.02942 7.02931 3.00012 12 3.00012ZM12 4.35012C9.9711 4.35012 8.02529 5.1561 6.59064 6.59075C5.15599 8.02541 4.35001 9.97121 4.35001 12.0001C4.35001 13.3231 4.68571 14.5948 5.31571 15.7234L5.45071 15.9664L4.44991 19.552L8.03821 18.5512L8.28121 18.6862C9.30215 19.2538 10.4395 19.5801 11.6061 19.64C12.7727 19.7 13.9375 19.4919 15.0113 19.0319C16.085 18.5719 17.0391 17.8721 17.8005 16.9861C18.5618 16.1002 19.1101 15.0517 19.4035 13.921C19.6968 12.7903 19.7272 11.6074 19.4925 10.4631C19.2578 9.31878 18.7642 8.24342 18.0495 7.31946C17.3348 6.3955 16.4179 5.64749 15.3693 5.13278C14.3207 4.61808 13.1681 4.35035 12 4.35012ZM9.07501 12.9001H13.1232C13.2942 12.9002 13.4589 12.9651 13.5838 13.0819C13.7088 13.1986 13.7848 13.3585 13.7964 13.5291C13.8081 13.6997 13.7545 13.8684 13.6466 14.0011C13.5387 14.1338 13.3844 14.2205 13.215 14.2438L13.1232 14.2501H9.07501C8.90398 14.2501 8.73936 14.1851 8.61439 14.0683C8.48943 13.9516 8.41344 13.7917 8.40178 13.6211C8.39013 13.4505 8.44367 13.2818 8.55159 13.1491C8.65952 13.0165 8.81378 12.9297 8.98321 12.9064L9.07501 12.9001ZM9.07501 9.75012H14.9295C15.1004 9.7504 15.2649 9.81553 15.3897 9.93235C15.5145 10.0492 15.5903 10.209 15.6019 10.3796C15.6134 10.5501 15.5598 10.7187 15.4519 10.8513C15.344 10.9838 15.1898 11.0705 15.0204 11.0938L14.9295 11.1001H9.07501C8.90398 11.1001 8.73936 11.0351 8.61439 10.9183C8.48943 10.8016 8.41344 10.6418 8.40178 10.4711C8.39013 10.3005 8.44367 10.1318 8.55159 9.99915C8.65952 9.86648 8.81378 9.77973 8.98321 9.75642L9.07501 9.75012Z" fill="black"/>
</svg>
