<svg width="24" height="24" viewBox="0 0 24 24" fill="none" xmlns="http://www.w3.org/2000/svg">
<path d="M12.675 8.175C12.675 7.99598 12.6039 7.82429 12.4773 7.6977C12.3507 7.57111 12.179 7.5 12 7.5C11.821 7.5 11.6493 7.57111 11.5227 7.6977C11.3961 7.82429 11.325 7.99598 11.325 8.175V11.325H8.17501C7.99599 11.325 7.8243 11.3961 7.69771 11.5227C7.57112 11.6493 7.50001 11.821 7.50001 12C7.50001 12.179 7.57112 12.3507 7.69771 12.4773C7.8243 12.6039 7.99599 12.675 8.17501 12.675H11.325V15.825C11.325 16.004 11.3961 16.1757 11.5227 16.3023C11.6493 16.4289 11.821 16.5 12 16.5C12.179 16.5 12.3507 16.4289 12.4773 16.3023C12.6039 16.1757 12.675 16.004 12.675 15.825V12.675H15.825C16.004 12.675 16.1757 12.6039 16.3023 12.4773C16.4289 12.3507 16.5 12.179 16.5 12C16.5 11.821 16.4289 11.6493 16.3023 11.5227C16.1757 11.3961 16.004 11.325 15.825 11.325H12.675V8.175ZM21 12C21 7.0293 16.9707 3 12 3C7.02931 3 3.00001 7.0293 3.00001 12C2.99814 13.4381 3.34232 14.8556 4.00351 16.1328L3.04231 19.5735C2.98869 19.7656 2.98712 19.9685 3.03774 20.1614C3.08837 20.3544 3.18937 20.5304 3.33041 20.6714C3.47144 20.8124 3.64744 20.9134 3.84036 20.9641C4.03328 21.0147 4.23619 21.0131 4.42831 20.9595L7.87171 19.9992C9.14774 20.6587 10.5636 21.002 12 21C16.9707 21 21 16.9707 21 12ZM4.35001 12C4.35049 10.3212 4.90317 8.68926 5.92283 7.35566C6.94249 6.02206 8.37252 5.06089 9.99243 4.62034C11.6123 4.17978 13.3322 4.28432 14.8868 4.91781C16.4415 5.55131 17.7445 6.6786 18.5952 8.12588C19.4458 9.57315 19.7968 11.2601 19.594 12.9265C19.3911 14.593 18.6458 16.1464 17.4728 17.3474C16.2998 18.5484 14.7644 19.3302 13.1032 19.5723C11.442 19.8143 9.74725 19.5033 8.28031 18.687L8.03731 18.552L4.44991 19.5519L5.45161 15.9663L5.31571 15.7233C4.68045 14.5853 4.34794 13.3033 4.35001 12Z" fill="black"/>
</svg>
