<svg width="24" height="24" viewBox="0 0 24 24" fill="none" xmlns="http://www.w3.org/2000/svg">
<path d="M11.0865 4.04339C11.1259 3.80849 11.0701 3.5676 10.9315 3.37371C10.7928 3.17983 10.5826 3.04884 10.3471 3.00955C10.1117 2.97026 9.8702 3.02589 9.67585 3.16421C9.4815 3.30253 9.35018 3.51221 9.3108 3.74711L8.5368 8.38258L4.7982 8.38437C4.5595 8.38461 4.33068 8.47943 4.16207 8.64797C3.99345 8.81652 3.89886 9.04498 3.8991 9.28309C3.89934 9.52121 3.99439 9.74948 4.16334 9.91769C4.33229 10.0859 4.56131 10.1803 4.8 10.18L8.2353 10.1782L7.635 13.7695L3.9 13.7713C3.66131 13.7713 3.43239 13.8659 3.2636 14.0343C3.09482 14.2027 3 14.431 3 14.6691C3 14.9073 3.09482 15.1356 3.2636 15.304C3.43239 15.4724 3.66131 15.567 3.9 15.567L7.3353 15.5652L6.609 19.9088C6.58956 20.0252 6.59327 20.1442 6.61993 20.259C6.64658 20.3739 6.69566 20.4824 6.76436 20.5784C6.83305 20.6744 6.92003 20.7559 7.0203 20.8183C7.12058 20.8807 7.23221 20.9228 7.3488 20.9422C7.46539 20.9616 7.58468 20.9579 7.69984 20.9313C7.81499 20.9047 7.92378 20.8558 8.01997 20.7873C8.11616 20.7187 8.19788 20.632 8.26046 20.5319C8.32304 20.4319 8.36526 20.3205 8.3847 20.2042L9.1605 15.5652L13.638 15.5625L12.9126 19.9079C12.8899 20.0255 12.8911 20.1464 12.916 20.2635C12.9409 20.3807 12.989 20.4916 13.0575 20.5899C13.126 20.6882 13.2135 20.7719 13.3149 20.8359C13.4163 20.9 13.5295 20.9431 13.6479 20.9629C13.7662 20.9827 13.8874 20.9786 14.0042 20.951C14.1209 20.9233 14.231 20.8727 14.3278 20.802C14.4247 20.7313 14.5064 20.642 14.5682 20.5394C14.6299 20.4367 14.6704 20.3228 14.6874 20.2042L15.4632 15.5625L19.2 15.5598C19.4387 15.5598 19.6676 15.4652 19.8364 15.2968C20.0052 15.1284 20.1 14.9001 20.1 14.662C20.1 14.4238 20.0052 14.1955 19.8364 14.0271C19.6676 13.8587 19.4387 13.7641 19.2 13.7641L15.7629 13.765L16.3632 10.1728L20.1009 10.1701C20.3396 10.1699 20.5684 10.0751 20.737 9.90654C20.9056 9.738 21.0002 9.50954 21 9.27142C20.9998 9.0333 20.9047 8.80503 20.7358 8.63683C20.5668 8.46862 20.3378 8.37426 20.0991 8.3745L16.6638 8.37629L17.3874 4.04249C17.41 3.92492 17.4089 3.80402 17.384 3.6869C17.3591 3.56978 17.311 3.4588 17.2425 3.36051C17.174 3.26221 17.0865 3.17857 16.9851 3.11452C16.8837 3.05047 16.7705 3.00729 16.6521 2.98753C16.5338 2.96777 16.4126 2.97183 16.2958 2.99946C16.1791 3.02709 16.069 3.07775 15.9722 3.14844C15.8753 3.21913 15.7936 3.30843 15.7318 3.41109C15.6701 3.51375 15.6296 3.62769 15.6126 3.74621L14.8386 8.37809L10.3611 8.38078L11.0865 4.04339ZM10.0605 10.1773L14.5389 10.1746L13.9386 13.7668L9.4602 13.7686L10.0605 10.1773Z" fill="black"/>
</svg>
