<svg width="24" height="24" viewBox="0 0 24 24" fill="none" xmlns="http://www.w3.org/2000/svg">
<path d="M10.9704 8.5395C10.7992 8.44458 10.6061 8.396 10.4103 8.39855C10.2146 8.4011 10.0228 8.45471 9.85412 8.55406C9.68541 8.65341 9.54555 8.79508 9.44837 8.96505C9.35119 9.13502 9.30004 9.32741 9.3 9.5232V14.4768C9.30004 14.6726 9.35119 14.865 9.44837 15.035C9.54555 15.2049 9.68541 15.3466 9.85412 15.4459C10.0228 15.5453 10.2146 15.5989 10.4103 15.6014C10.6061 15.604 10.7992 15.5554 10.9704 15.4605L16.1517 12.5904C16.2571 12.532 16.3449 12.4464 16.4061 12.3426C16.4673 12.2388 16.4995 12.1205 16.4995 12C16.4995 11.8795 16.4673 11.7612 16.4061 11.6574C16.3449 11.5536 16.2571 11.468 16.1517 11.4096L10.9704 8.5395ZM12 3C7.0293 3 3 7.0293 3 12C3 16.9707 7.0293 21 12 21C16.9707 21 21 16.9707 21 12C21 7.0293 16.9707 3 12 3ZM4.35 12C4.35 9.97109 5.15598 8.02529 6.59063 6.59063C8.02529 5.15598 9.97109 4.35 12 4.35C14.0289 4.35 15.9747 5.15598 17.4094 6.59063C18.844 8.02529 19.65 9.97109 19.65 12C19.65 14.0289 18.844 15.9747 17.4094 17.4094C15.9747 18.844 14.0289 19.65 12 19.65C9.97109 19.65 8.02529 18.844 6.59063 17.4094C5.15598 15.9747 4.35 14.0289 4.35 12Z" fill="black"/>
</svg>
