<svg width="24" height="24" viewBox="0 0 24 24" fill="none" xmlns="http://www.w3.org/2000/svg">
<path d="M18 2.94971C18.2783 2.94982 18.5454 3.06051 18.7422 3.25732C18.939 3.45414 19.0497 3.72119 19.0498 3.99951V6.99951C19.0498 7.27799 18.9391 7.54576 18.7422 7.74268C18.5454 7.93945 18.2783 8.05018 18 8.05029H15C14.7215 8.05029 14.4537 7.93959 14.2568 7.74268C14.0599 7.54576 13.9492 7.27799 13.9492 6.99951C13.9493 6.72122 14.0601 6.45413 14.2568 6.25732C14.4537 6.06041 14.7215 5.94971 15 5.94971H15.4219C14.4063 5.3751 13.2615 5.06499 12.0928 5.04932C10.8623 5.03285 9.64925 5.34295 8.57812 5.94873C7.50697 6.55459 6.61602 7.43448 5.99609 8.49756C5.37624 9.56055 5.04962 10.769 5.0498 11.9995C5.0498 12.9122 5.22983 13.8165 5.5791 14.6597C5.92837 15.5028 6.43966 16.2692 7.08496 16.9146C7.73026 17.5599 8.49673 18.0711 9.33984 18.4204C10.1831 18.7697 11.0873 18.9497 12 18.9497C12.9125 18.9497 13.8161 18.7696 14.6592 18.4204C15.5023 18.0712 16.2687 17.5599 16.9141 16.9146C17.5594 16.2692 18.0716 15.5029 18.4209 14.6597C18.7701 13.8166 18.9491 12.913 18.9492 12.0005L18.9355 11.561C18.9266 11.4161 18.913 11.2726 18.8955 11.1304V11.1294C18.8752 10.9917 18.8825 10.8512 18.917 10.7163C18.9517 10.5807 19.014 10.4528 19.0986 10.3413C19.1832 10.23 19.2891 10.1367 19.4102 10.0669C19.5314 9.99698 19.6658 9.95144 19.8047 9.93408C19.9434 9.91679 20.0842 9.92753 20.2188 9.96533C20.3535 10.0032 20.4794 10.0685 20.5889 10.1558C20.6983 10.243 20.7894 10.3513 20.8564 10.4741C20.9232 10.5966 20.9653 10.7309 20.9795 10.8696L21.0195 11.2544C21.1785 13.178 20.7178 15.1063 19.7002 16.7544C18.6148 18.5122 16.9608 19.846 15.0127 20.5337C13.0644 21.2214 10.9388 21.2217 8.99023 20.5347C7.04184 19.8476 5.3868 18.5139 4.30078 16.7563C3.21494 14.9988 2.76331 12.9224 3.02051 10.8726C3.27777 8.82275 4.22841 6.92251 5.71484 5.48779C7.20144 4.05303 9.13459 3.17022 11.1924 2.98584C13.2192 2.80427 15.2471 3.31138 16.9492 4.42334V3.99951C16.9493 3.72122 17.0601 3.45413 17.2568 3.25732C17.4537 3.06041 17.7215 2.94971 18 2.94971Z" fill="black" stroke="black" stroke-width="0.1"/>
</svg>
