<svg width="24" height="24" viewBox="0 0 24 24" fill="none" xmlns="http://www.w3.org/2000/svg">
<path d="M12.7522 12.1819L5.80024 13.3402C5.72031 13.3535 5.64531 13.3877 5.58277 13.4392C5.52023 13.4907 5.47235 13.5578 5.44396 13.6337L3.04697 20.0558C2.81807 20.6465 3.43555 21.2096 4.00226 20.9253L20.616 12.6184C20.7308 12.5609 20.8274 12.4725 20.8948 12.3632C20.9623 12.2539 20.998 12.128 20.998 11.9996C20.998 11.8711 20.9623 11.7452 20.8948 11.6359C20.8274 11.5266 20.7308 11.4383 20.616 11.3807L4.00226 3.07384C3.43555 2.79049 2.81807 3.35351 3.04697 3.9433L5.44489 10.3654C5.47328 10.4413 5.52115 10.5084 5.58369 10.5599C5.64623 10.6114 5.72123 10.6456 5.80116 10.6589L12.7531 11.8173C12.7964 11.8242 12.8359 11.8464 12.8644 11.8798C12.8929 11.9132 12.9086 11.9556 12.9086 11.9996C12.9086 12.0435 12.8929 12.086 12.8644 12.1194C12.8359 12.1528 12.7964 12.1749 12.7531 12.1819" fill="black"/>
</svg>
