<svg width="24" height="24" viewBox="0 0 24 24" fill="none" xmlns="http://www.w3.org/2000/svg">
<path d="M12.0101 3C12.7157 3.00738 13.4184 3.08585 14.1077 3.23354C14.2543 3.26497 14.3871 3.3396 14.4874 3.44701C14.5877 3.55442 14.6506 3.68923 14.6672 3.83262L14.8306 5.24216C14.8537 5.44088 14.925 5.63163 15.0389 5.79906C15.1527 5.96648 15.3059 6.10591 15.4861 6.20612C15.6663 6.30633 15.8685 6.36452 16.0764 6.37602C16.2843 6.38752 16.4921 6.352 16.6831 6.27231L18.029 5.70462C18.1657 5.64679 18.3178 5.63118 18.4642 5.65996C18.6105 5.68873 18.744 5.76046 18.8461 5.86524C19.819 6.86323 20.5437 8.05998 20.9658 9.36555C21.0099 9.50285 21.0084 9.64992 20.9616 9.78637C20.9147 9.92283 20.8248 10.0419 20.7043 10.1271L19.5113 10.9726C19.3432 11.0909 19.2065 11.2456 19.1123 11.4241C19.0181 11.6026 18.969 11.7999 18.969 12C18.969 12.2001 19.0181 12.3974 19.1123 12.5759C19.2065 12.7544 19.3432 12.9091 19.5113 13.0274L20.7063 13.872C20.8269 13.9573 20.917 14.0765 20.9638 14.2131C21.0107 14.3498 21.0121 14.4971 20.9677 14.6345C20.5459 15.94 19.8216 17.1367 18.849 18.1348C18.7471 18.2395 18.6138 18.3113 18.4677 18.3403C18.3215 18.3692 18.1695 18.3538 18.0328 18.2963L16.6812 17.7268C16.4904 17.6465 16.2827 17.6104 16.0748 17.6215C15.8668 17.6327 15.6645 17.6906 15.4842 17.7907C15.3039 17.8909 15.1508 18.0303 15.037 18.1979C14.9233 18.3654 14.8523 18.5563 14.8297 18.7551L14.6662 20.1637C14.6499 20.3054 14.5884 20.4388 14.4902 20.5457C14.3919 20.6526 14.2617 20.7278 14.1173 20.761C12.725 21.0797 11.2741 21.0797 9.88172 20.761C9.73714 20.728 9.6067 20.6529 9.50827 20.546C9.40984 20.4391 9.34822 20.3056 9.33184 20.1637L9.16937 18.757C9.14578 18.5588 9.07411 18.3687 8.96013 18.2019C8.84615 18.0352 8.69303 17.8964 8.51307 17.7967C8.33311 17.6971 8.13133 17.6394 7.92392 17.6282C7.71652 17.617 7.50927 17.6527 7.31882 17.7323L5.9672 18.301C5.83036 18.3587 5.67822 18.3741 5.53183 18.3452C5.38544 18.3163 5.25204 18.2443 5.15007 18.1394C4.17733 17.1402 3.45324 15.9421 3.03227 14.6354C2.98795 14.498 2.98931 14.3507 3.03617 14.2141C3.08304 14.0774 3.17306 13.9582 3.29375 13.8729L4.48868 13.0274C4.65676 12.9091 4.79346 12.7544 4.88768 12.5759C4.9819 12.3974 5.031 12.2001 5.031 12C5.031 11.7999 4.9819 11.6026 4.88768 11.4241C4.79346 11.2456 4.65676 11.0909 4.48868 10.9726L3.29375 10.1289C3.17306 10.0437 3.08304 9.92446 3.03617 9.78781C2.98931 9.65117 2.98795 9.5039 3.03227 9.36648C3.45433 8.0609 4.17906 6.86415 5.15199 5.86616C5.25407 5.76139 5.38753 5.68965 5.53391 5.66088C5.6803 5.63211 5.83238 5.64771 5.96912 5.70554L7.31498 6.27324C7.5063 6.35287 7.71441 6.38831 7.92258 6.3767C8.13075 6.36509 8.33319 6.30677 8.51363 6.2064C8.69406 6.10604 8.84747 5.96644 8.96152 5.79881C9.07558 5.63119 9.1471 5.44022 9.17034 5.24124L9.33376 3.83262C9.35026 3.68894 9.41317 3.55383 9.51368 3.44623C9.61419 3.33863 9.74726 3.26393 9.89421 3.23262C10.5825 3.08615 11.2878 3.00862 12.0101 3ZM12.0101 4.38462C11.574 4.38907 11.1389 4.42517 10.7085 4.49262L10.6027 5.39447C10.5546 5.80921 10.4057 6.2073 10.168 6.55667C9.93035 6.90603 9.61052 7.19689 9.2343 7.4058C8.85809 7.61472 8.43602 7.73585 8.00212 7.75942C7.56822 7.783 7.13462 7.70837 6.73626 7.54155L5.87203 7.17786C5.32267 7.81843 4.88534 8.54046 4.57712 9.31571L5.3433 9.85755C5.69366 10.1044 5.97858 10.4271 6.17499 10.7993C6.37141 11.1715 6.4738 11.583 6.4739 12.0002C6.47399 12.4175 6.37178 12.829 6.17553 13.2013C5.97928 13.5736 5.69451 13.8964 5.34426 14.1434L4.57616 14.6862C4.88378 15.4634 5.32215 16.1871 5.87203 16.8296L6.74203 16.4631C7.13953 16.2965 7.57222 16.2218 8.00528 16.245C8.43834 16.2683 8.85966 16.3888 9.23534 16.597C9.61101 16.8051 9.93054 17.0951 10.1682 17.4435C10.4059 17.7918 10.555 18.189 10.6037 18.6028L10.7085 19.5111C11.564 19.6496 12.4379 19.6496 13.2925 19.5111L13.3982 18.6028C13.4459 18.1883 13.5944 17.7904 13.8318 17.4413C14.0692 17.0921 14.3888 16.8015 14.7648 16.5928C15.1408 16.3842 15.5627 16.2634 15.9963 16.2402C16.4299 16.217 16.8631 16.2921 17.2609 16.4594L18.1299 16.825C18.6798 16.1839 19.1174 15.4612 19.4258 14.6853L18.6586 14.1425C18.3083 13.8956 18.0233 13.573 17.8269 13.2007C17.6305 12.8285 17.5281 12.4171 17.528 11.9998C17.5279 11.5825 17.6301 11.171 17.8264 10.7987C18.0226 10.4264 18.3074 10.1037 18.6577 9.85663L19.4238 9.31478C19.1154 8.53915 18.6778 7.8168 18.128 7.17601L17.2657 7.53878C16.8674 7.70618 16.4338 7.78131 15.9997 7.75812C15.5657 7.73492 15.1434 7.61404 14.767 7.40524C14.3906 7.19644 14.0706 6.90557 13.8328 6.55612C13.595 6.20666 13.4462 5.80842 13.3982 5.39354L13.2935 4.49262C12.8694 4.42609 12.4398 4.38999 12.0101 4.38462ZM11.9986 8.53847C12.9547 8.53847 13.8716 8.90317 14.5477 9.55234C15.2237 10.2015 15.6035 11.082 15.6035 12C15.6035 12.9181 15.2237 13.7985 14.5477 14.4477C13.8716 15.0969 12.9547 15.4616 11.9986 15.4616C11.0425 15.4616 10.1255 15.0969 9.44946 14.4477C8.77339 13.7985 8.39358 12.9181 8.39358 12C8.39358 11.082 8.77339 10.2015 9.44946 9.55234C10.1255 8.90317 11.0425 8.53847 11.9986 8.53847ZM11.9986 9.92309C11.4249 9.92309 10.8747 10.1419 10.4691 10.5314C10.0635 10.9209 9.83557 11.4492 9.83557 12C9.83557 12.5509 10.0635 13.0791 10.4691 13.4686C10.8747 13.8581 11.4249 14.0769 11.9986 14.0769C12.5722 14.0769 13.1224 13.8581 13.528 13.4686C13.9337 13.0791 14.1615 12.5509 14.1615 12C14.1615 11.4492 13.9337 10.9209 13.528 10.5314C13.1224 10.1419 12.5722 9.92309 11.9986 9.92309Z" fill="black"/>
</svg>
