<svg width="24" height="24" viewBox="0 0 24 24" fill="none" xmlns="http://www.w3.org/2000/svg">
<path d="M9.07469 14.2501C9.73296 14.2499 10.3721 14.4717 10.8887 14.8797C11.4053 15.2877 11.7691 15.858 11.9215 16.4984L20.3249 16.5002C20.496 16.5002 20.6606 16.5652 20.7856 16.682C20.9105 16.7987 20.9865 16.9586 20.9982 17.1292C21.0098 17.2998 20.9563 17.4685 20.8484 17.6012C20.7404 17.7339 20.5862 17.8206 20.4167 17.8439L20.3249 17.8502L11.9215 17.8511C11.7693 18.4917 11.4055 19.0623 10.8889 19.4706C10.3723 19.8788 9.73313 20.1009 9.07469 20.1009C8.41625 20.1009 7.77706 19.8788 7.26046 19.4706C6.74387 19.0623 6.38009 18.4917 6.22792 17.8511L3.67457 17.8502C3.50354 17.8502 3.33891 17.7852 3.21394 17.6684C3.08897 17.5517 3.01298 17.3918 3.00133 17.2212C2.98967 17.0506 3.04321 16.8819 3.15114 16.7492C3.25907 16.6166 3.41333 16.5298 3.58276 16.5065L3.67457 16.5002L6.22792 16.4993C6.38006 15.8587 6.74387 15.2882 7.26048 14.88C7.77709 14.4719 8.41629 14.2499 9.07469 14.2501ZM9.07469 15.6002C8.65696 15.6002 8.25635 15.7661 7.96097 16.0615C7.66559 16.3569 7.49965 16.7575 7.49965 17.1752C7.49965 17.5929 7.66559 17.9935 7.96097 18.2889C8.25635 18.5843 8.65696 18.7502 9.07469 18.7502C9.49241 18.7502 9.89303 18.5843 10.1884 18.2889C10.4838 17.9935 10.6497 17.5929 10.6497 17.1752C10.6497 16.7575 10.4838 16.3569 10.1884 16.0615C9.89303 15.7661 9.49241 15.6002 9.07469 15.6002ZM14.9248 3.8999C15.5832 3.89971 16.2224 4.12164 16.739 4.5298C17.2556 4.93796 17.6194 5.50848 17.7716 6.14905L20.3249 6.14995C20.496 6.15001 20.6606 6.21498 20.7856 6.33173C20.9105 6.44849 20.9865 6.60833 20.9982 6.77896C21.0098 6.94959 20.9563 7.11828 20.8484 7.25095C20.7404 7.38362 20.5862 7.47037 20.4167 7.49369L20.3249 7.49998L17.7716 7.50089C17.6187 8.14087 17.2546 8.71067 16.7381 9.11832C16.2216 9.52598 15.5828 9.74769 14.9248 9.74769C14.2668 9.74769 13.628 9.52598 13.1115 9.11832C12.595 8.71067 12.2309 8.14087 12.0781 7.50089L3.67457 7.49998C3.50354 7.49993 3.33891 7.43496 3.21394 7.31821C3.08897 7.20145 3.01298 7.04161 3.00133 6.87098C2.98967 6.70035 3.04321 6.53166 3.15114 6.39899C3.25907 6.26632 3.41333 6.17957 3.58276 6.15625L3.67457 6.14995L12.0781 6.14815C12.2304 5.50775 12.5942 4.93744 13.1108 4.52945C13.6274 4.12147 14.2666 3.89966 14.9248 3.8999ZM14.9248 5.24993C14.5071 5.24993 14.1065 5.41587 13.8111 5.71125C13.5157 6.00663 13.3498 6.40724 13.3498 6.82497C13.3498 7.2427 13.5157 7.64331 13.8111 7.93869C14.1065 8.23406 14.5071 8.40001 14.9248 8.40001C15.3425 8.40001 15.7432 8.23406 16.0385 7.93869C16.3339 7.64331 16.4999 7.2427 16.4999 6.82497C16.4999 6.40724 16.3339 6.00663 16.0385 5.71125C15.7432 5.41587 15.3425 5.24993 14.9248 5.24993Z" fill="black"/>
</svg>
