<svg width="24" height="24" viewBox="0 0 24 24" fill="none" xmlns="http://www.w3.org/2000/svg">
<path d="M15 4.24993C15 3.17193 13.726 2.59993 12.92 3.31593L8.427 7.30993C8.28986 7.43211 8.11266 7.49971 7.929 7.49993H4.25C3.65326 7.49993 3.08097 7.73699 2.65901 8.15894C2.23705 8.5809 2 9.1532 2 9.74993V14.2469C2 14.8437 2.23705 15.416 2.65901 15.8379C3.08097 16.2599 3.65326 16.4969 4.25 16.4969H7.93C8.11366 16.4972 8.29086 16.5648 8.428 16.6869L12.919 20.6799C13.725 21.3969 15 20.8249 15 19.7459V4.24993ZM16.22 9.21993C16.3606 9.07948 16.5512 9.00059 16.75 9.00059C16.9488 9.00059 17.1394 9.07948 17.28 9.21993L19 10.9399L20.72 9.21993C20.7887 9.14625 20.8715 9.08714 20.9635 9.04615C21.0555 9.00516 21.1548 8.98312 21.2555 8.98134C21.3562 8.97956 21.4562 8.99809 21.5496 9.03581C21.643 9.07353 21.7278 9.12968 21.799 9.20089C21.8703 9.27211 21.9264 9.35695 21.9641 9.45033C22.0018 9.54372 22.0204 9.64375 22.0186 9.74445C22.0168 9.84516 21.9948 9.94447 21.9538 10.0365C21.9128 10.1285 21.8537 10.2113 21.78 10.2799L20.06 11.9999L21.78 13.7199C21.8537 13.7886 21.9128 13.8714 21.9538 13.9634C21.9948 14.0554 22.0168 14.1547 22.0186 14.2554C22.0204 14.3561 22.0018 14.4561 21.9641 14.5495C21.9264 14.6429 21.8703 14.7278 21.799 14.799C21.7278 14.8702 21.643 14.9263 21.5496 14.9641C21.4562 15.0018 21.3562 15.0203 21.2555 15.0185C21.1548 15.0167 21.0555 14.9947 20.9635 14.9537C20.8715 14.9127 20.7887 14.8536 20.72 14.7799L19 13.0619L17.28 14.7819C17.2113 14.8556 17.1285 14.9147 17.0365 14.9557C16.9445 14.9967 16.8452 15.0187 16.7445 15.0205C16.6438 15.0223 16.5438 15.0038 16.4504 14.9661C16.357 14.9283 16.2722 14.8722 16.201 14.801C16.1297 14.7298 16.0736 14.6449 16.0359 14.5515C15.9982 14.4581 15.9796 14.3581 15.9814 14.2574C15.9832 14.1567 16.0052 14.0574 16.0462 13.9654C16.0872 13.8734 16.1463 13.7906 16.22 13.7219L17.94 11.9999L16.22 10.2799C16.0795 10.1393 16.0007 9.94868 16.0007 9.74993C16.0007 9.55118 16.0795 9.36056 16.22 9.21993Z" fill="black"/>
</svg>
