<svg width="76" height="44" viewBox="0 0 76 44" fill="none" xmlns="http://www.w3.org/2000/svg">
<path fill-rule="evenodd" clip-rule="evenodd" d="M38 32.9375C42.936 32.9375 46.9375 28.936 46.9375 24C46.9375 19.064 42.936 15.0625 38 15.0625C33.064 15.0625 29.0625 19.064 29.0625 24C29.0625 28.936 33.064 32.9375 38 32.9375ZM49 24C49 30.0751 44.0751 35 38 35C31.9249 35 27 30.0751 27 24C27 17.9249 31.9249 13 38 13C44.0751 13 49 17.9249 49 24Z" fill="black"/>
<path fill-rule="evenodd" clip-rule="evenodd" d="M40.0896 26.1212C40.4107 25.927 40.6351 25.6065 40.7078 25.2384L41.9351 19.0176C42.0024 18.6767 41.633 18.4181 41.3357 18.5979L35.9099 21.8789C35.5888 22.073 35.3644 22.3936 35.2917 22.7617L34.0643 28.9825C33.9971 29.3233 34.3665 29.582 34.6638 29.4022L40.0896 26.1212ZM36.7275 25.8171L38.8026 24.5622L39.272 22.183L37.1969 23.4379L36.7275 25.8171Z" fill="black"/>
</svg>
