<svg width="76" height="44" viewBox="0 0 76 44" fill="none" xmlns="http://www.w3.org/2000/svg">
<path fill-rule="evenodd" clip-rule="evenodd" d="M38.5941 13.9939C38.2485 13.7105 37.7509 13.7105 37.4053 13.9939L27.343 22.2437C27.0367 22.4948 26.9213 22.9113 27.0547 23.2843C27.188 23.6572 27.5413 23.9062 27.9374 23.9062H29.3946L30.1396 32.0484C30.2133 32.8528 30.8879 33.4685 31.6956 33.4685H35.1876C35.5327 33.4685 35.8126 33.1886 35.8126 32.8435V28.0406C35.8126 26.1657 37.3423 26.1657 37.6875 26.1657H38.3125C38.6577 26.1657 40.1875 26.1657 40.1875 28.0406V32.8435C40.1875 33.1886 40.4673 33.4685 40.8125 33.4685H44.3045C45.1123 33.4685 45.7869 32.8528 45.8605 32.0484L46.6055 23.9062H48.0623C48.4584 23.9062 48.8118 23.6572 48.9451 23.2843C49.0784 22.9113 48.963 22.4948 48.6567 22.2437L38.5941 13.9939Z" fill="black"/>
</svg>
