<svg width="24" height="24" viewBox="0 0 24 24" fill="none" xmlns="http://www.w3.org/2000/svg">
<path d="M19.1869 2.73242C19.7387 2.73242 20.268 2.95164 20.6582 3.34184C21.0484 3.73204 21.2676 4.26127 21.2676 4.8131V9.86406C21.2675 10.6611 20.9509 11.4255 20.3872 11.9891L12.5269 19.8522C11.9627 20.4151 11.1984 20.7313 10.4015 20.7314C9.60465 20.7316 8.8402 20.4158 8.27582 19.8532L4.14961 15.7343C3.58555 15.1712 3.26827 14.4071 3.26758 13.61C3.26689 12.813 3.58283 12.0483 4.14591 11.4842L12.0062 3.61463C12.2855 3.33516 12.617 3.11347 12.982 2.96225C13.3469 2.81103 13.7381 2.73325 14.1332 2.73335L19.1869 2.73242ZM16.6438 5.97088C16.4617 5.97088 16.2813 6.00676 16.113 6.07647C15.9447 6.14618 15.7918 6.24835 15.663 6.37716C15.5342 6.50597 15.432 6.65888 15.3623 6.82717C15.2926 6.99547 15.2567 7.17584 15.2567 7.358C15.2567 7.54016 15.2926 7.72053 15.3623 7.88883C15.432 8.05712 15.5342 8.21004 15.663 8.33884C15.7918 8.46765 15.9447 8.56982 16.113 8.63953C16.2813 8.70924 16.4617 8.74512 16.6438 8.74512C17.0117 8.74512 17.3646 8.59898 17.6247 8.33884C17.8848 8.07871 18.031 7.72589 18.031 7.358C18.031 6.99011 17.8848 6.6373 17.6247 6.37716C17.3646 6.11702 17.0117 5.97088 16.6438 5.97088Z" fill="black"/>
</svg>
