<svg width="24" height="24" viewBox="0 0 24 24" fill="none" xmlns="http://www.w3.org/2000/svg">
<path d="M11.9999 3.00049C13.7306 3.00049 15.3903 3.68798 16.614 4.91171C17.8378 6.13545 18.5253 7.79519 18.5253 9.52582C18.5253 11.4123 17.7152 13.144 16.1284 14.6939C16.0595 14.7612 16.0058 14.8425 15.9709 14.9324L15.9421 15.0251L14.9251 19.4308C14.828 19.851 14.5993 20.2293 14.2723 20.5105C13.9453 20.7917 13.537 20.9612 13.107 20.9942L12.9513 21.0005H11.0486C10.6173 21.0005 10.1973 20.8628 9.84976 20.6075C9.50218 20.3522 9.24519 19.9926 9.11619 19.5811L9.07569 19.4308L8.05864 15.0251C8.02979 14.8992 7.96544 14.7843 7.87323 14.6939C6.36115 13.2178 5.55381 11.577 5.48001 9.79403L5.47461 9.52582L5.47821 9.3098C5.53449 7.61767 6.24625 6.01366 7.46317 4.83655C8.68008 3.65944 10.3069 3.00049 11.9999 3.00049ZM13.9035 17.8503H10.0954L10.3916 19.1284C10.4225 19.2613 10.4929 19.3818 10.5937 19.4738C10.6944 19.5659 10.8207 19.6253 10.9559 19.6441L11.0486 19.6513H12.9513C13.088 19.6512 13.2214 19.6095 13.3339 19.5319C13.4464 19.4543 13.5327 19.3443 13.5813 19.2166L13.6083 19.1275L13.9035 17.8503ZM11.9999 4.35056C10.6616 4.35051 9.37532 4.86891 8.41104 5.79694C7.44676 6.72497 6.87948 7.99047 6.82828 9.3278L6.82468 9.52582L6.83098 9.77513C6.89938 11.1819 7.55101 12.4933 8.81648 13.7281C9.05409 13.9603 9.2305 14.2465 9.3304 14.5616L9.3745 14.7218L9.78402 16.4994H14.2149L14.6272 14.7209C14.7014 14.3979 14.8538 14.0982 15.0709 13.8478L15.1852 13.7281C16.4489 12.4924 17.1005 11.1828 17.1689 9.77513L17.1752 9.52582L17.1716 9.3278C17.1206 7.99031 16.5534 6.72459 15.5891 5.79636C14.6248 4.86814 13.3384 4.35052 11.9999 4.35056Z" fill="black"/>
</svg>
