<svg width="24" height="24" viewBox="0 0 24 24" fill="none" xmlns="http://www.w3.org/2000/svg">
<path d="M19.713 8.12798L19.467 8.69398C19.4286 8.78615 19.3637 8.86488 19.2806 8.92026C19.1975 8.97563 19.0999 9.00518 19 9.00518C18.9001 9.00518 18.8025 8.97563 18.7194 8.92026C18.6363 8.86488 18.5714 8.78615 18.533 8.69398L18.287 8.12798C17.8545 7.12671 17.0624 6.3239 16.067 5.87798L15.308 5.53898C15.2159 5.49662 15.1379 5.42875 15.0832 5.34341C15.0286 5.25807 14.9995 5.15884 14.9995 5.05748C14.9995 4.95613 15.0286 4.85689 15.0832 4.77155C15.1379 4.68621 15.2159 4.61834 15.308 4.57598L16.025 4.25698C17.0454 3.79836 17.8511 2.96586 18.276 1.93098L18.529 1.31998C18.5662 1.22534 18.631 1.14408 18.715 1.08681C18.799 1.02953 18.8983 0.998901 19 0.998901C19.1017 0.998901 19.201 1.02953 19.285 1.08681C19.369 1.14408 19.4338 1.22534 19.471 1.31998L19.724 1.92998C20.1485 2.96506 20.9538 3.79792 21.974 4.25698L22.692 4.57698C22.7838 4.61946 22.8615 4.68732 22.916 4.77256C22.9705 4.85779 22.9994 4.95683 22.9994 5.05798C22.9994 5.15914 22.9705 5.25818 22.916 5.34341C22.8615 5.42864 22.7838 5.4965 22.692 5.53898L21.932 5.87698C20.9368 6.32335 20.1451 7.12651 19.713 8.12798ZM22.9 21L18.5 9.99998H16.5L12.101 21H14.255L15.454 18H19.544L20.745 21H22.9ZM16.253 16L17.5 12.885L18.745 16H16.253ZM7.547 12.304C6.40758 11.0095 5.45684 9.56054 4.723 7.99998H6.963C7.52893 9.04053 8.2066 10.0163 8.984 10.91C10.286 9.47589 11.3076 7.81047 11.996 5.99998H2V3.99998H8V1.99998H10V3.99998H14.65C14.5627 4.42998 14.4597 4.85398 14.341 5.27198C13.5941 7.90385 12.2405 10.3239 10.389 12.338C11.1106 12.987 11.8887 13.5704 12.714 14.081L11.961 15.963C10.884 15.3246 9.87541 14.5773 8.951 13.733C7.15683 15.2878 5.06507 16.4612 2.803 17.182L2.197 15.276C4.16013 14.6507 5.97891 13.6404 7.547 12.304Z" fill="black"/>
</svg>
