<svg width="24" height="24" viewBox="0 0 24 24" fill="none" xmlns="http://www.w3.org/2000/svg">
<path d="M9.525 4.35C9.10728 4.35 8.70668 4.51594 8.41131 4.81131C8.11594 5.10668 7.95 5.50728 7.95 5.925V6.825C7.95 7.00402 7.87888 7.17571 7.7523 7.3023C7.62571 7.42888 7.45402 7.5 7.275 7.5C7.09598 7.5 6.92429 7.42888 6.7977 7.3023C6.67112 7.17571 6.6 7.00402 6.6 6.825V5.925C6.6 5.14924 6.90817 4.40526 7.45671 3.85671C8.00526 3.30817 8.74924 3 9.525 3H10.425C10.604 3 10.7757 3.07112 10.9023 3.1977C11.0289 3.32429 11.1 3.49598 11.1 3.675C11.1 3.85402 11.0289 4.02571 10.9023 4.1523C10.7757 4.27888 10.604 4.35 10.425 4.35H9.525ZM12 3.675C12 3.49598 12.0711 3.32429 12.1977 3.1977C12.3243 3.07112 12.496 3 12.675 3H14.925C15.104 3 15.2757 3.07112 15.4023 3.1977C15.5289 3.32429 15.6 3.49598 15.6 3.675C15.6 3.85402 15.5289 4.02571 15.4023 4.1523C15.2757 4.27888 15.104 4.35 14.925 4.35H12.675C12.496 4.35 12.3243 4.27888 12.1977 4.1523C12.0711 4.02571 12 3.85402 12 3.675ZM12.675 16.05C12.496 16.05 12.3243 16.1211 12.1977 16.2477C12.0711 16.3743 12 16.546 12 16.725C12 16.904 12.0711 17.0757 12.1977 17.2023C12.3243 17.3289 12.496 17.4 12.675 17.4H14.925C15.104 17.4 15.2757 17.3289 15.4023 17.2023C15.5289 17.0757 15.6 16.904 15.6 16.725C15.6 16.546 15.5289 16.3743 15.4023 16.2477C15.2757 16.1211 15.104 16.05 14.925 16.05H12.675ZM7.275 8.4C7.45402 8.4 7.62571 8.47112 7.7523 8.5977C7.87888 8.72429 7.95 8.89598 7.95 9.075V11.325C7.95 11.504 7.87888 11.6757 7.7523 11.8023C7.62571 11.9289 7.45402 12 7.275 12C7.09598 12 6.92429 11.9289 6.7977 11.8023C6.67112 11.6757 6.6 11.504 6.6 11.325V9.075C6.6 8.89598 6.67112 8.72429 6.7977 8.5977C6.92429 8.47112 7.09598 8.4 7.275 8.4ZM21 9.075C21 8.89598 20.9289 8.72429 20.8023 8.5977C20.6757 8.47112 20.504 8.4 20.325 8.4C20.146 8.4 19.9743 8.47112 19.8477 8.5977C19.7211 8.72429 19.65 8.89598 19.65 9.075V11.325C19.65 11.504 19.7211 11.6757 19.8477 11.8023C19.9743 11.9289 20.146 12 20.325 12C20.504 12 20.6757 11.9289 20.8023 11.8023C20.9289 11.6757 21 11.504 21 11.325V9.075ZM18.075 16.05C18.4927 16.05 18.8933 15.8841 19.1887 15.5887C19.4841 15.2933 19.65 14.8927 19.65 14.475V13.575C19.65 13.396 19.7211 13.2243 19.8477 13.0977C19.9743 12.9711 20.146 12.9 20.325 12.9C20.504 12.9 20.6757 12.9711 20.8023 13.0977C20.9289 13.2243 21 13.396 21 13.575V14.475C21 14.8591 20.9243 15.2395 20.7773 15.5943C20.6304 15.9492 20.4149 16.2717 20.1433 16.5433C19.8717 16.8149 19.5492 17.0304 19.1943 17.1773C18.8395 17.3243 18.4591 17.4 18.075 17.4H17.175C16.996 17.4 16.8243 17.3289 16.6977 17.2023C16.5711 17.0757 16.5 16.904 16.5 16.725C16.5 16.546 16.5711 16.3743 16.6977 16.2477C16.8243 16.1211 16.996 16.05 17.175 16.05H18.075ZM19.65 5.925C19.65 5.50728 19.4841 5.10668 19.1887 4.81131C18.8933 4.51594 18.4927 4.35 18.075 4.35H17.175C16.996 4.35 16.8243 4.27888 16.6977 4.1523C16.5711 4.02571 16.5 3.85402 16.5 3.675C16.5 3.49598 16.5711 3.32429 16.6977 3.1977C16.8243 3.07112 16.996 3 17.175 3H18.075C18.4591 3 18.8395 3.07566 19.1943 3.22265C19.5492 3.36965 19.8717 3.5851 20.1433 3.85671C20.4149 4.12832 20.6304 4.45077 20.7773 4.80565C20.9243 5.16053 21 5.54088 21 5.925V6.825C21 7.00402 20.9289 7.17571 20.8023 7.3023C20.6757 7.42888 20.504 7.5 20.325 7.5C20.146 7.5 19.9743 7.42888 19.8477 7.3023C19.7211 7.17571 19.65 7.00402 19.65 6.825V5.925ZM9.525 16.05C9.10728 16.05 8.70668 15.8841 8.41131 15.5887C8.11594 15.2933 7.95 14.8927 7.95 14.475V13.575C7.95 13.396 7.87888 13.2243 7.7523 13.0977C7.62571 12.9711 7.45402 12.9 7.275 12.9C7.09598 12.9 6.92429 12.9711 6.7977 13.0977C6.67112 13.2243 6.6 13.396 6.6 13.575V14.475C6.6 15.2508 6.90817 15.9947 7.45671 16.5433C8.00526 17.0918 8.74924 17.4 9.525 17.4H10.425C10.604 17.4 10.7757 17.3289 10.9023 17.2023C11.0289 17.0757 11.1 16.904 11.1 16.725C11.1 16.546 11.0289 16.3743 10.9023 16.2477C10.7757 16.1211 10.604 16.05 10.425 16.05H9.525ZM3 9.525C3.00008 8.78825 3.27819 8.07866 3.77875 7.53806C4.2793 6.99747 4.96543 6.66567 5.7 6.609V7.9662C5.32516 8.0203 4.98236 8.20766 4.73443 8.49395C4.48649 8.78023 4.35001 9.14627 4.35 9.525V15.825C4.35 16.8395 4.75299 17.8124 5.47032 18.5297C6.18764 19.247 7.16055 19.65 8.175 19.65H14.475C14.8537 19.65 15.2198 19.5135 15.5061 19.2656C15.7923 19.0176 15.9797 18.6748 16.0338 18.3H17.3919C17.3352 19.0347 17.0033 19.721 16.4625 20.2216C15.9217 20.7221 15.2119 21.0001 14.475 21H8.175C6.8025 21 5.48622 20.4548 4.51572 19.4843C3.54522 18.5138 3 17.1975 3 15.825V9.525Z" fill="black"/>
</svg>
