<svg width="24" height="24" viewBox="0 0 24 24" fill="none" xmlns="http://www.w3.org/2000/svg">
<path d="M7.56779 3.4193L8.63561 3.10489C9.22057 2.93222 9.84973 2.97378 10.4057 3.22184C10.9616 3.4699 11.4064 3.90749 11.657 4.45297L12.4823 6.24981C12.6978 6.719 12.7578 7.24245 12.6539 7.74671C12.55 8.25097 12.2875 8.71074 11.9031 9.06152L10.5352 10.3093C10.4952 10.3457 10.4699 10.395 10.4638 10.4481C10.4235 10.8037 10.6697 11.4961 11.2379 12.459C11.6497 13.1586 12.0239 13.6504 12.3414 13.9254C12.5638 14.1179 12.6855 14.1591 12.7376 14.1448L14.5768 13.5939C15.0791 13.4435 15.6168 13.4508 16.1146 13.6146C16.6125 13.7785 17.0455 14.0907 17.3529 14.5076L18.5242 16.0984C18.8807 16.5821 19.0459 17.176 18.989 17.7698C18.9321 18.3637 18.6571 18.9172 18.2149 19.3275L17.4033 20.0799C16.973 20.4788 16.4445 20.7618 15.8694 20.9014C15.2942 21.0409 14.6919 21.0323 14.1211 20.8762C11.6012 20.1874 9.342 18.1057 7.31799 14.6742C5.29215 11.2382 4.58027 8.27865 5.23725 5.79478C5.38473 5.23614 5.67672 4.72411 6.08508 4.30804C6.49344 3.89197 7.00348 3.58589 7.56779 3.4193ZM7.96491 4.70647C7.62625 4.80617 7.31953 4.98958 7.07433 5.23904C6.82912 5.48849 6.65369 5.79557 6.56493 6.13068C6.0141 8.21953 6.64454 10.8431 8.50751 14.0024C10.3686 17.1572 12.3716 19.0033 14.4917 19.5828C14.8342 19.6763 15.1955 19.6814 15.5406 19.5976C15.8857 19.5138 16.2027 19.3439 16.4608 19.1045L17.2715 18.3521C17.4726 18.1656 17.5978 17.9139 17.6237 17.6439C17.6496 17.3739 17.5745 17.1039 17.4124 16.884L16.2412 15.294C16.1014 15.1043 15.9045 14.9622 15.678 14.8877C15.4516 14.8131 15.2069 14.8099 14.9785 14.8784L13.1347 15.4311C12.0642 15.7428 11.0933 14.8999 10.0502 13.1308C9.34566 11.9395 9.01809 11.0169 9.10044 10.2994C9.14253 9.9268 9.32004 9.58284 9.59912 9.32666L10.9671 8.0789C11.1417 7.91937 11.2609 7.71031 11.308 7.48107C11.3551 7.25183 11.3277 7.01391 11.2297 6.80069L10.4052 5.00385C10.2913 4.7559 10.0891 4.557 9.83642 4.44426C9.58369 4.33152 9.2977 4.31265 9.03181 4.39117L7.96491 4.70647Z" fill="black"/>
</svg>
