<svg width="24" height="24" viewBox="0 0 24 24" fill="none" xmlns="http://www.w3.org/2000/svg">
<path d="M21.9491 12.992L21.7511 14.029C21.5661 15 20.6591 15.652 19.6311 15.553L17.5841 15.355C16.6921 15.269 15.9321 14.635 15.7061 13.789L15.0741 11.434C14.1401 11.0507 13.1101 10.8757 11.9841 10.909C10.9007 10.9323 9.83293 11.1727 8.8441 11.616L8.4531 13.821C8.3051 14.657 7.6151 15.28 6.7421 15.368L4.7071 15.572C3.6921 15.674 2.7191 15.028 2.4301 14.062L2.1211 13.025C1.8131 11.993 2.0881 10.907 2.8421 10.174C4.62276 8.44403 7.5921 7.57603 11.7501 7.57003C15.9134 7.56536 18.9751 8.42803 20.9351 10.158C21.7591 10.886 22.1451 11.964 21.9501 12.992" fill="black"/>
</svg>
