<svg width="24" height="24" viewBox="0 0 24 24" fill="none" xmlns="http://www.w3.org/2000/svg">
<path d="M4.21983 15.5301C4.36045 15.6705 4.55108 15.7494 4.74983 15.7494C4.94858 15.7494 5.1392 15.6705 5.27983 15.5301L11.9998 8.81007L18.7198 15.5301C18.7885 15.6038 18.8713 15.6629 18.9633 15.7039C19.0553 15.7448 19.1546 15.7669 19.2553 15.7687C19.356 15.7704 19.456 15.7519 19.5494 15.7142C19.6428 15.6765 19.7276 15.6203 19.7989 15.5491C19.8701 15.4779 19.9262 15.3931 19.964 15.2997C20.0017 15.2063 20.0202 15.1063 20.0184 15.0056C20.0166 14.9048 19.9946 14.8055 19.9536 14.7135C19.9126 14.6215 19.8535 14.5387 19.7798 14.4701L12.5298 7.22007C12.3892 7.07962 12.1986 7.00073 11.9998 7.00073C11.8011 7.00073 11.6105 7.07962 11.4698 7.22007L4.21983 14.4701C4.07938 14.6107 4.00049 14.8013 4.00049 15.0001C4.00049 15.1988 4.07938 15.3894 4.21983 15.5301Z" fill="black"/>
</svg>
