<svg width="24" height="24" viewBox="0 0 24 24" fill="none" xmlns="http://www.w3.org/2000/svg">
<path d="M6.60005 3C6.12266 3 5.66482 3.18964 5.32726 3.52721C4.98969 3.86477 4.80005 4.32261 4.80005 4.8V19.2C4.80005 19.6774 4.98969 20.1352 5.32726 20.4728C5.66482 20.8104 6.12266 21 6.60005 21H17.4C17.8774 21 18.3353 20.8104 18.6728 20.4728C19.0104 20.1352 19.2 19.6774 19.2 19.2V10.0452C19.1999 9.56785 19.0102 9.11009 18.6726 8.7726L13.4274 3.5274C13.09 3.18981 12.6322 3.0001 12.1548 3H6.60005ZM6.15005 4.8C6.15005 4.68065 6.19746 4.56619 6.28185 4.4818C6.36624 4.39741 6.4807 4.35 6.60005 4.35H12V8.4C12 8.87739 12.1897 9.33523 12.5273 9.67279C12.8648 10.0104 13.3227 10.2 13.8 10.2H17.85V19.2C17.85 19.3193 17.8026 19.4338 17.7182 19.5182C17.6339 19.6026 17.5194 19.65 17.4 19.65H6.60005C6.4807 19.65 6.36624 19.6026 6.28185 19.5182C6.19746 19.4338 6.15005 19.3193 6.15005 19.2V4.8ZM16.842 8.85H13.8C13.6807 8.85 13.5662 8.80259 13.4819 8.7182C13.3975 8.63381 13.35 8.51935 13.35 8.4V5.358L16.842 8.85Z" fill="black"/>
</svg>
