<svg width="24" height="24" viewBox="0 0 24 24" fill="none" xmlns="http://www.w3.org/2000/svg">
<path d="M10.929 3.206C11.2503 3.00575 11.6214 2.8996 12 2.8996C12.3786 2.8996 12.7497 3.00575 13.071 3.206L20.046 7.5557C20.1156 7.5989 20.1819 7.646 20.2449 7.697L12 12.035L3.7506 7.6997C3.8148 7.6487 3.8823 7.6007 3.9531 7.5557L10.929 3.206ZM3.0432 8.8526C3.01444 8.99115 2.99997 9.13229 3 9.2738V16.175C3 16.9508 3.30817 17.6947 3.85671 18.2433C4.40526 18.7918 5.14924 19.1 5.925 19.1H18.075C18.4591 19.1 18.8395 19.0243 19.1943 18.8773C19.5492 18.7304 19.8717 18.5149 20.1433 18.2433C20.4149 17.9717 20.6304 17.6492 20.7773 17.2943C20.9243 16.9395 21 16.5591 21 16.175V9.2738C21 9.1292 20.985 8.9876 20.955 8.849L12.315 13.394C12.2181 13.4452 12.1102 13.4721 12.0006 13.4722C11.891 13.4724 11.783 13.4458 11.6859 13.3949L3.0432 8.8526Z" fill="black"/>
</svg>
