<svg width="24" height="24" viewBox="0 0 24 24" fill="none" xmlns="http://www.w3.org/2000/svg">
<path d="M12 2.99988C16.9706 2.99988 21 7.02927 21 11.9999C21 16.9696 16.9706 20.9981 12 20.9981C7.02939 20.9981 3 16.9696 3 11.9999C3 7.02927 7.02939 2.99988 12 2.99988ZM8.81644 14.5041C8.76161 14.4344 8.69359 14.3762 8.61628 14.3329C8.53897 14.2895 8.45387 14.2618 8.36584 14.2513C8.18807 14.2301 8.00916 14.2804 7.86848 14.3911C7.79882 14.446 7.74064 14.514 7.69727 14.5913C7.65389 14.6686 7.62617 14.7537 7.61568 14.8417C7.59451 15.0195 7.64482 15.1984 7.75555 15.3391C8.26047 15.9819 8.90498 16.5015 9.64032 16.8585C10.3757 17.2155 11.1826 17.4006 12 17.3997C12.8162 17.4005 13.622 17.216 14.3564 16.86C15.0909 16.5039 15.735 15.9858 16.24 15.3445C16.2949 15.275 16.3356 15.1953 16.3598 15.11C16.3839 15.0247 16.391 14.9355 16.3807 14.8475C16.3704 14.7595 16.3428 14.6744 16.2996 14.597C16.2564 14.5196 16.1984 14.4515 16.1288 14.3965C16.0593 14.3416 15.9796 14.3009 15.8943 14.2767C15.8091 14.2526 15.7199 14.2455 15.6318 14.2558C15.5438 14.2661 15.4587 14.2937 15.3813 14.3369C15.3039 14.3801 15.2358 14.4381 15.1809 14.5077C14.8022 14.989 14.3191 15.378 13.7681 15.6452C13.217 15.9124 12.6124 16.0508 12 16.05C10.7421 16.05 9.57948 15.4741 8.81644 14.5041ZM9.30054 9.07546C9.15021 9.07121 9.00056 9.09714 8.86044 9.15173C8.72031 9.20632 8.59255 9.28846 8.48472 9.39328C8.37689 9.49811 8.29117 9.62349 8.23264 9.76202C8.17411 9.90054 8.14395 10.0494 8.14395 10.1998C8.14395 10.3502 8.17411 10.499 8.23264 10.6376C8.29117 10.7761 8.37689 10.9015 8.48472 11.0063C8.59255 11.1111 8.72031 11.1933 8.86044 11.2478C9.00056 11.3024 9.15021 11.3284 9.30054 11.3241C9.59322 11.3158 9.87114 11.1937 10.0752 10.9838C10.2793 10.7738 10.3935 10.4926 10.3935 10.1998C10.3935 9.90699 10.2793 9.62573 10.0752 9.41578C9.87114 9.20583 9.59322 9.08374 9.30054 9.07546ZM14.6995 9.07546C14.5491 9.07121 14.3995 9.09714 14.2594 9.15173C14.1192 9.20632 13.9915 9.28846 13.8836 9.39328C13.7758 9.49811 13.6901 9.62349 13.6316 9.76202C13.573 9.90054 13.5429 10.0494 13.5429 10.1998C13.5429 10.3502 13.573 10.499 13.6316 10.6376C13.6901 10.7761 13.7758 10.9015 13.8836 11.0063C13.9915 11.1111 14.1192 11.1933 14.2594 11.2478C14.3995 11.3024 14.5491 11.3284 14.6995 11.3241C14.9921 11.3158 15.2701 11.1937 15.4742 10.9838C15.6782 10.7738 15.7924 10.4926 15.7924 10.1998C15.7924 9.90699 15.6782 9.62573 15.4742 9.41578C15.2701 9.20583 14.9921 9.08374 14.6995 9.07546Z" fill="black"/>
</svg>
