<svg width="24" height="24" viewBox="0 0 24 24" fill="none" xmlns="http://www.w3.org/2000/svg">
<path d="M12 3C16.9707 3 21 7.0293 21 12C21 16.9707 16.9707 21 12 21C7.0293 21 3 16.9707 3 12C3 7.0293 7.0293 3 12 3ZM11.9991 14.2518C11.8776 14.2464 11.7563 14.2656 11.6425 14.3083C11.5287 14.3511 11.4247 14.4164 11.3369 14.5004C11.249 14.5845 11.1791 14.6854 11.1313 14.7972C11.0835 14.909 11.0589 15.0293 11.0589 15.1509C11.0589 15.2725 11.0835 15.3928 11.1313 15.5046C11.1791 15.6164 11.249 15.7173 11.3369 15.8014C11.4247 15.8854 11.5287 15.9507 11.6425 15.9935C11.7563 16.0362 11.8776 16.0554 11.9991 16.05C12.2306 16.0396 12.4492 15.9404 12.6093 15.7729C12.7695 15.6054 12.8589 15.3826 12.8589 15.1509C12.8589 14.9192 12.7695 14.6964 12.6093 14.5289C12.4492 14.3614 12.2306 14.2622 11.9991 14.2518ZM11.9946 7.5C11.906 7.50012 11.8182 7.51769 11.7364 7.55173C11.6545 7.58576 11.5802 7.63558 11.5176 7.69834C11.455 7.7611 11.4053 7.83558 11.3715 7.91752C11.3377 7.99946 11.3204 8.08726 11.3205 8.1759L11.3241 12.2268L11.3304 12.3177C11.3537 12.4871 11.4405 12.6414 11.5731 12.7493C11.7058 12.8572 11.8745 12.9108 12.0451 12.8991C12.2157 12.8875 12.3756 12.8115 12.4923 12.6865C12.6091 12.5615 12.674 12.3969 12.6741 12.2259L12.6705 8.1741L12.6642 8.0823C12.6418 7.92071 12.5616 7.7727 12.4385 7.66566C12.3154 7.55861 12.1577 7.49976 11.9946 7.5Z" fill="black"/>
</svg>
