<svg width="24" height="24" viewBox="0 0 24 24" fill="none" xmlns="http://www.w3.org/2000/svg">
<path d="M7.59717 15.349C7.7393 15.2166 7.9273 15.1445 8.12154 15.1479C8.31579 15.1513 8.50112 15.23 8.6385 15.3674C8.77587 15.5048 8.85456 15.6901 8.85799 15.8843C8.86142 16.0786 8.78931 16.2666 8.65687 16.4087L5.56273 19.5019H7.75112C7.93231 19.5019 8.10737 19.5675 8.24392 19.6866C8.38047 19.8057 8.46927 19.9702 8.49392 20.1497L8.50091 20.2516C8.50091 20.4505 8.42192 20.6412 8.28131 20.7818C8.14069 20.9224 7.94998 21.0014 7.75112 21.0014H3.75223C3.55338 21.0014 3.36266 20.9224 3.22205 20.7818C3.08144 20.6412 3.00244 20.4505 3.00244 20.2516V16.2528C3.00244 16.0539 3.08144 15.8632 3.22205 15.7226C3.36266 15.582 3.55338 15.503 3.75223 15.503C3.95109 15.503 4.1418 15.582 4.28242 15.7226C4.42303 15.8632 4.50202 16.0539 4.50202 16.2528V18.4422L7.59717 15.349ZM16.2538 21.0014C16.0549 21.0014 15.8642 20.9224 15.7236 20.7818C15.583 20.6412 15.504 20.4505 15.504 20.2516C15.504 20.0528 15.583 19.8621 15.7236 19.7215C15.8642 19.5809 16.0549 19.5019 16.2538 19.5019H18.4392L15.349 16.4087C15.222 16.2818 15.1448 16.1135 15.1314 15.9344C15.118 15.7553 15.1693 15.5774 15.276 15.433L15.349 15.349C15.4896 15.2086 15.6802 15.1297 15.8789 15.1297C16.0776 15.1297 16.2681 15.2086 16.4087 15.349L19.5029 18.4442V16.2528C19.5029 16.0716 19.5685 15.8965 19.6876 15.76C19.8067 15.6234 19.9712 15.5346 20.1507 15.51L20.2526 15.503C20.4515 15.503 20.6422 15.582 20.7828 15.7226C20.9234 15.8632 21.0024 16.0539 21.0024 16.2528V20.2516C21.0024 20.4505 20.9234 20.6412 20.7828 20.7818C20.6422 20.9224 20.4515 21.0014 20.2526 21.0014H16.2538ZM7.75112 3.00244C7.94998 3.00244 8.14069 3.08144 8.28131 3.22205C8.42192 3.36266 8.50091 3.55338 8.50091 3.75223C8.50091 3.95109 8.42192 4.1418 8.28131 4.28242C8.14069 4.42303 7.94998 4.50202 7.75112 4.50202H5.56473L8.65687 7.59617C8.7837 7.72324 8.86073 7.89162 8.87393 8.07067C8.88714 8.24973 8.83566 8.42758 8.72885 8.57189L8.65587 8.65687C8.51529 8.79728 8.32471 8.87615 8.12602 8.87615C7.92732 8.87615 7.73675 8.79728 7.59617 8.65687L4.50202 5.55873V7.75112C4.50202 7.93231 4.4364 8.10737 4.31731 8.24392C4.19822 8.38047 4.03371 8.46927 3.8542 8.49392L3.75223 8.50091C3.55338 8.50091 3.36266 8.42192 3.22205 8.2813C3.08144 8.14069 3.00244 7.94998 3.00244 7.75112V3.75223C3.00244 3.55338 3.08144 3.36266 3.22205 3.22205C3.36266 3.08144 3.55338 3.00244 3.75223 3.00244H7.75112ZM20.2526 3.00244C20.4515 3.00244 20.6422 3.08144 20.7828 3.22205C20.9234 3.36266 21.0024 3.55338 21.0024 3.75223V7.75112C21.0024 7.94998 20.9234 8.14069 20.7828 8.2813C20.6422 8.42192 20.4515 8.50091 20.2526 8.50091C20.0538 8.50091 19.8631 8.42192 19.7225 8.2813C19.5819 8.14069 19.5029 7.94998 19.5029 7.75112V5.56073L16.4087 8.65587C16.2818 8.78285 16.1135 8.86006 15.9344 8.87345C15.7553 8.88685 15.5774 8.83553 15.433 8.72885L15.349 8.65587C15.2086 8.51528 15.1297 8.32471 15.1297 8.12602C15.1297 7.92732 15.2086 7.73675 15.349 7.59617L18.4402 4.50202H16.2538C16.0726 4.50202 15.8975 4.4364 15.761 4.31731C15.6244 4.19822 15.5356 4.03371 15.511 3.8542L15.504 3.75223C15.504 3.55338 15.583 3.36266 15.7236 3.22205C15.8642 3.08144 16.0549 3.00244 16.2538 3.00244H20.2526Z" fill="black"/>
</svg>
