<svg width="24" height="24" viewBox="0 0 24 24" fill="none" xmlns="http://www.w3.org/2000/svg">
<path d="M19.8115 7.51339C19.6116 7.09577 19.3301 6.72244 18.9835 6.41546L16.2837 3.9676C15.6894 3.4229 14.9349 3.0851 14.1328 3.00465H8.58912C7.99296 2.97937 7.39772 3.07291 6.83805 3.27984C6.27838 3.48676 5.76545 3.80293 5.32912 4.20995C4.89279 4.61697 4.54177 5.10671 4.29649 5.65066C4.05121 6.19461 3.91656 6.78192 3.90039 7.3784V16.6479C3.93223 17.5474 4.2331 18.4167 4.76412 19.1434C5.29514 19.8702 6.03191 20.421 6.87922 20.7246C7.43009 20.934 8.01863 21.026 8.60712 20.9946H15.4107C16.0069 21.0199 16.6021 20.9264 17.1618 20.7194C17.7215 20.5125 18.2344 20.1963 18.6707 19.7893C19.1071 19.3823 19.4581 18.8926 19.7034 18.3486C19.9486 17.8047 20.0833 17.2173 20.0995 16.6209V8.90831C20.1038 8.42815 20.0056 7.95258 19.8115 7.51339ZM15.4557 14.785L13.0619 17.1878C12.9241 17.3219 12.7623 17.4287 12.5849 17.5028C12.4643 17.5568 12.3383 17.5898 12.2069 17.6018C12.0884 17.6288 11.9654 17.6288 11.8469 17.6018C11.7163 17.5902 11.5885 17.5568 11.469 17.5028C11.2916 17.4287 11.1298 17.3219 10.992 17.1878L8.59812 14.785C8.45069 14.6128 8.37364 14.3914 8.38239 14.1649C8.39114 13.9384 8.48504 13.7235 8.64531 13.5632C8.80559 13.403 9.02044 13.3091 9.24694 13.3003C9.47343 13.2916 9.69489 13.3686 9.86705 13.516L11.127 14.776V10.6272C11.127 10.3885 11.2218 10.1596 11.3906 9.99085C11.5593 9.82208 11.7882 9.72727 12.0269 9.72727C12.2656 9.72727 12.4945 9.82208 12.6633 9.99085C12.8321 10.1596 12.9269 10.3885 12.9269 10.6272V14.776L14.1868 13.516C14.359 13.3686 14.5804 13.2916 14.8069 13.3003C15.0334 13.3091 15.2483 13.403 15.4085 13.5632C15.5688 13.7235 15.6627 13.9384 15.6715 14.1649C15.6802 14.3914 15.6032 14.6128 15.4557 14.785ZM15.6537 7.86437C15.5253 7.86556 15.398 7.8413 15.279 7.79299C15.16 7.74467 15.0518 7.67327 14.9606 7.5829C14.8694 7.49253 14.797 7.38498 14.7476 7.26647C14.6982 7.14795 14.6728 7.02083 14.6728 6.89243V4.50756C14.9248 4.64436 15.1677 4.79735 15.4017 4.96654L18.1016 7.4234C18.2516 7.54999 18.3776 7.69698 18.4796 7.86437H15.6537Z" fill="black"/>
</svg>
