<svg width="24" height="24" viewBox="0 0 24 24" fill="none" xmlns="http://www.w3.org/2000/svg">
<path d="M12.4591 5.0646C12.7498 4.8459 13.0387 4.6776 13.2961 4.5588C13.3753 6.4731 14.3104 7.9122 15.2122 9.1848L15.457 9.5286C16.4317 10.8948 17.2669 12.0657 17.3578 13.6146C17.4631 15.3984 17.0185 16.9059 16.1554 17.9562C15.3049 18.993 13.9909 19.65 12.1999 19.65C10.345 19.65 8.95088 19.1739 7.97708 18.3756C7.00868 17.5809 6.39038 16.4127 6.18338 14.8908C5.97998 13.3941 6.34178 12.3303 6.73328 11.6481C6.81128 11.5143 6.88868 11.3943 6.96548 11.2881L7.24898 11.8263C7.48768 12.2796 7.89238 12.6231 8.37846 12.785C8.86454 12.9468 9.39437 12.9145 9.85718 12.6948C11.0326 12.1368 11.2828 10.7031 10.9102 9.6978C10.6492 8.994 10.5097 8.1345 10.8112 7.2732C11.1505 6.3084 11.794 5.5677 12.4591 5.0646ZM6.71528 9.5916H6.71348L6.70988 9.5952L6.70088 9.6024C6.66182 9.63204 6.62399 9.66327 6.58748 9.696C6.49326 9.77946 6.40258 9.86684 6.31568 9.9579C6.09968 10.1856 5.82248 10.524 5.56238 10.9767C5.03858 11.8902 4.59848 13.2519 4.84598 15.0726C5.08988 16.8699 5.84498 18.372 7.12118 19.4196C8.39378 20.4636 10.1164 21 12.1999 21C14.3482 21 16.0636 20.1945 17.1985 18.813C18.3235 17.4441 18.8257 15.5766 18.706 13.5354C18.5908 11.577 17.5243 10.0911 16.582 8.7789L16.3129 8.4036C15.2851 6.9528 14.4742 5.6163 14.6713 3.7461C14.6813 3.65197 14.6713 3.5568 14.6421 3.46677C14.6129 3.37673 14.5651 3.29384 14.5018 3.22348C14.4385 3.15312 14.3611 3.09687 14.2746 3.05837C14.1881 3.01986 14.0945 2.99998 13.9999 3C13.6561 3 13.2619 3.1062 12.8821 3.2664C12.4423 3.45496 12.0273 3.69676 11.6464 3.9864C10.8139 4.6146 9.98138 5.5614 9.53768 6.8268C9.09488 8.0886 9.31988 9.291 9.64388 10.1667C9.85718 10.7418 9.62588 11.3097 9.27758 11.4753C9.12938 11.5454 8.95982 11.5555 8.80434 11.5035C8.64886 11.4515 8.51949 11.3415 8.44328 11.1963L7.71788 9.8184C7.67248 9.73196 7.60887 9.6564 7.53143 9.59693C7.45399 9.53745 7.36458 9.49549 7.26935 9.47393C7.17412 9.45237 7.07535 9.45172 6.97985 9.47204C6.88435 9.49235 6.79349 9.53315 6.71528 9.5916Z" fill="black"/>
</svg>
