<svg width="24" height="24" viewBox="0 0 24 24" fill="none" xmlns="http://www.w3.org/2000/svg">
<path d="M13.5425 7.16446V3.9281C13.5425 3.55528 13.8447 3.25305 14.2175 3.25305C14.5903 3.25305 14.8926 3.55528 14.8926 3.9281V7.16446C14.8926 7.42295 14.9952 7.67236 15.1791 7.8562C15.3648 8.04104 15.6168 8.1446 15.8788 8.14451H19.5915C19.9642 8.14451 20.2664 8.44691 20.2666 8.81955C20.2666 9.19237 19.9644 9.4946 19.5915 9.4946H15.8788C15.2598 9.4947 14.6659 9.25011 14.2272 8.8134V8.81252C13.7888 8.37541 13.5425 7.78223 13.5425 7.16446Z" fill="black"/>
<path d="M8.81497 3.25292L13.9587 3.25204V3.25292C14.8515 3.25041 15.715 3.55952 16.4013 4.12486L16.5367 4.24088L16.5402 4.2444L19.2044 6.69496C19.5528 6.99909 19.8352 7.37161 20.0324 7.79015C20.2326 8.21533 20.3409 8.67828 20.3505 9.14816V16.8971C20.3295 17.4904 20.191 18.0741 19.9436 18.6138C19.6961 19.1534 19.344 19.639 18.9082 20.0421C18.4725 20.4463 17.9615 20.7608 17.4042 20.9676C16.8547 21.1716 16.2707 21.2658 15.685 21.2471V21.248H8.85277V21.2471C8.26576 21.2699 7.67982 21.1802 7.12736 20.9799C6.63545 20.8016 6.17841 20.5396 5.77638 20.2064L5.60674 20.0588C5.16668 19.6547 4.81081 19.1669 4.56077 18.6243C4.31077 18.0818 4.17074 17.495 4.14941 16.898V7.60293C4.17043 7.00965 4.30897 6.42595 4.55638 5.88631C4.80384 5.34669 5.15597 4.86106 5.5918 4.45799C6.0275 4.05373 6.5385 3.73925 7.09571 3.53243C7.64526 3.3285 8.22926 3.23428 8.81497 3.25292ZM8.79036 4.60214C8.37338 4.5865 7.95718 4.653 7.56596 4.79815C7.1747 4.94334 6.81533 5.16381 6.50944 5.4477L6.50856 5.44858C6.20337 5.73078 5.95668 6.07102 5.78341 6.44885C5.61023 6.8266 5.51422 7.2351 5.49951 7.6504V16.8497L5.5083 17.0061C5.53942 17.3702 5.63369 17.7265 5.78693 18.0591C5.96204 18.4391 6.21096 18.7807 6.51911 19.0638L6.63777 19.1666C6.92037 19.4008 7.24127 19.5853 7.58706 19.7107C7.98224 19.854 8.40208 19.918 8.82201 19.8988L8.85277 19.8979H15.7096C16.1266 19.9136 16.5428 19.8471 16.934 19.7019C17.3253 19.5567 17.6846 19.3363 17.9905 19.0524L17.9914 19.0515C18.2966 18.7693 18.5433 18.429 18.7165 18.0512C18.8897 17.6735 18.9857 17.265 19.0005 16.8497V9.1754C18.9946 8.89522 18.93 8.61942 18.8106 8.36588C18.6911 8.11214 18.5194 7.88618 18.3069 7.70313C18.3014 7.69837 18.2956 7.69313 18.2902 7.68819L15.6261 5.23851V5.23763C15.1693 4.82633 14.5752 4.59996 13.9605 4.60214H8.79036Z" fill="black"/>
<path d="M11.575 16.9974V10.9C11.575 10.5272 11.8772 10.225 12.25 10.225C12.6228 10.225 12.925 10.5272 12.925 10.9V16.9974C12.9248 17.3701 12.6227 17.6725 12.25 17.6725C11.8773 17.6725 11.5752 17.3701 11.575 16.9974Z" fill="black"/>
<path d="M8.97697 13.9518C9.24061 13.6883 9.66795 13.6882 9.93153 13.9518L12.2494 16.2705L14.5681 13.9527C14.8317 13.6891 15.259 13.6891 15.5226 13.9527C15.7863 14.2163 15.7863 14.6436 15.5226 14.9073L13.1239 17.306C13.0098 17.4207 12.8742 17.5117 12.7249 17.574C12.5745 17.6369 12.4132 17.6698 12.2502 17.6699C12.0871 17.6699 11.9253 17.6369 11.7747 17.574C11.6243 17.5112 11.4877 17.4193 11.373 17.3033V17.3024L8.97697 14.9064C8.71343 14.6427 8.71339 14.2154 8.97697 13.9518Z" fill="black"/>
</svg>
