<svg width="24" height="24" viewBox="0 0 24 24" fill="none" xmlns="http://www.w3.org/2000/svg">
<path d="M9.21405 16.0491H14.7855C14.2277 18.9941 13.111 20.9979 11.9998 20.9979C10.9227 20.9979 9.8403 19.1138 9.26624 16.3154L9.21405 16.0491ZM3.96111 16.05H7.83558C8.1631 17.9234 8.72007 19.5178 9.448 20.6326C7.16037 19.9536 5.23479 18.3962 4.09248 16.301L3.96111 16.05ZM16.1649 16.05H20.0385C19.4843 17.1472 18.7119 18.1196 17.7685 18.9076C16.8252 19.6956 15.7308 20.2826 14.5525 20.6326C15.2318 19.5907 15.7618 18.133 16.0956 16.4207L16.1649 16.05ZM16.4366 10.2014H20.8186C21.1222 11.6965 21.0427 13.2442 20.5873 14.7003H16.3547C16.4914 13.4022 16.5305 12.0956 16.4717 10.7917L16.4366 10.2014ZM3.1819 10.2005H7.56385C7.46893 11.5249 7.47886 12.8547 7.59354 14.1776L7.64483 14.6994H3.41224C2.95658 13.2434 2.87672 11.6957 3.1801 10.2005M8.91802 10.2005H15.0806C15.1827 11.5262 15.1716 12.8582 15.0474 14.1821L14.9916 14.6994H9.0071C8.84989 13.3522 8.81015 11.9938 8.88833 10.6396L8.91802 10.2005ZM14.6479 3.5205L14.5507 3.36754C15.8884 3.76452 17.1159 4.46629 18.1366 5.41771C19.1573 6.36912 19.9435 7.54428 20.4335 8.85083H16.3035C16.0191 6.67695 15.4424 4.809 14.6496 3.5214L14.5525 3.36844L14.6479 3.5205ZM9.33732 3.40083L9.4471 3.36754C8.65529 4.58315 8.06593 6.36382 7.7528 8.45492L7.69701 8.85083H3.5688C4.05164 7.5627 4.82256 6.402 5.82266 5.45742C6.82275 4.51285 8.02554 3.8094 9.33912 3.40083L9.4489 3.36754L9.33732 3.40083ZM11.9998 3.00403C13.1866 3.00403 14.3806 5.29128 14.8917 8.5674L14.934 8.85083H9.06559C9.55237 5.42355 10.7797 3.00403 11.9998 3.00403Z" fill="black"/>
</svg>
