<svg width="24" height="24" viewBox="0 0 24 24" fill="none" xmlns="http://www.w3.org/2000/svg">
<path d="M6.85714 3C5.83416 3 4.85309 3.40638 4.12973 4.12973C3.40638 4.85309 3 5.83416 3 6.85714V17.1429C3 17.9786 3.26486 18.75 3.71614 19.3826L10.6461 12.558C11.0069 12.2027 11.493 12.0035 11.9994 12.0035C12.5057 12.0035 12.9918 12.2027 13.3526 12.558L20.2826 19.3826C20.7506 18.7297 21.0016 17.9462 21 17.1429V6.85714C21 5.83416 20.5936 4.85309 19.8703 4.12973C19.1469 3.40638 18.1658 3 17.1429 3H6.85714ZM6.85714 21C6.058 21.0002 5.27852 20.7522 4.62643 20.2903L11.5487 13.476C11.669 13.3574 11.8311 13.291 12 13.291C12.1689 13.291 12.331 13.3574 12.4513 13.476L19.3736 20.2903C18.7215 20.7522 17.942 21.0002 17.1429 21H6.85714ZM15.2143 10.3929C14.788 10.3929 14.3793 10.2235 14.0779 9.92213C13.7765 9.62074 13.6071 9.21195 13.6071 8.78571C13.6071 8.35947 13.7765 7.95069 14.0779 7.64929C14.3793 7.34789 14.788 7.17857 15.2143 7.17857C15.6405 7.17857 16.0493 7.34789 16.3507 7.64929C16.6521 7.95069 16.8214 8.35947 16.8214 8.78571C16.8214 9.21195 16.6521 9.62074 16.3507 9.92213C16.0493 10.2235 15.6405 10.3929 15.2143 10.3929Z" fill="black"/>
</svg>
