<svg width="24" height="24" viewBox="0 0 24 24" fill="none" xmlns="http://www.w3.org/2000/svg">
<path d="M12 3.00012C16.9707 3.00012 21 7.02942 21 12.0001C21 16.9708 16.9707 21.0001 12 21.0001C10.544 21.002 9.10946 20.6493 7.82041 19.9723L3.95941 20.9776C3.8304 21.0112 3.69485 21.0105 3.56619 20.9756C3.43753 20.9407 3.32023 20.8727 3.22592 20.7785C3.13161 20.6843 3.06356 20.5671 3.02851 20.4384C2.99346 20.3098 2.99263 20.1743 3.02611 20.0452L4.03051 16.1851C3.35176 14.8947 2.99804 13.4582 3.00001 12.0001C3.00001 7.02942 7.02931 3.00012 12 3.00012ZM12.675 8.17512C12.675 7.9961 12.6039 7.82441 12.4773 7.69782C12.3507 7.57124 12.179 7.50012 12 7.50012C11.821 7.50012 11.6493 7.57124 11.5227 7.69782C11.3961 7.82441 11.325 7.9961 11.325 8.17512V11.3251H8.17501C7.99598 11.3251 7.8243 11.3962 7.69771 11.5228C7.57112 11.6494 7.50001 11.8211 7.50001 12.0001C7.50001 12.1791 7.57112 12.3508 7.69771 12.4774C7.8243 12.604 7.99598 12.6751 8.17501 12.6751H11.325V15.8251C11.325 16.0041 11.3961 16.1758 11.5227 16.3024C11.6493 16.429 11.821 16.5001 12 16.5001C12.179 16.5001 12.3507 16.429 12.4773 16.3024C12.6039 16.1758 12.675 16.0041 12.675 15.8251V12.6751H15.825C16.004 12.6751 16.1757 12.604 16.3023 12.4774C16.4289 12.3508 16.5 12.1791 16.5 12.0001C16.5 11.8211 16.4289 11.6494 16.3023 11.5228C16.1757 11.3962 16.004 11.3251 15.825 11.3251H12.675V8.17512Z" fill="black"/>
</svg>
