<svg width="24" height="24" viewBox="0 0 24 24" fill="none" xmlns="http://www.w3.org/2000/svg">
<path d="M3.27991 2.21918C3.21125 2.14549 3.12845 2.08639 3.03645 2.0454C2.94445 2.0044 2.84513 1.98236 2.74443 1.98059C2.64373 1.97881 2.5437 1.99733 2.45031 2.03505C2.35692 2.07278 2.27209 2.12892 2.20087 2.20014C2.12965 2.27136 2.07351 2.35619 2.03579 2.44958C1.99807 2.54297 1.97954 2.643 1.98132 2.7437C1.98309 2.8444 2.00514 2.94372 2.04613 3.03572C2.08712 3.12771 2.14622 3.21051 2.21991 3.27918L7.99991 9.05918V11.9992C7.99983 12.7262 8.19789 13.4395 8.57281 14.0624C8.94773 14.6853 9.48533 15.1942 10.1278 15.5345C10.7703 15.8748 11.4934 16.0335 12.2193 15.9936C12.9452 15.9537 13.6466 15.7168 14.2479 15.3082L15.3939 16.4542C14.4868 17.134 13.3835 17.5008 12.2499 17.4992H11.7499L11.5339 17.4952C10.18 17.4394 8.90006 16.8623 7.96185 15.8846C7.02363 14.9069 6.49979 13.6042 6.49991 12.2492V11.7492L6.49291 11.6472C6.46701 11.4589 6.37062 11.2875 6.22321 11.1676C6.0758 11.0477 5.88837 10.9882 5.69879 11.0012C5.50921 11.0141 5.33161 11.0985 5.20188 11.2374C5.07215 11.3762 4.99997 11.5592 4.99991 11.7492V12.2492L5.00391 12.4852C5.06192 14.1472 5.73146 15.7293 6.88412 16.9281C8.03678 18.1269 9.59142 18.858 11.2499 18.9812V21.2492L11.2569 21.3512C11.2828 21.5394 11.3792 21.7108 11.5266 21.8307C11.674 21.9507 11.8614 22.0102 12.051 21.9972C12.2406 21.9843 12.4182 21.8998 12.5479 21.761C12.6777 21.6221 12.7499 21.4392 12.7499 21.2492L12.7509 18.9812C14.1076 18.8832 15.4023 18.3747 16.4629 17.5232L20.7189 21.7792C20.8603 21.9159 21.0497 21.9916 21.2464 21.9899C21.443 21.9883 21.6312 21.9095 21.7703 21.7705C21.9094 21.6315 21.9884 21.4435 21.9902 21.2468C21.992 21.0502 21.9165 20.8607 21.7799 20.7192L3.27991 2.21918ZM13.1559 14.2162C12.7748 14.4149 12.349 14.512 11.9194 14.4982C11.4899 14.4844 11.0711 14.36 10.7036 14.1372C10.3361 13.9143 10.0323 13.6005 9.82145 13.226C9.6106 12.8515 9.49985 12.429 9.49991 11.9992V10.5592L13.1559 14.2162ZM14.4999 5.99918V11.3172L15.9299 12.7472C15.9766 12.5045 15.9999 12.2552 15.9999 11.9992V5.99918C16.0005 5.0291 15.6485 4.09187 15.0095 3.36198C14.3705 2.6321 13.4881 2.15929 12.5265 2.03159C11.5648 1.9039 10.5895 2.13002 9.78222 2.66785C8.97489 3.20568 8.39052 4.01857 8.13791 4.95518L9.49991 6.31718V5.99918C9.49991 5.33614 9.7633 4.70025 10.2321 4.23141C10.701 3.76257 11.3369 3.49918 11.9999 3.49918C12.663 3.49918 13.2988 3.76257 13.7677 4.23141C14.2365 4.70025 14.4999 5.33614 14.4999 5.99918ZM17.1959 14.0132L18.3419 15.1592C18.7772 14.251 19.0021 13.2563 18.9999 12.2492V11.7492L18.9929 11.6472C18.967 11.4589 18.8706 11.2875 18.7232 11.1676C18.5758 11.0477 18.3884 10.9882 18.1988 11.0012C18.0092 11.0141 17.8316 11.0985 17.7019 11.2374C17.5722 11.3762 17.5 11.5592 17.4999 11.7492V12.2492L17.4959 12.4652C17.4752 12.9934 17.374 13.5154 17.1959 14.0132Z" fill="black"/>
</svg>
