<svg width="24" height="24" viewBox="0 0 24 24" fill="none" xmlns="http://www.w3.org/2000/svg">
<path d="M12 3.00012C16.9707 3.00012 21 7.02942 21 12.0001C21 16.9708 16.9707 21.0001 12 21.0001C10.544 21.002 9.10946 20.6493 7.82041 19.9723L3.95941 20.9776C3.8304 21.0112 3.69485 21.0105 3.56619 20.9756C3.43753 20.9407 3.32023 20.8727 3.22592 20.7785C3.13161 20.6843 3.06356 20.5671 3.02851 20.4384C2.99346 20.3098 2.99263 20.1743 3.02611 20.0452L4.03051 16.1851C3.35176 14.8947 2.99804 13.4582 3.00001 12.0001C3.00001 7.02942 7.02931 3.00012 12 3.00012ZM13.1268 12.9001H9.07501L8.9832 12.9064C8.82164 12.9286 8.67359 13.0086 8.56643 13.1315C8.45926 13.2545 8.40021 13.412 8.40021 13.5751C8.40021 13.7382 8.45926 13.8958 8.56643 14.0187C8.67359 14.1416 8.82164 14.2216 8.9832 14.2438L9.07501 14.2501H13.1268L13.2177 14.2438C13.3793 14.2216 13.5273 14.1416 13.6345 14.0187C13.7417 13.8958 13.8007 13.7382 13.8007 13.5751C13.8007 13.412 13.7417 13.2545 13.6345 13.1315C13.5273 13.0086 13.3793 12.9286 13.2177 12.9064L13.1268 12.9001ZM14.925 9.75012H9.07501L8.9832 9.75642C8.82164 9.77865 8.67359 9.85862 8.56643 9.98154C8.45926 10.1045 8.40021 10.262 8.40021 10.4251C8.40021 10.5882 8.45926 10.7458 8.56643 10.8687C8.67359 10.9916 8.82164 11.0716 8.9832 11.0938L9.07501 11.1001H14.925L15.0168 11.0938C15.1784 11.0716 15.3264 10.9916 15.4336 10.8687C15.5408 10.7458 15.5998 10.5882 15.5998 10.4251C15.5998 10.262 15.5408 10.1045 15.4336 9.98154C15.3264 9.85862 15.1784 9.77865 15.0168 9.75642L14.925 9.75012Z" fill="black"/>
</svg>
