<svg width="24" height="24" viewBox="0 0 24 24" fill="none" xmlns="http://www.w3.org/2000/svg">
<path d="M11.0883 3.80091C11.1217 3.62505 11.0839 3.44312 10.9831 3.29514C10.8824 3.14717 10.7269 3.04527 10.551 3.01186C10.3751 2.97845 10.1931 3.01628 10.0451 3.11701C9.89705 3.21774 9.79512 3.37313 9.7617 3.54899L8.8446 8.39757L4.575 8.39847C4.39598 8.39847 4.22429 8.46956 4.0977 8.59611C3.97112 8.72265 3.9 8.89429 3.9 9.07325C3.9 9.25222 3.97112 9.42385 4.0977 9.5504C4.22429 9.67695 4.39598 9.74804 4.575 9.74804L8.589 9.74624L7.7376 14.2448L3.675 14.2466C3.49598 14.2466 3.32429 14.3177 3.1977 14.4443C3.07112 14.5708 3 14.7424 3 14.9214C3 15.1004 3.07112 15.272 3.1977 15.3986C3.32429 15.5251 3.49598 15.5962 3.675 15.5962L7.482 15.5944L6.6117 20.1974C6.59486 20.2846 6.59542 20.3743 6.61335 20.4613C6.63128 20.5484 6.66623 20.631 6.71618 20.7045C6.76614 20.778 6.83012 20.8409 6.90446 20.8896C6.9788 20.9383 7.06203 20.9718 7.14937 20.9883C7.23671 21.0048 7.32645 21.0038 7.41343 20.9855C7.5004 20.9673 7.58291 20.932 7.65622 20.8817C7.72952 20.8315 7.79217 20.7672 7.84058 20.6927C7.88899 20.6182 7.9222 20.5349 7.9383 20.4475L8.8563 15.5935L13.7829 15.5917L12.9117 20.1974C12.8949 20.2846 12.8954 20.3743 12.9134 20.4613C12.9313 20.5484 12.9662 20.631 13.0162 20.7045C13.0661 20.778 13.1301 20.8409 13.2045 20.8896C13.2788 20.9383 13.362 20.9718 13.4494 20.9883C13.5367 21.0048 13.6264 21.0038 13.7134 20.9855C13.8004 20.9673 13.8829 20.932 13.9562 20.8817C14.0295 20.8315 14.0922 20.7672 14.1406 20.6927C14.189 20.6182 14.2222 20.5349 14.2383 20.4475L15.1572 15.5908L19.425 15.589C19.604 15.589 19.7757 15.5179 19.9023 15.3914C20.0289 15.2648 20.1 15.0932 20.1 14.9142C20.1 14.7353 20.0289 14.5636 19.9023 14.4371C19.7757 14.3105 19.604 14.2394 19.425 14.2394L15.4128 14.2412L16.2642 9.74264L20.325 9.74084C20.504 9.74084 20.6757 9.66975 20.8023 9.5432C20.9289 9.41666 21 9.24502 21 9.06606C21 8.88709 20.9289 8.71546 20.8023 8.58891C20.6757 8.46236 20.504 8.39127 20.325 8.39127L16.5189 8.39307L17.3883 3.80091C17.4217 3.62505 17.3839 3.44312 17.2831 3.29514C17.1824 3.14717 17.0269 3.04527 16.851 3.01186C16.6751 2.97845 16.4931 3.01628 16.3451 3.11701C16.197 3.21774 16.0951 3.37313 16.0617 3.54899L15.1455 8.39397L10.2189 8.39577L11.0883 3.80091ZM9.9633 9.74624L14.8899 9.74354L14.0385 14.2421L9.1119 14.2439L9.9633 9.74624Z" fill="black"/>
</svg>
