<svg width="24" height="24" viewBox="0 0 24 24" fill="none" xmlns="http://www.w3.org/2000/svg">
<path d="M3 7.37432C3 6.79985 3.11324 6.23073 3.33311 5.7C3.55299 5.16925 3.87517 4.68674 4.28145 4.28057C4.68771 3.87442 5.17011 3.55197 5.70088 3.33223C6.23164 3.11252 6.80076 2.99986 7.3752 3H16.6257C17.2002 2.99986 17.7692 3.11331 18.3 3.33311C18.8309 3.55292 19.3131 3.87516 19.7194 4.28145C20.1257 4.68774 20.448 5.17001 20.6678 5.70088C20.8879 6.2325 21.0001 6.80148 21 7.3752V13.0828C21 13.4155 20.9342 13.745 20.8066 14.0522C20.6792 14.3592 20.4917 14.6376 20.2564 14.8723L14.8731 20.2573C14.6384 20.4927 14.3593 20.6792 14.0522 20.8066C13.7448 20.9343 13.4148 21.0001 13.0819 21H7.37607C6.80157 21.0003 6.23262 20.8874 5.70176 20.6678C5.17079 20.448 4.68783 20.1257 4.28145 19.7194C3.87515 19.3132 3.55299 18.8308 3.33311 18.3C3.11322 17.7691 2.99986 17.1995 3 16.6248V7.37432ZM4.35 16.6257C4.34996 17.0228 4.42831 17.4163 4.58027 17.7832C4.73229 18.1502 4.95501 18.4841 5.23594 18.7649C5.51684 19.0457 5.85069 19.2678 6.21768 19.4197C6.5847 19.5716 6.97799 19.6502 7.3752 19.65H13.0819L13.1979 19.6447C13.3134 19.6334 13.427 19.605 13.5346 19.5604C13.678 19.5008 13.8082 19.4128 13.9178 19.3028L19.3028 13.9178C19.4127 13.8083 19.5 13.6779 19.5595 13.5346C19.619 13.3913 19.65 13.2379 19.65 13.0828V7.37432C19.65 6.97638 19.5722 6.58292 19.4206 6.2168C19.2686 5.84991 19.0457 5.51674 18.7649 5.23594C18.4841 4.95513 18.151 4.73224 17.7841 4.58027C17.4172 4.42835 17.0237 4.34996 16.6266 4.35H7.37432C6.97737 4.34996 6.58445 4.42846 6.21768 4.58027C5.85078 4.73217 5.51678 4.95433 5.23594 5.23506C4.95506 5.51587 4.73229 5.84986 4.58027 6.2168C4.4283 6.58369 4.35 6.9772 4.35 7.37432V16.6257Z" fill="black"/>
<path d="M15.0223 12.8581C15.5196 12.6878 16.0494 12.6333 16.5709 12.699H16.5701L20.2694 13.1614C20.6393 13.2076 20.9019 13.5456 20.8556 13.9155C20.8093 14.2853 20.4714 14.5479 20.1015 14.5017L16.4031 14.0385H16.4022C16.0847 13.9985 15.7619 14.0315 15.4591 14.1352C15.1566 14.2389 14.882 14.4109 14.6558 14.637C14.4296 14.8634 14.2576 15.1385 14.154 15.4412C14.0633 15.7062 14.0267 15.9862 14.0458 16.2648L14.0573 16.3843V16.3852L14.5205 20.0836C14.5667 20.4535 14.3041 20.7915 13.9342 20.8377C13.5644 20.8839 13.2274 20.6213 13.181 20.2515L12.7178 16.5531C12.652 16.0315 12.7067 15.5018 12.8769 15.0044C13.0472 14.507 13.3287 14.0544 13.7004 13.6825C14.0722 13.3107 14.5249 13.0286 15.0223 12.8581ZM10.1497 15.0246C10.5224 15.0246 10.8245 15.327 10.8247 15.6996C10.8247 16.0724 10.5224 16.3746 10.1497 16.3746H7.37495C7.00216 16.3746 6.69995 16.0724 6.69995 15.6996C6.70011 15.327 7.00226 15.0246 7.37495 15.0246H10.1497ZM11.0751 11.3253C11.4478 11.3255 11.7501 11.6276 11.7501 12.0003C11.75 12.3729 11.4477 12.6752 11.0751 12.6753H7.37495C7.00226 12.6753 6.70011 12.373 6.69995 12.0003C6.69995 11.6275 7.00216 11.3253 7.37495 11.3253H11.0751ZM15.7 7.62512C16.0727 7.62512 16.375 7.92733 16.375 8.30012C16.375 8.67291 16.0727 8.97512 15.7 8.97512H7.37495C7.00216 8.97512 6.69995 8.67291 6.69995 8.30012C6.69995 7.92733 7.00216 7.62512 7.37495 7.62512H15.7Z" fill="black"/>
</svg>
