<svg width="24" height="24" viewBox="0 0 24 24" fill="none" xmlns="http://www.w3.org/2000/svg">
<path d="M12 5C12.1591 5 12.3117 5.06321 12.4243 5.17574C12.5368 5.28826 12.6 5.44087 12.6 5.6V11.4H18.4C18.5591 11.4 18.7117 11.4632 18.8243 11.5757C18.9368 11.6883 19 11.8409 19 12C19 12.1591 18.9368 12.3117 18.8243 12.4243C18.7117 12.5368 18.5591 12.6 18.4 12.6H12.6V18.4C12.6 18.5591 12.5368 18.7117 12.4243 18.8243C12.3117 18.9368 12.1591 19 12 19C11.8409 19 11.6883 18.9368 11.5757 18.8243C11.4632 18.7117 11.4 18.5591 11.4 18.4V12.6H5.6C5.44087 12.6 5.28826 12.5368 5.17574 12.4243C5.06321 12.3117 5 12.1591 5 12C5 11.8409 5.06321 11.6883 5.17574 11.5757C5.28826 11.4632 5.44087 11.4 5.6 11.4H11.4V5.6C11.4 5.44087 11.4632 5.28826 11.5757 5.17574C11.6883 5.06321 11.8409 5 12 5Z" fill="black"/>
</svg>
