<svg width="24" height="24" viewBox="0 0 24 24" fill="none" xmlns="http://www.w3.org/2000/svg">
<path d="M12 17.4C13.4322 17.4 14.8057 16.8311 15.8184 15.8184C16.8311 14.8057 17.4 13.4322 17.4 12C17.4 10.5678 16.8311 9.19432 15.8184 8.18162C14.8057 7.16893 13.4322 6.6 12 6.6C10.5678 6.6 9.19432 7.16893 8.18162 8.18162C7.16893 9.19432 6.6 10.5678 6.6 12C6.6 13.4322 7.16893 14.8057 8.18162 15.8184C9.19432 16.8311 10.5678 17.4 12 17.4ZM12 3C7.0293 3 3 7.0293 3 12C3 16.9707 7.0293 21 12 21C16.9707 21 21 16.9707 21 12C21 7.0293 16.9707 3 12 3ZM4.35 12C4.35 9.97109 5.15598 8.02529 6.59063 6.59063C8.02529 5.15598 9.97109 4.35 12 4.35C14.0289 4.35 15.9747 5.15598 17.4094 6.59063C18.844 8.02529 19.65 9.97109 19.65 12C19.65 14.0289 18.844 15.9747 17.4094 17.4094C15.9747 18.844 14.0289 19.65 12 19.65C9.97109 19.65 8.02529 18.844 6.59063 17.4094C5.15598 15.9747 4.35 14.0289 4.35 12Z" fill="black"/>
</svg>
