<svg width="24" height="24" viewBox="0 0 24 24" fill="none" xmlns="http://www.w3.org/2000/svg">
<path d="M15 4.25305C15 3.17305 13.726 2.60205 12.92 3.31805L8.427 7.31305C8.28986 7.43523 8.11266 7.50283 7.929 7.50305H4.25C3.65361 7.50305 3.08162 7.73983 2.65972 8.16135C2.23782 8.58288 2.00053 9.15466 2 9.75105V14.2481C2 14.8448 2.23705 15.4171 2.65901 15.839C3.08097 16.261 3.65326 16.4981 4.25 16.4981H7.93C8.11366 16.4983 8.29086 16.5659 8.428 16.6881L12.919 20.6811C13.725 21.3981 15 20.8261 15 19.7471V4.25305ZM9.425 8.43305L13.5 4.80905V19.1911L9.425 15.5681C9.01319 15.2017 8.48121 14.9992 7.93 14.9991H4.25C4.05109 14.9991 3.86032 14.92 3.71967 14.7794C3.57902 14.6387 3.5 14.448 3.5 14.2491V9.75105C3.5 9.55214 3.57902 9.36137 3.71967 9.22072C3.86032 9.08007 4.05109 9.00105 4.25 9.00105H7.93C8.48108 9.00119 9.01304 8.79908 9.425 8.43305ZM18.992 5.90005C19.1518 5.78166 19.3521 5.73158 19.5488 5.76083C19.7455 5.79009 19.9226 5.89628 20.041 6.05605C21.3163 7.77625 22.0033 9.86167 22 12.0031C22.003 14.1445 21.3157 16.23 20.04 17.9501C19.982 18.0309 19.9085 18.0993 19.8238 18.1515C19.7391 18.2036 19.6449 18.2384 19.5467 18.2537C19.4484 18.2691 19.3481 18.2648 19.2515 18.241C19.1549 18.2173 19.064 18.1746 18.9841 18.1153C18.9042 18.0561 18.8369 17.9816 18.786 17.8961C18.7352 17.8106 18.7019 17.7159 18.688 17.6174C18.6741 17.5189 18.68 17.4187 18.7052 17.3225C18.7305 17.2263 18.7746 17.136 18.835 17.0571C19.9192 15.5953 20.5031 13.823 20.5 12.0031C20.5028 10.1835 19.919 8.41151 18.835 6.95005C18.7763 6.87083 18.7337 6.78081 18.7099 6.68514C18.686 6.58947 18.6812 6.49002 18.6957 6.39249C18.7103 6.29497 18.744 6.20127 18.7948 6.11677C18.8457 6.03227 18.9127 5.95863 18.992 5.90005ZM17.143 8.37205C17.2296 8.32508 17.3246 8.29564 17.4226 8.28539C17.5206 8.27515 17.6196 8.28431 17.7141 8.31236C17.8085 8.3404 17.8965 8.38678 17.973 8.44884C18.0495 8.5109 18.1131 8.58743 18.16 8.67405C18.696 9.66505 19 10.7991 19 12.0031C19.0005 13.1649 18.7118 14.3086 18.16 15.3311C18.1131 15.4177 18.0496 15.4943 17.9731 15.5564C17.8967 15.6186 17.8087 15.665 17.7143 15.6932C17.6198 15.7213 17.5208 15.7306 17.4227 15.7204C17.3247 15.7103 17.2297 15.6809 17.143 15.6341C17.0563 15.5872 16.9797 15.5237 16.9176 15.4472C16.8555 15.3707 16.809 15.2827 16.7809 15.1883C16.7527 15.0939 16.7435 14.9948 16.7536 14.8968C16.7638 14.7988 16.7931 14.7037 16.84 14.6171C17.26 13.8401 17.5 12.9501 17.5 12.0021C17.5003 11.0895 17.2735 10.1911 16.84 9.38805C16.7455 9.21313 16.7244 9.00785 16.7812 8.81734C16.838 8.62682 16.9682 8.46666 17.143 8.37205Z" fill="black"/>
</svg>
