<svg width="24" height="24" viewBox="0 0 24 24" fill="none" xmlns="http://www.w3.org/2000/svg">
<path d="M14.7435 11.3551C14.8693 11.2439 15.0315 11.1826 15.1994 11.1826C15.3674 11.1826 15.5295 11.2439 15.6554 11.3551C16.265 11.9359 17.4361 12.8598 18.8748 13.0494C19.1628 13.0866 19.3992 13.3038 19.3992 13.575V16.1069C19.3992 19.5135 16.0586 20.7506 15.3362 20.9786C15.2477 21.0071 15.1524 21.0071 15.0638 20.9786C14.3415 20.7506 10.9997 19.5147 10.9997 16.1069V13.575C10.9997 13.3038 11.2361 13.0866 11.524 13.0494C12.9628 12.8598 14.1339 11.9359 14.7435 11.3551ZM10.9997 3C11.9544 3 12.87 3.37926 13.5451 4.05436C14.2202 4.72945 14.5995 5.64507 14.5995 6.5998V8.99966C15.7478 8.99966 16.7065 9.80722 16.9417 10.8848C16.8628 10.8224 16.7852 10.7584 16.7089 10.6928L16.4846 10.4864L16.3466 10.3688C16.0167 10.1181 15.6138 9.98236 15.1994 9.98236C14.7851 9.98236 14.3822 10.1181 14.0523 10.3688L13.9143 10.4864C13.3959 10.9808 12.538 11.6335 11.5624 11.8267L11.2397 11.8807C10.6025 12.0151 9.90053 12.5287 9.80933 13.3854L9.79973 13.5738V16.1081C9.78691 17.4579 10.2586 18.7675 11.1293 19.7991H7.39987C6.76338 19.7991 6.15297 19.5462 5.7029 19.0962C5.25284 18.6461 5 18.0357 5 17.3992V11.3995C5 10.763 5.25284 10.1526 5.7029 9.70257C6.15297 9.25251 6.76338 8.99966 7.39987 8.99966V6.5998C7.39987 5.64507 7.77913 4.72945 8.45422 4.05436C9.12932 3.37926 10.0449 3 10.9997 3ZM10.9997 4.19993C10.3632 4.19993 9.75277 4.45278 9.3027 4.90284C8.85264 5.3529 8.5998 5.96331 8.5998 6.5998V8.99966H13.3995V6.5998C13.3995 5.96331 13.1467 5.3529 12.6966 4.90284C12.2466 4.45278 11.6361 4.19993 10.9997 4.19993Z" fill="black"/>
</svg>
