<svg width="24" height="24" viewBox="0 0 24 24" fill="none" xmlns="http://www.w3.org/2000/svg">
<path d="M14.349 3.42307L14.2797 3.36277C14.1498 3.26432 13.9887 3.21619 13.826 3.22727C13.6634 3.23835 13.5103 3.3079 13.395 3.42307L13.3338 3.49327C13.2354 3.62391 13.1874 3.78567 13.1986 3.94885C13.2099 4.11202 13.2796 4.26567 13.395 4.38157L15.1689 6.16087H8.84999L8.6403 6.16447C5.5065 6.27517 3 8.85907 3 12.0325C3 13.5535 3.576 14.9395 4.5228 15.9835L4.5876 16.0456C4.71494 16.1545 4.8782 16.2122 5.04571 16.2076C5.21321 16.2029 5.37302 16.1362 5.49411 16.0204C5.61521 15.9045 5.68896 15.7479 5.70106 15.5807C5.71316 15.4136 5.66275 15.2479 5.5596 15.1159L5.3796 14.908C4.71147 14.0986 4.34727 13.0811 4.35 12.0316C4.35 9.53767 6.3651 7.51537 8.84999 7.51537H15.0429L13.3941 9.17137L13.3338 9.24157C13.2354 9.37221 13.1874 9.53396 13.1986 9.69714C13.2099 9.86032 13.2796 10.014 13.395 10.1299C13.5216 10.2563 13.6931 10.3273 13.872 10.3273C14.0509 10.3273 14.2224 10.2563 14.349 10.1299L17.2128 7.25617L17.2731 7.18597C17.3716 7.05544 17.4198 6.89374 17.4087 6.73057C17.3976 6.5674 17.3281 6.41369 17.2128 6.29767L14.349 3.42307ZM19.407 8.01397C19.2767 7.90629 19.1107 7.85135 18.9419 7.86001C18.773 7.86866 18.6136 7.94027 18.4949 8.06072C18.3763 8.18116 18.3071 8.34169 18.301 8.51064C18.2949 8.67958 18.3523 8.84469 18.462 8.97337C19.2287 9.80694 19.6529 10.899 19.65 12.0316C19.65 14.5264 17.6349 16.5487 15.15 16.5487H8.90219L10.6167 14.8288L10.6833 14.7514C10.7698 14.6334 10.8158 14.4907 10.8147 14.3444C10.8136 14.1982 10.7653 14.0562 10.677 13.9396L10.6167 13.8703L10.5411 13.8046C10.4237 13.7177 10.2812 13.6713 10.1352 13.6723C9.98914 13.6732 9.84735 13.7216 9.73109 13.81L9.66269 13.8703L6.7989 16.7449L6.7332 16.8214C6.64661 16.9392 6.60037 17.0819 6.60134 17.2282C6.60231 17.3744 6.65045 17.5164 6.7386 17.6332L6.7989 17.7025L9.66269 20.5771L9.73829 20.6419C10.002 20.8399 10.3773 20.8174 10.6167 20.5762C10.7321 20.4602 10.8018 20.3066 10.8131 20.1434C10.8243 19.9803 10.7763 19.8185 10.6779 19.6879L10.6167 19.6186L8.90759 17.9032H15.15L15.3597 17.8996C18.4935 17.7889 21 15.2041 21 12.0316C21.0034 10.5685 20.4585 9.15719 19.4727 8.07607L19.407 8.01397Z" fill="black"/>
</svg>
