<svg width="24" height="24" viewBox="0 0 24 24" fill="none" xmlns="http://www.w3.org/2000/svg">
<path d="M19.1873 2.73193C19.7391 2.73193 20.2684 2.95116 20.6586 3.34138C21.0489 3.73161 21.2681 4.26087 21.2681 4.81273V9.86396C21.268 10.6611 20.9513 11.4255 20.3877 11.9891L12.5269 19.8527C11.9627 20.4156 11.1984 20.7318 10.4014 20.7319C9.60451 20.7321 8.84002 20.4162 8.27561 19.8536L4.14917 15.7346C3.58507 15.1714 3.26778 14.4072 3.26709 13.6102C3.2664 12.8131 3.58236 12.0483 4.14547 11.4842L12.0062 3.61419C12.2855 3.3347 12.617 3.113 12.982 2.96178C13.347 2.81055 13.7382 2.73276 14.1333 2.73286L19.1873 2.73193ZM19.1873 4.11913H14.1323C13.7032 4.11913 13.2908 4.29022 12.9874 4.59355L5.11558 12.4756C4.81754 12.7804 4.65181 13.1905 4.65441 13.6169C4.65701 14.0432 4.82772 14.4513 5.12945 14.7524L9.25497 18.8715C9.55916 19.1745 9.971 19.3446 10.4003 19.3446C10.8297 19.3446 11.2415 19.1745 11.5457 18.8715L19.4065 11.0079C19.71 10.7046 19.8807 10.2931 19.8809 9.86396V4.81273C19.8809 4.62877 19.8078 4.45235 19.6777 4.32228C19.5477 4.1922 19.3712 4.11913 19.1873 4.11913ZM16.6441 5.97057C16.8263 5.97057 17.0066 6.00645 17.175 6.07617C17.3433 6.14588 17.4962 6.24806 17.625 6.37687C17.7538 6.50568 17.856 6.65861 17.9257 6.82691C17.9954 6.99521 18.0313 7.1756 18.0313 7.35777C18.0313 7.53994 17.9954 7.72032 17.9257 7.88862C17.856 8.05692 17.7538 8.20985 17.625 8.33866C17.4962 8.46747 17.3433 8.56965 17.175 8.63937C17.0066 8.70908 16.8263 8.74496 16.6441 8.74496C16.2762 8.74496 15.9233 8.59881 15.6632 8.33866C15.403 8.07851 15.2569 7.72567 15.2569 7.35777C15.2569 6.98986 15.403 6.63702 15.6632 6.37687C15.9233 6.11672 16.2762 5.97057 16.6441 5.97057Z" fill="black"/>
</svg>
