<svg width="24" height="24" viewBox="0 0 24 24" fill="none" xmlns="http://www.w3.org/2000/svg">
<path d="M15.1843 18.2995L14.9233 19.4326C14.8259 19.8525 14.597 20.2304 14.27 20.5112C13.9431 20.7921 13.535 20.9613 13.1052 20.9942L12.9495 21.0005H11.0495C10.6182 21.0005 10.1982 20.8628 9.85066 20.6075C9.50308 20.3522 9.24609 19.9926 9.11709 19.5811L9.07569 19.4308L8.81468 18.2995H15.1843ZM11.9999 3.00049C13.7306 3.00049 15.3903 3.68798 16.614 4.91171C17.8378 6.13545 18.5253 7.79519 18.5253 9.52582C18.5253 11.4492 17.6828 13.2097 16.0366 14.7821C16.0048 14.8125 15.9826 14.8516 15.9727 14.8946L15.4975 16.9494H8.50236L8.02894 14.8946C8.01895 14.852 7.99674 14.8132 7.96503 14.783C6.31795 13.2097 5.47461 11.4483 5.47461 9.52491C5.47485 7.79445 6.16244 6.13494 7.38615 4.91139C8.60986 3.68785 10.2695 3.00049 11.9999 3.00049Z" fill="black"/>
</svg>
