<svg width="24" height="24" viewBox="0 0 24 24" fill="none" xmlns="http://www.w3.org/2000/svg">
<path d="M19.7154 7.51278C19.518 7.09516 19.24 6.72183 18.8977 6.41484L16.231 3.96699C15.6441 3.42229 14.8988 3.08449 14.1066 3.00404H8.63107C8.04224 2.97876 7.45432 3.0723 6.90154 3.27923C6.34875 3.48615 5.84213 3.80232 5.41116 4.20934C4.9802 4.61636 4.63349 5.1061 4.39123 5.65005C4.14896 6.194 4.01597 6.78131 4 7.37779V16.6473C4.03144 17.5468 4.32861 18.4161 4.85311 19.1428C5.3776 19.8696 6.10531 20.4204 6.9422 20.724C7.48629 20.9334 8.0676 21.0254 8.64885 20.994H15.3688C15.9576 21.0193 16.5455 20.9257 17.0983 20.7188C17.6511 20.5119 18.1577 20.1957 18.5887 19.7887C19.0197 19.3817 19.3664 18.892 19.6086 18.348C19.8509 17.804 19.9839 17.2167 19.9999 16.6203V8.9077C20.0041 8.42754 19.9072 7.95197 19.7154 7.51278ZM8.15996 7.1528H11.0577C11.2935 7.1528 11.5196 7.24762 11.6863 7.41639C11.8529 7.58516 11.9466 7.81407 11.9466 8.05275C11.9466 8.29143 11.8529 8.52034 11.6863 8.68911C11.5196 8.85788 11.2935 8.9527 11.0577 8.9527H8.15996C7.92422 8.9527 7.69813 8.85788 7.53143 8.68911C7.36473 8.52034 7.27108 8.29143 7.27108 8.05275C7.27108 7.81407 7.36473 7.58516 7.53143 7.41639C7.69813 7.24762 7.92422 7.1528 8.15996 7.1528ZM15.8932 16.7912H8.15996C7.92422 16.7912 7.69813 16.6964 7.53143 16.5277C7.36473 16.3589 7.27108 16.13 7.27108 15.8913C7.27108 15.6526 7.36473 15.4237 7.53143 15.2549C7.69813 15.0862 7.92422 14.9914 8.15996 14.9914H15.8932C16.1051 15.0219 16.299 15.1289 16.4392 15.2925C16.5795 15.4562 16.6567 15.6656 16.6567 15.8823C16.6567 16.099 16.5795 16.3084 16.4392 16.4721C16.299 16.6357 16.1051 16.7427 15.8932 16.7733V16.7912ZM15.8932 12.8765H8.15996C7.92422 12.8765 7.69813 12.7817 7.53143 12.6129C7.36473 12.4441 7.27108 12.2152 7.27108 11.9765C7.27108 11.7378 7.36473 11.5089 7.53143 11.3402C7.69813 11.1714 7.92422 11.0766 8.15996 11.0766H15.8932C16.129 11.0766 16.3551 11.1714 16.5218 11.3402C16.6885 11.5089 16.7821 11.7378 16.7821 11.9765C16.7821 12.2152 16.6885 12.4441 16.5218 12.6129C16.3551 12.7817 16.129 12.8765 15.8932 12.8765ZM15.6088 7.86376C15.482 7.86495 15.3562 7.84069 15.2387 7.79238C15.1212 7.74406 15.0143 7.67266 14.9242 7.58229C14.8341 7.49192 14.7626 7.38437 14.7138 7.26585C14.665 7.14734 14.6399 7.02022 14.6399 6.89182V4.50695C15.2266 4.65095 17.511 7.02681 18.0088 7.42279C18.156 7.54835 18.2821 7.69728 18.3821 7.86376H15.6088Z" fill="black"/>
</svg>
