<svg width="24" height="24" viewBox="0 0 24 24" fill="none" xmlns="http://www.w3.org/2000/svg">
<path d="M12.2656 2C11.1633 2 10.1061 2.42895 9.32666 3.19249C8.54722 3.95603 8.10933 4.99162 8.10933 6.07143V6.5C8.10933 6.6705 8.17847 6.83401 8.30154 6.95457C8.42461 7.07513 8.59153 7.14286 8.76558 7.14286C8.93962 7.14286 9.10654 7.07513 9.22962 6.95457C9.35269 6.83401 9.42183 6.6705 9.42183 6.5V6.07143C9.42183 5.33261 9.72143 4.62405 10.2547 4.10163C10.788 3.57921 11.5114 3.28571 12.2656 3.28571C13.0198 3.28571 13.7431 3.57921 14.2764 4.10163C14.8097 4.62405 15.1093 5.33261 15.1093 6.07143V9H8.0437C7.28949 9 6.56617 9.29349 6.03287 9.81592C5.49956 10.3383 5.19995 11.0469 5.19995 11.7857V18.2143C5.19995 18.5801 5.27351 18.9424 5.41642 19.2803C5.55933 19.6183 5.7688 19.9254 6.03287 20.1841C6.29693 20.4428 6.61043 20.648 6.95545 20.788C7.30046 20.9279 7.67026 21 8.0437 21H16.3562C16.7296 21 17.0994 20.9279 17.4445 20.788C17.7895 20.648 18.103 20.4428 18.367 20.1841C18.6311 19.9254 18.8406 19.6183 18.9835 19.2803C19.1264 18.9424 19.2 18.5801 19.2 18.2143V11.7857C19.2 11.0469 18.9003 10.3383 18.367 9.81592C17.8337 9.29349 17.176 9 16.4218 9V6.07143C16.4218 4.99162 15.9839 3.95603 15.2045 3.19249C14.425 2.42895 13.3679 2 12.2656 2ZM12.2 13.9286C12.49 13.9286 12.7682 14.0415 12.9733 14.2424C13.1785 14.4433 13.2937 14.7158 13.2937 15C13.2937 15.2842 13.1785 15.5567 12.9733 15.7576C12.7682 15.9585 12.49 16.0714 12.2 16.0714C11.9099 16.0714 11.6317 15.9585 11.4266 15.7576C11.2214 15.5567 11.1062 15.2842 11.1062 15C11.1062 14.7158 11.2214 14.4433 11.4266 14.2424C11.6317 14.0415 11.9099 13.9286 12.2 13.9286Z" fill="black"/>
</svg>
