<svg width="24" height="24" viewBox="0 0 24 24" fill="none" xmlns="http://www.w3.org/2000/svg">
<path d="M13.575 2.94995C14.1121 2.94995 14.6271 3.1633 15.0069 3.54306C15.3867 3.92282 15.6 4.43789 15.6 4.97495V6.54995H18.075C18.4591 6.54995 18.8395 6.62561 19.1943 6.7726C19.5492 6.9196 19.8717 7.13505 20.1433 7.40666C20.4149 7.67828 20.6304 8.00073 20.7773 8.3556C20.9243 8.71048 21 9.09084 21 9.47495V17.125C21 17.5091 20.9243 17.8894 20.7773 18.2443C20.6304 18.5992 20.4149 18.9216 20.1433 19.1932C19.8717 19.4649 19.5492 19.6803 19.1943 19.8273C18.8395 19.9743 18.4591 20.05 18.075 20.05H5.925C5.14924 20.05 4.40526 19.7418 3.85671 19.1932C3.30817 18.6447 3 17.9007 3 17.125V9.47495C3 8.69919 3.30817 7.95521 3.85671 7.40666C4.40526 6.85812 5.14924 6.54995 5.925 6.54995H8.4V4.97495C8.4 4.43789 8.61335 3.92282 8.99311 3.54306C9.37287 3.1633 9.88794 2.94995 10.425 2.94995H13.575ZM19.65 13.2883C19.1802 13.5902 18.6334 13.7505 18.075 13.75H13.8C13.8 13.9886 13.7052 14.2176 13.5364 14.3863C13.3676 14.5551 13.1387 14.65 12.9 14.65H11.1C10.8613 14.65 10.6324 14.5551 10.4636 14.3863C10.2948 14.2176 10.2 13.9886 10.2 13.75H5.925C5.36655 13.7505 4.81975 13.5902 4.35 13.2883V17.125C4.35 17.9944 5.0556 18.7 5.925 18.7H18.075C18.4927 18.7 18.8933 18.534 19.1887 18.2386C19.4841 17.9433 19.65 17.5427 19.65 17.125V13.2883ZM5.925 7.89995C5.50728 7.89995 5.10668 8.06589 4.81131 8.36126C4.51594 8.65663 4.35 9.05724 4.35 9.47495V10.825C4.35 11.6944 5.0556 12.4 5.925 12.4H10.2V11.95C10.2 11.7113 10.2948 11.4823 10.4636 11.3136C10.6324 11.1448 10.8613 11.05 11.1 11.05H12.9C13.1387 11.05 13.3676 11.1448 13.5364 11.3136C13.7052 11.4823 13.8 11.7113 13.8 11.95V12.4H18.075C18.4927 12.4 18.8933 12.234 19.1887 11.9386C19.4841 11.6433 19.65 11.2427 19.65 10.825V9.47495C19.65 9.05724 19.4841 8.65663 19.1887 8.36126C18.8933 8.06589 18.4927 7.89995 18.075 7.89995H5.925ZM10.425 4.29995C10.246 4.29995 10.0743 4.37107 9.9477 4.49765C9.82112 4.62424 9.75 4.79593 9.75 4.97495V6.54995H14.25V4.97495C14.25 4.79593 14.1789 4.62424 14.0523 4.49765C13.9257 4.37107 13.754 4.29995 13.575 4.29995H10.425Z" fill="black"/>
</svg>
