<svg width="24" height="24" viewBox="0 0 24 24" fill="none" xmlns="http://www.w3.org/2000/svg">
<path d="M21.9491 12.9921L21.7511 14.0291C21.5661 15.0001 20.6591 15.6521 19.6311 15.5531L17.5841 15.3551C16.6921 15.2691 15.9321 14.6351 15.7061 13.7891L15.0741 11.4341C14.1401 11.0508 13.1101 10.8758 11.9841 10.9091C10.9007 10.9323 9.83293 11.1727 8.8441 11.6161L8.4531 13.8211C8.3051 14.6571 7.6151 15.2801 6.7421 15.3681L4.7071 15.5721C3.6921 15.6741 2.7191 15.0281 2.4301 14.0621L2.1211 13.0251C1.8131 11.9931 2.0881 10.9071 2.8421 10.1741C4.62276 8.44409 7.5921 7.57609 11.7501 7.57009C15.9134 7.56542 18.9751 8.42809 20.9351 10.1581C21.7591 10.8861 22.1451 11.9641 21.9501 12.9921" fill="black"/>
</svg>
