<svg width="24" height="24" viewBox="0 0 24 24" fill="none" xmlns="http://www.w3.org/2000/svg">
<path d="M8.10843 3.14082C6.93994 2.8442 5.71526 2.97004 4.75574 3.5071C3.77825 4.05315 3.09288 5.02165 3.05917 6.31711C3.00749 8.34176 3.47601 11.0585 5.33662 14.2472C7.17364 17.3965 9.20165 19.2841 10.8847 20.4054C11.9476 21.1144 13.1217 21.1335 14.1251 20.6717C15.1138 20.2166 15.916 19.3077 16.3329 18.1807C16.4365 17.9004 16.4781 17.601 16.4548 17.3031C16.4315 17.0051 16.3439 16.7158 16.198 16.455L15.2947 14.8427C15.1124 14.5172 14.8672 14.2313 14.5732 14.0016C14.2793 13.7719 13.9425 13.6031 13.5826 13.505C13.2227 13.4069 12.8469 13.3815 12.477 13.4302C12.1072 13.4789 11.7508 13.6008 11.4285 13.7888L10.9376 14.0753C10.5454 14.3034 10.1466 14.2483 9.9286 14.0202C9.19604 13.2551 8.52977 12.1349 8.22865 11.1259C8.14439 10.8439 8.27921 10.4878 8.64662 10.2552L9.53423 9.69115C10.1447 9.30364 10.5821 8.69565 10.7556 7.99373C10.9291 7.29181 10.8253 6.55002 10.4657 5.92275L9.4567 4.16326C9.31197 3.91116 9.11803 3.69074 8.88641 3.5151C8.65479 3.33946 8.39023 3.21217 8.10843 3.14082ZM20.826 3.17453C20.9313 3.27987 20.9905 3.42274 20.9905 3.5717C20.9905 3.72067 20.9313 3.86353 20.826 3.96888L15.2082 9.58666C15.156 9.63898 15.094 9.68049 15.0258 9.70881C14.9575 9.73713 14.8843 9.75171 14.8105 9.75171C14.7366 9.75171 14.6634 9.73713 14.5951 9.70881C14.5269 9.68049 14.4649 9.63898 14.4127 9.58666L12.1656 7.33955C12.0603 7.23406 12.0011 7.09105 12.0012 6.94198C12.0013 6.86816 12.0159 6.79508 12.0442 6.7269C12.0725 6.65873 12.1139 6.59679 12.1662 6.54463C12.2184 6.49248 12.2804 6.45112 12.3486 6.42292C12.4168 6.39472 12.4899 6.38023 12.5637 6.38028C12.7128 6.38039 12.8557 6.43971 12.9611 6.5452L14.8105 8.39457L20.0305 3.17453C20.0827 3.12221 20.1447 3.0807 20.2129 3.05238C20.2812 3.02406 20.3543 3.00948 20.4282 3.00948C20.5021 3.00948 20.5753 3.02406 20.6435 3.05238C20.7118 3.0807 20.7738 3.12221 20.826 3.17453Z" fill="black"/>
</svg>
