<svg width="24" height="24" viewBox="0 0 24 24" fill="none" xmlns="http://www.w3.org/2000/svg">
<path d="M12 3C16.9707 3 21 7.0293 21 12C21 16.9707 16.9707 21 12 21C7.0293 21 3 16.9707 3 12C3 7.0293 7.0293 3 12 3ZM14.898 9.273L10.875 13.296L9.102 11.523C8.97404 11.4038 8.8048 11.3389 8.62993 11.3419C8.45506 11.345 8.28821 11.4159 8.16454 11.5395C8.04087 11.6632 7.97003 11.8301 7.96694 12.0049C7.96386 12.1798 8.02877 12.349 8.148 12.477L10.398 14.727C10.5246 14.8534 10.6961 14.9244 10.875 14.9244C11.0539 14.9244 11.2254 14.8534 11.352 14.727L15.852 10.227C15.9183 10.1652 15.9715 10.0907 16.0084 10.0079C16.0453 9.92508 16.0651 9.8357 16.0667 9.74507C16.0683 9.65444 16.0517 9.56441 16.0177 9.48036C15.9838 9.39631 15.9332 9.31996 15.8691 9.25587C15.805 9.19177 15.7287 9.14124 15.6446 9.10729C15.5606 9.07334 15.4706 9.05667 15.3799 9.05827C15.2893 9.05987 15.1999 9.0797 15.1171 9.1166C15.0343 9.15349 14.9598 9.20668 14.898 9.273Z" fill="black"/>
</svg>
