<svg width="24" height="24" viewBox="0 0 24 24" fill="none" xmlns="http://www.w3.org/2000/svg">
<path d="M4.21983 8.46997C4.36045 8.32952 4.55108 8.25063 4.74983 8.25063C4.94858 8.25063 5.1392 8.32952 5.27983 8.46997L11.9998 15.19L18.7198 8.46997C18.7885 8.39628 18.8713 8.33718 18.9633 8.29619C19.0553 8.2552 19.1546 8.23316 19.2553 8.23138C19.356 8.2296 19.456 8.24813 19.5494 8.28585C19.6428 8.32357 19.7276 8.37971 19.7989 8.45093C19.8701 8.52215 19.9262 8.60698 19.964 8.70037C20.0017 8.79376 20.0202 8.89379 20.0184 8.99449C20.0166 9.0952 19.9946 9.19451 19.9536 9.28651C19.9126 9.37851 19.8535 9.46131 19.7798 9.52997L12.5298 16.78C12.3892 16.9204 12.1986 16.9993 11.9998 16.9993C11.8011 16.9993 11.6105 16.9204 11.4698 16.78L4.21983 9.52997C4.07938 9.38935 4.00049 9.19872 4.00049 8.99997C4.00049 8.80122 4.07938 8.6106 4.21983 8.46997Z" fill="black"/>
</svg>
