<svg width="24" height="24" viewBox="0 0 24 24" fill="none" xmlns="http://www.w3.org/2000/svg">
<path d="M4.21983 15.53C4.36045 15.6705 4.55108 15.7494 4.74983 15.7494C4.94858 15.7494 5.1392 15.6705 5.27983 15.53L11.9998 8.81001L18.7198 15.53C18.7885 15.6037 18.8713 15.6628 18.9633 15.7038C19.0553 15.7448 19.1546 15.7668 19.2553 15.7686C19.356 15.7704 19.456 15.7519 19.5494 15.7141C19.6428 15.6764 19.7276 15.6203 19.7989 15.549C19.8701 15.4778 19.9262 15.393 19.964 15.2996C20.0017 15.2062 20.0202 15.1062 20.0184 15.0055C20.0166 14.9048 19.9946 14.8055 19.9536 14.7135C19.9126 14.6215 19.8535 14.5387 19.7798 14.47L12.5298 7.22001C12.3892 7.07956 12.1986 7.00067 11.9998 7.00067C11.8011 7.00067 11.6105 7.07956 11.4698 7.22001L4.21983 14.47C4.07938 14.6106 4.00049 14.8013 4.00049 15C4.00049 15.1988 4.07938 15.3894 4.21983 15.53Z" fill="black"/>
</svg>
