<svg width="24" height="24" viewBox="0 0 24 24" fill="none" xmlns="http://www.w3.org/2000/svg">
<path d="M7.159 3.375C8.429 2.51 10.144 2 12 2C13.856 2 15.57 2.51 16.841 3.375C18.108 4.236 19 5.505 19 7C19 8.495 18.108 9.764 16.841 10.625C15.571 11.49 13.856 12 12 12C10.144 12 8.43 11.49 7.159 10.625C5.892 9.764 5 8.495 5 7C5 5.505 5.892 4.236 7.159 3.375ZM8.002 4.615C7.007 5.292 6.5 6.148 6.5 7C6.5 7.852 7.007 8.708 8.002 9.385C8.993 10.059 10.405 10.5 12 10.5C13.595 10.5 15.007 10.059 15.998 9.385C16.993 8.708 17.5 7.852 17.5 7C17.5 6.148 16.993 5.292 15.998 4.615C15.007 3.941 13.595 3.5 12 3.5C10.405 3.5 8.993 3.941 8.002 4.615ZM18.624 10.365C18.2639 10.7591 17.86 11.1107 17.42 11.413C17.4733 11.6083 17.5 11.804 17.5 12C17.5 12.852 16.993 13.708 15.998 14.385C15.007 15.059 13.595 15.5 12 15.5C10.405 15.5 8.993 15.059 8.002 14.385C7.007 13.708 6.5 12.852 6.5 12C6.5 11.804 6.52667 11.6083 6.58 11.413C6.14002 11.1107 5.73606 10.7591 5.376 10.365C5.13042 10.8752 5.00196 11.4338 5 12C5 13.495 5.892 14.764 7.159 15.625C8.429 16.49 10.144 17 12 17C13.856 17 15.57 16.49 16.841 15.625C18.108 14.764 19 13.495 19 12C19 11.417 18.864 10.869 18.624 10.365ZM17.42 16.413C17.86 16.1107 18.2639 15.7591 18.624 15.365C18.864 15.869 19 16.417 19 17C19 18.495 18.108 19.764 16.841 20.625C15.571 21.49 13.856 22 12 22C10.144 22 8.43 21.49 7.159 20.625C5.892 19.764 5 18.495 5 17C5 16.417 5.136 15.869 5.376 15.365C5.73606 15.7591 6.14002 16.1107 6.58 16.413C6.52667 16.6083 6.5 16.804 6.5 17C6.5 17.852 7.007 18.708 8.002 19.385C8.993 20.059 10.405 20.5 12 20.5C13.595 20.5 15.007 20.059 15.998 19.385C16.993 18.708 17.5 17.852 17.5 17C17.5 16.804 17.4733 16.6083 17.42 16.413Z" fill="black"/>
</svg>
