<svg width="24" height="24" viewBox="0 0 24 24" fill="none" xmlns="http://www.w3.org/2000/svg">
<path d="M20.3095 12.8983C20.4881 12.8983 20.6595 12.9693 20.7859 13.0957C20.9122 13.222 20.9832 13.3934 20.9832 13.5721C20.9832 13.7507 20.9122 13.9221 20.7859 14.0485C20.6595 14.1748 20.4881 14.2458 20.3095 14.2458H15.198L20.7856 19.8333C20.8518 19.895 20.9049 19.9694 20.9417 20.0521C20.9785 20.1347 20.9983 20.2239 20.9999 20.3144C21.0015 20.4048 20.9849 20.4947 20.951 20.5786C20.9171 20.6625 20.8666 20.7387 20.8027 20.8027C20.7387 20.8666 20.6625 20.9171 20.5786 20.951C20.4947 20.9849 20.4048 21.0015 20.3144 20.9999C20.2239 20.9983 20.1347 20.9785 20.0521 20.9417C19.9694 20.9049 19.895 20.8518 19.8333 20.7856L14.2458 15.198V20.3095C14.2458 20.4881 14.1748 20.6595 14.0485 20.7859C13.9221 20.9122 13.7507 20.9832 13.5721 20.9832C13.3934 20.9832 13.222 20.9122 13.0957 20.7859C12.9693 20.6595 12.8983 20.4881 12.8983 20.3095V13.5721C12.8983 13.3934 12.9693 13.222 13.0957 13.0957C13.222 12.9693 13.3934 12.8983 13.5721 12.8983H20.3095ZM10.4279 3.01681C10.6066 3.01681 10.778 3.08779 10.9043 3.21414C11.0307 3.34049 11.1017 3.51186 11.1017 3.69055V10.4279C11.1017 10.6066 11.0307 10.778 10.9043 10.9043C10.778 11.0307 10.6066 11.1017 10.4279 11.1017H3.69055C3.51186 11.1017 3.34049 11.0307 3.21414 10.9043C3.08779 10.778 3.01681 10.6066 3.01681 10.4279C3.01681 10.2493 3.08779 10.0779 3.21414 9.95154C3.34049 9.82518 3.51186 9.7542 3.69055 9.7542H8.80198L3.21444 4.16665C3.14824 4.10497 3.09515 4.03059 3.05833 3.94795C3.0215 3.8653 3.0017 3.77609 3.0001 3.68563C2.99851 3.59516 3.01515 3.5053 3.04904 3.42141C3.08292 3.33752 3.13336 3.26131 3.19733 3.19733C3.26131 3.13336 3.33752 3.08292 3.42141 3.04904C3.5053 3.01515 3.59516 2.99851 3.68563 3.0001C3.77609 3.0017 3.8653 3.0215 3.94795 3.05833C4.03059 3.09515 4.10497 3.14824 4.16665 3.21444L9.7542 8.80198V3.69055C9.7542 3.51186 9.82518 3.34049 9.95154 3.21414C10.0779 3.08779 10.2493 3.01681 10.4279 3.01681Z" fill="black"/>
</svg>
