<svg width="24" height="24" viewBox="0 0 24 24" fill="none" xmlns="http://www.w3.org/2000/svg">
<path d="M6.90909 6.6C6.90909 6.3613 7.01126 6.13239 7.19311 5.9636C7.37496 5.79482 7.62161 5.7 7.87879 5.7H15.6364C15.8935 5.7 16.1402 5.79482 16.322 5.9636C16.5039 6.13239 16.6061 6.3613 16.6061 6.6V8.4C16.6061 8.63869 16.5039 8.86761 16.322 9.0364C16.1402 9.20518 15.8935 9.3 15.6364 9.3H7.87879C7.62161 9.3 7.37496 9.20518 7.19311 9.0364C7.01126 8.86761 6.90909 8.63869 6.90909 8.4V6.6ZM8.36364 7.95H15.1515V7.05H8.36364V7.95ZM4 5.25C4 4.65326 4.25541 4.08097 4.71004 3.65901C5.16468 3.23705 5.78129 3 6.42424 3H17.5758C17.8941 3 18.2094 3.0582 18.5035 3.17127C18.7976 3.28434 19.0648 3.45008 19.29 3.65901C19.5151 3.86794 19.6936 4.11598 19.8155 4.38896C19.9373 4.66194 20 4.95453 20 5.25V18.075C20 18.254 19.9234 18.4257 19.787 18.5523C19.6506 18.6789 19.4656 18.75 19.2727 18.75H5.45455C5.45455 18.9887 5.55671 19.2176 5.73856 19.3864C5.92042 19.5552 6.16706 19.65 6.42424 19.65H19.2727C19.4656 19.65 19.6506 19.7211 19.787 19.8477C19.9234 19.9743 20 20.146 20 20.325C20 20.504 19.9234 20.6757 19.787 20.8023C19.6506 20.9289 19.4656 21 19.2727 21H6.42424C5.78129 21 5.16468 20.7629 4.71004 20.341C4.25541 19.919 4 19.3467 4 18.75V5.25ZM5.45455 17.4H18.5455V5.25C18.5455 5.01131 18.4433 4.78239 18.2614 4.6136C18.0796 4.44482 17.8329 4.35 17.5758 4.35H6.42424C6.16706 4.35 5.92042 4.44482 5.73856 4.6136C5.55671 4.78239 5.45455 5.01131 5.45455 5.25V17.4Z" fill="black"/>
</svg>
