<svg width="24" height="24" viewBox="0 0 24 24" fill="none" xmlns="http://www.w3.org/2000/svg">
<path d="M6.42424 3C5.78129 3 5.16468 3.23705 4.71004 3.65901C4.25541 4.08097 4 4.65326 4 5.25V18.75C4 19.3467 4.25541 19.919 4.71004 20.341C5.16468 20.7629 5.78129 21 6.42424 21H19.2727C19.4656 21 19.6506 20.9289 19.787 20.8023C19.9234 20.6757 20 20.504 20 20.325C20 20.146 19.9234 19.9743 19.787 19.8477C19.6506 19.7211 19.4656 19.65 19.2727 19.65H6.42424C6.16706 19.65 5.92042 19.5552 5.73856 19.3864C5.55671 19.2176 5.45455 18.9887 5.45455 18.75H19.2727C19.4656 18.75 19.6506 18.6789 19.787 18.5523C19.9234 18.4257 20 18.254 20 18.075V5.25C20 4.95453 19.9373 4.66194 19.8155 4.38896C19.6936 4.11598 19.5151 3.86794 19.29 3.65901C19.0648 3.45008 18.7976 3.28434 18.5035 3.17127C18.2094 3.0582 17.8941 3 17.5758 3H6.42424ZM7.87879 5.7H15.6364C15.8935 5.7 16.1402 5.79482 16.322 5.9636C16.5039 6.13239 16.6061 6.3613 16.6061 6.6V7.5C16.6061 7.73869 16.5039 7.96761 16.322 8.1364C16.1402 8.30518 15.8935 8.4 15.6364 8.4H7.87879C7.62161 8.4 7.37496 8.30518 7.19311 8.1364C7.01126 7.96761 6.90909 7.73869 6.90909 7.5V6.6C6.90909 6.3613 7.01126 6.13239 7.19311 5.9636C7.37496 5.79482 7.62161 5.7 7.87879 5.7Z" fill="black"/>
</svg>
