<svg width="24" height="24" viewBox="0 0 24 24" fill="none" xmlns="http://www.w3.org/2000/svg">
<path d="M12 3C16.9707 3 21 7.0293 21 12C21 16.9707 16.9707 21 12 21C7.0293 21 3 16.9707 3 12C3 7.0293 7.0293 3 12 3ZM12 4.35C9.97109 4.35 8.02529 5.15598 6.59063 6.59063C5.15598 8.02529 4.35 9.97109 4.35 12C4.35 14.0289 5.15598 15.9747 6.59063 17.4094C8.02529 18.844 9.97109 19.65 12 19.65C14.0289 19.65 15.9747 18.844 17.4094 17.4094C18.844 15.9747 19.65 14.0289 19.65 12C19.65 9.97109 18.844 8.02529 17.4094 6.59063C15.9747 5.15598 14.0289 4.35 12 4.35ZM15.1014 8.7573L15.177 8.823C15.2913 8.93729 15.3608 9.08881 15.3729 9.25001C15.3849 9.4112 15.3387 9.57138 15.2427 9.7014L15.177 9.777L12.9549 12L15.1779 14.223C15.2921 14.3374 15.3614 14.489 15.3733 14.6502C15.3852 14.8114 15.3389 14.9715 15.2427 15.1014L15.177 15.177C15.0627 15.2913 14.9112 15.3608 14.75 15.3729C14.5888 15.3849 14.4286 15.3387 14.2986 15.2427L14.223 15.177L12 12.9549L9.777 15.1779C9.6626 15.2921 9.51102 15.3614 9.34983 15.3733C9.18863 15.3852 9.02852 15.3389 8.8986 15.2427L8.823 15.177C8.70868 15.0627 8.63918 14.9112 8.62712 14.75C8.61506 14.5888 8.66126 14.4286 8.7573 14.2986L8.823 14.223L11.0451 12L8.8221 9.777C8.70792 9.6626 8.63858 9.51102 8.62669 9.34983C8.6148 9.18863 8.66114 9.02852 8.7573 8.8986L8.823 8.823C8.93729 8.70868 9.08881 8.63918 9.25001 8.62712C9.4112 8.61506 9.57138 8.66126 9.7014 8.7573L9.777 8.823L12 11.0451L14.223 8.8221C14.3374 8.70792 14.489 8.63858 14.6502 8.62669C14.8114 8.6148 14.9715 8.66114 15.1014 8.7573Z" fill="black"/>
</svg>
