<svg width="24" height="24" viewBox="0 0 24 24" fill="none" xmlns="http://www.w3.org/2000/svg">
<path d="M20.0571 3.9431C19.4529 3.33964 18.6339 3.00067 17.78 3.00067C16.9261 3.00067 16.1071 3.33964 15.503 3.9431L4.74588 14.7002C4.38005 15.0656 4.12298 15.5256 4.00336 16.0286L3.01783 20.1705C2.99115 20.2827 2.99365 20.3999 3.0251 20.5108C3.05655 20.6218 3.1159 20.7228 3.19748 20.8043C3.27907 20.8858 3.38018 20.945 3.49116 20.9764C3.60214 21.0077 3.7193 21.0101 3.83145 20.9833L7.97246 19.9968C8.47585 19.8774 8.9361 19.6203 9.3018 19.2543L20.0571 8.49902C20.6605 7.89487 20.9995 7.07588 20.9995 6.22196C20.9995 5.36805 20.6605 4.54905 20.0571 3.9449M16.457 4.89893C16.6307 4.72518 16.837 4.58736 17.064 4.49333C17.291 4.3993 17.5343 4.35091 17.78 4.35091C18.0257 4.35091 18.269 4.3993 18.496 4.49333C18.723 4.58736 18.9293 4.72518 19.1031 4.89893C19.2768 5.07267 19.4146 5.27893 19.5086 5.50594C19.6027 5.73295 19.6511 5.97625 19.6511 6.22196C19.6511 6.46767 19.6027 6.71098 19.5086 6.93798C19.4146 7.16499 19.2768 7.37125 19.1031 7.545L18.3002 8.34512L15.6542 5.69995L16.457 4.89893ZM14.7001 6.65577L17.3462 9.30004L8.34597 18.3003C8.15697 18.4893 7.91936 18.6216 7.65926 18.6837L4.58477 19.4163L5.31649 16.3418C5.37859 16.0808 5.5118 15.8432 5.7008 15.6542L14.7001 6.65577Z" fill="black"/>
</svg>
