<svg width="24" height="24" viewBox="0 0 24 24" fill="none" xmlns="http://www.w3.org/2000/svg">
<path d="M15.5016 3.94341C16.1055 3.3394 16.9246 3.00002 17.7787 2.99994C18.6329 2.99985 19.452 3.33907 20.056 3.94296C20.66 4.54686 20.9994 5.36596 20.9995 6.22008C20.9996 7.07419 20.6604 7.89336 20.0565 8.49738L19.2537 9.30107L14.6997 4.74621L15.5016 3.94341ZM13.7457 5.7011L4.74582 14.7001C4.38 15.0656 4.12294 15.5255 4.00332 16.0285L3.01783 20.1703C2.99115 20.2825 2.99365 20.3996 3.0251 20.5106C3.05655 20.6215 3.11589 20.7225 3.19748 20.804C3.27906 20.8855 3.38016 20.9448 3.49114 20.9761C3.60212 21.0074 3.71927 21.0098 3.83142 20.983L7.97229 19.9966C8.47566 19.8771 8.93589 19.62 9.30158 19.2541L18.2997 10.2551L13.7457 5.7011Z" fill="black"/>
</svg>
