<svg width="24" height="24" viewBox="0 0 24 24" fill="none" xmlns="http://www.w3.org/2000/svg">
<path d="M20.6542 11.5061V8.37043L12.3669 12.7116C12.2747 12.7599 12.1721 12.7851 12.0681 12.7851C11.964 12.7851 11.8615 12.7599 11.7693 12.7116L3.48193 8.37043V15.3613L3.48623 15.5192C3.52658 16.2309 3.83771 16.9001 4.3558 17.3896C4.87389 17.8791 5.55966 18.1518 6.27243 18.1518H11.8251C11.9831 17.7894 12.2072 17.4589 12.4888 17.1772L17.5572 12.1088C17.9549 11.7117 18.462 11.4422 19.0137 11.3348C19.5654 11.2274 20.1366 11.2871 20.6542 11.5061ZM17.8637 4.41394H6.27243L6.11273 4.41823C5.4496 4.45617 4.82176 4.7294 4.34205 5.18881C3.86234 5.64821 3.56223 6.26366 3.49567 6.92453L12.0681 11.4151L20.6405 6.92453C20.5711 6.23633 20.2486 5.59843 19.7355 5.13455C19.2225 4.67066 18.5554 4.41386 17.8637 4.41394ZM18.1642 12.7167L13.0958 17.7843C12.801 18.0801 12.5916 18.45 12.4896 18.855L12.0964 20.4271C12.0573 20.5835 12.0594 20.7474 12.1024 20.9028C12.1455 21.0581 12.2281 21.1997 12.3421 21.3137C12.4562 21.4276 12.5978 21.5101 12.7532 21.5531C12.9086 21.596 13.0725 21.598 13.2289 21.5587L14.8002 21.1664C15.2056 21.0643 15.5758 20.8546 15.8717 20.5593L20.9393 15.4918C21.2931 15.1209 21.4878 14.6263 21.4818 14.1138C21.4758 13.6013 21.2695 13.1114 20.907 12.749C20.5446 12.3865 20.0547 12.1802 19.5422 12.1742C19.0297 12.1682 18.5351 12.3629 18.1642 12.7167Z" fill="black"/>
</svg>
