<svg width="24" height="24" viewBox="0 0 24 24" fill="none" xmlns="http://www.w3.org/2000/svg">
<path d="M10.929 3.20594C11.2503 3.00569 11.6214 2.89954 12 2.89954C12.3786 2.89954 12.7497 3.00569 13.071 3.20594L20.046 7.55564C20.1156 7.59884 20.1819 7.64594 20.2449 7.69694L12 12.0349L3.7506 7.69964C3.8148 7.64864 3.8823 7.60064 3.9531 7.55564L10.929 3.20594ZM3.0432 8.85254C3.01444 8.99109 2.99997 9.13223 3 9.27374V16.1749C3 16.9507 3.30817 17.6947 3.85671 18.2432C4.40526 18.7918 5.14924 19.0999 5.925 19.0999H18.075C18.4591 19.0999 18.8395 19.0243 19.1943 18.8773C19.5492 18.7303 19.8717 18.5148 20.1433 18.2432C20.4149 17.9716 20.6304 17.6492 20.7773 17.2943C20.9243 16.9394 21 16.5591 21 16.1749V9.27374C21 9.12914 20.985 8.98754 20.955 8.84894L12.315 13.3939C12.2181 13.4452 12.1102 13.472 12.0006 13.4722C11.891 13.4723 11.783 13.4458 11.6859 13.3948L3.0432 8.85254Z" fill="black"/>
</svg>
