<svg width="24" height="24" viewBox="0 0 24 24" fill="none" xmlns="http://www.w3.org/2000/svg">
<path d="M7.59717 15.3491C7.7393 15.2166 7.9273 15.1445 8.12154 15.148C8.31579 15.1514 8.50112 15.2301 8.6385 15.3674C8.77587 15.5048 8.85456 15.6902 8.85799 15.8844C8.86142 16.0786 8.78931 16.2666 8.65687 16.4088L5.56273 19.5019H7.75112C7.93231 19.5019 8.10737 19.5675 8.24392 19.6866C8.38047 19.8057 8.46927 19.9702 8.49392 20.1497L8.50091 20.2517C8.50091 20.4506 8.42192 20.6413 8.28131 20.7819C8.14069 20.9225 7.94998 21.0015 7.75112 21.0015H3.75223C3.55338 21.0015 3.36266 20.9225 3.22205 20.7819C3.08144 20.6413 3.00244 20.4506 3.00244 20.2517V16.2528C3.00244 16.054 3.08144 15.8633 3.22205 15.7226C3.36266 15.582 3.55338 15.503 3.75223 15.503C3.95109 15.503 4.1418 15.582 4.28242 15.7226C4.42303 15.8633 4.50202 16.054 4.50202 16.2528V18.4422L7.59717 15.3491ZM16.2538 21.0015C16.0549 21.0015 15.8642 20.9225 15.7236 20.7819C15.583 20.6413 15.504 20.4506 15.504 20.2517C15.504 20.0529 15.583 19.8621 15.7236 19.7215C15.8642 19.5809 16.0549 19.5019 16.2538 19.5019H18.4392L15.349 16.4088C15.222 16.2818 15.1448 16.1135 15.1314 15.9345C15.118 15.7554 15.1693 15.5775 15.276 15.433L15.349 15.3491C15.4896 15.2087 15.6802 15.1298 15.8789 15.1298C16.0776 15.1298 16.2681 15.2087 16.4087 15.3491L19.5029 18.4442V16.2528C19.5029 16.0716 19.5685 15.8966 19.6876 15.76C19.8067 15.6235 19.9712 15.5347 20.1507 15.51L20.2526 15.503C20.4515 15.503 20.6422 15.582 20.7828 15.7226C20.9234 15.8633 21.0024 16.054 21.0024 16.2528V20.2517C21.0024 20.4506 20.9234 20.6413 20.7828 20.7819C20.6422 20.9225 20.4515 21.0015 20.2526 21.0015H16.2538ZM7.75112 3.0025C7.94998 3.0025 8.14069 3.0815 8.28131 3.22211C8.42192 3.36272 8.50091 3.55344 8.50091 3.75229C8.50091 3.95115 8.42192 4.14186 8.28131 4.28248C8.14069 4.42309 7.94998 4.50209 7.75112 4.50209H5.56473L8.65687 7.59623C8.7837 7.7233 8.86073 7.89168 8.87393 8.07073C8.88714 8.24979 8.83566 8.42764 8.72885 8.57196L8.65587 8.65693C8.51529 8.79734 8.32471 8.87621 8.12602 8.87621C7.92732 8.87621 7.73675 8.79734 7.59617 8.65693L4.50202 5.55879V7.75118C4.50202 7.93237 4.4364 8.10743 4.31731 8.24398C4.19822 8.38053 4.03371 8.46934 3.8542 8.49398L3.75223 8.50098C3.55338 8.50098 3.36266 8.42198 3.22205 8.28137C3.08144 8.14075 3.00244 7.95004 3.00244 7.75118V3.75229C3.00244 3.55344 3.08144 3.36272 3.22205 3.22211C3.36266 3.0815 3.55338 3.0025 3.75223 3.0025H7.75112ZM20.2526 3.0025C20.4515 3.0025 20.6422 3.0815 20.7828 3.22211C20.9234 3.36272 21.0024 3.55344 21.0024 3.75229V7.75118C21.0024 7.95004 20.9234 8.14075 20.7828 8.28137C20.6422 8.42198 20.4515 8.50098 20.2526 8.50098C20.0538 8.50098 19.8631 8.42198 19.7225 8.28137C19.5819 8.14075 19.5029 7.95004 19.5029 7.75118V5.56079L16.4087 8.65593C16.2818 8.78291 16.1135 8.86012 15.9344 8.87351C15.7553 8.88691 15.5774 8.8356 15.433 8.72891L15.349 8.65593C15.2086 8.51535 15.1297 8.32477 15.1297 8.12608C15.1297 7.92738 15.2086 7.73681 15.349 7.59623L18.4402 4.50209H16.2538C16.0726 4.50208 15.8975 4.43646 15.761 4.31737C15.6244 4.19828 15.5356 4.03377 15.511 3.85427L15.504 3.75229C15.504 3.55344 15.583 3.36272 15.7236 3.22211C15.8642 3.0815 16.0549 3.0025 16.2538 3.0025H20.2526Z" fill="black"/>
</svg>
