<svg width="24" height="24" viewBox="0 0 24 24" fill="none" xmlns="http://www.w3.org/2000/svg">
<path d="M17.6002 19.6509C17.7793 19.6509 17.951 19.722 18.0775 19.8486C18.2041 19.9752 18.2753 20.1469 18.2753 20.326C18.2753 20.505 18.2041 20.6767 18.0775 20.8033C17.951 20.9299 17.7793 21.001 17.6002 21.001L5.89964 21.0055C5.72061 21.0055 5.54892 20.9344 5.42232 20.8078C5.29573 20.6812 5.22461 20.5095 5.22461 20.3305C5.22461 20.1514 5.29573 19.9797 5.42232 19.8531C5.54892 19.7265 5.72061 19.6554 5.89964 19.6554L17.6002 19.6509ZM11.6581 3.01269L11.7499 3.00639C11.9131 3.0064 12.0707 3.06547 12.1936 3.17269C12.3165 3.27991 12.3965 3.42802 12.4187 3.58962L12.425 3.68143L12.4241 15.9985L15.774 12.6504C15.8883 12.5361 16.0399 12.4665 16.2011 12.4545C16.3623 12.4424 16.5225 12.4886 16.6525 12.5847L16.729 12.6504C16.8432 12.7648 16.9125 12.9164 16.9244 13.0776C16.9363 13.2388 16.89 13.3989 16.7938 13.5288L16.7281 13.6044L12.2306 18.1019C12.1163 18.2163 11.9647 18.2858 11.8035 18.2978C11.6423 18.3099 11.4821 18.2637 11.3521 18.1677L11.2756 18.1019L6.77269 13.6053C6.6516 13.485 6.58057 13.3233 6.57392 13.1528C6.56726 12.9822 6.62546 12.8155 6.7368 12.6861C6.84815 12.5567 7.00437 12.4743 7.17402 12.4555C7.34366 12.4367 7.51414 12.4828 7.65113 12.5847L7.72673 12.6495L11.074 15.9922L11.0749 3.68053C11.0749 3.5174 11.134 3.3598 11.2412 3.23687C11.3484 3.11393 11.4965 3.03488 11.6581 3.01269Z" fill="black"/>
</svg>
