<svg width="24" height="24" viewBox="0 0 24 24" fill="none" xmlns="http://www.w3.org/2000/svg">
<path d="M19.8115 7.51333C19.6116 7.09571 19.3301 6.72238 18.9835 6.41539L16.2837 3.96753C15.6894 3.42284 14.9349 3.08504 14.1328 3.00459H8.58912C7.99296 2.97931 7.39772 3.07285 6.83805 3.27978C6.27838 3.4867 5.76545 3.80287 5.32912 4.20989C4.89279 4.61691 4.54177 5.10665 4.29649 5.6506C4.05121 6.19455 3.91656 6.78186 3.90039 7.37834V16.6478C3.93223 17.5473 4.2331 18.4166 4.76412 19.1434C5.29514 19.8701 6.03191 20.4209 6.87922 20.7246C7.43009 20.934 8.01863 21.0259 8.60712 20.9946H15.4107C16.0069 21.0198 16.6021 20.9263 17.1618 20.7194C17.7215 20.5124 18.2344 20.1963 18.6707 19.7893C19.1071 19.3822 19.4581 18.8925 19.7034 18.3485C19.9486 17.8046 20.0833 17.2173 20.0995 16.6208V8.90825C20.1038 8.42808 20.0056 7.95252 19.8115 7.51333ZM15.4557 14.7849L13.0619 17.1878C12.9241 17.3218 12.7623 17.4287 12.5849 17.5028C12.4643 17.5568 12.3383 17.5898 12.2069 17.6018C12.0884 17.6288 11.9654 17.6288 11.8469 17.6018C11.7163 17.5902 11.5885 17.5567 11.469 17.5028C11.2916 17.4287 11.1298 17.3218 10.992 17.1878L8.59812 14.7849C8.45069 14.6128 8.37364 14.3913 8.38239 14.1648C8.39114 13.9383 8.48504 13.7235 8.64531 13.5632C8.80559 13.4029 9.02044 13.309 9.24694 13.3003C9.47343 13.2915 9.69489 13.3686 9.86705 13.516L11.127 14.7759V10.6272C11.127 10.3885 11.2218 10.1596 11.3906 9.99079C11.5593 9.82202 11.7882 9.7272 12.0269 9.7272C12.2656 9.7272 12.4945 9.82202 12.6633 9.99079C12.8321 10.1596 12.9269 10.3885 12.9269 10.6272V14.7759L14.1868 13.516C14.359 13.3686 14.5804 13.2915 14.8069 13.3003C15.0334 13.309 15.2483 13.4029 15.4085 13.5632C15.5688 13.7235 15.6627 13.9383 15.6715 14.1648C15.6802 14.3913 15.6032 14.6128 15.4557 14.7849ZM15.6537 7.86431C15.5253 7.8655 15.398 7.84124 15.279 7.79293C15.16 7.74461 15.0518 7.67321 14.9606 7.58284C14.8694 7.49246 14.797 7.38492 14.7476 7.2664C14.6982 7.14789 14.6728 7.02076 14.6728 6.89237V4.5075C14.9248 4.6443 15.1677 4.79729 15.4017 4.96648L18.1016 7.42334C18.2516 7.54993 18.3776 7.69692 18.4796 7.86431H15.6537Z" fill="black"/>
</svg>
