<svg width="24" height="24" viewBox="0 0 24 24" fill="none" xmlns="http://www.w3.org/2000/svg">
<path d="M12.0001 2.99902C16.9712 2.99902 21.001 7.02882 21.001 11.9999C21.001 16.9701 16.9712 20.999 12.0001 20.999C7.02897 20.999 3.00098 16.9701 3.00098 11.9999C3.00008 7.02882 7.02897 2.99902 12.0001 2.99902ZM14.6458 16.0495H9.35524C9.94198 18.2228 10.9625 19.651 12.001 19.651C13.0395 19.651 14.0591 18.2219 14.6458 16.0495ZM7.95858 16.0495H5.50723C6.37637 17.4397 7.66779 18.5151 9.19236 19.1182C8.7226 18.3803 8.33474 17.457 8.04947 16.405L7.95858 16.0495ZM18.492 16.0495H16.0425C15.7509 17.2509 15.3297 18.2993 14.8069 19.1191C16.2348 18.5542 17.4605 17.5739 18.3255 16.3051L18.492 16.0495ZM7.58512 10.2001H4.56322L4.55872 10.2154C4.41957 10.8 4.3498 11.399 4.35084 11.9999C4.34997 12.922 4.51583 13.8366 4.84039 14.6997H7.69581C7.56304 13.8059 7.49776 12.9035 7.50053 11.9999C7.50053 11.3844 7.52932 10.7814 7.58602 10.1992M15.058 10.1992H8.94308C8.78512 11.6979 8.82597 13.2108 9.06457 14.6988H14.9356C15.1742 13.2108 15.2159 11.6979 15.058 10.1992ZM19.4378 10.1992H16.4159C16.4717 10.7814 16.5014 11.3844 16.5014 11.999C16.5039 12.9026 16.4383 13.805 16.3052 14.6988H19.1607C19.4855 13.8358 19.6517 12.9211 19.6511 11.999C19.6511 11.379 19.5773 10.776 19.4378 10.1992ZM9.19236 4.87984L9.17166 4.88703C7.32954 5.62281 5.84376 7.04312 5.02577 8.85024H7.7687C8.05127 7.2736 8.54262 5.90033 9.19326 4.88164M12.001 4.34979L11.8957 4.35429C10.7582 4.45868 9.65761 6.2594 9.14736 8.85024H14.8546C14.3452 6.2675 13.2501 4.46858 12.1144 4.35519L12.001 4.34979ZM14.8087 4.88074L14.9041 5.03822C15.507 6.03892 15.9633 7.35279 16.2315 8.85114H18.9744C18.1933 7.12684 16.8027 5.75193 15.0697 4.99052L14.8087 4.88074Z" fill="black"/>
</svg>
