<svg width="24" height="24" viewBox="0 0 24 24" fill="none" xmlns="http://www.w3.org/2000/svg">
<path d="M12 3C16.9707 3 21 7.0302 21 12C21 16.9698 16.9707 21 12 21C7.0293 21 3 16.9698 3 12C3 7.0302 7.0293 3 12 3ZM12 15.15C11.7613 15.15 11.5324 15.2448 11.3636 15.4136C11.1948 15.5824 11.1 15.8113 11.1 16.05C11.1 16.2887 11.1948 16.5176 11.3636 16.6864C11.5324 16.8552 11.7613 16.95 12 16.95C12.2387 16.95 12.4676 16.8552 12.6364 16.6864C12.8052 16.5176 12.9 16.2887 12.9 16.05C12.9 15.8113 12.8052 15.5824 12.6364 15.4136C12.4676 15.2448 12.2387 15.15 12 15.15ZM12 7.275C11.3436 7.275 10.7141 7.53576 10.2499 7.99991C9.78576 8.46406 9.525 9.09359 9.525 9.75C9.52505 9.92102 9.59002 10.0856 9.70678 10.2106C9.82353 10.3356 9.98337 10.4116 10.154 10.4232C10.3246 10.4349 10.4933 10.3813 10.626 10.2734C10.7586 10.1655 10.8454 10.0112 10.8687 9.8418L10.875 9.75C10.875 9.45163 10.9935 9.16548 11.2045 8.9545C11.4155 8.74353 11.7016 8.625 12 8.625C12.2984 8.625 12.5845 8.74353 12.7955 8.9545C13.0065 9.16548 13.125 9.45163 13.125 9.75C13.125 10.2351 13.0035 10.4745 12.5445 10.9488L12.423 11.073C11.6328 11.8632 11.325 12.3753 11.325 13.35C11.325 13.529 11.3961 13.7007 11.5227 13.8273C11.6493 13.9539 11.821 14.025 12 14.025C12.179 14.025 12.3507 13.9539 12.4773 13.8273C12.6039 13.7007 12.675 13.529 12.675 13.35C12.675 12.8649 12.7965 12.6255 13.2555 12.1512L13.377 12.027C14.1672 11.2368 14.475 10.7247 14.475 9.75C14.475 9.09359 14.2142 8.46406 13.7501 7.99991C13.2859 7.53576 12.6564 7.275 12 7.275Z" fill="black"/>
</svg>
