<svg width="24" height="24" viewBox="0 0 24 24" fill="none" xmlns="http://www.w3.org/2000/svg">
<path d="M9.75637 4.31827L10.5785 6.14659C10.7931 6.624 10.8528 7.15661 10.7494 7.66971C10.6459 8.1828 10.3844 8.65063 10.0015 9.00755L8.63896 10.2772C8.59916 10.3143 8.57394 10.3644 8.56787 10.4184C8.52777 10.7803 8.77294 11.4848 9.33894 12.4646C9.74908 13.1764 10.1219 13.6768 10.4381 13.9566C10.6596 14.1525 10.7808 14.1945 10.8328 14.1799L12.6647 13.6194C13.165 13.4663 13.7007 13.4737 14.1966 13.6404C14.6925 13.8071 15.1237 14.1248 15.43 14.549L16.5966 16.1677C16.9518 16.6599 17.1163 17.2641 17.0596 17.8684C17.003 18.4727 16.729 19.0359 16.2886 19.4534L15.4801 20.219C15.0516 20.6247 14.5254 20.9126 13.9526 21.0546C13.3799 21.1965 12.7801 21.1878 12.2117 21.0293C9.70077 20.3284 7.45046 18.2102 5.43439 14.7185C3.41649 11.2223 2.70741 8.21097 3.36181 5.68359C3.50019 5.14785 3.76656 4.65372 4.13805 4.24365C4.50955 3.83358 4.97504 3.51984 5.49454 3.32937L5.6823 3.26649L6.74593 2.94657C7.3286 2.77087 7.95528 2.81317 8.50906 3.06557C9.06283 3.31797 9.50585 3.76323 9.75546 4.31827M7.13967 4.25447L6.07694 4.5762L5.93203 4.62542C5.62744 4.7427 5.35524 4.93099 5.13806 5.17464C4.92089 5.41829 4.76501 5.71026 4.68338 6.02628C4.13379 8.15081 4.76176 10.8204 6.61742 14.035C8.47126 17.245 10.4664 19.1235 12.5781 19.7132C12.9193 19.8083 13.2792 19.8135 13.6229 19.7282C13.9667 19.6429 14.2825 19.47 14.5395 19.2265L15.3471 18.4609C15.5474 18.2711 15.672 18.0151 15.6979 17.7403C15.7237 17.4656 15.6489 17.1908 15.4874 16.967L14.3208 15.3493C14.1816 15.1562 13.9854 15.0116 13.7598 14.9358C13.5342 14.8599 13.2906 14.8566 13.063 14.9263L11.2265 15.4887C10.1601 15.8059 9.19311 14.9482 8.15408 13.1482C7.45411 11.936 7.12782 10.9972 7.20985 10.2671C7.25177 9.88799 7.42859 9.538 7.70657 9.27733L9.06915 8.00772C9.2431 7.84539 9.36187 7.63268 9.40878 7.39942C9.45569 7.16616 9.4284 6.92407 9.33073 6.70712L8.50954 4.8788C8.39607 4.6265 8.19467 4.42412 7.94294 4.3094C7.69121 4.19469 7.40634 4.17549 7.14149 4.25538M14.5177 2.88824H20.4556C20.4793 2.88703 20.503 2.88824 20.5267 2.89189L20.5823 2.901L20.6689 2.92561L20.75 2.95933L20.811 2.99579C20.8935 3.04833 20.9638 3.11795 21.017 3.19995L21.0562 3.2674L21.0936 3.36218L21.1155 3.45059L21.1255 3.54174V9.49972C21.1252 9.67284 21.0593 9.8394 20.9409 9.96577C20.8226 10.0922 20.6608 10.1689 20.4881 10.1806C20.3153 10.1923 20.1446 10.138 20.0104 10.0287C19.8761 9.91944 19.7883 9.76328 19.7647 9.59178L19.7584 9.49972V5.21876L14.0893 10.8915C13.9735 11.0072 13.8201 11.0776 13.6569 11.0898C13.4936 11.102 13.3314 11.0553 13.1997 10.958L13.1223 10.8915C13.0066 10.7756 12.9364 10.6221 12.9244 10.4589C12.9123 10.2956 12.9593 10.1335 13.0566 10.0019L13.1223 9.92536L18.7922 4.25265H14.5177C14.3523 4.25286 14.1925 4.19314 14.0678 4.08455C13.9431 3.97595 13.862 3.82585 13.8396 3.66204L13.8332 3.56999C13.8332 3.3887 13.9052 3.21483 14.0334 3.08663C14.1616 2.95844 14.3354 2.88642 14.5167 2.88642" fill="black"/>
</svg>
