<svg width="24" height="24" viewBox="0 0 24 24" fill="none" xmlns="http://www.w3.org/2000/svg">
<path d="M3.28015 2.21991C3.21149 2.14622 3.12869 2.08712 3.03669 2.04613C2.94469 2.00514 2.84538 1.98309 2.74468 1.98132C2.64397 1.97954 2.54394 1.99807 2.45056 2.03579C2.35717 2.07351 2.27233 2.12965 2.20112 2.20087C2.1299 2.27209 2.07375 2.35692 2.03603 2.45031C1.99831 2.5437 1.97979 2.64373 1.98156 2.74443C1.98334 2.84513 2.00538 2.94445 2.04637 3.03645C2.08736 3.12845 2.14647 3.21125 2.22015 3.27991L8.00015 9.05991V11.9999C8.00007 12.7269 8.19814 13.4402 8.57306 14.0631C8.94798 14.686 9.48557 15.195 10.1281 15.5352C10.7705 15.8755 11.4936 16.0342 12.2195 15.9943C12.9455 15.9545 13.6468 15.7175 14.2482 15.3089L15.3942 16.4549C14.4871 17.1348 13.3837 17.5015 12.2502 17.4999H11.7502L11.5342 17.4959C10.1802 17.4402 8.90031 16.8631 7.96209 15.8853C7.02387 14.9076 6.50004 13.605 6.50015 12.2499V11.7499L6.49315 11.6479C6.46725 11.4597 6.37086 11.2883 6.22345 11.1683C6.07605 11.0484 5.88862 10.9889 5.69903 11.0019C5.50945 11.0148 5.33185 11.0993 5.20213 11.2381C5.0724 11.377 5.00021 11.5599 5.00015 11.7499V12.2499L5.00415 12.4859C5.06217 14.1479 5.7317 15.7301 6.88436 16.9289C8.03703 18.1277 9.59167 18.8587 11.2502 18.9819V21.2499L11.2572 21.3519C11.2831 21.5402 11.3794 21.7116 11.5269 21.8315C11.6743 21.9514 11.8617 22.0109 12.0513 21.9979C12.2409 21.985 12.4185 21.9006 12.5482 21.7617C12.6779 21.6229 12.7501 21.4399 12.7502 21.2499L12.7512 18.9819C14.1078 18.884 15.4025 18.3754 16.4632 17.5239L20.7192 21.7799C20.8605 21.9166 21.05 21.9923 21.2466 21.9907C21.4433 21.9891 21.6314 21.9103 21.7705 21.7713C21.9096 21.6323 21.9886 21.4442 21.9904 21.2476C21.9922 21.0509 21.9167 20.8614 21.7802 20.7199L3.28015 2.21991ZM17.1962 14.0139L18.3422 15.1599C18.7774 14.2517 19.0023 13.257 19.0002 12.2499V11.7499L18.9932 11.6479C18.9673 11.4597 18.8709 11.2883 18.7235 11.1683C18.576 11.0484 18.3886 10.9889 18.199 11.0019C18.0095 11.0148 17.8319 11.0993 17.7021 11.2381C17.5724 11.377 17.5002 11.5599 17.5002 11.7499V12.2499L17.4962 12.4659C17.4754 12.9942 17.3743 13.5162 17.1962 14.0139ZM8.13815 4.95591L15.9302 12.7479C15.9768 12.5052 16.0002 12.2559 16.0002 11.9999V5.99991C16.0007 5.02984 15.6488 4.09261 15.0098 3.36272C14.3708 2.63283 13.4883 2.16002 12.5267 2.03233C11.5651 1.90463 10.5898 2.13075 9.78246 2.66858C8.97513 3.20641 8.39076 4.0193 8.13815 4.95591Z" fill="black"/>
</svg>
