<svg width="24" height="24" viewBox="0 0 24 24" fill="none" xmlns="http://www.w3.org/2000/svg">
<path d="M19.7362 4.25496C19.3294 3.84616 18.8454 3.52232 18.3123 3.30226C17.7792 3.08221 17.2076 2.97033 16.6309 2.97314H7.38734C6.22454 2.97552 5.11005 3.4385 4.28783 4.26072C3.46561 5.08294 3.00263 6.19743 3.00024 7.36023V16.6309C3.00262 17.7945 3.46531 18.91 4.28727 19.7336C5.10924 20.5573 6.22371 21.0223 7.38734 21.027H13.1194C13.4534 21.0243 13.7847 20.9566 14.0944 20.8284L14.2388 20.7562L14.311 20.7111C14.5361 20.6026 14.7407 20.456 14.9158 20.2778L20.332 14.8616C20.5152 14.6811 20.6678 14.4698 20.7833 14.2388L20.8555 14.0853C20.8591 14.0492 20.9124 13.977 20.9088 13.9409C21.0054 13.6737 21.0009 13.4299 20.9991 13.1465V7.42342C21.0127 6.83739 20.9078 6.25465 20.6906 5.71018C20.4735 5.1657 20.1494 4.67073 19.7362 4.25496ZM10.1406 16.3872H7.35123C7.17167 16.3872 6.99947 16.3158 6.8725 16.1889C6.74554 16.0619 6.67421 15.8897 6.67421 15.7102C6.67421 15.5306 6.74554 15.3584 6.8725 15.2314C6.99947 15.1045 7.17167 15.0331 7.35123 15.0331H10.1406C10.3201 15.0331 10.4923 15.1045 10.6193 15.2314C10.7462 15.3584 10.8176 15.5306 10.8176 15.7102C10.8176 15.8897 10.7462 16.0619 10.6193 16.1889C10.4923 16.3158 10.3201 16.3872 10.1406 16.3872ZM11.0433 12.6771H7.32415C7.14459 12.6771 6.97239 12.6058 6.84542 12.4788C6.71846 12.3518 6.64713 12.1796 6.64713 12.0001C6.64713 11.8205 6.71846 11.6483 6.84542 11.5214C6.97239 11.3944 7.14459 11.3231 7.32415 11.3231H11.0433C11.2228 11.3231 11.395 11.3944 11.522 11.5214C11.6489 11.6483 11.7203 11.8205 11.7203 12.0001C11.7203 12.1796 11.6489 12.3518 11.522 12.4788C11.395 12.6058 11.2228 12.6771 11.0433 12.6771ZM7.32415 8.958C7.14459 8.958 6.97239 8.88667 6.84542 8.7597C6.71846 8.63274 6.64713 8.46053 6.64713 8.28098C6.64713 8.10142 6.71846 7.92922 6.84542 7.80225C6.97239 7.67529 7.14459 7.60396 7.32415 7.60396H15.6741C15.8536 7.60396 16.0258 7.67529 16.1528 7.80225C16.2798 7.92922 16.3511 8.10142 16.3511 8.28098C16.3511 8.46053 16.2798 8.63274 16.1528 8.7597C16.0258 8.88667 15.8536 8.958 15.6741 8.958H7.32415ZM14.3381 18.8876L14.0312 16.4052C13.9972 16.1007 14.0312 15.7924 14.1305 15.5025C14.2289 15.1987 14.3993 14.9231 14.6269 14.6991C14.8547 14.4697 15.1329 14.2966 15.4394 14.1936C15.7433 14.0875 16.0678 14.0535 16.3872 14.0943L18.8696 14.4012L14.3381 18.8876Z" fill="black"/>
</svg>
