<svg width="24" height="24" viewBox="0 0 24 24" fill="none" xmlns="http://www.w3.org/2000/svg">
<path d="M12.1543 3C12.6315 3.0001 13.0893 3.18991 13.4268 3.52734L18.6729 8.77246C19.0103 9.10987 19.2 9.56774 19.2002 10.0449V14H17.8496V10.2002H13.7998C13.3225 10.2002 12.8649 10.0103 12.5273 9.67285C12.1899 9.33538 12.0001 8.87764 12 8.40039V4.34961H6.59961C6.48033 4.34966 6.3656 4.3971 6.28125 4.48145C6.1969 4.56579 6.14947 4.68053 6.14941 4.7998V19.2002C6.14947 19.3195 6.1969 19.4342 6.28125 19.5186C6.3656 19.6029 6.48033 19.6503 6.59961 19.6504H13V21H6.59961C6.12229 20.9999 5.66467 20.8102 5.32715 20.4727C4.98963 20.1351 4.79986 19.6775 4.7998 19.2002V4.7998C4.79986 4.32249 4.98963 3.86486 5.32715 3.52734C5.66467 3.18982 6.12229 3.00005 6.59961 3H12.1543ZM13.3496 8.40039C13.3496 8.60571 13.3499 8.70976 13.5449 8.84961H16.8418L13.3496 5.3584V8.40039Z" fill="black"/>
<path d="M18.4072 14.6505C18.4938 14.6449 18.5801 14.6628 18.6562 14.7022L18.7285 14.7481L18.7334 14.753L18.7686 14.7842L18.7734 14.7881L20.2734 16.2862C20.3553 16.3679 20.4048 16.4774 20.4121 16.5928C20.4193 16.708 20.384 16.8219 20.3135 16.9131L20.3096 16.919L20.3086 16.918L20.2783 16.9542L20.2734 16.9581L18.7734 18.459L18.7744 18.46C18.6892 18.546 18.5741 18.5964 18.4531 18.6006C18.332 18.6048 18.213 18.5626 18.1221 18.4825C18.0313 18.4025 17.9751 18.2904 17.9639 18.17C17.9527 18.0493 17.9878 17.9285 18.0625 17.8331L18.0664 17.8282L18.0977 17.793L18.1016 17.7891L18.79 17.0997H15.0625C14.9462 17.0997 14.834 17.0569 14.7471 16.9796C14.6602 16.9023 14.6045 16.7962 14.5908 16.6807L14.5898 16.6749L14.5879 16.6309L14.5869 16.6251H14.5879C14.5879 16.5087 14.6307 16.3956 14.708 16.3087C14.7853 16.222 14.8915 16.167 15.0068 16.1534L15.0127 16.1524L15.0566 16.1495H18.792L18.1025 15.46C18.0207 15.3783 17.9712 15.2698 17.9639 15.1544C17.9566 15.039 17.9917 14.9245 18.0625 14.8331L18.0654 14.8292H18.0664L18.0967 14.793L18.1016 14.7881L18.168 14.7335C18.2383 14.6849 18.3208 14.656 18.4072 14.6505ZM20.4111 20.3751C20.411 20.4913 20.3682 20.6037 20.291 20.6905C20.2138 20.7772 20.1075 20.8331 19.9922 20.8467H19.9863L19.9424 20.8497H16.209L16.8984 21.5391C16.9802 21.6209 17.0298 21.7294 17.0371 21.8448C17.0444 21.9602 17.0094 22.0747 16.9385 22.1661L16.9346 22.171L16.9033 22.2061L16.8984 22.211L16.8975 22.21C16.8158 22.2916 16.708 22.3414 16.5928 22.3487C16.4773 22.356 16.3629 22.3209 16.2715 22.2501L16.2666 22.2462L16.2314 22.2139L16.2266 22.211L16.2275 22.21L14.7275 20.712C14.6458 20.6303 14.5963 20.5216 14.5889 20.4063C14.5815 20.2909 14.6167 20.1765 14.6875 20.085L14.6914 20.0801L14.7227 20.045L14.7266 20.0401L16.2266 18.5391L16.2959 18.4815C16.3698 18.431 16.4571 18.4016 16.5479 18.3985C16.6689 18.3944 16.7871 18.4366 16.8779 18.5167C16.9687 18.5967 17.0258 18.7087 17.0371 18.8292C17.0483 18.9498 17.0122 19.0706 16.9375 19.1661L16.9346 19.171L16.9033 19.2061L16.8984 19.211L16.8975 19.21L16.2109 19.8995H19.9365C20.0528 19.8995 20.165 19.9424 20.252 20.0196C20.3172 20.0776 20.3652 20.1521 20.3906 20.2344L20.4082 20.3194L20.4092 20.3253L20.4111 20.3692V20.3751Z" fill="black" stroke="black" stroke-width="0.2"/>
</svg>
