<svg width="24" height="24" viewBox="0 0 24 24" fill="none" xmlns="http://www.w3.org/2000/svg">
<path d="M12 3C16.9707 3 21 7.0293 21 12C21 16.9707 16.9707 21 12 21C7.0293 21 3 16.9707 3 12C3 7.0293 7.0293 3 12 3ZM12 4.35C9.97109 4.35 8.02529 5.15598 6.59063 6.59063C5.15598 8.02529 4.35 9.97109 4.35 12C4.35 14.0289 5.15598 15.9747 6.59063 17.4094C8.02529 18.844 9.97109 19.65 12 19.65C14.0289 19.65 15.9747 18.844 17.4094 17.4094C18.844 15.9747 19.65 14.0289 19.65 12C19.65 9.97109 18.844 8.02529 17.4094 6.59063C15.9747 5.15598 14.0289 4.35 12 4.35ZM15.825 11.325C16.004 11.325 16.1757 11.3961 16.3023 11.5227C16.4289 11.6493 16.5 11.821 16.5 12C16.5 12.179 16.4289 12.3507 16.3023 12.4773C16.1757 12.6039 16.004 12.675 15.825 12.675H8.175C7.99598 12.675 7.82429 12.6039 7.6977 12.4773C7.57112 12.3507 7.5 12.179 7.5 12C7.5 11.821 7.57112 11.6493 7.6977 11.5227C7.82429 11.3961 7.99598 11.325 8.175 11.325H15.825Z" fill="black"/>
</svg>
