<svg width="24" height="24" viewBox="0 0 24 24" fill="none" xmlns="http://www.w3.org/2000/svg">
<path d="M19.1873 2.73181C19.7391 2.73181 20.2684 2.95104 20.6586 3.34126C21.0489 3.73149 21.2681 4.26074 21.2681 4.8126V9.86384C21.268 10.661 20.9513 11.4254 20.3877 11.989L12.5269 19.8526C11.9627 20.4154 11.1984 20.7316 10.4014 20.7318C9.60451 20.732 8.84002 20.4161 8.27561 19.8535L4.14917 15.7345C3.58507 15.1713 3.26778 14.4071 3.26709 13.61C3.2664 12.8129 3.58236 12.0482 4.14547 11.4841L12.0062 3.61407C12.2855 3.33458 12.617 3.11288 12.982 2.96165C13.347 2.81043 13.7382 2.73264 14.1333 2.73274L19.1873 2.73181ZM19.1873 4.11901H14.1323C13.7032 4.11901 13.2908 4.29009 12.9874 4.59343L5.11558 12.4755C4.81754 12.7803 4.65181 13.1904 4.65441 13.6167C4.65701 14.0431 4.82772 14.4511 5.12945 14.7523L9.25497 18.8714C9.55916 19.1743 9.971 19.3444 10.4003 19.3444C10.8297 19.3444 11.2415 19.1743 11.5457 18.8714L19.4065 11.0078C19.71 10.7045 19.8807 10.293 19.8809 9.86384V4.8126C19.8809 4.62865 19.8078 4.45223 19.6777 4.32216C19.5477 4.19208 19.3712 4.11901 19.1873 4.11901ZM16.6441 5.97045C16.8263 5.97045 17.0066 6.00633 17.175 6.07604C17.3433 6.14576 17.4962 6.24794 17.625 6.37675C17.7538 6.50556 17.856 6.65849 17.9257 6.82679C17.9954 6.99509 18.0313 7.17547 18.0313 7.35764C18.0313 7.53981 17.9954 7.7202 17.9257 7.8885C17.856 8.0568 17.7538 8.20973 17.625 8.33854C17.4962 8.46735 17.3433 8.56953 17.175 8.63925C17.0066 8.70896 16.8263 8.74484 16.6441 8.74484C16.2762 8.74484 15.9233 8.59869 15.6632 8.33854C15.403 8.07839 15.2569 7.72555 15.2569 7.35764C15.2569 6.98974 15.403 6.6369 15.6632 6.37675C15.9233 6.1166 16.2762 5.97045 16.6441 5.97045Z" fill="black"/>
</svg>
