<svg width="24" height="24" viewBox="0 0 24 24" fill="none" xmlns="http://www.w3.org/2000/svg">
<path d="M19.6504 12C19.6504 7.77488 16.2251 4.34961 12 4.34961C7.77488 4.34961 4.34961 7.77488 4.34961 12C4.34961 13.3952 4.72233 14.7007 5.37207 15.8232C5.53358 16.1022 5.59025 16.4302 5.53125 16.7471L5.13672 18.8623L7.25293 18.4688L7.37207 18.4521C7.65066 18.4256 7.93179 18.4859 8.17578 18.627C9.33745 19.2988 10.6561 19.6522 11.998 19.6504H12C16.2251 19.6504 19.6504 16.2251 19.6504 12ZM21 12C21 16.9707 16.9707 21 12 21C10.4201 21.0022 8.86766 20.5868 7.5 19.7959L3.4502 20.5498L4.2041 16.5C3.43822 15.177 3 13.6389 3 12C3 7.0293 7.0293 3 12 3C16.9707 3 21 7.0293 21 12Z" fill="black"/>
<path d="M11.3252 7.5C11.3252 7.12721 11.6272 6.8252 12 6.8252C12.3728 6.8252 12.6748 7.12721 12.6748 7.5V8.19043H16.5C16.8728 8.19043 17.1748 8.49247 17.1748 8.86523C17.1748 9.23803 16.8728 9.54004 16.5 9.54004H15.3887C14.8487 11.1514 13.9293 12.6594 12.8945 14.002L14.4131 15.5645C14.6726 15.8317 14.6664 16.2588 14.3994 16.5186C14.132 16.7783 13.7041 16.7723 13.4443 16.5049L12.0352 15.0547C11.1007 16.1367 10.1183 17.0997 9.24023 17.8994C8.96461 18.1501 8.53801 18.13 8.28711 17.8545C8.0361 17.5789 8.05641 17.1524 8.33203 16.9014C9.22034 16.0924 10.2035 15.126 11.1221 14.0479C10.8845 13.7538 10.6364 13.4326 10.4102 13.1221C10.0733 12.6597 9.7489 12.1753 9.58984 11.8379C9.43098 11.5007 9.575 11.0984 9.91211 10.9395C10.2493 10.7806 10.6517 10.9255 10.8105 11.2627C10.909 11.4716 11.1631 11.8634 11.501 12.3271C11.6561 12.5401 11.8224 12.7581 11.9863 12.9668C12.7968 11.8865 13.4936 10.7328 13.9541 9.54004H7.5C7.12721 9.54004 6.8252 9.23803 6.8252 8.86523C6.82523 8.49247 7.12723 8.19043 7.5 8.19043H11.3252V7.5Z" fill="black"/>
</svg>
