<svg width="24" height="24" viewBox="0 0 24 24" fill="none" xmlns="http://www.w3.org/2000/svg">
<path fill-rule="evenodd" clip-rule="evenodd" d="M12 3C7.02949 3 3 7.02949 3 12C3 13.5539 3.39433 15.0181 4.08837 16.2949L3.42949 19.8388C3.41095 19.9389 3.41705 20.0421 3.44726 20.1394C3.47747 20.2366 3.53089 20.3251 3.60291 20.3971C3.67492 20.4691 3.76338 20.5225 3.86064 20.5527C3.95791 20.583 4.06106 20.5891 4.16121 20.5705L7.70512 19.9108C9.02295 20.6278 10.4998 21.0023 12 21C16.9705 21 21 16.9705 21 12C21 7.02949 16.9705 3 12 3ZM12.6279 7.81395C12.6279 7.64742 12.5618 7.48771 12.444 7.36996C12.3262 7.2522 12.1665 7.18605 12 7.18605C11.8335 7.18605 11.6738 7.2522 11.556 7.36996C11.4382 7.48771 11.3721 7.64742 11.3721 7.81395V8.45609H7.81395C7.64742 8.45609 7.48771 8.52225 7.36996 8.64C7.2522 8.75776 7.18605 8.91747 7.18605 9.084C7.18605 9.25053 7.2522 9.41024 7.36996 9.528C7.48771 9.64575 7.64742 9.71191 7.81395 9.71191H13.8193C13.3906 10.822 12.7426 11.897 11.9883 12.9017C11.834 12.7054 11.6833 12.5064 11.5362 12.3047C11.2214 11.8727 10.9853 11.5077 10.894 11.3143C10.8232 11.1636 10.6954 11.0471 10.5387 10.9906C10.382 10.9341 10.2093 10.9421 10.0585 11.0129C9.90774 11.0838 9.79129 11.2116 9.73477 11.3683C9.67825 11.525 9.68629 11.6977 9.75712 11.8485C9.9053 12.1624 10.2075 12.6137 10.5207 13.044C10.7316 13.3328 10.9619 13.6326 11.1829 13.9063C10.3747 14.8444 9.50782 15.7302 8.58753 16.5586C8.4643 16.6707 8.39066 16.8272 8.38281 16.9937C8.37496 17.1601 8.43354 17.3228 8.54567 17.446C8.65781 17.5693 8.8143 17.6429 8.98073 17.6508C9.14715 17.6586 9.30988 17.6 9.43312 17.4879C10.3523 16.6588 11.2209 15.7754 12.0343 14.8423L13.3437 16.1902C13.401 16.2503 13.4695 16.2984 13.5455 16.3318C13.6214 16.3652 13.7032 16.3832 13.7861 16.3848C13.8691 16.3864 13.9515 16.3716 14.0287 16.3411C14.1058 16.3107 14.1762 16.2653 14.2357 16.2075C14.2952 16.1497 14.3427 16.0807 14.3754 16.0044C14.4081 15.9282 14.4253 15.8462 14.4261 15.7633C14.427 15.6803 14.4113 15.598 14.3802 15.5211C14.349 15.4443 14.3029 15.3743 14.2446 15.3153L12.8347 13.8645C13.7975 12.6153 14.6514 11.2105 15.1538 9.71191H16.186C16.3526 9.71191 16.5123 9.64575 16.63 9.528C16.7478 9.41024 16.814 9.25053 16.814 9.084C16.814 8.91747 16.7478 8.75776 16.63 8.64C16.5123 8.52225 16.3526 8.45609 16.186 8.45609H12.6279V7.81395Z" fill="black"/>
</svg>
