<svg width="24" height="24" viewBox="0 0 24 24" fill="none" xmlns="http://www.w3.org/2000/svg">
<path d="M21.001 12C21.001 7.0293 16.9717 3 12.001 3C7.03028 3 3.00098 7.0293 3.00098 12C3.00098 16.9707 7.03028 21 12.001 21C16.9717 21 21.001 16.9707 21.001 12ZM7.92398 12.252C7.80966 12.1377 7.74016 11.9862 7.7281 11.825C7.71604 11.6638 7.76223 11.5036 7.85828 11.3736L7.92308 11.2971L11.524 7.6971C11.6383 7.58255 11.79 7.5129 11.9514 7.50084C12.1128 7.48878 12.2732 7.53511 12.4033 7.6314L12.4789 7.6971L16.0789 11.298C16.1996 11.4184 16.2703 11.5801 16.2768 11.7506C16.2832 11.921 16.2248 12.0876 16.1134 12.2168C16.002 12.3459 15.8459 12.4281 15.6763 12.4469C15.5068 12.4656 15.3365 12.4194 15.1996 12.3177L15.124 12.2529L12.676 9.8031V15.8259C12.6759 15.9891 12.6167 16.1469 12.5093 16.2698C12.402 16.3928 12.2536 16.4726 12.0919 16.4946L12.001 16.5C11.8379 16.5 11.6803 16.4409 11.5573 16.3337C11.4344 16.2265 11.3545 16.0784 11.3323 15.9168L11.326 15.825V9.804L8.87798 12.252C8.76363 12.3666 8.61194 12.4362 8.45054 12.4483C8.28913 12.4603 8.12877 12.414 7.99868 12.3177L7.92398 12.252Z" fill="black"/>
</svg>
