<svg width="24" height="24" viewBox="0 0 24 24" fill="none" xmlns="http://www.w3.org/2000/svg">
<path d="M5.19048 6.21053C5.19048 3.88421 7.06571 2 9.38095 2C11.6962 2 13.5714 3.88421 13.5714 6.21053C13.5714 8.53684 11.6962 10.4211 9.38095 10.4211C7.06571 10.4211 5.19048 8.53684 5.19048 6.21053ZM8.48 18.5789L8.45261 18.5078C8.27469 18.0454 8.27469 17.5335 8.45261 17.0712L8.48 17C9.21333 15.1579 10.5124 13.7263 12.1152 12.7579C11.2562 12.6105 10.3448 12.5263 9.38095 12.5263C4.75048 12.5263 1 14.4105 1 16.7368C1 17.8995 1.94256 18.8421 3.10526 18.8421H8.61619C8.57429 18.7474 8.52191 18.6632 8.48 18.5789ZM16.7143 16.7368C16.1276 16.7368 15.6667 17.2 15.6667 17.7895C15.6667 18.3789 16.1276 18.8421 16.7143 18.8421C17.301 18.8421 17.7619 18.3789 17.7619 17.7895C17.7619 17.2 17.301 16.7368 16.7143 16.7368ZM22.6586 17.0669C22.9057 17.5168 22.9057 18.0621 22.6586 18.512C21.5185 20.5874 19.2858 22 16.7143 22C14.1428 22 11.9101 20.5874 10.77 18.512C10.5229 18.0621 10.5229 17.5168 10.77 17.0669C11.9101 14.9915 14.1428 13.5789 16.7143 13.5789C19.2858 13.5789 21.5185 14.9915 22.6586 17.0669ZM19.3333 17.7895C19.3333 17.0915 19.0574 16.4222 18.5662 15.9287C18.0751 15.4352 17.4089 15.1579 16.7143 15.1579C16.0197 15.1579 15.3535 15.4352 14.8623 15.9287C14.3712 16.4222 14.0952 17.0915 14.0952 17.7895C14.0952 18.4874 14.3712 19.1568 14.8623 19.6503C15.3535 20.1438 16.0197 20.4211 16.7143 20.4211C17.4089 20.4211 18.0751 20.1438 18.5662 19.6503C19.0574 19.1568 19.3333 18.4874 19.3333 17.7895Z" fill="black"/>
</svg>
