<svg width="24" height="24" viewBox="0 0 24 24" fill="none" xmlns="http://www.w3.org/2000/svg">
<path d="M8.09415 3.10861C6.92139 2.81091 5.69224 2.93721 4.72923 3.47623C3.74817 4.02427 3.0603 4.99631 3.02647 6.29649C2.9746 8.32853 3.44483 11.0552 5.31222 14.2555C7.15594 17.4163 9.19135 19.3108 10.8806 20.4362C11.9473 21.1477 13.1257 21.1669 14.1327 20.7034C15.1251 20.2467 15.9302 19.3344 16.3486 18.2034C16.4526 17.9221 16.4943 17.6215 16.4709 17.3225C16.4476 17.0235 16.3597 16.7331 16.2133 16.4713L15.3066 14.8531C15.1237 14.5265 14.8775 14.2395 14.5825 14.009C14.2875 13.7785 13.9495 13.6091 13.5883 13.5106C13.2271 13.4121 12.8499 13.3866 12.4787 13.4355C12.1075 13.4844 11.7498 13.6067 11.4264 13.7954L10.9336 14.0829C10.54 14.3119 10.1397 14.2566 9.92095 14.0277C9.18572 13.2598 8.51702 12.1355 8.21481 11.1229C8.13023 10.8398 8.26555 10.4823 8.63429 10.2489L9.52514 9.68284C10.1378 9.29391 10.5769 8.68371 10.751 7.97923C10.9251 7.27475 10.8209 6.53025 10.46 5.90069L9.44733 4.13478C9.30207 3.88177 9.10743 3.66055 8.87496 3.48426C8.6425 3.30798 8.37697 3.18023 8.09415 3.10861ZM13.2938 10.7056C13.1881 10.5999 13.1287 10.4565 13.1287 10.307C13.1287 10.1575 13.1881 10.0141 13.2938 9.90837L19.0978 4.10433H14.8206C14.6711 4.10433 14.5277 4.04493 14.4219 3.93919C14.3162 3.83345 14.2568 3.69004 14.2568 3.54051C14.2568 3.39097 14.3162 3.24756 14.4219 3.14182C14.5277 3.03608 14.6711 2.97668 14.8206 2.97668H20.4589C20.6084 2.97668 20.7518 3.03608 20.8576 3.14182C20.9633 3.24756 21.0227 3.39097 21.0227 3.54051V9.17878C21.0227 9.32831 20.9633 9.47173 20.8576 9.57746C20.7518 9.6832 20.6084 9.7426 20.4589 9.7426C20.3093 9.7426 20.1659 9.6832 20.0602 9.57746C19.9545 9.47173 19.8951 9.32831 19.8951 9.17878V4.90158L14.0921 10.7056C14.0398 10.7581 13.9775 10.7998 13.909 10.8282C13.8405 10.8566 13.7671 10.8713 13.693 10.8713C13.6188 10.8713 13.5454 10.8566 13.4769 10.8282C13.4084 10.7998 13.3461 10.7581 13.2938 10.7056Z" fill="black"/>
</svg>
