<svg width="24" height="24" viewBox="0 0 24 24" fill="none" xmlns="http://www.w3.org/2000/svg">
<path d="M15.0175 3.71964C15.0175 3.54147 14.9467 3.3706 14.8207 3.24461C14.6947 3.11863 14.5239 3.04785 14.3457 3.04785C14.1675 3.04785 13.9967 3.11863 13.8707 3.24461C13.7447 3.3706 13.6739 3.54147 13.6739 3.71964V10.4375C13.6739 10.6157 13.7447 10.7865 13.8707 10.9125C13.9967 11.0385 14.1675 11.1093 14.3457 11.1093C14.5239 11.1093 14.6947 11.0385 14.8207 10.9125C14.9467 10.7865 15.0175 10.6157 15.0175 10.4375V3.71964ZM18.6003 3.71964C18.6003 3.54147 18.5296 3.3706 18.4036 3.24461C18.2776 3.11863 18.1067 3.04785 17.9286 3.04785C17.7504 3.04785 17.5795 3.11863 17.4535 3.24461C17.3275 3.3706 17.2568 3.54147 17.2568 3.71964V10.4375C17.2568 10.6157 17.3275 10.7865 17.4535 10.9125C17.5795 11.0385 17.7504 11.1093 17.9286 11.1093C18.1067 11.1093 18.2776 11.0385 18.4036 10.9125C18.5296 10.7865 18.6003 10.6157 18.6003 10.4375V3.71964ZM10.4744 6.2984L9.6665 4.50159C9.42135 3.95596 8.98603 3.51818 8.44179 3.26996C7.89755 3.02174 7.28158 2.98004 6.70885 3.15265L5.66355 3.46794L5.47904 3.52975C4.96815 3.71669 4.51032 4.02492 4.14491 4.42793C3.7795 4.83094 3.51744 5.31668 3.38127 5.84337C2.73905 8.32629 3.43502 11.2857 5.41902 14.7226C7.40034 18.1532 9.61186 20.2357 12.0795 20.9245C12.6382 21.0802 13.2277 21.0886 13.7906 20.9489C14.3534 20.8092 14.8706 20.5262 15.2916 20.1273L16.0861 19.3758C16.5193 18.9655 16.7889 18.4119 16.8447 17.8179C16.9006 17.2238 16.7389 16.6297 16.3897 16.1459L15.2423 14.556C14.9413 14.1391 14.5175 13.8269 14.0301 13.663C13.5428 13.4992 13.0164 13.492 12.5247 13.6424L10.7243 14.1923C10.6733 14.2075 10.5541 14.1654 10.3365 13.9738C10.0257 13.6979 9.66023 13.207 9.25626 12.5075C8.70092 11.5446 8.45907 10.8522 8.49938 10.4966C8.50511 10.4436 8.52956 10.3944 8.56835 10.3578L9.90744 9.10914C10.2835 8.75844 10.5404 8.29884 10.6421 7.79477C10.7438 7.29071 10.6851 6.76746 10.4744 6.2984ZM6.0514 4.75419L7.09669 4.43979C7.35686 4.36152 7.6366 4.38052 7.8838 4.49324C8.13099 4.60596 8.32877 4.80471 8.44026 5.05246L9.2482 6.84926C9.34397 7.06237 9.37068 7.3001 9.32459 7.52915C9.27849 7.75819 9.16189 7.96708 8.99113 8.12655L7.65204 9.37517C7.37855 9.63048 7.2054 9.97519 7.16387 10.347C7.08326 11.0654 7.40392 11.9871 8.09273 13.1793C9.11384 14.9483 10.0642 15.7912 11.1122 15.4786L12.917 14.9268C13.1407 14.8583 13.3801 14.8615 13.6018 14.9361C13.8235 15.0106 14.0163 15.1527 14.1531 15.3424L15.2996 16.9323C15.4586 17.1523 15.5322 17.4225 15.5069 17.6927C15.4815 17.9629 15.3588 18.2147 15.1617 18.4013L14.3681 19.1528C14.1154 19.392 13.805 19.5617 13.4672 19.6454C13.1294 19.729 12.7757 19.7238 12.4405 19.6302C10.3652 19.0507 8.40444 17.2055 6.58255 14.0499C4.75888 10.8916 4.14174 8.26807 4.68185 6.18016C4.76198 5.86969 4.91504 5.58281 5.12831 5.34337C5.34158 5.10393 5.60891 4.91883 5.90808 4.80345L6.0514 4.75419Z" fill="black"/>
</svg>
