<svg width="24" height="24" viewBox="0 0 24 24" fill="none" xmlns="http://www.w3.org/2000/svg">
<path d="M8.10843 3.14088C6.93994 2.84426 5.71526 2.9701 4.75574 3.50716C3.77825 4.05321 3.09288 5.02171 3.05917 6.31717C3.00749 8.34182 3.47601 11.0586 5.33662 14.2472C7.17364 17.3966 9.20165 19.2841 10.8847 20.4055C11.9476 21.1144 13.1217 21.1335 14.1251 20.6717C15.1138 20.2167 15.916 19.3077 16.3329 18.1808C16.4365 17.9005 16.4781 17.6011 16.4548 17.3031C16.4315 17.0052 16.3439 16.7158 16.198 16.455L15.2947 14.8427C15.1124 14.5172 14.8672 14.2313 14.5732 14.0017C14.2793 13.772 13.9425 13.6032 13.5826 13.5051C13.2227 13.407 12.8469 13.3815 12.477 13.4302C12.1072 13.479 11.7508 13.6009 11.4285 13.7888L10.9376 14.0753C10.5454 14.3034 10.1466 14.2484 9.9286 14.0203C9.19604 13.2551 8.52977 12.135 8.22865 11.126C8.14439 10.844 8.27921 10.4878 8.64662 10.2552L9.53423 9.69122C10.1447 9.3037 10.5821 8.69572 10.7556 7.99379C10.9291 7.29187 10.8253 6.55008 10.4657 5.92281L9.4567 4.16332C9.31197 3.91122 9.11803 3.69081 8.88641 3.51516C8.65479 3.33952 8.39023 3.21223 8.10843 3.14088ZM20.826 3.17459C20.9313 3.27994 20.9905 3.4228 20.9905 3.57176C20.9905 3.72073 20.9313 3.86359 20.826 3.96894L15.2082 9.58672C15.156 9.63904 15.094 9.68055 15.0258 9.70887C14.9575 9.73719 14.8843 9.75177 14.8105 9.75177C14.7366 9.75177 14.6634 9.73719 14.5951 9.70887C14.5269 9.68055 14.4649 9.63904 14.4127 9.58672L12.1656 7.33961C12.0603 7.23412 12.0011 7.09111 12.0012 6.94204C12.0013 6.86822 12.0159 6.79514 12.0442 6.72696C12.0725 6.65879 12.1139 6.59685 12.1662 6.5447C12.2184 6.49254 12.2804 6.45118 12.3486 6.42298C12.4168 6.39478 12.4899 6.38029 12.5637 6.38034C12.7128 6.38045 12.8557 6.43977 12.9611 6.54526L14.8105 8.39463L20.0305 3.17459C20.0827 3.12227 20.1447 3.08076 20.2129 3.05244C20.2812 3.02412 20.3543 3.00954 20.4282 3.00954C20.5021 3.00954 20.5753 3.02412 20.6435 3.05244C20.7118 3.08076 20.7738 3.12227 20.826 3.17459Z" fill="black"/>
</svg>
