<svg width="24" height="24" viewBox="0 0 24 24" fill="none" xmlns="http://www.w3.org/2000/svg">
<path d="M12 3C16.9707 3 21 7.0293 21 12C21 16.9707 16.9707 21 12 21C7.0293 21 3 16.9707 3 12C3 7.0293 7.0293 3 12 3ZM15.177 8.823L15.1014 8.7573C14.9867 8.67253 14.8481 8.62626 14.7055 8.62513C14.5629 8.62399 14.4236 8.66806 14.3076 8.751L14.223 8.823L12 11.0451L9.777 8.8221L9.7014 8.7573C9.58672 8.67253 9.44813 8.62626 9.30552 8.62513C9.16292 8.62399 9.02361 8.66806 8.9076 8.751L8.823 8.823L8.7573 8.8986C8.67253 9.01328 8.62626 9.15187 8.62513 9.29448C8.62399 9.43708 8.66806 9.57639 8.751 9.6924L8.823 9.777L11.0451 12L8.8221 14.223L8.7573 14.2986C8.67253 14.4133 8.62626 14.5519 8.62513 14.6945C8.62399 14.8371 8.66806 14.9764 8.751 15.0924L8.823 15.177L8.8986 15.2427C9.01328 15.3275 9.15187 15.3737 9.29448 15.3749C9.43708 15.376 9.57639 15.3319 9.6924 15.249L9.777 15.177L12 12.9549L14.223 15.1779L14.2986 15.2427C14.4133 15.3275 14.5519 15.3737 14.6945 15.3749C14.8371 15.376 14.9764 15.3319 15.0924 15.249L15.177 15.177L15.2427 15.1014C15.3275 14.9867 15.3737 14.8481 15.3749 14.7055C15.376 14.5629 15.3319 14.4236 15.249 14.3076L15.177 14.223L12.9549 12L15.1779 9.777L15.2427 9.7014C15.3275 9.58672 15.3737 9.44813 15.3749 9.30552C15.376 9.16292 15.3319 9.02361 15.249 8.9076L15.177 8.823Z" fill="black"/>
</svg>
