<svg width="24" height="24" viewBox="0 0 24 24" fill="none" xmlns="http://www.w3.org/2000/svg">
<path d="M4.70541 3.52297C5.66834 2.98591 6.89625 2.86007 8.07004 3.15669C8.64171 3.3005 9.12995 3.67015 9.42311 4.17912L10.4357 5.93861C10.7965 6.56589 10.9008 7.30768 10.7267 8.0096C10.5526 8.71152 10.1135 9.31951 9.50091 9.70702L8.61014 10.271C8.24143 10.5036 8.10612 10.8598 8.19069 11.1418C8.49287 12.1508 9.16152 13.2698 9.89668 14.0361C10.1154 14.2653 10.5168 14.3192 10.9092 14.0911L11.402 13.8046C11.7253 13.6168 12.0829 13.4951 12.4539 13.4465C12.825 13.3978 13.202 13.4233 13.5631 13.5214C13.9241 13.6195 14.262 13.7883 14.5569 14.0178C14.8518 14.2474 15.0979 14.5332 15.2808 14.8585L16.1885 16.4708C16.485 16.9989 16.5335 17.6292 16.3238 18.1966C15.9054 19.3235 15.0992 20.2325 14.1081 20.6875C13.1012 21.1493 11.9229 21.1302 10.8562 20.4213C9.16715 19.3 7.13191 17.4124 5.28835 14.2642C3.42112 11.0733 2.95092 8.35763 3.00392 6.33298C3.03775 5.03752 3.72556 4.06902 4.70541 3.52297ZM15.0699 3.09602C15.0052 3.06016 14.9341 3.03736 14.8605 3.02891C14.787 3.02046 14.7124 3.02653 14.6412 3.04677C14.5701 3.06701 14.5036 3.10102 14.4455 3.14687C14.3875 3.19272 14.3392 3.24951 14.3032 3.31399C14.2672 3.37846 14.2443 3.44937 14.2358 3.52266C14.2274 3.59596 14.2334 3.67019 14.2538 3.74114C14.2741 3.81208 14.3082 3.87835 14.3542 3.93615C14.4002 3.99395 14.4572 4.04215 14.5219 4.078L14.9549 4.31845C16.3075 5.06719 17.4581 6.13114 18.3084 7.41936C19.1586 8.70758 19.6832 10.1818 19.8372 11.7159L19.8733 12.0699C19.8776 12.1456 19.8972 12.2197 19.931 12.2877C19.9648 12.3557 20.012 12.4162 20.0699 12.4655C20.1278 12.5148 20.1951 12.5519 20.2677 12.5746C20.3404 12.5972 20.4169 12.605 20.4927 12.5974C20.5684 12.5898 20.6418 12.567 20.7085 12.5304C20.7752 12.4937 20.8337 12.444 20.8806 12.3842C20.9274 12.3244 20.9617 12.2558 20.9812 12.1824C21.0007 12.1091 21.0051 12.0326 20.9941 11.9575L20.9592 11.6047C20.7871 9.8897 20.2009 8.24172 19.2505 6.80164C18.3001 5.36156 17.0139 4.17224 15.5018 3.33533L15.0699 3.09602ZM13.7484 6.10715C13.8254 5.97948 13.9502 5.88752 14.0953 5.85149C14.2403 5.81546 14.3938 5.83831 14.5219 5.91502L14.6617 5.99816C15.5719 6.54191 16.3527 7.27612 16.9502 8.15005C17.5477 9.02397 17.9476 10.0168 18.1222 11.0598L18.1718 11.3598C18.1865 11.4335 18.1861 11.5095 18.1707 11.5831C18.1553 11.6567 18.1252 11.7265 18.0823 11.7884C18.0393 11.8502 17.9844 11.9028 17.9206 11.9431C17.8569 11.9833 17.7857 12.0104 17.7112 12.0228C17.6368 12.0351 17.5606 12.0324 17.4872 12.0149C17.4139 11.9974 17.3448 11.9653 17.284 11.9207C17.2233 11.876 17.1722 11.8197 17.1337 11.755C17.0952 11.6903 17.0702 11.6186 17.0601 11.544L17.0093 11.2452C16.8619 10.3626 16.524 9.5224 16.0188 8.78272C15.5136 8.04304 14.8532 7.42149 14.0833 6.96105L13.9435 6.87791C13.88 6.84 13.8245 6.78999 13.7804 6.73073C13.7363 6.67148 13.7043 6.60414 13.6863 6.53256C13.6683 6.46099 13.6646 6.38658 13.6754 6.31358C13.6863 6.24059 13.7104 6.17044 13.7484 6.10715Z" fill="black"/>
</svg>
