<svg width="24" height="24" viewBox="0 0 24 24" fill="none" xmlns="http://www.w3.org/2000/svg">
<path d="M15.8586 4.43214C15.8003 3.91009 15.5515 3.42787 15.16 3.07766C14.7685 2.72745 14.2616 2.53383 13.7363 2.53381H10.4142C9.88891 2.53383 9.38204 2.72745 8.99051 3.07766C8.59898 3.42787 8.35025 3.91009 8.29188 4.43214H6.61756C6.05115 4.43214 5.50795 4.65715 5.10744 5.05765C4.70694 5.45816 4.48193 6.00136 4.48193 6.56777V19.3815C4.48193 19.9479 4.70694 20.4911 5.10744 20.8916C5.50795 21.2921 6.05115 21.5171 6.61756 21.5171H11.127C11.1201 21.3276 11.1402 21.1381 11.1868 20.9543L11.4023 20.0934H6.61756C6.42876 20.0934 6.24769 20.0184 6.11418 19.8849C5.98068 19.7514 5.90568 19.5703 5.90568 19.3815V6.56777C5.90568 6.37897 5.98068 6.1979 6.11418 6.0644C6.24769 5.93089 6.42876 5.85589 6.61756 5.85589H8.63833C9.02179 6.42824 9.67387 6.80506 10.4142 6.80506H13.7363C14.4766 6.80506 15.1287 6.42824 15.5122 5.85589H17.533C17.7218 5.85589 17.9028 5.93089 18.0363 6.0644C18.1698 6.1979 18.2448 6.37897 18.2448 6.56777V11.8926C18.6596 11.5129 19.1522 11.2661 19.6686 11.1513V6.56777C19.6686 6.28731 19.6133 6.0096 19.506 5.7505C19.3987 5.49139 19.2414 5.25596 19.0431 5.05765C18.8448 4.85934 18.6093 4.70203 18.3502 4.59471C18.0911 4.48738 17.8134 4.43214 17.533 4.43214H15.8586ZM15.8672 4.52326L15.8719 4.66944C15.8719 4.62008 15.8703 4.57136 15.8672 4.52326ZM10.4142 3.95756H13.7363C13.9251 3.95756 14.1062 4.03256 14.2397 4.16606C14.3732 4.29957 14.4482 4.48064 14.4482 4.66944C14.4482 4.85824 14.3732 5.0393 14.2397 5.17281C14.1062 5.30631 13.9251 5.38131 13.7363 5.38131H10.4142C10.2254 5.38131 10.0443 5.30631 9.91085 5.17281C9.77734 5.0393 9.70234 4.85824 9.70234 4.66944C9.70234 4.48064 9.77734 4.29957 9.91085 4.16606C10.0443 4.03256 10.2254 3.95756 10.4142 3.95756ZM13.3623 16.7713H8.2786C8.08979 16.7713 7.90873 16.8463 7.77522 16.9798C7.64172 17.1133 7.56672 17.2944 7.56672 17.4832C7.56672 17.672 7.64172 17.853 7.77522 17.9865C7.90873 18.12 8.08979 18.195 8.2786 18.195H12.0591C12.1971 17.9774 12.3578 17.7765 12.5413 17.5923L13.3623 16.7713ZM12.0753 14.3984H8.2786C8.08979 14.3984 7.90873 14.3234 7.77522 14.1899C7.64172 14.0564 7.56672 13.8753 7.56672 13.6865C7.56672 13.4977 7.64172 13.3166 7.77522 13.1831C7.90873 13.0496 8.08979 12.9746 8.2786 12.9746H12.0753C12.2641 12.9746 12.4451 13.0496 12.5786 13.1831C12.7121 13.3166 12.7871 13.4977 12.7871 13.6865C12.7871 13.8753 12.7121 14.0564 12.5786 14.1899C12.4451 14.3234 12.2641 14.3984 12.0753 14.3984ZM15.8719 10.6017H8.2786C8.08979 10.6017 7.90873 10.5267 7.77522 10.3932C7.64172 10.2597 7.56672 10.0786 7.56672 9.88985C7.56672 9.70105 7.64172 9.51998 7.77522 9.38648C7.90873 9.25297 8.08979 9.17797 8.2786 9.17797H15.8719C16.0607 9.17797 16.2418 9.25297 16.3753 9.38648C16.5088 9.51998 16.5838 9.70105 16.5838 9.88985C16.5838 10.0786 16.5088 10.2597 16.3753 10.3932C16.2418 10.5267 16.0607 10.6017 15.8719 10.6017ZM18.8143 12.6614L13.2114 18.2634C12.8855 18.5904 12.654 18.9993 12.5413 19.447L12.1066 21.1849C12.0633 21.3578 12.0656 21.539 12.1133 21.7108C12.1609 21.8825 12.2522 22.039 12.3782 22.165C12.5043 22.291 12.6609 22.3822 12.8327 22.4296C13.0045 22.4771 13.1856 22.4793 13.3585 22.4359L15.0955 22.0021C15.5436 21.8893 15.9529 21.6575 16.2801 21.3311L21.882 15.7291C22.2732 15.3191 22.4884 14.7724 22.4818 14.2058C22.4751 13.6392 22.2471 13.0977 21.8464 12.697C21.4457 12.2964 20.9042 12.0683 20.3376 12.0617C19.771 12.055 19.2243 12.2703 18.8143 12.6614Z" fill="black"/>
</svg>
