<svg width="24" height="24" viewBox="0 0 24 24" fill="none" xmlns="http://www.w3.org/2000/svg">
<path d="M15.0952 3.67568C15.0952 3.49667 15.0241 3.325 14.8975 3.19842C14.7709 3.07184 14.5992 3.00073 14.4202 3.00073C14.2412 3.00073 14.0695 3.07184 13.943 3.19842C13.8164 3.325 13.7453 3.49667 13.7453 3.67568V10.4252C13.7453 10.6042 13.8164 10.7759 13.943 10.9024C14.0695 11.029 14.2412 11.1001 14.4202 11.1001C14.5992 11.1001 14.7709 11.029 14.8975 10.9024C15.0241 10.7759 15.0952 10.6042 15.0952 10.4252V3.67568ZM18.6949 3.67568C18.6949 3.49667 18.6238 3.325 18.4972 3.19842C18.3706 3.07184 18.199 3.00073 18.0199 3.00073C17.8409 3.00073 17.6693 3.07184 17.5427 3.19842C17.4161 3.325 17.345 3.49667 17.345 3.67568V10.4252C17.345 10.6042 17.4161 10.7759 17.5427 10.9024C17.6693 11.029 17.8409 11.1001 18.0199 11.1001C18.199 11.1001 18.3706 11.029 18.4972 10.9024C18.6238 10.7759 18.6949 10.6042 18.6949 10.4252V3.67568ZM10.3489 6.0065L9.57499 4.18234C9.18622 3.26441 8.21609 2.79645 7.30896 3.08623L6.33884 3.3967C5.37861 3.70358 4.64247 4.52702 4.40488 5.56014C3.84033 8.01695 4.51768 11.0071 6.43693 14.5307C8.35378 18.05 10.4545 20.166 12.7391 20.8788C13.7075 21.1802 14.7532 20.9139 15.4857 20.1786L16.2219 19.4389C16.9085 18.7504 17.0084 17.6282 16.455 16.8156L15.3454 15.1867C14.8693 14.4866 14.0243 14.1896 13.2485 14.4488L11.2003 15.1309C10.3703 14.4965 9.67576 13.7025 9.15742 12.7956C8.61146 11.8579 8.28599 10.9048 8.181 9.9365L9.88547 8.31843C10.4974 7.73707 10.6855 6.80204 10.348 6.0074" fill="black"/>
</svg>
