<svg width="24" height="24" viewBox="0 0 24 24" fill="none" xmlns="http://www.w3.org/2000/svg">
<path d="M16.3476 3.39314C16.4059 3.22147 16.3897 3.03518 16.3026 2.8746C16.2156 2.71401 16.0645 2.59205 15.8822 2.53512C15.6999 2.47818 15.5011 2.49085 15.3287 2.57039C15.1563 2.64992 15.0242 2.78992 14.9611 2.96008L14.2303 5.01483C14.172 5.1865 14.1882 5.37278 14.2753 5.53337C14.3624 5.69395 14.5134 5.81592 14.6957 5.87285C14.878 5.92979 15.0768 5.91711 15.2492 5.83758C15.4216 5.75805 15.5537 5.61805 15.6168 5.44789L16.3476 3.39314ZM20.7985 3.37761C20.9353 3.50609 21.0122 3.68025 21.0122 3.86183C21.0122 4.04341 20.9353 4.21757 20.7985 4.34605L18.3626 6.63013C18.2957 6.69745 18.215 6.75145 18.1253 6.7889C18.0357 6.82635 17.9389 6.84649 17.8408 6.84811C17.7427 6.84973 17.6452 6.83281 17.5542 6.79835C17.4632 6.76388 17.3806 6.71259 17.3112 6.64752C17.2418 6.58245 17.1871 6.50495 17.1503 6.41962C17.1136 6.3343 17.0955 6.24291 17.0973 6.15091C17.099 6.0589 17.1205 5.96817 17.1604 5.88411C17.2004 5.80006 17.2579 5.72441 17.3297 5.66168L19.7656 3.37761C19.9027 3.24929 20.0884 3.17721 20.2821 3.17721C20.4757 3.17721 20.6614 3.24929 20.7985 3.37761ZM12.1169 4.76632C11.8656 4.51386 11.5524 4.32266 11.2045 4.2093C10.8566 4.09594 10.4844 4.06383 10.1203 4.11576C9.75617 4.16769 9.41104 4.30208 9.11479 4.5073C8.81855 4.71252 8.58014 4.98238 8.42022 5.29349L2.67345 16.479C2.51201 16.7936 2.46153 17.1483 2.52932 17.4915C2.59711 17.8348 2.77965 18.149 3.05053 18.3885L4.45263 19.6292C4.70393 19.8514 5.01959 19.999 5.36002 20.0537C5.70045 20.1083 6.0505 20.0674 6.36627 19.9362L7.74694 19.3625C8.17291 20.2379 8.94992 20.9205 9.9093 21.262C10.8687 21.6036 11.933 21.5766 12.8713 21.1868C13.8096 20.7971 14.546 20.0761 14.9209 19.1803C15.2957 18.2846 15.2786 17.2863 14.8734 16.4023L18.2057 15.0172C18.536 14.88 18.8265 14.6707 19.053 14.4068C19.2795 14.1429 19.4353 13.832 19.5076 13.5001C19.5799 13.1682 19.5665 12.8249 19.4685 12.4989C19.3705 12.1728 19.1907 11.8735 18.9443 11.6258L12.1169 4.76632ZM13.5366 16.956C13.7732 17.5055 13.7728 18.1197 13.5354 18.6689C13.298 19.2182 12.8423 19.6594 12.2644 19.8994C11.6866 20.1395 11.0319 20.1595 10.4385 19.9553C9.84524 19.7511 9.35979 19.3387 9.08473 18.8051L13.5366 16.956ZM18.0897 8.88588C18.0897 8.70414 18.1667 8.52985 18.3038 8.40135C18.4408 8.27285 18.6267 8.20065 18.8205 8.20065H20.7692C20.963 8.20065 21.1489 8.27285 21.286 8.40135C21.423 8.52985 21.5 8.70414 21.5 8.88588C21.5 9.06761 21.423 9.2419 21.286 9.3704C21.1489 9.4989 20.963 9.5711 20.7692 9.5711H18.8205C18.6267 9.5711 18.4408 9.4989 18.3038 9.3704C18.1667 9.2419 18.0897 9.06761 18.0897 8.88588Z" fill="black"/>
</svg>
