<svg width="24" height="24" viewBox="0 0 24 24" fill="none" xmlns="http://www.w3.org/2000/svg">
<path d="M12 3C16.9707 3 21 7.0293 21 12C21 16.9707 16.9707 21 12 21C7.0293 21 3 16.9707 3 12C3 7.0293 7.0293 3 12 3ZM12 4.35C9.97109 4.35 8.02529 5.15598 6.59063 6.59063C5.15598 8.02529 4.35 9.97109 4.35 12C4.35 14.0289 5.15598 15.9747 6.59063 17.4094C8.02529 18.844 9.97109 19.65 12 19.65C14.0289 19.65 15.9747 18.844 17.4094 17.4094C18.844 15.9747 19.65 14.0289 19.65 12C19.65 9.97109 18.844 8.02529 17.4094 6.59063C15.9747 5.15598 14.0289 4.35 12 4.35ZM10.875 13.296L14.898 9.273C15.0186 9.15334 15.1799 9.08355 15.3497 9.07758C15.5195 9.0716 15.6853 9.12986 15.814 9.24074C15.9427 9.35163 16.0249 9.50697 16.0441 9.67577C16.0633 9.84457 16.0182 10.0144 15.9177 10.1514L15.852 10.227L11.352 14.727C11.2377 14.8413 11.0862 14.9108 10.925 14.9229C10.7638 14.9349 10.6036 14.8887 10.4736 14.7927L10.398 14.727L8.148 12.477C8.02834 12.3564 7.95855 12.1951 7.95258 12.0253C7.9466 11.8555 8.00486 11.6897 8.11574 11.561C8.22663 11.4323 8.38197 11.3501 8.55077 11.3309C8.71957 11.3117 8.88941 11.3568 9.0264 11.4573L9.102 11.523L10.875 13.296Z" fill="black"/>
</svg>
