<svg width="24" height="24" viewBox="0 0 24 24" fill="none" xmlns="http://www.w3.org/2000/svg">
<path d="M7.84212 2.53917C6.59412 2.22237 5.28612 2.35677 4.26132 2.93037C3.21732 3.51357 2.48532 4.54797 2.44932 5.93157C2.39412 8.09397 2.89452 10.9956 4.88172 14.4012C6.84372 17.7648 9.00972 19.7808 10.8073 20.9784C11.9425 21.7356 13.1965 21.756 14.2681 21.2628C15.3241 20.7768 16.1809 19.806 16.6261 18.6024C16.7368 18.303 16.7812 17.9832 16.7563 17.665C16.7315 17.3468 16.6379 17.0377 16.4821 16.7592L15.5173 15.0372C15.3227 14.6895 15.0607 14.3842 14.7468 14.1389C14.4328 13.8936 14.0731 13.7133 13.6887 13.6085C13.3044 13.5037 12.9029 13.4766 12.5079 13.5286C12.1129 13.5806 11.7323 13.7108 11.3881 13.9116L10.8637 14.2176C10.4449 14.4612 10.0189 14.4024 9.78612 14.1588C9.00372 13.3416 8.29212 12.1452 7.97052 11.0676C7.88052 10.7664 8.02452 10.386 8.41692 10.1376L9.36492 9.53517C10.0169 9.12129 10.4841 8.47194 10.6694 7.72227C10.8547 6.97259 10.7438 6.18033 10.3597 5.51037L9.28212 3.63117C9.12754 3.36193 8.9204 3.12652 8.67303 2.93892C8.42565 2.75133 8.14308 2.61538 7.84212 2.53917ZM21.4249 2.57517C21.5374 2.68769 21.6006 2.84028 21.6006 2.99937C21.6006 3.15847 21.5374 3.31106 21.4249 3.42357L18.2485 6.59997L21.4249 9.77517C21.5374 9.88784 21.6006 10.0406 21.6005 10.1998C21.6003 10.359 21.537 10.5117 21.4243 10.6242C21.3117 10.7367 21.1589 10.7998 20.9997 10.7997C20.8405 10.7996 20.6878 10.7362 20.5753 10.6236L17.4001 7.44837L14.2249 10.6236C14.1124 10.7362 13.9598 10.7996 13.8005 10.7997C13.6413 10.7998 13.4886 10.7367 13.3759 10.6242C13.2633 10.5117 13.1999 10.359 13.1998 10.1998C13.1997 10.0406 13.2628 9.88784 13.3753 9.77517L16.5517 6.59997L13.3753 3.42357C13.2628 3.31091 13.1997 3.15817 13.1998 2.99895C13.1999 2.83973 13.2633 2.68708 13.3759 2.57457C13.4886 2.46207 13.6413 2.39893 13.8005 2.39904C13.9598 2.39915 14.1124 2.46251 14.2249 2.57517L17.4001 5.75037L20.5753 2.57517C20.6311 2.5193 20.6973 2.47497 20.7702 2.44472C20.8431 2.41447 20.9212 2.3989 21.0001 2.3989C21.079 2.3989 21.1572 2.41447 21.2301 2.44472C21.303 2.47497 21.3692 2.5193 21.4249 2.57517Z" fill="black"/>
</svg>
