<svg width="24" height="24" viewBox="0 0 24 24" fill="none" xmlns="http://www.w3.org/2000/svg">
<path d="M4.21983 8.46991C4.36045 8.32946 4.55108 8.25057 4.74983 8.25057C4.94858 8.25057 5.1392 8.32946 5.27983 8.46991L11.9998 15.1899L18.7198 8.46991C18.7885 8.39622 18.8713 8.33712 18.9633 8.29613C19.0553 8.25514 19.1546 8.23309 19.2553 8.23132C19.356 8.22954 19.456 8.24807 19.5494 8.28579C19.6428 8.32351 19.7276 8.37965 19.7989 8.45087C19.8701 8.52209 19.9262 8.60692 19.964 8.70031C20.0017 8.7937 20.0202 8.89373 20.0184 8.99443C20.0166 9.09513 19.9946 9.19445 19.9536 9.28645C19.9126 9.37845 19.8535 9.46125 19.7798 9.52991L12.5298 16.7799C12.3892 16.9204 12.1986 16.9992 11.9998 16.9992C11.8011 16.9992 11.6105 16.9204 11.4698 16.7799L4.21983 9.52991C4.07938 9.38928 4.00049 9.19866 4.00049 8.99991C4.00049 8.80116 4.07938 8.61054 4.21983 8.46991Z" fill="black"/>
</svg>
