<svg width="24" height="24" viewBox="0 0 24 24" fill="none" xmlns="http://www.w3.org/2000/svg">
<path d="M15.5016 3.94335C16.1055 3.33934 16.9246 2.99996 17.7787 2.99988C18.6329 2.99979 19.452 3.33901 20.056 3.9429C20.66 4.5468 20.9994 5.3659 20.9995 6.22002C20.9996 7.07413 20.6604 7.8933 20.0565 8.49731L19.2537 9.30101L14.6997 4.74615L15.5016 3.94335ZM13.7457 5.70104L4.74582 14.7001C4.38 15.0655 4.12294 15.5254 4.00332 16.0285L3.01783 20.1702C2.99115 20.2824 2.99365 20.3995 3.0251 20.5105C3.05655 20.6214 3.11589 20.7225 3.19748 20.804C3.27906 20.8855 3.38016 20.9447 3.49114 20.976C3.60212 21.0073 3.71927 21.0097 3.83142 20.9829L7.97229 19.9965C8.47566 19.8771 8.93589 19.62 9.30158 19.254L18.2997 10.255L13.7457 5.70104Z" fill="black"/>
</svg>
