<svg width="24" height="24" viewBox="0 0 24 24" fill="none" xmlns="http://www.w3.org/2000/svg">
<path d="M20.0571 3.94304C19.4529 3.33958 18.6339 3.00061 17.78 3.00061C16.9261 3.00061 16.1071 3.33958 15.503 3.94304L4.74588 14.7001C4.38005 15.0656 4.12298 15.5255 4.00336 16.0286L3.01783 20.1705C2.99115 20.2827 2.99365 20.3998 3.0251 20.5108C3.05655 20.6217 3.1159 20.7227 3.19748 20.8042C3.27907 20.8857 3.38018 20.945 3.49116 20.9763C3.60214 21.0076 3.7193 21.01 3.83145 20.9832L7.97246 19.9968C8.47585 19.8773 8.9361 19.6202 9.3018 19.2542L20.0571 8.49896C20.6605 7.89481 20.9995 7.07581 20.9995 6.2219C20.9995 5.36799 20.6605 4.54899 20.0571 3.94484M16.457 4.89887C16.6307 4.72512 16.837 4.5873 17.064 4.49327C17.291 4.39924 17.5343 4.35085 17.78 4.35085C18.0257 4.35085 18.269 4.39924 18.496 4.49327C18.723 4.5873 18.9293 4.72512 19.1031 4.89887C19.2768 5.07261 19.4146 5.27887 19.5086 5.50588C19.6027 5.73289 19.6511 5.97619 19.6511 6.2219C19.6511 6.46761 19.6027 6.71091 19.5086 6.93792C19.4146 7.16493 19.2768 7.37119 19.1031 7.54493L18.3002 8.34506L15.6542 5.69989L16.457 4.89887ZM14.7001 6.65571L17.3462 9.29998L8.34597 18.3002C8.15697 18.4892 7.91936 18.6215 7.65925 18.6836L4.58477 19.4162L5.31649 16.3418C5.37859 16.0808 5.5118 15.8432 5.7008 15.6541L14.7001 6.65571Z" fill="black"/>
</svg>
