<svg width="24" height="24" viewBox="0 0 24 24" fill="none" xmlns="http://www.w3.org/2000/svg">
<path d="M17.1429 8.78571C17.1429 9.03898 17.093 9.28976 16.9961 9.52375C16.8991 9.75773 16.7571 9.97034 16.578 10.1494C16.3989 10.3285 16.1863 10.4706 15.9523 10.5675C15.7183 10.6644 15.4675 10.7143 15.2143 10.7143C14.961 10.7143 14.7102 10.6644 14.4763 10.5675C14.2423 10.4706 14.0297 10.3285 13.8506 10.1494C13.6715 9.97034 13.5294 9.75773 13.4325 9.52375C13.3356 9.28976 13.2857 9.03898 13.2857 8.78571C13.2857 8.27423 13.4889 7.78369 13.8506 7.42201C14.2123 7.06033 14.7028 6.85714 15.2143 6.85714C15.7258 6.85714 16.2163 7.06033 16.578 7.42201C16.9397 7.78369 17.1429 8.27423 17.1429 8.78571ZM15.8571 8.78571C15.8571 8.61522 15.7894 8.4517 15.6689 8.33115C15.5483 8.21059 15.3848 8.14286 15.2143 8.14286C15.0438 8.14286 14.8803 8.21059 14.7597 8.33115C14.6392 8.4517 14.5714 8.61522 14.5714 8.78571C14.5714 8.95621 14.6392 9.11972 14.7597 9.24028C14.8803 9.36084 15.0438 9.42857 15.2143 9.42857C15.3848 9.42857 15.5483 9.36084 15.6689 9.24028C15.7894 9.11972 15.8571 8.95621 15.8571 8.78571ZM3 6.85714C3 5.83417 3.40638 4.85309 4.12973 4.12973C4.85309 3.40638 5.83417 3 6.85714 3H17.1429C18.1658 3 19.1469 3.40638 19.8703 4.12973C20.5936 4.85309 21 5.83417 21 6.85714V17.1429C21 18.1658 20.5936 19.1469 19.8703 19.8703C19.1469 20.5936 18.1658 21 17.1429 21H6.85714C5.83417 21 4.85309 20.5936 4.12973 19.8703C3.40638 19.1469 3 18.1658 3 17.1429V6.85714ZM6.85714 4.28571C6.17516 4.28571 5.5211 4.55663 5.03887 5.03887C4.55663 5.5211 4.28571 6.17516 4.28571 6.85714V17.1429C4.28571 17.6224 4.41686 18.0711 4.64571 18.4543L10.6487 12.5554C11.0093 12.2013 11.4946 12.0029 12 12.0029C12.5054 12.0029 12.9907 12.2013 13.3513 12.5554L19.3556 18.4543C19.5906 18.0572 19.7145 17.6043 19.7143 17.1429V6.85714C19.7143 6.17516 19.4434 5.5211 18.9611 5.03887C18.4789 4.55663 17.8248 4.28571 17.1429 4.28571H6.85714ZM6.85714 19.7143H17.1429C17.6186 19.7143 18.0621 19.5857 18.444 19.362L12.45 13.4734C12.3298 13.3556 12.1683 13.2897 12 13.2897C11.8317 13.2897 11.6702 13.3556 11.55 13.4734L5.556 19.362C5.95067 19.593 6.39982 19.7146 6.85714 19.7143Z" fill="black"/>
</svg>
