<svg width="24" height="24" viewBox="0 0 24 24" fill="none" xmlns="http://www.w3.org/2000/svg">
<path d="M12.0019 3.00049C16.9719 3.00049 21.0015 7.03008 21.0015 12.0009C21.0015 16.9709 16.9719 21.0005 12.0019 21.0005C7.03106 21.0005 3.00146 16.9709 3.00146 12.0009C3.00146 7.03008 7.03106 3.00049 12.0019 3.00049ZM12.0019 4.35029C10.9903 4.33931 9.98654 4.52909 9.04875 4.90863C8.11097 5.28816 7.25776 5.84993 6.53853 6.5614C5.8193 7.27288 5.24831 8.11994 4.85863 9.05356C4.46894 9.98717 4.26829 10.9888 4.26829 12.0005C4.26829 13.0122 4.46894 14.0138 4.85863 14.9474C5.24831 15.881 5.8193 16.7281 6.53853 17.4396C7.25776 18.151 8.11097 18.7128 9.04875 19.0924C9.98654 19.4719 10.9903 19.6617 12.0019 19.6507C14.0165 19.6288 15.9412 18.8132 17.358 17.3809C18.7749 15.9486 19.5696 14.0152 19.5696 12.0005C19.5696 9.98578 18.7749 8.05239 17.358 6.62008C15.9412 5.18776 14.0165 4.37214 12.0019 4.35029ZM12.0001 10.6502C12.1791 10.6502 12.3508 10.7213 12.4773 10.8479C12.6039 10.9745 12.675 11.1461 12.675 11.3251V15.8245C12.675 16.0035 12.6039 16.1751 12.4773 16.3017C12.3508 16.4283 12.1791 16.4994 12.0001 16.4994C11.8211 16.4994 11.6495 16.4283 11.5229 16.3017C11.3963 16.1751 11.3252 16.0035 11.3252 15.8245V11.3251C11.3252 11.1461 11.3963 10.9745 11.5229 10.8479C11.6495 10.7213 11.8211 10.6502 12.0001 10.6502ZM12.0001 9.30044C12.2388 9.30044 12.4677 9.20564 12.6364 9.03688C12.8052 8.86812 12.9 8.63924 12.9 8.40058C12.9 8.16192 12.8052 7.93304 12.6364 7.76428C12.4677 7.59552 12.2388 7.50071 12.0001 7.50071C11.7615 7.50071 11.5326 7.59552 11.3638 7.76428C11.1951 7.93304 11.1003 8.16192 11.1003 8.40058C11.1003 8.63924 11.1951 8.86812 11.3638 9.03688C11.5326 9.20564 11.7615 9.30044 12.0001 9.30044Z" fill="black"/>
</svg>
