<svg width="24" height="24" viewBox="0 0 24 24" fill="none" xmlns="http://www.w3.org/2000/svg">
<path d="M12.675 8.17506C12.675 7.99604 12.6039 7.82435 12.4773 7.69776C12.3507 7.57118 12.179 7.50006 12 7.50006C11.821 7.50006 11.6493 7.57118 11.5227 7.69776C11.3961 7.82435 11.325 7.99604 11.325 8.17506V11.3251H8.17501C7.99599 11.3251 7.8243 11.3962 7.69771 11.5228C7.57112 11.6493 7.50001 11.821 7.50001 12.0001C7.50001 12.1791 7.57112 12.3508 7.69771 12.4774C7.8243 12.6039 7.99599 12.6751 8.17501 12.6751H11.325V15.8251C11.325 16.0041 11.3961 16.1758 11.5227 16.3024C11.6493 16.4289 11.821 16.5001 12 16.5001C12.179 16.5001 12.3507 16.4289 12.4773 16.3024C12.6039 16.1758 12.675 16.0041 12.675 15.8251V12.6751H15.825C16.004 12.6751 16.1757 12.6039 16.3023 12.4774C16.4289 12.3508 16.5 12.1791 16.5 12.0001C16.5 11.821 16.4289 11.6493 16.3023 11.5228C16.1757 11.3962 16.004 11.3251 15.825 11.3251H12.675V8.17506ZM21 12.0001C21 7.02936 16.9707 3.00006 12 3.00006C7.02931 3.00006 3.00001 7.02936 3.00001 12.0001C2.99814 13.4382 3.34232 14.8557 4.00351 16.1329L3.04231 19.5736C2.98869 19.7657 2.98712 19.9686 3.03774 20.1615C3.08837 20.3544 3.18937 20.5304 3.33041 20.6715C3.47144 20.8125 3.64744 20.9135 3.84036 20.9641C4.03328 21.0147 4.23619 21.0132 4.42831 20.9596L7.87171 19.9993C9.14774 20.6588 10.5636 21.002 12 21.0001C16.9707 21.0001 21 16.9708 21 12.0001ZM4.35001 12.0001C4.35049 10.3213 4.90317 8.68933 5.92283 7.35572C6.94249 6.02212 8.37252 5.06095 9.99243 4.6204C11.6123 4.17985 13.3322 4.28438 14.8868 4.91787C16.4415 5.55137 17.7445 6.67866 18.5952 8.12594C19.4458 9.57322 19.7968 11.2601 19.594 12.9266C19.3911 14.593 18.6458 16.1465 17.4728 17.3475C16.2998 18.5484 14.7644 19.3302 13.1032 19.5723C11.442 19.8144 9.74725 19.5033 8.28031 18.6871L8.03731 18.5521L4.44991 19.552L5.45161 15.9664L5.31571 15.7234C4.68045 14.5854 4.34794 13.3034 4.35001 12.0001Z" fill="black"/>
</svg>
