<svg width="24" height="24" viewBox="0 0 24 24" fill="none" xmlns="http://www.w3.org/2000/svg">
<path d="M11.0865 4.04345C11.1259 3.80855 11.0701 3.56766 10.9315 3.37377C10.7928 3.17989 10.5826 3.0489 10.3471 3.00961C10.1117 2.97032 9.8702 3.02595 9.67585 3.16427C9.4815 3.30259 9.35018 3.51227 9.3108 3.74717L8.5368 8.38264L4.7982 8.38443C4.5595 8.38467 4.33068 8.47949 4.16207 8.64803C3.99345 8.81658 3.89886 9.04504 3.8991 9.28316C3.89934 9.52127 3.99439 9.74954 4.16334 9.91775C4.33229 10.086 4.56131 10.1803 4.8 10.1801L8.2353 10.1783L7.635 13.7696L3.9 13.7714C3.66131 13.7714 3.43239 13.866 3.2636 14.0343C3.09482 14.2027 3 14.4311 3 14.6692C3 14.9073 3.09482 15.1357 3.2636 15.3041C3.43239 15.4724 3.66131 15.567 3.9 15.567L7.3353 15.5652L6.609 19.9089C6.58956 20.0252 6.59327 20.1442 6.61993 20.2591C6.64658 20.374 6.69566 20.4825 6.76436 20.5785C6.83305 20.6744 6.92003 20.7559 7.0203 20.8184C7.12058 20.8808 7.23221 20.9229 7.3488 20.9423C7.46539 20.9617 7.58468 20.958 7.69984 20.9314C7.81499 20.9048 7.92378 20.8559 8.01997 20.7873C8.11616 20.7188 8.19788 20.632 8.26046 20.532C8.32304 20.432 8.36526 20.3206 8.3847 20.2043L9.1605 15.5652L13.638 15.5625L12.9126 19.908C12.8899 20.0256 12.8911 20.1465 12.916 20.2636C12.9409 20.3807 12.989 20.4917 13.0575 20.59C13.126 20.6883 13.2135 20.7719 13.3149 20.836C13.4163 20.9 13.5295 20.9432 13.6479 20.963C13.7662 20.9827 13.8874 20.9787 14.0042 20.951C14.1209 20.9234 14.231 20.8728 14.3278 20.8021C14.4247 20.7314 14.5064 20.6421 14.5682 20.5394C14.6299 20.4368 14.6704 20.3228 14.6874 20.2043L15.4632 15.5625L19.2 15.5598C19.4387 15.5598 19.6676 15.4653 19.8364 15.2969C20.0052 15.1285 20.1 14.9001 20.1 14.662C20.1 14.4239 20.0052 14.1955 19.8364 14.0272C19.6676 13.8588 19.4387 13.7642 19.2 13.7642L15.7629 13.7651L16.3632 10.1729L20.1009 10.1702C20.3396 10.17 20.5684 10.0751 20.737 9.9066C20.9056 9.73806 21.0002 9.5096 21 9.27148C20.9998 9.03337 20.9047 8.80509 20.7358 8.63689C20.5668 8.46868 20.3378 8.37432 20.0991 8.37456L16.6638 8.37635L17.3874 4.04255C17.41 3.92498 17.4089 3.80408 17.384 3.68696C17.3591 3.56984 17.311 3.45887 17.2425 3.36057C17.174 3.26227 17.0865 3.17864 16.9851 3.11458C16.8837 3.05053 16.7705 3.00735 16.6521 2.98759C16.5338 2.96783 16.4126 2.97189 16.2958 2.99952C16.1791 3.02716 16.069 3.07781 15.9722 3.1485C15.8753 3.21919 15.7936 3.30849 15.7318 3.41115C15.6701 3.51381 15.6296 3.62775 15.6126 3.74627L14.8386 8.37815L10.3611 8.38084L11.0865 4.04345ZM10.0605 10.1774L14.5389 10.1747L13.9386 13.7669L9.4602 13.7687L10.0605 10.1774Z" fill="black"/>
</svg>
