<svg width="24" height="24" viewBox="0 0 24 24" fill="none" xmlns="http://www.w3.org/2000/svg">
<path d="M19.7362 4.2549C19.3294 3.8461 18.8454 3.52226 18.3123 3.3022C17.7792 3.08215 17.2076 2.97027 16.6309 2.97307H7.38734C6.22454 2.97546 5.11005 3.43844 4.28783 4.26066C3.46561 5.08288 3.00263 6.19737 3.00024 7.36017V16.6308C3.00262 17.7945 3.46531 18.9099 4.28727 19.7336C5.10924 20.5572 6.22371 21.0222 7.38734 21.027H13.1194C13.4534 21.0243 13.7847 20.9566 14.0944 20.8284L14.2388 20.7562L14.311 20.711C14.5361 20.6025 14.7407 20.4559 14.9158 20.2777L20.332 14.8616C20.5152 14.681 20.6678 14.4698 20.7833 14.2387L20.8555 14.0852C20.8591 14.0491 20.9124 13.9769 20.9088 13.9408C21.0054 13.6736 21.0009 13.4299 20.9991 13.1464V7.42336C21.0127 6.83733 20.9078 6.25459 20.6906 5.71011C20.4735 5.16564 20.1494 4.67067 19.7362 4.2549ZM10.1406 16.3871H7.35123C7.17167 16.3871 6.99947 16.3158 6.8725 16.1888C6.74554 16.0618 6.67421 15.8896 6.67421 15.7101C6.67421 15.5305 6.74554 15.3583 6.8725 15.2314C6.99947 15.1044 7.17167 15.0331 7.35123 15.0331H10.1406C10.3201 15.0331 10.4923 15.1044 10.6193 15.2314C10.7462 15.3583 10.8176 15.5305 10.8176 15.7101C10.8176 15.8896 10.7462 16.0618 10.6193 16.1888C10.4923 16.3158 10.3201 16.3871 10.1406 16.3871ZM11.0433 12.677H7.32415C7.14459 12.677 6.97239 12.6057 6.84542 12.4787C6.71846 12.3518 6.64713 12.1796 6.64713 12C6.64713 11.8205 6.71846 11.6483 6.84542 11.5213C6.97239 11.3943 7.14459 11.323 7.32415 11.323H11.0433C11.2228 11.323 11.395 11.3943 11.522 11.5213C11.6489 11.6483 11.7203 11.8205 11.7203 12C11.7203 12.1796 11.6489 12.3518 11.522 12.4787C11.395 12.6057 11.2228 12.677 11.0433 12.677ZM7.32415 8.95794C7.14459 8.95794 6.97239 8.88661 6.84542 8.75964C6.71846 8.63268 6.64713 8.46047 6.64713 8.28092C6.64713 8.10136 6.71846 7.92916 6.84542 7.80219C6.97239 7.67522 7.14459 7.6039 7.32415 7.6039H15.6741C15.8536 7.6039 16.0258 7.67522 16.1528 7.80219C16.2798 7.92916 16.3511 8.10136 16.3511 8.28092C16.3511 8.46047 16.2798 8.63268 16.1528 8.75964C16.0258 8.88661 15.8536 8.95794 15.6741 8.95794H7.32415ZM14.3381 18.8876L14.0312 16.4052C13.9972 16.1006 14.0312 15.7924 14.1305 15.5025C14.2289 15.1986 14.3993 14.9231 14.6269 14.6991C14.8547 14.4696 15.1329 14.2965 15.4394 14.1936C15.7433 14.0874 16.0678 14.0534 16.3872 14.0943L18.8696 14.4012L14.3381 18.8876Z" fill="black"/>
</svg>
