<svg width="24" height="24" viewBox="0 0 24 24" fill="none" xmlns="http://www.w3.org/2000/svg">
<path d="M5.75 3C5.28587 3 4.84075 3.18437 4.51256 3.51256C4.18437 3.84075 4 4.28587 4 4.75V19.25C4 20.216 4.784 21 5.75 21H9.25C9.71413 21 10.1592 20.8156 10.4874 20.4874C10.8156 20.1592 11 19.7141 11 19.25V4.75C11 4.28587 10.8156 3.84075 10.4874 3.51256C10.1592 3.18437 9.71413 3 9.25 3H5.75ZM14.75 3C14.2859 3 13.8408 3.18437 13.5126 3.51256C13.1844 3.84075 13 4.28587 13 4.75V19.25C13 20.216 13.784 21 14.75 21H18.25C18.7141 21 19.1592 20.8156 19.4874 20.4874C19.8156 20.1592 20 19.7141 20 19.25V4.75C20 4.52019 19.9547 4.29262 19.8668 4.0803C19.7788 3.86798 19.6499 3.67507 19.4874 3.51256C19.3249 3.35006 19.132 3.22116 18.9197 3.13321C18.7074 3.04527 18.4798 3 18.25 3H14.75Z" fill="black"/>
</svg>
