<svg width="24" height="24" viewBox="0 0 24 24" fill="none" xmlns="http://www.w3.org/2000/svg">
<path d="M12 21C16.9707 21 21 16.9707 21 12C21 7.0293 16.9707 3 12 3C7.0293 3 3 7.0293 3 12C3 16.9707 7.0293 21 12 21ZM9.75 8.4H14.25C14.608 8.4 14.9514 8.54223 15.2046 8.79541C15.4578 9.04858 15.6 9.39196 15.6 9.75V14.25C15.6 14.608 15.4578 14.9514 15.2046 15.2046C14.9514 15.4578 14.608 15.6 14.25 15.6H9.75C9.39196 15.6 9.04858 15.4578 8.79541 15.2046C8.54223 14.9514 8.4 14.608 8.4 14.25V9.75C8.4 9.39196 8.54223 9.04858 8.79541 8.79541C9.04858 8.54223 9.39196 8.4 9.75 8.4Z" fill="black"/>
</svg>
