<svg width="24" height="24" viewBox="0 0 24 24" fill="none" xmlns="http://www.w3.org/2000/svg">
<path d="M12 3C16.9707 3 21 7.0293 21 12C21 16.9707 16.9707 21 12 21C7.0293 21 3 16.9707 3 12C3 7.0293 7.0293 3 12 3ZM8.175 11.325C8.00398 11.3251 7.83935 11.39 7.71439 11.5068C7.58942 11.6235 7.51343 11.7834 7.50178 11.954C7.49012 12.1246 7.54366 12.2933 7.65159 12.426C7.75951 12.5586 7.91377 12.6454 8.0832 12.6687L8.175 12.675H15.825C15.996 12.6749 16.1606 12.61 16.2856 12.4932C16.4106 12.3765 16.4866 12.2166 16.4982 12.046C16.5099 11.8754 16.4563 11.7067 16.3484 11.574C16.2405 11.4414 16.0862 11.3546 15.9168 11.3313L15.825 11.325H8.175Z" fill="black"/>
</svg>
