<svg width="24" height="24" viewBox="0 0 24 24" fill="none" xmlns="http://www.w3.org/2000/svg">
<path d="M15.4002 16.4034C13.9008 17.6449 11.9809 18.2611 10.0391 18.1243C8.09733 17.9874 6.28285 17.1079 4.97245 15.6684C3.66206 14.2289 2.95643 12.34 3.00209 10.3939C3.04774 8.44784 3.84118 6.59411 5.21764 5.21764C6.59411 3.84118 8.44784 3.04774 10.3939 3.00209C12.34 2.95643 14.2289 3.66206 15.6684 4.97245C17.1079 6.28285 17.9874 8.09733 18.1243 10.0391C18.2611 11.9809 17.6449 13.9008 16.4034 15.4002L20.7741 19.7709C20.8438 19.8358 20.8998 19.9142 20.9386 20.0013C20.9773 20.0883 20.9982 20.1823 20.9999 20.2777C21.0016 20.373 20.984 20.4676 20.9483 20.556C20.9126 20.6444 20.8595 20.7247 20.7921 20.7921C20.7247 20.8595 20.6444 20.9126 20.556 20.9483C20.4676 20.984 20.373 21.0016 20.2777 20.9999C20.1823 20.9982 20.0883 20.9773 20.0013 20.9386C19.9142 20.8998 19.8358 20.8438 19.7709 20.7741L15.4002 16.4034ZM16.7233 10.5715C16.7233 8.93991 16.0752 7.37516 14.9215 6.22147C13.7678 5.06777 12.203 4.41963 10.5715 4.41963C8.93991 4.41963 7.37516 5.06777 6.22147 6.22147C5.06777 7.37516 4.41963 8.93991 4.41963 10.5715C4.41963 12.203 5.06777 13.7678 6.22147 14.9215C7.37516 16.0752 8.93991 16.7233 10.5715 16.7233C12.203 16.7233 13.7678 16.0752 14.9215 14.9215C16.0752 13.7678 16.7233 12.203 16.7233 10.5715Z" fill="black"/>
</svg>
