<svg width="24" height="24" viewBox="0 0 24 24" fill="none" xmlns="http://www.w3.org/2000/svg">
<path d="M12.0101 3C12.7157 3.00738 13.4184 3.08585 14.1077 3.23354C14.2543 3.26497 14.3871 3.3396 14.4874 3.44701C14.5877 3.55442 14.6506 3.68923 14.6672 3.83262L14.8306 5.24216C14.8537 5.44088 14.925 5.63163 15.0389 5.79906C15.1527 5.96648 15.3059 6.10591 15.4861 6.20612C15.6663 6.30633 15.8685 6.36452 16.0764 6.37602C16.2843 6.38752 16.4921 6.352 16.6831 6.27231L18.029 5.70462C18.1657 5.64679 18.3178 5.63118 18.4642 5.65996C18.6105 5.68873 18.744 5.76046 18.8461 5.86524C19.819 6.86323 20.5437 8.05998 20.9658 9.36555C21.0099 9.50285 21.0084 9.64992 20.9616 9.78637C20.9147 9.92283 20.8248 10.0419 20.7043 10.1271L19.5113 10.9726C19.3432 11.0909 19.2065 11.2456 19.1123 11.4241C19.0181 11.6026 18.969 11.7999 18.969 12C18.969 12.2001 19.0181 12.3974 19.1123 12.5759C19.2065 12.7544 19.3432 12.9091 19.5113 13.0274L20.7063 13.872C20.8269 13.9573 20.917 14.0765 20.9638 14.2131C21.0107 14.3498 21.0121 14.4971 20.9677 14.6345C20.546 15.94 19.8216 17.1367 18.849 18.1348C18.7471 18.2395 18.6138 18.3113 18.4677 18.3403C18.3215 18.3692 18.1695 18.3538 18.0328 18.2963L16.6812 17.7268C16.4904 17.6465 16.2827 17.6104 16.0748 17.6215C15.8668 17.6327 15.6645 17.6906 15.4842 17.7907C15.3039 17.8909 15.1508 18.0303 15.037 18.1979C14.9233 18.3654 14.8523 18.5563 14.8297 18.7551L14.6662 20.1637C14.6499 20.3054 14.5884 20.4388 14.4902 20.5457C14.3919 20.6526 14.2617 20.7278 14.1173 20.761C12.725 21.0797 11.2741 21.0797 9.88172 20.761C9.73714 20.728 9.6067 20.6529 9.50827 20.546C9.40984 20.4391 9.34822 20.3056 9.33184 20.1637L9.16938 18.757C9.14578 18.5588 9.07411 18.3687 8.96013 18.2019C8.84615 18.0352 8.69303 17.8964 8.51307 17.7967C8.33311 17.6971 8.13133 17.6394 7.92392 17.6282C7.71652 17.617 7.50927 17.6527 7.31882 17.7323L5.9672 18.301C5.83036 18.3587 5.67822 18.3741 5.53183 18.3452C5.38544 18.3163 5.25204 18.2443 5.15007 18.1394C4.17733 17.1402 3.45324 15.9421 3.03227 14.6354C2.98795 14.498 2.98931 14.3507 3.03617 14.2141C3.08304 14.0774 3.17306 13.9582 3.29375 13.8729L4.48868 13.0274C4.65676 12.9091 4.79346 12.7544 4.88768 12.5759C4.9819 12.3974 5.031 12.2001 5.031 12C5.031 11.7999 4.9819 11.6026 4.88768 11.4241C4.79346 11.2456 4.65676 11.0909 4.48868 10.9726L3.29375 10.1289C3.17306 10.0437 3.08304 9.92446 3.03617 9.78781C2.98931 9.65117 2.98795 9.5039 3.03227 9.36648C3.45433 8.0609 4.17906 6.86415 5.15199 5.86616C5.25407 5.76139 5.38753 5.68965 5.53391 5.66088C5.6803 5.63211 5.83238 5.64771 5.96912 5.70554L7.31498 6.27324C7.5063 6.35287 7.71441 6.38831 7.92258 6.3767C8.13075 6.36509 8.33319 6.30677 8.51363 6.2064C8.69406 6.10604 8.84747 5.96644 8.96152 5.79881C9.07558 5.63119 9.1471 5.44022 9.17034 5.24124L9.33376 3.83262C9.35026 3.68894 9.41317 3.55383 9.51368 3.44623C9.61419 3.33863 9.74726 3.26393 9.89421 3.23262C10.5825 3.08615 11.2878 3.00862 12.0101 3ZM11.9986 9.23078C11.2337 9.23078 10.5001 9.52254 9.95928 10.0419C9.41843 10.5612 9.11458 11.2656 9.11458 12C9.11458 12.7345 9.41843 13.4388 9.95928 13.9582C10.5001 14.4775 11.2337 14.7693 11.9986 14.7693C12.7634 14.7693 13.497 14.4775 14.0378 13.9582C14.5787 13.4388 14.8825 12.7345 14.8825 12C14.8825 11.2656 14.5787 10.5612 14.0378 10.0419C13.497 9.52254 12.7634 9.23078 11.9986 9.23078Z" fill="black"/>
</svg>
