<svg width="24" height="24" viewBox="0 0 24 24" fill="none" xmlns="http://www.w3.org/2000/svg">
<path d="M12.92 3.31497C13.726 2.59997 15 3.17097 15 4.24997V19.745C15 20.824 13.726 21.396 12.92 20.679L8.428 16.686C8.29086 16.5638 8.11366 16.4962 7.93 16.496H4.25C3.65326 16.496 3.08097 16.2589 2.65901 15.837C2.23705 15.415 2 14.8427 2 14.246V9.74797C2 9.15124 2.23705 8.57894 2.65901 8.15698C3.08097 7.73503 3.65326 7.49797 4.25 7.49797H7.93C8.11366 7.49775 8.29086 7.43015 8.428 7.30797L12.92 3.31497ZM13.5 4.80597L9.425 8.42997C9.01304 8.796 8.48108 8.99811 7.93 8.99797H4.25C4.05109 8.99797 3.86032 9.07699 3.71967 9.21764C3.57902 9.35829 3.5 9.54906 3.5 9.74797V14.246C3.5 14.66 3.836 14.996 4.25 14.996H7.93C8.48121 14.9961 9.01319 15.1986 9.425 15.565L13.5 19.188V4.80597ZM16.22 9.21897C16.3606 9.07852 16.5512 8.99963 16.75 8.99963C16.9488 8.99963 17.1394 9.07852 17.28 9.21897L19 10.94L20.72 9.21997C20.7887 9.14629 20.8715 9.08718 20.9635 9.04619C21.0555 9.0052 21.1548 8.98316 21.2555 8.98138C21.3562 8.9796 21.4562 8.99813 21.5496 9.03585C21.643 9.07357 21.7278 9.12972 21.799 9.20094C21.8703 9.27215 21.9264 9.35699 21.9641 9.45038C22.0018 9.54376 22.0204 9.64379 22.0186 9.7445C22.0168 9.8452 21.9948 9.94451 21.9538 10.0365C21.9128 10.1285 21.8537 10.2113 21.78 10.28L20.06 12L21.78 13.72C21.9125 13.8621 21.9846 14.0502 21.9812 14.2445C21.9777 14.4388 21.899 14.6242 21.7616 14.7616C21.6242 14.899 21.4388 14.9777 21.2445 14.9811C21.0502 14.9846 20.8622 14.9125 20.72 14.78L19 13.06L17.28 14.78C17.2113 14.8537 17.1285 14.9128 17.0365 14.9538C16.9445 14.9947 16.8452 15.0168 16.7445 15.0186C16.6438 15.0203 16.5438 15.0018 16.4504 14.9641C16.357 14.9264 16.2722 14.8702 16.201 14.799C16.1297 14.7278 16.0736 14.643 16.0359 14.5496C15.9982 14.4562 15.9796 14.3562 15.9814 14.2555C15.9832 14.1547 16.0052 14.0554 16.0462 13.9634C16.0872 13.8714 16.1463 13.7886 16.22 13.72L17.94 12L16.22 10.28C16.0795 10.1393 16.0007 9.94872 16.0007 9.74997C16.0007 9.55122 16.0795 9.3606 16.22 9.21997" fill="black"/>
</svg>
