<svg width="24" height="24" viewBox="0 0 24 24" fill="none" xmlns="http://www.w3.org/2000/svg">
<path d="M15 4.24999C15 3.17199 13.726 2.59999 12.92 3.31599L8.427 7.30999C8.28986 7.43217 8.11266 7.49977 7.929 7.49999H4.25C3.65326 7.49999 3.08097 7.73705 2.65901 8.159C2.23705 8.58096 2 9.15326 2 9.74999V14.247C2 14.8437 2.23705 15.416 2.65901 15.838C3.08097 16.2599 3.65326 16.497 4.25 16.497H7.93C8.11366 16.4972 8.29086 16.5648 8.428 16.687L12.919 20.68C13.725 21.397 15 20.825 15 19.746V4.24999ZM16.22 9.21999C16.3606 9.07954 16.5512 9.00065 16.75 9.00065C16.9488 9.00065 17.1394 9.07954 17.28 9.21999L19 10.94L20.72 9.21999C20.7887 9.14631 20.8715 9.0872 20.9635 9.04621C21.0555 9.00522 21.1548 8.98318 21.2555 8.9814C21.3562 8.97962 21.4562 8.99815 21.5496 9.03587C21.643 9.07359 21.7278 9.12974 21.799 9.20096C21.8703 9.27217 21.9264 9.35701 21.9641 9.4504C22.0018 9.54378 22.0204 9.64381 22.0186 9.74452C22.0168 9.84522 21.9948 9.94453 21.9538 10.0365C21.9128 10.1285 21.8537 10.2113 21.78 10.28L20.06 12L21.78 13.72C21.8537 13.7887 21.9128 13.8715 21.9538 13.9635C21.9948 14.0555 22.0168 14.1548 22.0186 14.2555C22.0204 14.3562 22.0018 14.4562 21.9641 14.5496C21.9264 14.643 21.8703 14.7278 21.799 14.799C21.7278 14.8702 21.643 14.9264 21.5496 14.9641C21.4562 15.0018 21.3562 15.0204 21.2555 15.0186C21.1548 15.0168 21.0555 14.9948 20.9635 14.9538C20.8715 14.9128 20.7887 14.8537 20.72 14.78L19 13.062L17.28 14.782C17.2113 14.8557 17.1285 14.9148 17.0365 14.9558C16.9445 14.9968 16.8452 15.0188 16.7445 15.0206C16.6438 15.0224 16.5438 15.0038 16.4504 14.9661C16.357 14.9284 16.2722 14.8723 16.201 14.801C16.1297 14.7298 16.0736 14.645 16.0359 14.5516C15.9982 14.4582 15.9796 14.3582 15.9814 14.2575C15.9832 14.1568 16.0052 14.0575 16.0462 13.9655C16.0872 13.8735 16.1463 13.7907 16.22 13.722L17.94 12L16.22 10.28C16.0795 10.1394 16.0007 9.94874 16.0007 9.74999C16.0007 9.55124 16.0795 9.36062 16.22 9.21999Z" fill="black"/>
</svg>
