<svg width="24" height="24" viewBox="0 0 24 24" fill="none" xmlns="http://www.w3.org/2000/svg">
<path d="M13.2764 6.91374V3.67757C13.2764 3.30477 13.5748 3.00256 13.943 3.00256C14.3112 3.00256 14.6097 3.30477 14.6097 3.67757V6.91374C14.6097 7.17221 14.711 7.42161 14.8927 7.60545C15.076 7.79027 15.3249 7.89383 15.5837 7.89373H19.2503C19.6184 7.89373 19.9168 8.19612 19.917 8.56874C19.917 8.94153 19.6185 9.24374 19.2503 9.24374H15.5837C14.9724 9.24384 14.3858 8.99927 13.9526 8.56258V8.56171C13.5197 8.12462 13.2764 7.53148 13.2764 6.91374Z" fill="black"/>
<path d="M8.60764 3.00231L13.6875 3.00143V3.00231C14.5692 2.9998 15.422 3.3089 16.0998 3.8742L16.2335 3.99021L16.237 3.99373L18.8681 6.44414C19.2122 6.74826 19.4911 7.12076 19.6858 7.53927C19.8835 7.96442 19.9904 8.42735 20 8.8972V16.6457C19.9792 17.239 19.8424 17.8226 19.5981 18.3622C19.3537 18.9018 19.0059 19.3874 18.5755 19.7905C18.1452 20.1947 17.6406 20.5092 17.0903 20.716C16.5476 20.9199 15.9708 21.0141 15.3924 20.9955V20.9964H8.64497V20.9955C8.06524 21.0183 7.48658 20.9285 6.94097 20.7283C6.45518 20.5499 6.00381 20.288 5.60677 19.9548L5.43924 19.8072C5.00464 19.4031 4.65319 18.9154 4.40625 18.3728C4.15936 17.8303 4.02106 17.2435 4 16.6466V7.35207C4.02076 6.75882 4.15758 6.17515 4.40191 5.63554C4.6463 5.09596 4.99406 4.61036 5.42448 4.2073C5.85477 3.80307 6.35942 3.48861 6.90972 3.28181C7.45245 3.07788 8.0292 2.98367 8.60764 3.00231ZM8.58333 4.35145C8.17153 4.33581 7.76049 4.40231 7.37413 4.54744C6.98773 4.69263 6.63282 4.91308 6.33073 5.19696L6.32986 5.19784C6.02846 5.48002 5.78483 5.82024 5.61372 6.19805C5.44268 6.57578 5.34786 6.98425 5.33333 7.39953V16.5983L5.34201 16.7547C5.37275 17.1188 5.46585 17.4751 5.61719 17.8076C5.79013 18.1876 6.03596 18.5292 6.34028 18.8122L6.45747 18.9151C6.73656 19.1493 7.05347 19.3337 7.39497 19.4591C7.78524 19.6024 8.19988 19.6664 8.61458 19.6472L8.64497 19.6463H15.4167C15.8285 19.662 16.2395 19.5955 16.6259 19.4503C17.0123 19.3052 17.3672 19.0847 17.6693 18.8008L17.6701 18.7999C17.9715 18.5178 18.2152 18.1775 18.3863 17.7997C18.5573 17.422 18.6521 17.0135 18.6667 16.5983V8.92445C18.6609 8.64428 18.5971 8.36849 18.4792 8.11496C18.3611 7.86125 18.1916 7.6353 17.9818 7.45226C17.9763 7.4475 17.9706 7.44226 17.9653 7.43732L15.3342 4.98778V4.9869C14.8831 4.57563 14.2964 4.34927 13.6892 4.35145H8.58333ZM15.8689 15.243C16.2371 15.243 16.5356 15.5452 16.5356 15.918C16.5354 16.2906 16.237 16.593 15.8689 16.593H8.13108C7.76303 16.593 7.46464 16.2906 7.46441 15.918C7.46441 15.5452 7.76289 15.243 8.13108 15.243H15.8689ZM15.8689 11.3248C16.2371 11.3248 16.5356 11.627 16.5356 11.9998C16.5356 12.3726 16.2371 12.6748 15.8689 12.6748H8.13108C7.76289 12.6748 7.46441 12.3726 7.46441 11.9998C7.46442 11.627 7.76289 11.3248 8.13108 11.3248H15.8689ZM11.033 7.40744C11.4011 7.40749 11.6997 7.70968 11.6997 8.08244C11.6994 8.45503 11.401 8.7574 11.033 8.75745H8.13108C7.76301 8.75745 7.46462 8.45506 7.46441 8.08244C7.46441 7.70965 7.76289 7.40744 8.13108 7.40744H11.033Z" fill="black"/>
</svg>
