<svg width="24" height="24" viewBox="0 0 24 24" fill="none" xmlns="http://www.w3.org/2000/svg">
<path d="M6.59322 15.5172H16.8103C18.9651 15.5172 20.6973 13.7677 20.6973 11.6212C20.6973 9.48307 18.9651 7.73395 16.8103 7.73395C14.6639 7.73395 12.9227 9.48343 12.9227 11.6212C12.9193 12.6197 13.3042 13.5804 13.9961 14.3003H9.39881C10.0872 13.5781 10.4715 12.6189 10.4722 11.6212C10.4722 9.48307 8.73969 7.73395 6.59322 7.73395C4.4381 7.73395 2.69727 9.48343 2.69727 11.6212C2.69727 13.7677 4.44675 15.5172 6.59322 15.5172ZM6.59322 14.1734C6.25779 14.1744 5.92548 14.109 5.61539 13.9811C5.3053 13.8532 5.02356 13.6653 4.78638 13.4281C4.54919 13.1909 4.36124 12.9092 4.23334 12.5991C4.10544 12.289 4.04011 11.9567 4.04111 11.6212C4.04111 10.2186 5.1733 9.07779 6.59322 9.07779C8.00449 9.07779 9.14533 10.2186 9.14533 11.6212C9.14571 11.9565 9.07996 12.2885 8.95184 12.5983C8.82372 12.9082 8.63575 13.1897 8.39868 13.4267C8.16162 13.6638 7.88013 13.8517 7.57032 13.9799C7.26051 14.108 6.92848 14.1737 6.59322 14.1734ZM16.8103 14.1734C15.3991 14.1734 14.2665 13.0325 14.2665 11.6212C14.2665 10.2186 15.3987 9.07779 16.8103 9.07779C18.222 9.07779 19.3624 10.2186 19.3624 11.6212C19.3628 11.9565 19.2971 12.2885 19.1689 12.5983C19.0408 12.9082 18.8528 13.1897 18.6158 13.4267C18.3787 13.6638 18.0972 13.8517 17.7874 13.9799C17.4776 14.108 17.1456 14.1737 16.8103 14.1734Z" fill="black"/>
</svg>
