<svg width="24" height="24" viewBox="0 0 24 24" fill="none" xmlns="http://www.w3.org/2000/svg">
<path d="M7.22919 20.6629C7.15363 20.7079 7.07748 20.7517 7.00192 20.7973C6.78173 20.9281 6.56096 21.0588 6.34077 21.1896C6.24396 21.248 6.14656 21.3063 6.04974 21.3647C5.92342 21.4383 5.79827 21.5137 5.67194 21.5873C5.4429 21.7199 5.21976 21.864 4.986 21.9893C4.82071 22.0288 4.63181 21.9577 4.55684 21.7953C4.48659 21.6627 4.52851 21.5095 4.56629 21.3745C4.62768 21.1464 4.68671 20.9171 4.74633 20.6885C4.80536 20.4586 4.86557 20.2293 4.9252 20C4.95825 19.8754 4.9919 19.7513 5.01965 19.626C5.05034 19.5117 5.08517 19.3986 5.10347 19.2812C5.12236 19.1249 5.08517 18.9674 5.0167 18.8281C4.96002 18.7327 4.88565 18.6493 4.79887 18.5824C4.64185 18.4632 4.486 18.3422 4.33488 18.2157C4.21741 18.1166 4.1023 18.0156 3.98837 17.911C3.88329 17.8143 3.77881 17.717 3.67727 17.6161C3.54327 17.4811 3.41222 17.343 3.28471 17.2007C3.18554 17.0882 3.08637 16.9757 2.99192 16.8589C2.90219 16.7489 2.81482 16.6364 2.72982 16.5214C2.59169 16.3365 2.46241 16.145 2.33608 15.9504C2.3107 15.9108 2.28649 15.8707 2.26229 15.8312C2.12652 15.6098 2.00078 15.3824 1.88449 15.15C1.80362 14.9852 1.72628 14.818 1.6525 14.6495C1.6277 14.5851 1.60173 14.5206 1.57635 14.4567C1.48308 14.2238 1.40338 13.9854 1.33196 13.7446C1.26761 13.5226 1.21212 13.2982 1.16431 13.0714C1.11885 12.8397 1.08107 12.6061 1.05392 12.3714C0.972454 11.6793 0.98426 10.9769 1.08284 10.2879C1.11649 10.0629 1.15604 9.83784 1.2074 9.61648C1.25994 9.38477 1.32192 9.15611 1.39571 8.93048C1.4695 8.69452 1.55982 8.46525 1.65072 8.23598L1.65899 8.2153C1.76111 7.98603 1.8656 7.75797 1.98366 7.5366C2.24222 7.04887 2.54505 6.58667 2.88566 6.15549C2.92521 6.10562 2.96535 6.05636 3.00431 6.0071C3.15544 5.82223 3.31423 5.64525 3.47834 5.47254C3.53796 5.40929 3.59935 5.34787 3.66074 5.28645C3.83016 5.11434 4.00785 4.95075 4.18908 4.79263C4.2422 4.74702 4.29533 4.7014 4.34964 4.65762C4.76817 4.30976 5.21209 3.99473 5.67608 3.71498C5.85789 3.60552 6.04266 3.50092 6.22979 3.39996C6.27229 3.37746 6.31539 3.35557 6.35848 3.33367C6.57808 3.22238 6.80003 3.11656 7.02494 3.01865C7.46119 2.8283 7.90805 2.66349 8.36319 2.52727C8.60344 2.4555 8.84606 2.38922 9.09045 2.33448C9.29175 2.28522 9.49541 2.24448 9.69907 2.20677C9.94523 2.15873 10.1937 2.12467 10.4423 2.09366C10.8478 2.04257 11.2563 2.0146 11.6642 2H12.3088C12.7858 2.01399 13.2616 2.05169 13.7345 2.11616C13.9582 2.14656 14.1813 2.18366 14.4033 2.22562C14.627 2.2688 14.8496 2.31806 15.0703 2.3728C15.2958 2.42935 15.5202 2.49017 15.7421 2.56071C16.2026 2.70241 16.6536 2.87513 17.0945 3.07217C17.3183 3.17251 17.5367 3.28381 17.7563 3.39449L17.774 3.403C17.9942 3.52463 18.2138 3.64687 18.4275 3.78066C18.9009 4.07197 19.3501 4.40341 19.774 4.76587C19.7828 4.77377 19.8005 4.78837 19.8094 4.79567C20.0207 4.98298 20.2303 5.17333 20.4268 5.37828C20.4599 5.41294 20.4935 5.44821 20.5278 5.48288C20.6878 5.6489 20.8365 5.82527 20.9847 6.00163C20.8973 6.04055 20.81 6.08008 20.7232 6.12083C20.6234 6.16644 20.5237 6.21083 20.4245 6.25705C20.2049 6.35679 19.9865 6.45896 19.7675 6.5587C19.5727 6.64809 19.3779 6.73688 19.1842 6.82811C19.1559 6.83966 19.1282 6.85183 19.1004 6.8646C18.8755 6.96677 18.6518 7.07137 18.4275 7.17293C17.9788 7.3797 17.5296 7.58404 17.0809 7.79142C16.6358 7.99393 16.1908 8.19827 15.7462 8.40322C15.5225 8.5066 15.2988 8.60816 15.0751 8.71094C14.9357 8.77419 14.7964 8.83926 14.6583 8.90433C14.5715 8.94082 14.4865 8.98096 14.4003 9.01988C14.1736 9.12448 13.9464 9.22848 13.7191 9.33247C13.5355 9.417 13.3519 9.50154 13.1683 9.58668C13.1306 9.60371 13.0928 9.62073 13.0556 9.63776C12.8307 9.73932 12.6075 9.84392 12.3832 9.94609C11.934 10.1523 11.4854 10.3572 11.0367 10.564C10.6937 10.7191 10.3514 10.8784 10.0096 11.0359C9.90804 11.0839 9.80296 11.1253 9.69375 11.1484C9.47061 11.1873 9.23744 11.1581 9.03201 11.0602C8.98242 11.0347 8.93402 11.0061 8.88679 10.9757C8.71442 10.8474 8.54028 10.7209 8.36673 10.5938C8.22505 10.4898 8.08456 10.3852 7.94229 10.283C7.85847 10.221 7.77405 10.1583 7.68905 10.0969C7.4724 9.93636 7.25458 9.77642 7.03675 9.61708L7.02081 9.60614C6.86379 9.48937 6.70676 9.37322 6.54856 9.25828C6.48717 9.21388 6.41633 9.18712 6.34549 9.16705C6.10819 9.15367 5.90158 9.38781 5.95529 9.63046C6.14538 10.0884 6.35612 10.5372 6.5521 10.9921C6.65718 11.2287 6.76107 11.4653 6.86674 11.7018C6.90747 11.7949 6.9482 11.8885 6.98893 11.9816C7.04856 12.1154 7.10936 12.2492 7.1678 12.3842C7.26933 12.6116 7.36851 12.8403 7.47063 13.0677C7.53556 13.2137 7.6005 13.3603 7.66602 13.5062C7.70321 13.592 7.7404 13.6783 7.77877 13.7641C7.89861 14.0043 7.97181 14.2719 8.13237 14.4878C8.19672 14.5498 8.26696 14.6051 8.34371 14.6507C8.56743 14.7645 8.84134 14.7505 9.05562 14.6185C9.13296 14.5717 9.21029 14.5243 9.28762 14.4768C9.42929 14.3947 9.5692 14.3102 9.71028 14.2275C10.1577 13.9605 10.6058 13.6941 11.0538 13.4271C11.2469 13.3134 11.4393 13.1985 11.6318 13.0823C11.663 13.0629 11.6961 13.044 11.728 13.0258C11.9517 12.8944 12.1743 12.7612 12.3968 12.6286C12.5237 12.5538 12.6512 12.479 12.777 12.4024C12.875 12.344 12.9735 12.2856 13.0721 12.2273C13.2947 12.0947 13.5166 11.9609 13.7404 11.8301C13.8082 11.7906 13.8761 11.7493 13.9434 11.7085C14.1004 11.6143 14.2587 11.5218 14.4151 11.4263C14.8625 11.1606 15.3118 10.896 15.758 10.6278C15.9281 10.5257 16.0993 10.4259 16.2693 10.3238C16.32 10.294 16.3708 10.2629 16.4216 10.2331C16.6447 10.1 16.869 9.96799 17.0922 9.83359C17.2096 9.76547 17.3253 9.69493 17.4416 9.62499C17.5479 9.56235 17.6541 9.50093 17.7598 9.43768C18.212 9.16827 18.6636 8.89886 19.1163 8.63006C19.3277 8.50295 19.5408 8.37828 19.7515 8.25057C19.7681 8.24084 19.7852 8.23111 19.8023 8.22138C20.0231 8.09124 20.2427 7.95866 20.464 7.82791C20.6211 7.73547 20.7769 7.63999 20.9339 7.54694C20.9977 7.50984 21.0603 7.47214 21.124 7.43504C21.3365 7.31341 21.5408 7.17719 21.7598 7.06711C21.8359 7.22949 21.9345 7.3797 22.0166 7.53964C22.1376 7.77013 22.2509 8.00549 22.3513 8.24631C22.3796 8.31503 22.4068 8.38376 22.4345 8.45308C22.4971 8.61303 22.5555 8.7748 22.6081 8.939C22.6789 9.15915 22.7391 9.38234 22.7922 9.60796C22.8448 9.83663 22.8861 10.0683 22.9203 10.3006C22.9516 10.5293 22.9746 10.7592 22.9876 10.9903C23 11.222 23.003 11.4543 22.9971 11.686C22.9888 11.9165 22.9735 12.147 22.9475 12.3763C22.9209 12.6061 22.8843 12.8342 22.8395 13.061C22.7922 13.2903 22.7367 13.5172 22.6724 13.7422C22.5313 14.2244 22.3471 14.6927 22.1252 15.1415C21.8849 15.628 21.5986 16.0896 21.2763 16.5232C21.219 16.5993 21.1606 16.6753 21.1022 16.7501C20.98 16.9027 20.8548 17.0529 20.7244 17.1989C20.6323 17.3005 20.5396 17.4008 20.4446 17.4993C20.3046 17.641 20.1624 17.7797 20.0154 17.9129C19.9392 17.9828 19.8613 18.0515 19.7828 18.119C19.591 18.2851 19.3926 18.4432 19.189 18.5934C19.1588 18.6153 19.1287 18.6378 19.0986 18.6597C18.8785 18.8196 18.6535 18.9723 18.4221 19.1146C18.3324 19.1699 18.2415 19.2234 18.1506 19.2763C18.0213 19.3511 17.8909 19.4253 17.758 19.4941C17.5367 19.6102 17.3123 19.7203 17.0845 19.8219C16.9782 19.8699 16.8708 19.9155 16.7639 19.9605C16.6429 20.0098 16.5213 20.0566 16.3991 20.1028C16.1837 20.1849 15.9647 20.2591 15.7445 20.3284C15.5142 20.3984 15.2823 20.4635 15.0485 20.5212C14.8501 20.5717 14.65 20.6124 14.4505 20.6562C14.4393 20.6581 14.4169 20.6617 14.4056 20.6629C14.1825 20.7043 13.9588 20.7414 13.7339 20.7718C13.5107 20.8016 13.2876 20.8265 13.0633 20.8448C12.8389 20.8612 12.614 20.8758 12.3897 20.8819C12.166 20.8885 11.9423 20.8898 11.7179 20.8849C11.4942 20.8794 11.2699 20.8685 11.0462 20.8521C10.8224 20.8356 10.5987 20.8125 10.3756 20.7839C10.1743 20.7584 9.97415 20.7256 9.77463 20.6921C9.70261 20.6793 9.63059 20.6641 9.55857 20.6532C9.38502 20.6167 9.21206 20.5808 9.03969 20.5389C8.81182 20.4847 8.58632 20.4203 8.36082 20.357C8.14005 20.2962 7.90274 20.3157 7.69082 20.4014" fill="#00C800"/>
</svg>
