<svg width="24" height="24" viewBox="0 0 24 24" fill="none" xmlns="http://www.w3.org/2000/svg">
<path d="M6.96582 10.2974C10.1699 10.2974 12.747 12.8745 12.7471 16.0786C12.7471 19.2827 10.1699 21.8599 6.96582 21.8599C3.76175 21.8598 1.18457 19.2827 1.18457 16.0786C1.18461 12.8746 3.76178 10.2974 6.96582 10.2974Z" fill="#2775CA" stroke="white" stroke-width="0.370087"/>
<path d="M8.60652 17.0236C8.60652 16.1538 8.08451 15.8555 7.04048 15.7308C6.29474 15.6311 6.1456 15.4325 6.1456 15.0847C6.1456 14.7369 6.39437 14.5131 6.89133 14.5131C7.33877 14.5131 7.58755 14.6623 7.71164 15.0351C7.7367 15.1097 7.81127 15.1592 7.88585 15.1592H8.28377C8.3834 15.1592 8.45797 15.0847 8.45797 14.985V14.96C8.35834 14.4129 7.9109 13.9905 7.33937 13.941V13.3444C7.33937 13.2448 7.2648 13.1702 7.14071 13.1458H6.76784C6.66821 13.1458 6.59363 13.2203 6.56917 13.3444V13.9159C5.82344 14.0156 5.35094 14.5125 5.35094 15.1342C5.35094 15.9545 5.8479 16.2778 6.89193 16.4019C7.58815 16.526 7.81187 16.6752 7.81187 17.0731C7.81187 17.471 7.46406 17.7443 6.99156 17.7443C6.34545 17.7443 6.12173 17.471 6.04716 17.0982C6.0221 16.9985 5.94753 16.949 5.87296 16.949H5.45057C5.35094 16.949 5.27637 17.0236 5.27637 17.1232V17.1483C5.376 17.7699 5.77333 18.2174 6.59363 18.3414V18.938C6.59363 19.0377 6.66821 19.1122 6.7923 19.1367H7.16517C7.2648 19.1367 7.33937 19.0621 7.36383 18.938V18.3414C8.10897 18.2168 8.60652 17.6947 8.60652 17.0236Z" fill="white"/>
<path d="M5.69894 19.6336C3.76003 18.9374 2.76552 16.7748 3.48679 14.8609C3.85966 13.8169 4.67997 13.0216 5.69894 12.6488C5.79857 12.5993 5.84809 12.5247 5.84809 12.4V12.0522C5.84809 11.9525 5.79857 11.878 5.69894 11.8535C5.67389 11.8535 5.62437 11.8535 5.59931 11.8786C3.23802 12.6243 1.94521 15.1348 2.69094 17.4966C3.13839 18.8885 4.20747 19.9576 5.59931 20.405C5.69894 20.4545 5.79798 20.405 5.82303 20.3054C5.84809 20.2803 5.84809 20.2559 5.84809 20.2058V19.8579C5.84809 19.7828 5.77352 19.6837 5.69894 19.6336ZM8.33348 11.878C8.23385 11.8285 8.13482 11.878 8.10976 11.9776C8.0847 12.0027 8.0847 12.0271 8.0847 12.0772V12.425C8.0847 12.5247 8.15928 12.6237 8.23385 12.6738C10.1728 13.37 11.1673 15.5327 10.446 17.4465C10.0731 18.4906 9.25282 19.2858 8.23385 19.6587C8.13422 19.7082 8.0847 19.7828 8.0847 19.9075V20.2553C8.0847 20.3549 8.13422 20.4295 8.23385 20.4539C8.25891 20.4539 8.30842 20.4539 8.33348 20.4289C10.6948 19.6831 11.9876 17.1727 11.2418 14.8108C10.7944 13.3945 9.70086 12.3254 8.33348 11.878Z" fill="white"/>
<g clip-path="url(#clip0_1_620)">
<path d="M17.0618 22.0446C20.3567 22.0446 23.0277 19.3735 23.0277 16.0787C23.0277 12.7838 20.3567 10.1128 17.0618 10.1128C13.767 10.1128 11.0959 12.7838 11.0959 16.0787C11.0959 19.3735 13.767 22.0446 17.0618 22.0446Z" fill="#1B5AFE"/>
<path fill-rule="evenodd" clip-rule="evenodd" d="M14.0317 13.1958V15.2285C15.1543 15.2285 16.0644 14.3183 16.0644 13.1963L14.0317 13.1958Z" fill="white"/>
<path fill-rule="evenodd" clip-rule="evenodd" d="M16.0645 19.3011V15.209C16.0645 15.1918 16.0645 15.1746 16.0649 15.1574C16.0654 15.1403 16.0659 15.1231 16.0668 15.1059C16.0678 15.0887 16.0687 15.0715 16.0702 15.0548C16.0716 15.0376 16.073 15.0209 16.075 15.0042C16.0769 14.9875 16.0788 14.9703 16.0807 14.9536C16.0826 14.9369 16.085 14.9202 16.0878 14.9035C16.0902 14.8868 16.0931 14.8701 16.096 14.8539C16.0988 14.8372 16.1022 14.821 16.1055 14.8047C16.1088 14.7885 16.1122 14.7723 16.116 14.7561C16.1198 14.7398 16.1236 14.7236 16.1279 14.7078C16.1322 14.6921 16.1365 14.6759 16.1408 14.6601C16.1451 14.6444 16.1499 14.6286 16.1551 14.6129C16.1599 14.5971 16.1652 14.5814 16.1704 14.5661C16.1757 14.5504 16.1809 14.5351 16.1866 14.5198C16.1924 14.5045 16.1981 14.4893 16.2043 14.474C16.2105 14.4587 16.2167 14.4439 16.2229 14.4286C16.2291 14.4134 16.2358 14.3986 16.2425 14.3838C16.2492 14.369 16.2563 14.3542 16.263 14.3394C16.2702 14.3246 16.2773 14.3103 16.285 14.2955C16.2926 14.2812 16.3002 14.2669 16.3079 14.2525C16.3155 14.2382 16.3236 14.2239 16.3317 14.2101C16.3398 14.1962 16.348 14.1819 16.3565 14.1681C16.3651 14.1542 16.3737 14.1404 16.3823 14.127C16.3909 14.1136 16.4 14.0998 16.409 14.0864C16.4181 14.0731 16.4272 14.0597 16.4367 14.0468C16.4463 14.0335 16.4558 14.0206 16.4654 14.0077C16.4749 13.9948 16.4849 13.9819 16.495 13.9695C16.505 13.9566 16.515 13.9442 16.5255 13.9318C16.536 13.9194 16.546 13.907 16.557 13.8951C16.5675 13.8831 16.5785 13.8707 16.589 13.8588C16.6 13.8469 16.6109 13.8349 16.6219 13.8235C16.6329 13.812 16.6443 13.8001 16.6558 13.7891C16.6672 13.7776 16.6787 13.7662 16.6902 13.7552C16.7016 13.7442 16.7135 13.7333 16.7255 13.7223C16.7374 13.7113 16.7493 13.7008 16.7617 13.6903C16.7742 13.6798 16.7861 13.6693 16.7985 13.6593C16.8109 13.6488 16.8233 13.6388 16.8362 13.6287C16.8491 13.6187 16.8615 13.6087 16.8749 13.5991C16.8877 13.5896 16.9006 13.5801 16.914 13.5705C16.9274 13.561 16.9402 13.5519 16.9536 13.5428C16.967 13.5338 16.9803 13.5247 16.9942 13.5161C17.0075 13.5075 17.0214 13.4989 17.0352 13.4903C17.0491 13.4817 17.0629 13.4736 17.0772 13.4655C17.0911 13.4574 17.1054 13.4493 17.1197 13.4417C17.134 13.434 17.1483 13.4264 17.1627 13.4187C17.177 13.4111 17.1918 13.4039 17.2066 13.3968C17.2214 13.3896 17.2362 13.3829 17.2509 13.3763C17.2657 13.3696 17.2805 13.3629 17.2958 13.3567C17.3111 13.3505 17.3259 13.3443 17.3412 13.3381C17.3564 13.3319 17.3717 13.3262 17.387 13.3204C17.4022 13.3147 17.418 13.3094 17.4333 13.3042C17.4485 13.2989 17.4643 13.2937 17.48 13.2889C17.4958 13.2842 17.5115 13.2794 17.5273 13.2746C17.543 13.2698 17.5593 13.2655 17.575 13.2617C17.5912 13.2574 17.607 13.2536 17.6232 13.2498C17.6394 13.246 17.6557 13.2426 17.6719 13.2393C17.6881 13.2359 17.7048 13.2326 17.7211 13.2297C17.7373 13.2269 17.754 13.224 17.7707 13.2216C17.7874 13.2192 17.8041 13.2169 17.8208 13.2145C17.8375 13.2121 17.8542 13.2102 17.8714 13.2087C17.8881 13.2068 17.9053 13.2054 17.922 13.204C17.9392 13.2025 17.9559 13.2016 17.9731 13.2006C17.9902 13.1997 18.0074 13.1992 18.0246 13.1987C18.0418 13.1982 18.059 13.1982 18.0761 13.1982H20.0907V15.2114H18.0761V19.3035L16.0645 19.3011Z" fill="white"/>
</g>
<rect x="11.2841" y="10.3009" width="11.5555" height="11.5555" rx="5.77773" stroke="white" stroke-width="0.37631"/>
<g clip-path="url(#clip1_1_620)">
<path d="M11.6211 1.30688C14.7463 1.30695 17.2793 3.84086 17.2793 6.96606C17.2792 10.0912 14.7462 12.6242 11.6211 12.6243C8.49589 12.6243 5.96197 10.0913 5.96191 6.96606C5.96191 3.84082 8.49585 1.30688 11.6211 1.30688Z" fill="#26A17B" stroke="white" stroke-width="0.37563"/>
<path d="M12.3489 5.88361V5.00675H14.3554V3.66943H8.892V5.00663H10.8986V5.88314C9.26785 5.95807 8.0415 6.2813 8.0415 6.66825C8.0415 7.05519 9.26797 7.37795 10.8987 7.45324V10.2633H12.3489V7.45252C16.1291 7.26686 16.1265 6.06951 12.3489 5.88361Z" fill="white"/>
<path d="M12.3487 7.21371C11.3715 7.29651 8.37219 7.13352 8.38186 6.59958C8.38186 6.29973 9.45739 6.04881 10.8984 5.98438V6.96433C10.9726 6.99022 12.3292 6.98951 12.3487 6.96469V5.98509C15.6789 6.14271 15.6796 7.05716 12.3487 7.21371Z" fill="#26A17B"/>
</g>
<defs>
<clipPath id="clip0_1_620">
<rect x="11.0959" y="10.1128" width="11.9318" height="11.9318" rx="5.96589" fill="white"/>
</clipPath>
<clipPath id="clip1_1_620">
<rect width="11.9318" height="11.9318" fill="white" transform="translate(5.65454 1)"/>
</clipPath>
</defs>
</svg>
