<svg width="24" height="24" viewBox="0 0 24 24" fill="none" xmlns="http://www.w3.org/2000/svg">
<path opacity="0.8" d="M4.73771 17.9285L14.4985 12.6398C14.9292 12.4064 15.2054 11.8886 15.2023 11.3191L15.1583 3.42835C15.1538 2.63788 14.6212 2 13.9657 2H4.19266C3.53158 2 2.99656 2.64833 3.00002 3.44522L3.05616 16.624C3.06032 17.6641 3.95081 18.3547 4.73771 17.9285Z" fill="url(#paint0_linear_1_655)"/>
<path opacity="0.8" d="M9.65547 21.8721L19.4162 16.5835C19.8469 16.3504 20.1231 15.832 20.12 15.2628L20.076 7.37219C20.0718 6.5817 19.5389 5.94385 18.8833 5.94385H9.11046C8.44924 5.94385 7.91428 6.59211 7.91774 7.38914L7.97392 20.5679C7.97805 21.6079 8.86854 22.2984 9.65547 21.8721Z" fill="url(#paint1_linear_1_655)"/>
<defs>
<linearGradient id="paint0_linear_1_655" x1="3" y1="-2.51672" x2="5.49637" y2="18.2578" gradientUnits="userSpaceOnUse">
<stop offset="0.0931057" stop-color="#001BFF"/>
<stop offset="0.717231" stop-color="#093EFF" stop-opacity="0.8"/>
<stop offset="0.991134" stop-color="#6284FF"/>
</linearGradient>
<linearGradient id="paint1_linear_1_655" x1="12.63" y1="24.0554" x2="10.4996" y2="2.54824" gradientUnits="userSpaceOnUse">
<stop offset="0.0566723" stop-color="#001BFF"/>
<stop offset="0.691572" stop-color="#093EFF" stop-opacity="0.8"/>
<stop offset="1" stop-color="#6284FF"/>
<stop offset="1" stop-color="#6284FF" stop-opacity="0.72"/>
</linearGradient>
</defs>
</svg>
