<svg width="24" height="24" viewBox="0 0 24 24" fill="none" xmlns="http://www.w3.org/2000/svg">
<mask id="path-1-inside-1_66_541" fill="white">
<path d="M12 1C16.9704 1 20.9998 5.09105 21 10.1377C21 15.1845 16.9706 19.2764 12 19.2764C7.02944 19.2764 3 15.1845 3 10.1377C3.00023 5.09105 7.02958 1 12 1ZM12 3.68555C8.49039 3.68555 5.64573 6.57428 5.64551 10.1377C5.64551 13.7013 8.49025 16.5908 12 16.5908C15.5097 16.5908 18.3545 13.7013 18.3545 10.1377C18.3543 6.57428 15.5096 3.68555 12 3.68555Z"/>
</mask>
<path d="M12 1C16.9704 1 20.9998 5.09105 21 10.1377C21 15.1845 16.9706 19.2764 12 19.2764C7.02944 19.2764 3 15.1845 3 10.1377C3.00023 5.09105 7.02958 1 12 1ZM12 3.68555C8.49039 3.68555 5.64573 6.57428 5.64551 10.1377C5.64551 13.7013 8.49025 16.5908 12 16.5908C15.5097 16.5908 18.3545 13.7013 18.3545 10.1377C18.3543 6.57428 15.5096 3.68555 12 3.68555Z" fill="url(#paint0_linear_66_541)"/>
<path d="M21 10.1377H21.2V10.1377L21 10.1377ZM3 10.1377L2.8 10.1377V10.1377H3ZM5.64551 10.1377L5.44551 10.1377V10.1377H5.64551ZM18.3545 10.1377H18.5545V10.1377L18.3545 10.1377ZM12 1V1.2C16.8571 1.2 20.7998 5.19863 20.8 10.1377L21 10.1377L21.2 10.1377C21.1998 4.98347 17.0837 0.8 12 0.8V1ZM21 10.1377H20.8C20.8 15.077 16.8572 19.0764 12 19.0764V19.2764V19.4764C17.0839 19.4764 21.2 15.2921 21.2 10.1377H21ZM12 19.2764V19.0764C7.14277 19.0764 3.2 15.077 3.2 10.1377H3H2.8C2.8 15.2921 6.9161 19.4764 12 19.4764V19.2764ZM3 10.1377L3.2 10.1377C3.20022 5.19863 7.14289 1.2 12 1.2V1V0.8C6.91626 0.8 2.80023 4.98347 2.8 10.1377L3 10.1377ZM12 3.68555V3.48555C8.37706 3.48555 5.44574 6.46672 5.44551 10.1377L5.64551 10.1377L5.84551 10.1377C5.84573 6.68184 8.60373 3.88555 12 3.88555V3.68555ZM5.64551 10.1377H5.44551C5.44551 13.8088 8.37689 16.7908 12 16.7908V16.5908V16.3908C8.60361 16.3908 5.84551 13.5938 5.84551 10.1377H5.64551ZM12 16.5908V16.7908C15.6231 16.7908 18.5545 13.8088 18.5545 10.1377H18.3545H18.1545C18.1545 13.5938 15.3964 16.3908 12 16.3908V16.5908ZM18.3545 10.1377L18.5545 10.1377C18.5543 6.46672 15.6229 3.48555 12 3.48555V3.68555V3.88555C15.3963 3.88555 18.1543 6.68184 18.1545 10.1377L18.3545 10.1377Z" fill="#07B3BD" mask="url(#path-1-inside-1_66_541)"/>
<path d="M5.87338 8.26002L3.32622 8.08032C3.32622 8.08032 2.7288 10.845 3.6182 13.2772C3.85662 13.9292 4.5534 15.2793 4.5534 15.2793L9.70536 22.3043C9.95774 22.6485 10.472 22.6475 10.7231 22.3024L12.4162 19.9754C12.6542 19.6482 13.003 19.4199 13.3954 19.3216C15.3098 18.8416 16.2939 18.3713 17.7379 17.1679L16.3062 15.0037C15.3071 15.96 11.6746 17.885 8.28525 15.3873C5.30502 13.1911 5.49386 10.13 5.87338 8.26002Z" fill="url(#paint1_linear_66_541)"/>
<ellipse cx="11.3397" cy="6.02257" rx="0.776758" ry="0.788679" fill="#4D4D4D"/>
<ellipse cx="11.2172" cy="9.09434" rx="0.776758" ry="0.788679" fill="#4D4D4D"/>
<ellipse cx="12.5253" cy="14.2831" rx="0.776758" ry="0.788679" fill="#4D4D4D"/>
<rect width="4.7755" height="1.381" rx="0.690498" transform="matrix(0.697289 0.71679 -0.706089 0.708123 12.8325 6.48608)" fill="#4D4D4D"/>
<rect width="4.7755" height="1.381" rx="0.690498" transform="matrix(0.697289 0.71679 -0.706089 0.708123 12.6011 9.67529)" fill="#4D4D4D"/>
<rect width="4.7755" height="1.381" rx="0.690498" transform="matrix(0.697289 0.71679 -0.706089 0.708123 8.79907 9.46777)" fill="#4D4D4D"/>
<defs>
<linearGradient id="paint0_linear_66_541" x1="16.4911" y1="2.66038" x2="9.61087" y2="16.5079" gradientUnits="userSpaceOnUse">
<stop stop-color="#1FC1CB"/>
<stop offset="0.507619" stop-color="#57E0EB"/>
<stop offset="1" stop-color="#57DFEA"/>
</linearGradient>
<linearGradient id="paint1_linear_66_541" x1="13.7314" y1="16.1925" x2="10.2906" y2="23.2289" gradientUnits="userSpaceOnUse">
<stop stop-color="#07B3BD"/>
<stop offset="0.288773" stop-color="#2CC8D3"/>
<stop offset="1" stop-color="#52DCE7"/>
</linearGradient>
</defs>
</svg>
