<svg width="24" height="24" viewBox="0 0 24 24" fill="none" xmlns="http://www.w3.org/2000/svg">
<path d="M4.36397 1C2.50445 1 1 2.5667 1 4.5009V19.3492C1 21.2819 2.50445 22.8495 4.36397 22.8495H18.6367C20.4947 22.8495 21.9998 21.282 21.9998 19.3492V19.1973C21.9372 19.1702 16.5422 16.8288 13.8 15.4568C11.95 17.8256 9.56375 19.2628 7.08619 19.2628C2.89669 19.2628 1.474 15.4478 3.45772 12.9366C3.89025 12.3891 4.62604 11.8661 5.76801 11.5733C7.55443 11.1166 10.3975 11.8584 13.0621 12.7733C13.5415 11.8546 13.9447 10.8428 14.245 9.76558H6.03341V8.90034H10.2676V7.34864H5.13922V6.48281H10.2676V4.26944C10.2676 4.26944 10.2676 3.89661 10.6307 3.89661H12.7007V6.48274H17.7706V7.34879H12.7007V8.90034H16.839C16.443 10.5883 15.8418 12.142 15.087 13.506C16.3429 13.9786 17.4703 14.427 18.3106 14.7198C21.1132 15.6955 21.8987 15.8147 22 15.8272V4.50097C22 2.56677 20.4949 1.00007 18.6369 1.00007H4.36418L4.36397 1ZM6.66684 12.8382C6.48702 12.8403 6.30636 12.8505 6.12439 12.8692C5.59977 12.924 4.61481 13.1649 4.07631 13.6605C2.46229 15.1251 3.42832 17.8025 6.69506 17.8025C8.59404 17.8025 10.4914 16.5393 11.9819 14.5167C10.0603 13.5411 8.40521 12.8172 6.66684 12.8382Z" fill="#00A1E9"/>
<rect x="1.305" y="1.305" width="20.39" height="21.4953" rx="1.695" stroke="white" stroke-width="0.61"/>
</svg>
