<svg width="24" height="24" viewBox="0 0 24 24" fill="none" xmlns="http://www.w3.org/2000/svg">
<path d="M5.30825 5.00195H10.7992C11.5657 5.00195 12.0424 5.62533 11.8636 6.39267L9.30716 17.3443C9.12675 18.109 8.35933 18.7329 7.59231 18.7329H2.10191C1.3365 18.7329 0.858703 18.109 1.03751 17.3443L3.595 6.39267C3.7738 5.62533 4.54082 5.00195 5.30825 5.00195Z" fill="#E21836"/>
<path d="M10.3426 5H16.657C17.4233 5 17.0778 5.62338 16.8975 6.39072L14.3415 17.3423C14.1621 18.107 14.2181 18.7309 13.4501 18.7309H7.1357C6.36775 18.7309 5.89249 18.107 6.0729 17.3423L8.62879 6.39072C8.81027 5.62338 9.57568 5 10.3426 5Z" fill="#00447C"/>
<path d="M16.407 5H21.8979C22.6655 5 23.1422 5.62338 22.9619 6.39072L20.4059 17.3423C20.2255 18.107 19.4576 18.7309 18.6901 18.7309H13.2017C12.4338 18.7309 11.9575 18.107 12.1373 17.3423L14.6938 6.39072C14.8726 5.62338 15.6391 5 16.407 5Z" fill="#007B84"/>
<path d="M6.74469 8.50908C6.18004 8.51483 6.01327 8.50908 5.96001 8.49653C5.93953 8.59362 5.5585 10.3474 5.55743 10.3489C5.47538 10.7037 5.41569 10.9567 5.21293 11.12C5.09783 11.2149 4.96346 11.2607 4.80767 11.2607C4.55726 11.2607 4.41138 11.1367 4.38689 10.9014L4.3822 10.8206C4.3822 10.8206 4.45849 10.3453 4.45849 10.3426C4.45849 10.3426 4.8584 8.74439 4.93 8.53312C4.93375 8.5211 4.93482 8.51483 4.93575 8.50908C4.15736 8.51589 4.01937 8.50908 4.00987 8.49653C4.00465 8.51376 3.98538 8.61285 3.98538 8.61285L3.57704 10.4142L3.54198 10.567L3.47412 11.0667C3.47412 11.2149 3.5033 11.3359 3.56138 11.4382C3.74742 11.7626 4.27808 11.8112 4.57827 11.8112C4.96506 11.8112 5.3279 11.7292 5.57308 11.5795C5.99869 11.3286 6.11004 10.9364 6.20935 10.5878L6.25538 10.409C6.25538 10.409 6.66733 8.74906 6.73733 8.53312C6.74001 8.5211 6.74108 8.51483 6.74469 8.50908ZM8.14633 9.84818C8.04702 9.84818 7.86554 9.87221 7.70252 9.95194C7.64337 9.98225 7.58742 10.0172 7.5284 10.0521L7.58167 9.86019L7.55249 9.82788C7.20679 9.89772 7.12943 9.90707 6.8101 9.95194L6.78333 9.9697C6.74626 10.2764 6.71333 10.5071 6.57588 11.11C6.52355 11.3322 6.46922 11.5566 6.41474 11.7783L6.42947 11.8065C6.7567 11.7892 6.856 11.7892 7.14041 11.7939L7.16343 11.7689C7.19956 11.5842 7.20425 11.541 7.28428 11.1669C7.32189 10.9896 7.40032 10.5999 7.439 10.4611C7.51007 10.4283 7.5802 10.396 7.64711 10.396C7.80651 10.396 7.78711 10.5347 7.78095 10.59C7.77413 10.6828 7.71604 10.986 7.65648 11.2462L7.61673 11.4142C7.58903 11.5383 7.55865 11.6589 7.53094 11.7819L7.54299 11.8065C7.86554 11.7892 7.96391 11.7892 8.23934 11.7939L8.27173 11.7689C8.32152 11.4805 8.33611 11.4033 8.42444 10.9833L8.46887 10.7903C8.5552 10.4127 8.59856 10.2212 8.53325 10.0652C8.46419 9.89038 8.2985 9.84818 8.14633 9.84818ZM9.71211 10.2436C9.54067 10.2764 9.43132 10.2983 9.32265 10.3125C9.21491 10.3297 9.10984 10.3453 8.94415 10.3683L8.93104 10.3802L8.91899 10.3897C8.90173 10.5128 8.88968 10.6192 8.8668 10.7444C8.84739 10.8738 8.81754 11.0208 8.76896 11.2321C8.73135 11.3938 8.71195 11.4501 8.69053 11.507C8.66965 11.5639 8.64664 11.6192 8.60434 11.7783L8.61425 11.793L8.62254 11.8064C8.77739 11.7991 8.87871 11.7939 8.98283 11.793C9.08682 11.7892 9.19456 11.793 9.36132 11.7939L9.37591 11.782L9.39157 11.7689C9.41566 11.6255 9.41927 11.5869 9.434 11.5169C9.44859 11.4419 9.47375 11.338 9.53544 11.0605C9.56462 10.9301 9.59714 10.8002 9.62739 10.6672C9.65884 10.5347 9.69177 10.4042 9.72308 10.2739L9.7184 10.2581L9.71211 10.2436ZM9.71576 9.71045C9.55998 9.61871 9.28655 9.64782 9.10252 9.77455C8.91903 9.89875 8.89816 10.075 9.05341 10.168C9.20652 10.2572 9.48101 10.2306 9.66343 10.1028C9.84652 9.97594 9.86941 9.80126 9.71576 9.71045ZM10.6579 11.8352C10.9731 11.8352 11.2962 11.7485 11.5394 11.4913C11.7265 11.2827 11.8123 10.9724 11.842 10.8446C11.9387 10.421 11.8634 10.2232 11.7688 10.1027C11.625 9.91911 11.371 9.86022 11.1075 9.86022C10.949 9.86022 10.5716 9.87585 10.2767 10.1471C10.065 10.3427 9.96718 10.6082 9.90815 10.8627C9.8486 11.1221 9.78007 11.5889 10.2104 11.7627C10.3431 11.8196 10.5345 11.8352 10.6579 11.8352ZM10.6333 10.8821C10.706 10.5613 10.7917 10.2921 11.0107 10.2921C11.1823 10.2921 11.1947 10.4924 11.1184 10.8143C11.1048 10.8857 11.0422 11.1513 10.9574 11.2644C10.8983 11.3479 10.8283 11.3985 10.7509 11.3985C10.7279 11.3985 10.591 11.3985 10.5888 11.1957C10.5878 11.0955 10.6083 10.9932 10.6333 10.8821ZM12.6299 11.7939L12.6545 11.769C12.6894 11.5843 12.6952 11.5409 12.7725 11.167C12.8112 10.9896 12.8912 10.5999 12.9289 10.4612C13.0001 10.4282 13.069 10.3959 13.138 10.3959C13.2964 10.3959 13.2771 10.5346 13.2708 10.5899C13.265 10.6829 13.207 10.9859 13.1463 11.2461L13.1087 11.4141C13.08 11.5383 13.0486 11.6588 13.0209 11.7819L13.033 11.8065C13.3566 11.7893 13.4512 11.7893 13.7283 11.7939L13.7617 11.769C13.8103 11.4804 13.8234 11.4032 13.9144 10.9833L13.9578 10.7902C14.0445 10.4126 14.0884 10.2212 14.0242 10.0652C13.9531 9.89042 13.7863 9.84822 13.6363 9.84822C13.5369 9.84822 13.3545 9.87212 13.1924 9.95198C13.1344 9.98229 13.0763 10.0171 13.0193 10.0521L13.069 9.86023L13.0423 9.82778C12.6968 9.89776 12.6178 9.90711 12.2989 9.95198L12.2744 9.96974C12.2357 10.2765 12.2043 10.507 12.0668 11.1101C12.0145 11.3323 11.9601 11.5566 11.9058 11.7783L11.9204 11.8065C12.2482 11.7893 12.346 11.7893 12.6299 11.7939ZM15.0075 11.8064C15.0279 11.7073 15.1487 11.12 15.1498 11.12C15.1498 11.12 15.2527 10.6891 15.259 10.6734C15.259 10.6734 15.2914 10.6286 15.3238 10.6108H15.3714C15.821 10.6108 16.3286 10.6108 16.7265 10.3188C16.9973 10.1184 17.1824 9.82264 17.265 9.46314C17.2864 9.375 17.3022 9.27017 17.3022 9.16534C17.3022 9.02766 17.2745 8.89144 17.1944 8.78501C16.9915 8.50176 16.5875 8.49656 16.1211 8.49442C16.1196 8.49442 15.8911 8.49656 15.8911 8.49656C15.2941 8.5039 15.0547 8.50176 14.9563 8.48975C14.948 8.53315 14.9323 8.61034 14.9323 8.61034C14.9323 8.61034 14.7185 9.59936 14.7185 9.60096C14.7185 9.60096 14.2067 11.7037 14.1826 11.8028C14.7039 11.7965 14.9176 11.7965 15.0075 11.8064ZM15.4038 10.0495C15.4038 10.0495 15.6312 9.06251 15.6301 9.06625L15.6375 9.01564L15.6407 8.97705L15.7316 8.98639C15.7316 8.98639 16.2006 9.02659 16.2115 9.02766C16.3966 9.0991 16.4729 9.28326 16.4197 9.52364C16.3711 9.74332 16.2283 9.92801 16.0448 10.0172C15.8937 10.0928 15.7086 10.0991 15.5179 10.0991H15.3945L15.4038 10.0495ZM16.8196 10.9004C16.7595 11.156 16.6905 11.6228 17.1186 11.7892C17.2551 11.8472 17.3774 11.8644 17.5018 11.8582C17.6331 11.8511 17.7547 11.7854 17.8674 11.6908C17.8572 11.7297 17.8471 11.7685 17.8369 11.8075L17.8563 11.8325C18.1643 11.8196 18.2598 11.8196 18.5935 11.8221L18.6237 11.7991C18.6724 11.5133 18.7184 11.2358 18.845 10.6891C18.9067 10.4272 18.9682 10.1679 19.0315 9.90708L19.0216 9.87837C18.6771 9.94207 18.5851 9.95569 18.2537 10.0026L18.2285 10.023C18.2252 10.0496 18.2217 10.0751 18.2185 10.1006C18.1669 10.0175 18.0923 9.94661 17.977 9.90241C17.8297 9.84458 17.4836 9.9191 17.1861 10.1894C16.977 10.3824 16.8766 10.6468 16.8196 10.9004ZM17.5431 10.916C17.6169 10.601 17.7016 10.3344 17.9211 10.3344C18.0599 10.3344 18.133 10.4622 18.1181 10.6802C18.1063 10.7345 18.0936 10.7918 18.0785 10.8566C18.0565 10.9502 18.0327 11.043 18.0096 11.1359C17.986 11.1995 17.9586 11.2595 17.9284 11.2994C17.872 11.3793 17.7376 11.4288 17.6602 11.4288C17.6383 11.4288 17.5028 11.4288 17.4982 11.2296C17.4971 11.1303 17.5176 11.0282 17.5431 10.916ZM21.3214 9.87582L21.2948 9.8455C20.9539 9.91441 20.8922 9.92536 20.579 9.96756L20.556 9.99053C20.5549 9.99427 20.554 10 20.5524 10.0052L20.5513 10C20.3182 10.5367 20.325 10.4209 20.1352 10.8435C20.1341 10.8242 20.1341 10.8122 20.1331 10.7918L20.0856 9.87582L20.0557 9.8455C19.6986 9.91441 19.6902 9.92536 19.3604 9.96756L19.3347 9.99053C19.3311 10.0015 19.3311 10.0135 19.329 10.0266L19.3311 10.0313C19.3723 10.2415 19.3624 10.1946 19.4038 10.5263C19.4231 10.6891 19.4488 10.8528 19.468 11.0136C19.5006 11.2827 19.5188 11.4152 19.5585 11.8258C19.3358 12.1925 19.2831 12.3313 19.0687 12.6531L19.0701 12.6563L18.9192 12.8946C18.9019 12.9197 18.8863 12.9369 18.8643 12.9442C18.8402 12.9561 18.8089 12.9583 18.7654 12.9583H18.6817L18.5574 13.3709L18.984 13.3783C19.2344 13.3772 19.3918 13.2603 19.4765 13.1033L19.7447 12.6447H19.7404L19.7686 12.6124C19.9491 12.2248 21.3214 9.87582 21.3214 9.87582ZM16.8196 15.2953H16.6386L17.3084 13.0851H17.5305L17.6011 12.8574L17.6079 13.1106C17.5996 13.2671 17.723 13.4058 18.0471 13.3829H18.422L18.551 12.9573H18.41C18.3289 12.9573 18.2913 12.9368 18.296 12.893L18.2891 12.6354H17.5949V12.6368C17.3705 12.6414 16.7002 12.6583 16.5645 12.6943C16.4003 12.7365 16.2272 12.8607 16.2272 12.8607L16.2952 12.6328H15.6458L15.5105 13.0851L14.8319 15.3291H14.7002L14.571 15.7517H15.8644L15.821 15.8925H16.4584L16.5007 15.7517H16.6795L16.8196 15.2953ZM16.2889 13.5342C16.1849 13.5629 15.9914 13.65 15.9914 13.65L16.1635 13.0851H16.6795L16.555 13.4966C16.555 13.4966 16.3956 13.506 16.2889 13.5342ZM16.2988 14.3412C16.2988 14.3412 16.1368 14.3615 16.0301 14.3855C15.925 14.4173 15.728 14.5175 15.728 14.5175L15.9058 13.9296H16.4244L16.2988 14.3412ZM16.0097 15.3006H15.4922L15.6422 14.8044H16.1582L16.0097 15.3006ZM17.2561 13.9296H18.0021L17.8949 14.276H17.139L17.0255 14.6547H17.6869L17.1861 15.3584C17.1511 15.4101 17.1196 15.4284 17.0847 15.4429C17.0496 15.4607 17.0036 15.4815 16.9503 15.4815H16.7668L16.6407 15.8963H17.1207C17.3701 15.8963 17.5175 15.783 17.6263 15.6344L17.9697 15.1654L18.0435 15.6416C18.0591 15.7308 18.1234 15.783 18.1669 15.8033C18.2149 15.8274 18.2646 15.8686 18.3347 15.8748C18.4099 15.878 18.4643 15.8805 18.5004 15.8805H18.7362L18.8778 15.4163H18.7848C18.7314 15.4163 18.6395 15.4074 18.6238 15.3907C18.6081 15.3704 18.6081 15.3391 18.5997 15.2916L18.5249 14.8143H18.2185L18.3529 14.6547H19.1074L19.2234 14.276H18.5249L18.6337 13.9296H19.3301L19.4592 13.5024H17.3831L17.2561 13.9296ZM10.9553 15.397L11.1294 14.819H11.8451L11.9758 14.3892H11.2595L11.3689 14.0334H12.0688L12.1985 13.6171H10.4471L10.3201 14.0334H10.718L10.6119 14.3892H10.2129L10.0807 14.8264H10.4785L10.2464 15.591C10.2151 15.6923 10.2611 15.7309 10.2903 15.7779C10.3201 15.8237 10.3504 15.854 10.4184 15.8712C10.4885 15.8868 10.5365 15.8962 10.6019 15.8962H11.4086L11.5524 15.42L11.1948 15.469C11.1257 15.469 10.9344 15.4607 10.9553 15.397ZM11.0374 12.6302L10.8561 12.9572C10.8172 13.0286 10.7823 13.073 10.7509 13.0934C10.7232 13.1106 10.6683 13.1179 10.5888 13.1179H10.4942L10.3677 13.5362H10.6819C10.833 13.5362 10.9491 13.481 11.0045 13.4533C11.064 13.4215 11.0797 13.4397 11.1257 13.3954L11.2319 13.3036H12.2132L12.3434 12.868H11.6251L11.7505 12.6302H11.0374ZM12.4861 15.4054C12.4694 15.3814 12.4814 15.339 12.507 15.2509L12.7752 14.3651H13.7293C13.8684 14.3631 13.9688 14.3615 14.0341 14.3568C14.1042 14.3495 14.1805 14.3245 14.2636 14.2796C14.3494 14.2326 14.3933 14.1831 14.4304 14.1262C14.4717 14.0694 14.5381 13.9452 14.5951 13.7537L14.9322 12.6328L13.9421 12.6385C13.9421 12.6385 13.6372 12.6834 13.503 12.7329C13.3676 12.7882 13.174 12.9426 13.174 12.9426L13.2634 12.6353H12.6518L11.7955 15.469C11.7651 15.579 11.7448 15.6589 11.7401 15.7068C11.7385 15.7585 11.8054 15.8096 11.8488 15.8482C11.9 15.8868 11.9758 15.8806 12.0485 15.8868C12.1249 15.8926 12.2336 15.8962 12.3836 15.8962H12.8536L12.9979 15.4101L12.5771 15.4497C12.5321 15.4497 12.4996 15.4257 12.4861 15.4054ZM12.9482 13.7668H13.9504L13.8867 13.9661C13.8777 13.9708 13.8563 13.9562 13.7543 13.9682H12.8865L12.9482 13.7668ZM13.149 13.0986H14.1596L14.0869 13.3386C14.0869 13.3386 13.6106 13.3339 13.5343 13.3479C13.1987 13.4059 13.0026 13.5848 13.0026 13.5848L13.149 13.0986ZM13.9091 14.6333C13.9008 14.6631 13.8877 14.6812 13.8694 14.6949C13.849 14.708 13.8161 14.7126 13.767 14.7126H13.6242L13.6326 14.47H13.0387L13.0146 15.6562C13.0136 15.7418 13.0219 15.7914 13.0847 15.8311C13.1475 15.8806 13.3409 15.8869 13.6012 15.8869H13.9734L14.1078 15.4428L13.7837 15.4606L13.676 15.4669C13.6613 15.4606 13.6472 15.4549 13.6316 15.4392C13.6179 15.4257 13.5949 15.434 13.5986 15.3484L13.6012 15.0443L13.941 15.0303C14.1245 15.0303 14.2029 14.9708 14.2698 14.914C14.3337 14.8597 14.3546 14.7972 14.3786 14.7126L14.4357 14.4434H13.9687L13.9091 14.6333Z" fill="#FEFEFE"/>
</svg>
