<svg width="24" height="24" viewBox="0 0 24 24" fill="none" xmlns="http://www.w3.org/2000/svg">
<g clip-path="url(#clip0_18_2460)">
<path d="M20.7272 12C20.7272 16.8199 16.8199 20.7272 12 20.7272C9.45909 20.7272 7.17184 19.6415 5.57706 17.9085C5.15815 17.4536 4.78733 16.9539 4.47173 16.4178C3.70978 15.1218 3.27271 13.6119 3.27271 12C3.27271 7.18003 7.18003 3.27271 12 3.27271C13.6122 3.27271 15.1222 3.70978 16.4178 4.47208C16.9539 4.78733 17.4533 5.15815 17.9082 5.57742C19.6411 7.17148 20.7272 9.45909 20.7272 12Z" fill="#B0B0B0"/>
<path d="M20.7272 12C20.7272 16.7113 16.9944 20.5506 12.3248 20.7212C7.65514 20.5506 3.92236 16.7113 3.92236 12C3.92236 7.28872 7.65514 3.44944 12.3248 3.27881C16.9944 3.44944 20.7272 7.28872 20.7272 12Z" fill="#D6D6D6"/>
<path d="M17.9081 5.5775L5.57702 17.9086C5.15811 17.4537 4.78729 16.9539 4.47168 16.4178L16.4177 4.47217C16.9538 4.78742 17.4532 5.15824 17.9081 5.5775Z" fill="#E6E6E6"/>
<path d="M20.1252 8.80932L8.80897 20.1256C8.00784 19.8107 7.26442 19.3807 6.59937 18.856L18.856 6.59937C19.3807 7.26442 19.8107 8.00784 20.1252 8.80932Z" fill="#E6E6E6"/>
<path d="M18.7815 11.9999C18.7815 15.7451 15.7451 18.7815 11.9999 18.7815C10.6954 18.7815 9.47717 18.4132 8.44308 17.7748C7.99247 17.497 7.57712 17.1675 7.20452 16.7949C6.93059 16.5213 6.67981 16.2239 6.45575 15.9065C6.14727 15.4694 5.88902 14.9942 5.68989 14.4895C5.39494 13.7432 5.22895 12.9317 5.21897 12.0832C5.21826 12.0555 5.21826 12.0277 5.21826 11.9999C5.21826 8.25464 8.25428 5.21826 11.9999 5.21826C12.0277 5.21826 12.0558 5.21826 12.0836 5.21897C12.9321 5.22895 13.7432 5.3953 14.4895 5.68989C14.9942 5.88937 15.4694 6.14727 15.9065 6.45575C16.2239 6.68017 16.521 6.93059 16.7949 7.20452C17.1675 7.57676 17.497 7.99247 17.7748 8.44308C18.4132 9.47717 18.7815 10.6954 18.7815 11.9999Z" fill="#A8ABB0"/>
<path d="M16.7949 7.20452L7.20452 16.7949C6.93059 16.5213 6.67981 16.2239 6.45575 15.9065C6.14727 15.4694 5.88902 14.9942 5.68989 14.4895C5.39494 13.7432 5.22895 12.9317 5.21897 12.0832C5.21826 12.0555 5.21826 12.0277 5.21826 11.9999C5.21826 8.25464 8.25428 5.21826 11.9999 5.21826C12.0277 5.21826 12.0558 5.21826 12.0836 5.21897C12.9321 5.22895 13.7432 5.3953 14.4895 5.68989C14.9942 5.88937 15.4694 6.14727 15.9065 6.45575C16.2239 6.68017 16.521 6.93059 16.7949 7.20452Z" fill="#C1C1C1"/>
<path d="M18.7815 11.9999C18.7815 15.7451 15.7451 18.7815 11.9999 18.7815C11.8713 18.7815 11.7438 18.778 11.6169 18.7708C15.1841 18.5724 18.0153 15.6165 18.0153 11.9999C18.0153 8.38323 15.1841 5.42736 11.6169 5.22895C11.7438 5.22182 11.8713 5.21826 11.9999 5.21826C15.7451 5.21826 18.7815 8.25464 18.7815 11.9999Z" fill="#A8ABB0"/>
<path d="M7.75812 10.5201C7.59162 10.8757 7.48584 11.2483 7.48584 11.6208C7.48584 12.0728 7.59008 12.5075 7.75449 12.9119C8.51507 14.7828 10.9477 14.8028 12.6603 13.7324L15.4039 12.0177C15.6899 11.8389 15.6802 11.4191 15.3862 11.2537L12.5969 9.68467C10.9083 8.73486 8.57955 8.76547 7.75812 10.5201Z" fill="#A8ABB0"/>
<path d="M11.2051 12.8864C11.0651 13.1339 10.9741 13.3968 10.9741 13.6618C10.9741 14.0362 11.0866 14.3863 11.2515 14.6985C11.8119 15.759 13.2166 15.7665 14.2683 15.1898L16.0919 14.1898C16.2841 14.0844 16.2958 13.8127 16.1135 13.6911L14.4396 12.5752C13.374 11.8648 11.8354 11.7715 11.2051 12.8864Z" fill="#A8ABB0"/>
<path d="M8.38345 10.3487C8.22884 10.679 8.13062 11.0249 8.13062 11.3709C8.13062 11.7906 8.22741 12.1942 8.38008 12.5697C9.08633 14.307 11.3452 14.3256 12.9355 13.3316L15.4831 11.7394C15.7487 11.5734 15.7397 11.1835 15.4667 11.03L12.8766 9.57303C11.3086 8.69107 9.14621 8.71949 8.38345 10.3487Z" fill="url(#paint0_linear_18_2460)"/>
<path d="M11.5841 12.5459C11.4541 12.7758 11.3696 13.0199 11.3696 13.266C11.3696 13.6137 11.474 13.9388 11.6272 14.2286C12.1476 15.2133 13.452 15.2204 14.4285 14.6848L16.1219 13.7562C16.3003 13.6584 16.3112 13.4061 16.1419 13.2932L14.5876 12.2569C13.5981 11.5973 12.1694 11.5107 11.5841 12.5459Z" fill="url(#paint1_linear_18_2460)"/>
</g>
<defs>
<linearGradient id="paint0_linear_18_2460" x1="12.1017" y1="8.12183" x2="12.1017" y2="14.9809" gradientUnits="userSpaceOnUse">
<stop stop-color="#A8ABB0"/>
<stop offset="1" stop-color="white" stop-opacity="0.42"/>
</linearGradient>
<linearGradient id="paint1_linear_18_2460" x1="13.8465" y1="11.1702" x2="13.4655" y2="18.4103" gradientUnits="userSpaceOnUse">
<stop stop-color="#A8ABB0"/>
<stop offset="1" stop-color="white" stop-opacity="0.42"/>
</linearGradient>
<clipPath id="clip0_18_2460">
<rect width="17.4545" height="17.4545" fill="white" transform="translate(3.27271 3.27271)"/>
</clipPath>
</defs>
</svg>
