<svg width="24" height="24" viewBox="0 0 24 24" fill="none" xmlns="http://www.w3.org/2000/svg">
<g clip-path="url(#clip0_18_2459)">
<path d="M20.7272 12C20.7272 16.8199 16.8199 20.7272 12 20.7272C9.45909 20.7272 7.17184 19.6415 5.57706 17.9085C5.15815 17.4536 4.78733 16.9539 4.47173 16.4178C3.70978 15.1218 3.27271 13.6119 3.27271 12C3.27271 7.18003 7.18003 3.27271 12 3.27271C13.6122 3.27271 15.1222 3.70978 16.4178 4.47208C16.9539 4.78733 17.4533 5.15815 17.9082 5.57742C19.6411 7.17148 20.7272 9.45909 20.7272 12Z" fill="#F0CD00"/>
<path d="M20.7272 12C20.7272 16.7113 16.9944 20.5506 12.3248 20.7212C7.65514 20.5506 3.92236 16.7113 3.92236 12C3.92236 7.28872 7.65514 3.44944 12.3248 3.27881C16.9944 3.44944 20.7272 7.28872 20.7272 12Z" fill="#FFDE50"/>
<path d="M17.9081 5.5775L5.57702 17.9086C5.15811 17.4537 4.78729 16.9539 4.47168 16.4178L16.4177 4.47217C16.9538 4.78742 17.4532 5.15824 17.9081 5.5775Z" fill="#FFEA94"/>
<path d="M20.1252 8.80932L8.80897 20.1256C8.00784 19.8107 7.26442 19.3807 6.59937 18.856L18.856 6.59937C19.3807 7.26442 19.8107 8.00784 20.1252 8.80932Z" fill="#FFEA94"/>
<path d="M18.7815 11.9999C18.7815 15.7451 15.7451 18.7815 11.9999 18.7815C10.6954 18.7815 9.47717 18.4132 8.44308 17.7748C7.99247 17.497 7.57712 17.1675 7.20452 16.7949C6.93059 16.5213 6.67981 16.2239 6.45575 15.9065C6.14727 15.4694 5.88902 14.9942 5.68989 14.4895C5.39494 13.7432 5.22895 12.9317 5.21897 12.0832C5.21826 12.0555 5.21826 12.0277 5.21826 11.9999C5.21826 8.25464 8.25428 5.21826 11.9999 5.21826C12.0277 5.21826 12.0558 5.21826 12.0836 5.21897C12.9321 5.22895 13.7432 5.3953 14.4895 5.68989C14.9942 5.88937 15.4694 6.14727 15.9065 6.45575C16.2239 6.68017 16.521 6.93059 16.7949 7.20452C17.1675 7.57676 17.497 7.99247 17.7748 8.44308C18.4132 9.47717 18.7815 10.6954 18.7815 11.9999Z" fill="#FAA300"/>
<path d="M16.7949 7.20452L7.20452 16.7949C6.93059 16.5213 6.67981 16.2239 6.45575 15.9065C6.14727 15.4694 5.88902 14.9942 5.68989 14.4895C5.39494 13.7432 5.22895 12.9317 5.21897 12.0832C5.21826 12.0555 5.21826 12.0277 5.21826 11.9999C5.21826 8.25464 8.25428 5.21826 11.9999 5.21826C12.0277 5.21826 12.0558 5.21826 12.0836 5.21897C12.9321 5.22895 13.7432 5.3953 14.4895 5.68989C14.9942 5.88937 15.4694 6.14727 15.9065 6.45575C16.2239 6.68017 16.521 6.93059 16.7949 7.20452Z" fill="#FFBD00"/>
<path d="M18.7815 11.9999C18.7815 15.7451 15.7451 18.7815 11.9999 18.7815C11.8713 18.7815 11.7438 18.7779 11.6169 18.7708C15.1841 18.5724 18.0153 15.6165 18.0153 11.9999C18.0153 8.38323 15.1841 5.42736 11.6169 5.22895C11.7438 5.22182 11.8713 5.21826 11.9999 5.21826C15.7451 5.21826 18.7815 8.25464 18.7815 11.9999Z" fill="#F68E00"/>
<path d="M7.94475 10.168C7.67461 10.6254 7.48584 11.1231 7.48584 11.6208C7.48584 12.2181 7.66785 12.785 7.93018 13.292C8.74232 14.8614 10.8066 14.891 12.3051 13.9544L15.4832 11.9681C15.7335 11.8116 15.7251 11.4443 15.4678 11.2996L12.2496 9.48931C10.7721 8.65823 8.80679 8.7084 7.94475 10.168Z" fill="#F68E00"/>
<path d="M11.3462 12.6636C11.1293 12.9732 10.9741 13.3156 10.9741 13.6618C10.9741 14.1231 11.1448 14.5476 11.3741 14.9095C11.9357 15.7961 13.1341 15.8118 14.0543 15.3072L16.1447 14.1608C16.3128 14.0686 16.3231 13.8309 16.1636 13.7245L14.2201 12.4289C13.2877 11.8073 11.9893 11.7459 11.3462 12.6636Z" fill="#F68E00"/>
<path d="M8.55675 10.0219C8.3059 10.4466 8.13062 10.9087 8.13062 11.3709C8.13062 11.9255 8.29962 12.4519 8.54322 12.9227C9.29735 14.38 11.2142 14.4075 12.6056 13.5378L15.5568 11.6933C15.7892 11.5481 15.7813 11.207 15.5424 11.0726L12.5541 9.39163C11.1821 8.61992 9.35721 8.6665 8.55675 10.0219Z" fill="url(#paint0_linear_18_2459)"/>
<path d="M11.7152 12.3391C11.5138 12.6265 11.3696 12.9445 11.3696 13.266C11.3696 13.6944 11.5281 14.0884 11.741 14.4246C12.2625 15.2479 13.3753 15.2624 14.2298 14.7938L16.1709 13.7293C16.327 13.6437 16.3366 13.423 16.1884 13.3242L14.3838 12.1211C13.518 11.5439 12.3123 11.4869 11.7152 12.3391Z" fill="url(#paint1_linear_18_2459)"/>
</g>
<defs>
<linearGradient id="paint0_linear_18_2459" x1="12.1017" y1="8.12183" x2="12.1017" y2="14.9809" gradientUnits="userSpaceOnUse">
<stop stop-color="#FFEA94"/>
<stop offset="1" stop-color="white" stop-opacity="0.42"/>
</linearGradient>
<linearGradient id="paint1_linear_18_2459" x1="13.8465" y1="11.1702" x2="13.4655" y2="18.4103" gradientUnits="userSpaceOnUse">
<stop stop-color="#FFEA94"/>
<stop offset="1" stop-color="white" stop-opacity="0.42"/>
</linearGradient>
<clipPath id="clip0_18_2459">
<rect width="17.4545" height="17.4545" fill="white" transform="translate(3.27271 3.27271)"/>
</clipPath>
</defs>
</svg>
