<svg width="24" height="24" viewBox="0 0 24 24" fill="none" xmlns="http://www.w3.org/2000/svg">
<g clip-path="url(#clip0_22_567)">
<path d="M20.7272 12C20.7272 16.8199 16.8199 20.7272 12 20.7272C9.45909 20.7272 7.17184 19.6415 5.57706 17.9085C5.15815 17.4536 4.78733 16.9539 4.47173 16.4178C3.70978 15.1218 3.27271 13.6119 3.27271 12C3.27271 7.18003 7.18003 3.27271 12 3.27271C13.6122 3.27271 15.1222 3.70978 16.4178 4.47208C16.9539 4.78733 17.4533 5.15815 17.9082 5.57742C19.6411 7.17148 20.7272 9.45909 20.7272 12Z" fill="#F0CD00"/>
<path d="M20.7272 12C20.7272 16.7113 16.9944 20.5506 12.3248 20.7212C7.65514 20.5506 3.92236 16.7113 3.92236 12C3.92236 7.28872 7.65514 3.44944 12.3248 3.27881C16.9944 3.44944 20.7272 7.28872 20.7272 12Z" fill="#FFDE50"/>
<path d="M17.9081 5.5775L5.57702 17.9086C5.15811 17.4537 4.78729 16.9539 4.47168 16.4178L16.4177 4.47217C16.9538 4.78742 17.4532 5.15824 17.9081 5.5775Z" fill="#FFEA94"/>
<path d="M20.1252 8.80932L8.80897 20.1256C8.00784 19.8107 7.26442 19.3807 6.59937 18.856L18.856 6.59937C19.3807 7.26442 19.8107 8.00784 20.1252 8.80932Z" fill="#FFEA94"/>
<path d="M18.7815 11.9999C18.7815 15.7451 15.7451 18.7815 11.9999 18.7815C10.6954 18.7815 9.47717 18.4132 8.44308 17.7748C7.99247 17.497 7.57712 17.1675 7.20452 16.7949C6.93059 16.5213 6.67981 16.2239 6.45575 15.9065C6.14727 15.4694 5.88902 14.9942 5.68989 14.4895C5.39494 13.7432 5.22895 12.9317 5.21897 12.0832C5.21826 12.0555 5.21826 12.0277 5.21826 11.9999C5.21826 8.25464 8.25428 5.21826 11.9999 5.21826C12.0277 5.21826 12.0558 5.21826 12.0836 5.21897C12.9321 5.22895 13.7432 5.3953 14.4895 5.68989C14.9942 5.88937 15.4694 6.14727 15.9065 6.45575C16.2239 6.68017 16.521 6.93059 16.7949 7.20452C17.1675 7.57676 17.497 7.99247 17.7748 8.44308C18.4132 9.47717 18.7815 10.6954 18.7815 11.9999Z" fill="#FAA300"/>
<path d="M16.7949 7.20452L7.20452 16.7949C6.93059 16.5213 6.67981 16.2239 6.45575 15.9065C6.14727 15.4694 5.88902 14.9942 5.68989 14.4895C5.39494 13.7432 5.22895 12.9317 5.21897 12.0832C5.21826 12.0555 5.21826 12.0277 5.21826 11.9999C5.21826 8.25464 8.25428 5.21826 11.9999 5.21826C12.0277 5.21826 12.0558 5.21826 12.0836 5.21897C12.9321 5.22895 13.7432 5.3953 14.4895 5.68989C14.9942 5.88937 15.4694 6.14727 15.9065 6.45575C16.2239 6.68017 16.521 6.93059 16.7949 7.20452Z" fill="#FFBD00"/>
<path d="M18.7815 11.9999C18.7815 15.7451 15.7451 18.7815 11.9999 18.7815C11.8713 18.7815 11.7438 18.7779 11.6169 18.7708C15.1841 18.5724 18.0153 15.6165 18.0153 11.9999C18.0153 8.38323 15.1841 5.42736 11.6169 5.22895C11.7438 5.22182 11.8713 5.21826 11.9999 5.21826C15.7451 5.21826 18.7815 8.25464 18.7815 11.9999Z" fill="#F68E00"/>
<mask id="path-8-inside-1_22_567" fill="white">
<path d="M11.4009 8.09521C13.4801 8.09521 15.1655 9.78272 15.1655 11.8638C15.1653 13.9446 13.4799 15.6313 11.4009 15.6313C9.32188 15.6313 7.63649 13.9446 7.63623 11.8638C7.63623 9.78275 9.32171 8.09525 11.4009 8.09521ZM11.4009 9.20264C9.93278 9.20268 8.74268 10.3944 8.74268 11.8638C8.74294 13.333 9.93294 14.5239 11.4009 14.5239C12.8689 14.5239 14.0588 13.333 14.0591 11.8638C14.0591 10.3943 12.869 9.20264 11.4009 9.20264Z"/>
</mask>
<path d="M11.4009 8.09521C13.4801 8.09521 15.1655 9.78272 15.1655 11.8638C15.1653 13.9446 13.4799 15.6313 11.4009 15.6313C9.32188 15.6313 7.63649 13.9446 7.63623 11.8638C7.63623 9.78275 9.32171 8.09525 11.4009 8.09521ZM11.4009 9.20264C9.93278 9.20268 8.74268 10.3944 8.74268 11.8638C8.74294 13.333 9.93294 14.5239 11.4009 14.5239C12.8689 14.5239 14.0588 13.333 14.0591 11.8638C14.0591 10.3943 12.869 9.20264 11.4009 9.20264Z" fill="#F68E00"/>
<path d="M11.4009 8.09521V7.87602H11.4009L11.4009 8.09521ZM15.1655 11.8638L15.3847 11.8638V11.8638H15.1655ZM11.4009 15.6313L11.4009 15.8505H11.4009V15.6313ZM7.63623 11.8638H7.41704V11.8638L7.63623 11.8638ZM11.4009 9.20264V8.98344L11.4009 8.98344L11.4009 9.20264ZM8.74268 11.8638H8.52348L8.52348 11.8638L8.74268 11.8638ZM11.4009 14.5239L11.4009 14.7431H11.4009V14.5239ZM14.0591 11.8638L14.2783 11.8638V11.8638H14.0591ZM11.4009 8.09521V8.31441C13.3588 8.31441 14.9463 9.90355 14.9463 11.8638H15.1655H15.3847C15.3847 9.66189 13.6014 7.87602 11.4009 7.87602V8.09521ZM15.1655 11.8638L14.9463 11.8637C14.9461 13.8237 13.3587 15.4122 11.4009 15.4122V15.6313V15.8505C13.6012 15.8505 15.3844 14.0655 15.3847 11.8638L15.1655 11.8638ZM11.4009 15.6313L11.4009 15.4122C9.44311 15.4121 7.85567 13.8237 7.85542 11.8637L7.63623 11.8638L7.41704 11.8638C7.41731 14.0655 9.20064 15.8505 11.4009 15.8505L11.4009 15.6313ZM7.63623 11.8638H7.85542C7.85542 9.90358 9.44299 8.31445 11.4009 8.31441L11.4009 8.09521L11.4009 7.87602C9.20043 7.87606 7.41704 9.66191 7.41704 11.8638H7.63623ZM11.4009 9.20264L11.4009 8.98344C9.81148 8.98349 8.52348 10.2735 8.52348 11.8638H8.74268H8.96187C8.96187 10.5152 10.0541 9.42187 11.4009 9.42183L11.4009 9.20264ZM8.74268 11.8638L8.52348 11.8638C8.52376 13.4539 9.81171 14.7431 11.4009 14.7431L11.4009 14.5239L11.4009 14.3047C10.0542 14.3047 8.96211 13.2121 8.96187 11.8637L8.74268 11.8638ZM11.4009 14.5239V14.7431C12.9901 14.7431 14.278 13.4539 14.2783 11.8638L14.0591 11.8638L13.8399 11.8637C13.8396 13.2121 12.7476 14.3047 11.4009 14.3047V14.5239ZM14.0591 11.8638H14.2783C14.2783 10.2735 12.9903 8.98344 11.4009 8.98344V9.20264V9.42183C12.7477 9.42183 13.8399 10.5151 13.8399 11.8638H14.0591Z" fill="#F68E00" mask="url(#path-8-inside-1_22_567)"/>
<path d="M8.82169 11.0794L7.77274 11.0146C7.77274 11.0146 7.5352 12.5835 7.89488 13.1576C8.0495 13.4043 8.28607 13.9831 8.28607 13.9831L10.5625 17.0429C10.6083 17.1045 10.7006 17.1044 10.7462 17.0426L11.6623 15.8014C11.7056 15.7427 11.7689 15.7015 11.84 15.6848C12.738 15.4737 13.1618 15.2871 13.8012 14.7619L13.2023 13.8695C13.0108 14.1834 11.3343 15.0283 9.84712 14.0277C8.55389 13.1576 8.62771 11.367 8.82169 11.0794Z" fill="#F68E00"/>
<ellipse cx="11.9999" cy="11.2728" rx="2.90909" ry="3.63636" fill="#F68E00"/>
<mask id="path-12-inside-2_22_567" fill="white">
<path d="M11.8716 7.63623C13.9508 7.63623 15.6362 9.32374 15.6362 11.4048C15.636 13.4856 13.9506 15.1724 11.8716 15.1724C9.79258 15.1723 8.10719 13.4856 8.10693 11.4048C8.10693 9.32376 9.79242 7.63627 11.8716 7.63623ZM11.8716 8.74365C10.4035 8.74369 9.21338 9.93537 9.21338 11.4048C9.21364 12.874 10.4036 14.0649 11.8716 14.0649C13.3396 14.0649 14.5295 12.874 14.5298 11.4048C14.5298 9.93534 13.3397 8.74365 11.8716 8.74365Z"/>
</mask>
<path d="M11.8716 7.63623C13.9508 7.63623 15.6362 9.32374 15.6362 11.4048C15.636 13.4856 13.9506 15.1724 11.8716 15.1724C9.79258 15.1723 8.10719 13.4856 8.10693 11.4048C8.10693 9.32376 9.79242 7.63627 11.8716 7.63623ZM11.8716 8.74365C10.4035 8.74369 9.21338 9.93537 9.21338 11.4048C9.21364 12.874 10.4036 14.0649 11.8716 14.0649C13.3396 14.0649 14.5295 12.874 14.5298 11.4048C14.5298 9.93534 13.3397 8.74365 11.8716 8.74365Z" fill="url(#paint0_linear_22_567)"/>
<path d="M11.8716 7.63623V7.41704H11.8716L11.8716 7.63623ZM15.6362 11.4048L15.8554 11.4048V11.4048H15.6362ZM11.8716 15.1724L11.8716 15.3916H11.8716V15.1724ZM8.10693 11.4048H7.88774V11.4048L8.10693 11.4048ZM11.8716 8.74365V8.52446L11.8716 8.52446L11.8716 8.74365ZM9.21338 11.4048H8.99418L8.99418 11.4048L9.21338 11.4048ZM11.8716 14.0649L11.8716 14.2841H11.8716V14.0649ZM14.5298 11.4048L14.749 11.4048V11.4048H14.5298ZM11.8716 7.63623V7.85542C13.8295 7.85542 15.417 9.44457 15.417 11.4048H15.6362H15.8554C15.8554 9.20291 14.0721 7.41704 11.8716 7.41704V7.63623ZM15.6362 11.4048L15.417 11.4048C15.4168 13.3647 13.8294 14.9532 11.8716 14.9532V15.1724V15.3916C14.0719 15.3916 15.8551 13.6065 15.8554 11.4048L15.6362 11.4048ZM11.8716 15.1724L11.8716 14.9532C9.91381 14.9531 8.32637 13.3647 8.32613 11.4048L8.10693 11.4048L7.88774 11.4048C7.88802 13.6065 9.67134 15.3915 11.8716 15.3916L11.8716 15.1724ZM8.10693 11.4048H8.32613C8.32613 9.4446 9.9137 7.85546 11.8716 7.85542L11.8716 7.63623L11.8716 7.41704C9.67114 7.41708 7.88774 9.20293 7.88774 11.4048H8.10693ZM11.8716 8.74365L11.8716 8.52446C10.2822 8.5245 8.99418 9.81455 8.99418 11.4048H9.21338H9.43257C9.43257 10.0562 10.5248 8.96288 11.8716 8.96285L11.8716 8.74365ZM9.21338 11.4048L8.99418 11.4048C8.99447 12.9949 10.2824 14.2841 11.8716 14.2841L11.8716 14.0649L11.8716 13.8457C10.5249 13.8457 9.43281 12.7531 9.43257 11.4047L9.21338 11.4048ZM11.8716 14.0649V14.2841C13.4608 14.2841 14.7487 12.9949 14.749 11.4048L14.5298 11.4048L14.3106 11.4047C14.3104 12.7531 13.2183 13.8457 11.8716 13.8457V14.0649ZM14.5298 11.4048H14.749C14.749 9.81453 13.461 8.52446 11.8716 8.52446V8.74365V8.96285C13.2184 8.96285 14.3106 10.0562 14.3106 11.4048H14.5298Z" fill="url(#paint1_linear_22_567)" mask="url(#path-12-inside-2_22_567)"/>
<path d="M9.29239 10.6204L8.24345 10.5557C8.24345 10.5557 8.0059 12.1245 8.36558 12.6986C8.52021 12.9454 8.75678 13.5241 8.75678 13.5241L11.0332 16.584C11.079 16.6455 11.1713 16.6454 11.2169 16.5836L12.133 15.3424C12.1763 15.2837 12.2396 15.2425 12.3107 15.2258C13.2087 15.0147 13.6325 14.8282 14.2719 14.3029L13.673 13.4105C13.4815 13.7244 11.805 14.5693 10.3178 13.5687C9.02459 12.6986 9.09841 10.908 9.29239 10.6204Z" fill="url(#paint2_linear_22_567)"/>
<ellipse cx="11.5954" cy="9.70729" rx="0.32492" ry="0.325209" fill="#FFEA94"/>
<ellipse cx="11.5442" cy="10.9739" rx="0.32492" ry="0.325209" fill="#FFEA94"/>
<ellipse cx="12.0913" cy="13.1135" rx="0.32492" ry="0.325209" fill="#FFEA94"/>
<rect width="1.98304" height="0.573564" rx="0.286782" transform="matrix(0.702409 0.711773 -0.711148 0.703042 12.2197 9.89844)" fill="#FFEA94"/>
<rect width="1.98304" height="0.573564" rx="0.286782" transform="matrix(0.702409 0.711773 -0.711148 0.703042 12.123 11.2136)" fill="#FFEA94"/>
<rect width="1.98304" height="0.573564" rx="0.286782" transform="matrix(0.702409 0.711773 -0.711148 0.703042 10.5327 11.1279)" fill="#FFEA94"/>
</g>
<defs>
<linearGradient id="paint0_linear_22_567" x1="11.8716" y1="7.63623" x2="11.8716" y2="15.1724" gradientUnits="userSpaceOnUse">
<stop stop-color="#FFE885"/>
<stop offset="1" stop-color="#FFF4C6"/>
</linearGradient>
<linearGradient id="paint1_linear_22_567" x1="11.8716" y1="7.63623" x2="11.8716" y2="15.1724" gradientUnits="userSpaceOnUse">
<stop stop-color="#FFE885"/>
<stop offset="1" stop-color="#FFF4C6"/>
</linearGradient>
<linearGradient id="paint2_linear_22_567" x1="11.2192" y1="10.5557" x2="11.2192" y2="16.7077" gradientUnits="userSpaceOnUse">
<stop stop-color="#FFE885"/>
<stop offset="1" stop-color="#FFF4C6"/>
</linearGradient>
<clipPath id="clip0_22_567">
<rect width="17.4545" height="17.4545" fill="white" transform="translate(3.27271 3.27271)"/>
</clipPath>
</defs>
</svg>
