<svg width="24" height="24" viewBox="0 0 24 24" fill="none" xmlns="http://www.w3.org/2000/svg">
<rect x="3" y="3" width="18" height="18" rx="9" fill="url(#paint0_linear_66_595)"/>
<path d="M11.1341 9.35249C11.1341 8.74542 9.41993 6.44727 8.42181 6.44727C7.87936 6.44727 6.44727 7.85651 6.44727 9.30912C6.44726 10.7617 7.59524 12.4797 8.98597 14.0572C10.5363 15.8158 12.3275 17.1792 13.9766 17.3961C14.4973 17.4645 15.1265 17.5171 15.5388 17.331C16.2114 17.0275 17.1879 16.4204 17.3832 15.7266C17.4704 15.4169 17.4974 15.2036 17.3832 14.9028C17.1445 14.274 15.1699 13.0599 14.5841 12.9515C14.3508 12.9083 14.1912 12.8506 13.9766 12.9515C13.6077 13.1249 13.4473 13.5657 12.9784 13.667C12.1756 13.8404 10.4397 11.8891 10.2879 11.0869C10.2501 10.8873 10.2228 10.8268 10.2879 10.5666C10.3529 10.3064 11.1341 9.95955 11.1341 9.35249Z" fill="white" stroke="white" stroke-width="0.0437617"/>
<defs>
<linearGradient id="paint0_linear_66_595" x1="12" y1="3" x2="12" y2="21" gradientUnits="userSpaceOnUse">
<stop stop-color="#0A6DED"/>
<stop offset="0.864583" stop-color="#70E0FB"/>
</linearGradient>
</defs>
</svg>
